G04 #@! TF.FileFunction,Legend,Top*
%FSLAX46Y46*%
G04 Gerber Fmt 4.6, Leading zero omitted, Abs format (unit mm)*
G04 Created by KiCad (PCBNEW 4.0.2-stable) date Domenica 28 Maggio 2017 19:12:34*
%MOMM*%
G01*
G04 APERTURE LIST*
%ADD10C,0.100000*%
%ADD11C,0.150000*%
%ADD12C,0.200000*%
%ADD13C,0.010000*%
%ADD14C,0.002540*%
%ADD15C,0.075000*%
G04 APERTURE END LIST*
D10*
D11*
X171900001Y-104871429D02*
X172042858Y-105471429D01*
X172157144Y-105042857D01*
X172271430Y-105471429D01*
X172414287Y-104871429D01*
X172585715Y-104871429D02*
X172728572Y-105471429D01*
X172842858Y-105042857D01*
X172957144Y-105471429D01*
X173100001Y-104871429D01*
X173271429Y-104871429D02*
X173414286Y-105471429D01*
X173528572Y-105042857D01*
X173642858Y-105471429D01*
X173785715Y-104871429D01*
X174014286Y-105414286D02*
X174042858Y-105442857D01*
X174014286Y-105471429D01*
X173985715Y-105442857D01*
X174014286Y-105414286D01*
X174014286Y-105471429D01*
X174300000Y-105471429D02*
X174300000Y-104871429D01*
X174642857Y-105471429D01*
X174642857Y-104871429D01*
X175042857Y-104871429D02*
X175157143Y-104871429D01*
X175214285Y-104900000D01*
X175271428Y-104957143D01*
X175300000Y-105071429D01*
X175300000Y-105271429D01*
X175271428Y-105385714D01*
X175214285Y-105442857D01*
X175157143Y-105471429D01*
X175042857Y-105471429D01*
X174985714Y-105442857D01*
X174928571Y-105385714D01*
X174900000Y-105271429D01*
X174900000Y-105071429D01*
X174928571Y-104957143D01*
X174985714Y-104900000D01*
X175042857Y-104871429D01*
X175499999Y-104871429D02*
X175642856Y-105471429D01*
X175757142Y-105042857D01*
X175871428Y-105471429D01*
X176014285Y-104871429D01*
X176214285Y-105300000D02*
X176499999Y-105300000D01*
X176157142Y-105471429D02*
X176357142Y-104871429D01*
X176557142Y-105471429D01*
X176757142Y-105157143D02*
X176957142Y-105157143D01*
X177042856Y-105471429D02*
X176757142Y-105471429D01*
X176757142Y-104871429D01*
X177042856Y-104871429D01*
X177299999Y-105414286D02*
X177328571Y-105442857D01*
X177299999Y-105471429D01*
X177271428Y-105442857D01*
X177299999Y-105414286D01*
X177299999Y-105471429D01*
X177585713Y-105471429D02*
X177585713Y-104871429D01*
X177785713Y-104871429D02*
X178128570Y-104871429D01*
X177957141Y-105471429D02*
X177957141Y-104871429D01*
X172128571Y-107171429D02*
X172128571Y-106571429D01*
X172471428Y-107171429D01*
X172471428Y-106571429D01*
X172871428Y-106571429D02*
X172985714Y-106571429D01*
X173042856Y-106600000D01*
X173099999Y-106657143D01*
X173128571Y-106771429D01*
X173128571Y-106971429D01*
X173099999Y-107085714D01*
X173042856Y-107142857D01*
X172985714Y-107171429D01*
X172871428Y-107171429D01*
X172814285Y-107142857D01*
X172757142Y-107085714D01*
X172728571Y-106971429D01*
X172728571Y-106771429D01*
X172757142Y-106657143D01*
X172814285Y-106600000D01*
X172871428Y-106571429D01*
X173328570Y-106571429D02*
X173471427Y-107171429D01*
X173585713Y-106742857D01*
X173699999Y-107171429D01*
X173842856Y-106571429D01*
X174042856Y-107000000D02*
X174328570Y-107000000D01*
X173985713Y-107171429D02*
X174185713Y-106571429D01*
X174385713Y-107171429D01*
X174585713Y-106857143D02*
X174785713Y-106857143D01*
X174871427Y-107171429D02*
X174585713Y-107171429D01*
X174585713Y-106571429D01*
X174871427Y-106571429D01*
X175242856Y-106571429D02*
X175299999Y-106571429D01*
X175357142Y-106600000D01*
X175385713Y-106628571D01*
X175414284Y-106685714D01*
X175442856Y-106800000D01*
X175442856Y-106942857D01*
X175414284Y-107057143D01*
X175385713Y-107114286D01*
X175357142Y-107142857D01*
X175299999Y-107171429D01*
X175242856Y-107171429D01*
X175185713Y-107142857D01*
X175157142Y-107114286D01*
X175128570Y-107057143D01*
X175099999Y-106942857D01*
X175099999Y-106800000D01*
X175128570Y-106685714D01*
X175157142Y-106628571D01*
X175185713Y-106600000D01*
X175242856Y-106571429D01*
X175814285Y-106571429D02*
X175871428Y-106571429D01*
X175928571Y-106600000D01*
X175957142Y-106628571D01*
X175985713Y-106685714D01*
X176014285Y-106800000D01*
X176014285Y-106942857D01*
X175985713Y-107057143D01*
X175957142Y-107114286D01*
X175928571Y-107142857D01*
X175871428Y-107171429D01*
X175814285Y-107171429D01*
X175757142Y-107142857D01*
X175728571Y-107114286D01*
X175699999Y-107057143D01*
X175671428Y-106942857D01*
X175671428Y-106800000D01*
X175699999Y-106685714D01*
X175728571Y-106628571D01*
X175757142Y-106600000D01*
X175814285Y-106571429D01*
X176528571Y-106771429D02*
X176528571Y-107171429D01*
X176385714Y-106542857D02*
X176242857Y-106971429D01*
X176614285Y-106971429D01*
X176842857Y-106942857D02*
X177300000Y-106942857D01*
X177700000Y-106571429D02*
X177757143Y-106571429D01*
X177814286Y-106600000D01*
X177842857Y-106628571D01*
X177871428Y-106685714D01*
X177900000Y-106800000D01*
X177900000Y-106942857D01*
X177871428Y-107057143D01*
X177842857Y-107114286D01*
X177814286Y-107142857D01*
X177757143Y-107171429D01*
X177700000Y-107171429D01*
X177642857Y-107142857D01*
X177614286Y-107114286D01*
X177585714Y-107057143D01*
X177557143Y-106942857D01*
X177557143Y-106800000D01*
X177585714Y-106685714D01*
X177614286Y-106628571D01*
X177642857Y-106600000D01*
X177700000Y-106571429D01*
D12*
X135890000Y-90170000D02*
X171450000Y-90170000D01*
X171450000Y-87630000D02*
X135890000Y-87630000D01*
X135890000Y-85090000D02*
X171450000Y-85090000D01*
X135890000Y-92710000D02*
X135890000Y-82550000D01*
X171450000Y-92710000D02*
X135890000Y-92710000D01*
X171450000Y-82550000D02*
X171450000Y-92710000D01*
X135890000Y-82550000D02*
X171450000Y-82550000D01*
X189230000Y-90170000D02*
X189230000Y-87630000D01*
X186690000Y-90170000D02*
X189230000Y-90170000D01*
X186690000Y-87630000D02*
X186690000Y-90170000D01*
X186690000Y-87630000D02*
X186690000Y-85090000D01*
X189230000Y-87630000D02*
X186690000Y-87630000D01*
X189230000Y-85090000D02*
X189230000Y-87630000D01*
X186690000Y-85090000D02*
X189230000Y-85090000D01*
X172380476Y-90728095D02*
X173185238Y-90728095D01*
X172751905Y-91223333D01*
X172937619Y-91223333D01*
X173061429Y-91285238D01*
X173123333Y-91347143D01*
X173185238Y-91470952D01*
X173185238Y-91780476D01*
X173123333Y-91904286D01*
X173061429Y-91966190D01*
X172937619Y-92028095D01*
X172566191Y-92028095D01*
X172442381Y-91966190D01*
X172380476Y-91904286D01*
X173556667Y-90728095D02*
X173990000Y-92028095D01*
X174423333Y-90728095D01*
X174732857Y-90728095D02*
X175537619Y-90728095D01*
X175104286Y-91223333D01*
X175290000Y-91223333D01*
X175413810Y-91285238D01*
X175475714Y-91347143D01*
X175537619Y-91470952D01*
X175537619Y-91780476D01*
X175475714Y-91904286D01*
X175413810Y-91966190D01*
X175290000Y-92028095D01*
X174918572Y-92028095D01*
X174794762Y-91966190D01*
X174732857Y-91904286D01*
X173742381Y-83108095D02*
X173123334Y-83108095D01*
X173061429Y-83727143D01*
X173123334Y-83665238D01*
X173247143Y-83603333D01*
X173556667Y-83603333D01*
X173680477Y-83665238D01*
X173742381Y-83727143D01*
X173804286Y-83850952D01*
X173804286Y-84160476D01*
X173742381Y-84284286D01*
X173680477Y-84346190D01*
X173556667Y-84408095D01*
X173247143Y-84408095D01*
X173123334Y-84346190D01*
X173061429Y-84284286D01*
X174175715Y-83108095D02*
X174609048Y-84408095D01*
X175042381Y-83108095D01*
X172999524Y-85710000D02*
X172875715Y-85648095D01*
X172690000Y-85648095D01*
X172504286Y-85710000D01*
X172380477Y-85833810D01*
X172318572Y-85957619D01*
X172256667Y-86205238D01*
X172256667Y-86390952D01*
X172318572Y-86638571D01*
X172380477Y-86762381D01*
X172504286Y-86886190D01*
X172690000Y-86948095D01*
X172813810Y-86948095D01*
X172999524Y-86886190D01*
X173061429Y-86824286D01*
X173061429Y-86390952D01*
X172813810Y-86390952D01*
X173618572Y-86948095D02*
X173618572Y-85648095D01*
X174361429Y-86948095D01*
X174361429Y-85648095D01*
X174980477Y-86948095D02*
X174980477Y-85648095D01*
X175290001Y-85648095D01*
X175475715Y-85710000D01*
X175599524Y-85833810D01*
X175661429Y-85957619D01*
X175723334Y-86205238D01*
X175723334Y-86390952D01*
X175661429Y-86638571D01*
X175599524Y-86762381D01*
X175475715Y-86886190D01*
X175290001Y-86948095D01*
X174980477Y-86948095D01*
X172999524Y-88250000D02*
X172875715Y-88188095D01*
X172690000Y-88188095D01*
X172504286Y-88250000D01*
X172380477Y-88373810D01*
X172318572Y-88497619D01*
X172256667Y-88745238D01*
X172256667Y-88930952D01*
X172318572Y-89178571D01*
X172380477Y-89302381D01*
X172504286Y-89426190D01*
X172690000Y-89488095D01*
X172813810Y-89488095D01*
X172999524Y-89426190D01*
X173061429Y-89364286D01*
X173061429Y-88930952D01*
X172813810Y-88930952D01*
X173618572Y-89488095D02*
X173618572Y-88188095D01*
X174361429Y-89488095D01*
X174361429Y-88188095D01*
X174980477Y-89488095D02*
X174980477Y-88188095D01*
X175290001Y-88188095D01*
X175475715Y-88250000D01*
X175599524Y-88373810D01*
X175661429Y-88497619D01*
X175723334Y-88745238D01*
X175723334Y-88930952D01*
X175661429Y-89178571D01*
X175599524Y-89302381D01*
X175475715Y-89426190D01*
X175290001Y-89488095D01*
X174980477Y-89488095D01*
X189400000Y-89000000D02*
X189900000Y-89500000D01*
X189400000Y-89000000D02*
X189900000Y-88500000D01*
X190900000Y-89000000D02*
X189400000Y-89000000D01*
X189400000Y-86500000D02*
X189900000Y-87000000D01*
X189400000Y-86500000D02*
X189900000Y-86000000D01*
X190900000Y-86500000D02*
X189400000Y-86500000D01*
X198383333Y-86788095D02*
X197764286Y-86788095D01*
X197764286Y-85488095D01*
X198754762Y-85611905D02*
X198816667Y-85550000D01*
X198940476Y-85488095D01*
X199250000Y-85488095D01*
X199373810Y-85550000D01*
X199435714Y-85611905D01*
X199497619Y-85735714D01*
X199497619Y-85859524D01*
X199435714Y-86045238D01*
X198692857Y-86788095D01*
X199497619Y-86788095D01*
X198383333Y-89588095D02*
X197764286Y-89588095D01*
X197764286Y-88288095D01*
X199497619Y-89588095D02*
X198754762Y-89588095D01*
X199126191Y-89588095D02*
X199126191Y-88288095D01*
X199002381Y-88473810D01*
X198878572Y-88597619D01*
X198754762Y-88659524D01*
X198352381Y-92288095D02*
X197733334Y-92288095D01*
X197671429Y-92907143D01*
X197733334Y-92845238D01*
X197857143Y-92783333D01*
X198166667Y-92783333D01*
X198290477Y-92845238D01*
X198352381Y-92907143D01*
X198414286Y-93030952D01*
X198414286Y-93340476D01*
X198352381Y-93464286D01*
X198290477Y-93526190D01*
X198166667Y-93588095D01*
X197857143Y-93588095D01*
X197733334Y-93526190D01*
X197671429Y-93464286D01*
X198785715Y-92288095D02*
X199219048Y-93588095D01*
X199652381Y-92288095D01*
X197509525Y-83088095D02*
X198252382Y-83088095D01*
X197880953Y-84388095D02*
X197880953Y-83088095D01*
X198561905Y-83088095D02*
X199428572Y-84388095D01*
X199428572Y-83088095D02*
X198561905Y-84388095D01*
X198283334Y-82388095D02*
X197850001Y-81769048D01*
X197540477Y-82388095D02*
X197540477Y-81088095D01*
X198035715Y-81088095D01*
X198159524Y-81150000D01*
X198221429Y-81211905D01*
X198283334Y-81335714D01*
X198283334Y-81521429D01*
X198221429Y-81645238D01*
X198159524Y-81707143D01*
X198035715Y-81769048D01*
X197540477Y-81769048D01*
X198716667Y-81088095D02*
X199583334Y-82388095D01*
X199583334Y-81088095D02*
X198716667Y-82388095D01*
D11*
X189400000Y-100600000D02*
X189800000Y-100600000D01*
X189800000Y-100600000D02*
X189800000Y-105200000D01*
X189800000Y-105200000D02*
X189400000Y-105200000D01*
X189400000Y-101300000D02*
X189800000Y-101300000D01*
X187000000Y-101300000D02*
X187400000Y-101300000D01*
X187000000Y-105200000D02*
X187400000Y-105200000D01*
X187000000Y-105200000D02*
X187000000Y-100600000D01*
X187000000Y-100600000D02*
X187400000Y-100600000D01*
X187800000Y-103300000D02*
X188400000Y-102500000D01*
X188400000Y-102500000D02*
X189000000Y-103300000D01*
D10*
X192600000Y-92600000D02*
X191600000Y-92600000D01*
X192600000Y-93200000D02*
X191600000Y-93200000D01*
X191400000Y-84100000D02*
X192400000Y-84100000D01*
X191400000Y-83500000D02*
X192400000Y-83500000D01*
X192400000Y-81500000D02*
X191400000Y-81500000D01*
X192400000Y-82100000D02*
X191400000Y-82100000D01*
X181500000Y-101500000D02*
X181500000Y-100500000D01*
X180900000Y-101500000D02*
X180900000Y-100500000D01*
X191600000Y-86700000D02*
X192600000Y-86700000D01*
X191600000Y-86100000D02*
X192600000Y-86100000D01*
X192600000Y-88700000D02*
X191600000Y-88700000D01*
X192600000Y-89300000D02*
X191600000Y-89300000D01*
X191100000Y-75800000D02*
X192100000Y-75800000D01*
X191100000Y-75200000D02*
X192100000Y-75200000D01*
X192100000Y-76400000D02*
X191100000Y-76400000D01*
X192100000Y-77000000D02*
X191100000Y-77000000D01*
D11*
X193750000Y-74270000D02*
X193750000Y-72970000D01*
X195250000Y-71770000D02*
X197050000Y-71770000D01*
X199250000Y-79670000D02*
X199850000Y-79670000D01*
X199850000Y-79670000D02*
X199850000Y-72070000D01*
X199850000Y-72070000D02*
X199250000Y-72070000D01*
X198950000Y-79970000D02*
X199250000Y-79970000D01*
X199250000Y-79970000D02*
X199250000Y-71770000D01*
X199250000Y-71770000D02*
X198950000Y-71770000D01*
X195250000Y-79970000D02*
X197050000Y-79970000D01*
X193750000Y-77470000D02*
X193750000Y-78770000D01*
X197910000Y-103420000D02*
X199210000Y-103420000D01*
X199210000Y-103420000D02*
X199210000Y-95820000D01*
X199210000Y-95820000D02*
X197910000Y-95820000D01*
X190710000Y-103420000D02*
X190710000Y-95820000D01*
X190710000Y-95820000D02*
X197910000Y-95820000D01*
X197910000Y-95820000D02*
X197910000Y-103420000D01*
X197910000Y-103420000D02*
X190710000Y-103420000D01*
X195700000Y-84100000D02*
X195300000Y-83800000D01*
X195300000Y-83800000D02*
X195700000Y-83500000D01*
X196300000Y-83300000D02*
X194700000Y-83300000D01*
X196300000Y-84300000D02*
X194700000Y-84300000D01*
X195700000Y-82100000D02*
X195300000Y-81800000D01*
X195300000Y-81800000D02*
X195700000Y-81500000D01*
X196300000Y-81300000D02*
X194700000Y-81300000D01*
X196300000Y-82300000D02*
X194700000Y-82300000D01*
X194900000Y-92600000D02*
X195300000Y-92900000D01*
X195300000Y-92900000D02*
X194900000Y-93200000D01*
X194300000Y-93400000D02*
X195900000Y-93400000D01*
X194300000Y-92400000D02*
X195900000Y-92400000D01*
X194900000Y-86100000D02*
X195300000Y-86400000D01*
X195300000Y-86400000D02*
X194900000Y-86700000D01*
X194300000Y-86900000D02*
X195900000Y-86900000D01*
X194300000Y-85900000D02*
X195900000Y-85900000D01*
X194900000Y-88700000D02*
X195300000Y-89000000D01*
X195300000Y-89000000D02*
X194900000Y-89300000D01*
X194300000Y-89500000D02*
X195900000Y-89500000D01*
X194300000Y-88500000D02*
X195900000Y-88500000D01*
X184150000Y-96500000D02*
X180950000Y-96500000D01*
X180950000Y-94700000D02*
X184150000Y-94700000D01*
D10*
X189700000Y-79400000D02*
X190700000Y-79400000D01*
X189700000Y-78800000D02*
X190700000Y-78800000D01*
X185500000Y-102000000D02*
X184500000Y-102000000D01*
X185500000Y-102600000D02*
X184500000Y-102600000D01*
X192100000Y-74000000D02*
X191100000Y-74000000D01*
X192100000Y-74600000D02*
X191100000Y-74600000D01*
D11*
X189100000Y-95150000D02*
X189100000Y-98350000D01*
X187300000Y-98350000D02*
X187300000Y-95150000D01*
D10*
X192100000Y-77600000D02*
X191100000Y-77600000D01*
X192100000Y-78200000D02*
X191100000Y-78200000D01*
D11*
X80010000Y-110490000D02*
X82550000Y-110490000D01*
X82550000Y-110490000D02*
X82550000Y-107950000D01*
X80010000Y-107950000D02*
X80010000Y-113030000D01*
X80010000Y-113030000D02*
X100330000Y-113030000D01*
X100330000Y-113030000D02*
X100330000Y-107950000D01*
X100330000Y-107950000D02*
X80010000Y-107950000D01*
X102870000Y-110490000D02*
X105410000Y-110490000D01*
X105410000Y-110490000D02*
X105410000Y-107950000D01*
X118110000Y-107950000D02*
X118110000Y-113030000D01*
X118110000Y-113030000D02*
X102870000Y-113030000D01*
X102870000Y-113030000D02*
X102870000Y-107950000D01*
X102870000Y-107950000D02*
X118110000Y-107950000D01*
X118110000Y-107950000D02*
X118110000Y-113030000D01*
X115570000Y-67310000D02*
X115570000Y-64770000D01*
X115570000Y-64770000D02*
X118110000Y-64770000D01*
X97790000Y-62230000D02*
X97790000Y-67310000D01*
X97790000Y-67310000D02*
X118110000Y-67310000D01*
X118110000Y-67310000D02*
X118110000Y-62230000D01*
X118110000Y-62230000D02*
X97790000Y-62230000D01*
X97790000Y-62230000D02*
X97790000Y-67310000D01*
X93980000Y-67310000D02*
X93980000Y-64770000D01*
X93980000Y-64770000D02*
X96520000Y-64770000D01*
X71120000Y-62230000D02*
X96520000Y-62230000D01*
X96520000Y-62230000D02*
X96520000Y-67310000D01*
X96520000Y-67310000D02*
X71120000Y-67310000D01*
X71120000Y-67310000D02*
X71120000Y-62230000D01*
X183200000Y-78100000D02*
X183300000Y-78100000D01*
X183200000Y-74300000D02*
X183300000Y-74300000D01*
X188400000Y-74300000D02*
X188300000Y-74300000D01*
X188400000Y-78100000D02*
X188300000Y-78100000D01*
X183200000Y-74300000D02*
X183200000Y-78100000D01*
X188400000Y-74300000D02*
X188400000Y-78100000D01*
X188900000Y-73200000D02*
X188600000Y-73600000D01*
X188600000Y-73600000D02*
X188900000Y-74000000D01*
X188900000Y-74000000D02*
X188900000Y-73200000D01*
X199100000Y-58000000D02*
G75*
G03X199100000Y-58000000I-3100000J0D01*
G01*
X199100000Y-118000000D02*
G75*
G03X199100000Y-118000000I-3100000J0D01*
G01*
X57100000Y-118000000D02*
G75*
G03X57100000Y-118000000I-3100000J0D01*
G01*
X57100000Y-58000000D02*
G75*
G03X57100000Y-58000000I-3100000J0D01*
G01*
X179300000Y-97900000D02*
X179300000Y-98600000D01*
X179300000Y-96300000D02*
X179300000Y-95600000D01*
X179800000Y-97500000D02*
X179300000Y-97900000D01*
X179800000Y-96700000D02*
X179300000Y-96300000D01*
X179800000Y-96700000D02*
X179800000Y-97500000D01*
X177300000Y-98600000D02*
X176800000Y-98600000D01*
X176800000Y-98600000D02*
X176800000Y-95600000D01*
X176800000Y-95600000D02*
X177300000Y-95600000D01*
D10*
X187400000Y-71650000D02*
X187400000Y-70250000D01*
X187400000Y-70250000D02*
X188600000Y-70250000D01*
X188600000Y-70250000D02*
X188600000Y-71650000D01*
X188600000Y-71650000D02*
X187400000Y-71650000D01*
X185530000Y-71650000D02*
X185530000Y-70250000D01*
X185530000Y-70250000D02*
X186730000Y-70250000D01*
X186730000Y-70250000D02*
X186730000Y-71650000D01*
X186730000Y-71650000D02*
X185530000Y-71650000D01*
D11*
X181975000Y-98450000D02*
X181675000Y-98150000D01*
X181675000Y-98750000D02*
X181975000Y-98450000D01*
X181675000Y-98150000D02*
X181675000Y-98750000D01*
X185175000Y-100750000D02*
X185675000Y-100750000D01*
X185675000Y-100750000D02*
X185675000Y-100250000D01*
X182675000Y-100250000D02*
X182675000Y-100750000D01*
X182675000Y-100750000D02*
X183175000Y-100750000D01*
X183175000Y-97750000D02*
X182675000Y-97750000D01*
X182675000Y-97750000D02*
X182675000Y-98250000D01*
X185175000Y-97750000D02*
X185675000Y-97750000D01*
X185675000Y-97750000D02*
X185675000Y-98250000D01*
D13*
G36*
X172798666Y-103789435D02*
X172798667Y-103550009D01*
X172798667Y-103310583D01*
X172941542Y-103310583D01*
X172941542Y-104003792D01*
X172796064Y-104003792D01*
X172559240Y-103767011D01*
X172322416Y-103530231D01*
X172322417Y-103767011D01*
X172322417Y-104003792D01*
X172179542Y-104003792D01*
X172179542Y-103310583D01*
X172319728Y-103310583D01*
X172798666Y-103789435D01*
X172798666Y-103789435D01*
G37*
X172798666Y-103789435D02*
X172798667Y-103550009D01*
X172798667Y-103310583D01*
X172941542Y-103310583D01*
X172941542Y-104003792D01*
X172796064Y-104003792D01*
X172559240Y-103767011D01*
X172322416Y-103530231D01*
X172322417Y-103767011D01*
X172322417Y-104003792D01*
X172179542Y-104003792D01*
X172179542Y-103310583D01*
X172319728Y-103310583D01*
X172798666Y-103789435D01*
G36*
X173346168Y-103311369D02*
X173370167Y-103311529D01*
X173425591Y-103311953D01*
X173471448Y-103312366D01*
X173508752Y-103312821D01*
X173538519Y-103313372D01*
X173561764Y-103314070D01*
X173579502Y-103314971D01*
X173592749Y-103316126D01*
X173602519Y-103317588D01*
X173609829Y-103319411D01*
X173615694Y-103321649D01*
X173621128Y-103324353D01*
X173621759Y-103324689D01*
X173643621Y-103339781D01*
X173664891Y-103360199D01*
X173682566Y-103382646D01*
X173693581Y-103403633D01*
X173695403Y-103410837D01*
X173696915Y-103421787D01*
X173698141Y-103437362D01*
X173699107Y-103458439D01*
X173699836Y-103485900D01*
X173700355Y-103520622D01*
X173700687Y-103563485D01*
X173700858Y-103615369D01*
X173700896Y-103662479D01*
X173700896Y-103900604D01*
X173688546Y-103925680D01*
X173672911Y-103949691D01*
X173651779Y-103971740D01*
X173628294Y-103988976D01*
X173609314Y-103997568D01*
X173599551Y-103999243D01*
X173582109Y-104000632D01*
X173556520Y-104001747D01*
X173522319Y-104002598D01*
X173479039Y-104003196D01*
X173426211Y-104003552D01*
X173363371Y-104003678D01*
X173348386Y-104003675D01*
X173291282Y-104003621D01*
X173243774Y-104003495D01*
X173204875Y-104003260D01*
X173173599Y-104002879D01*
X173148960Y-104002316D01*
X173129969Y-104001532D01*
X173115640Y-104000491D01*
X173104986Y-103999156D01*
X173097021Y-103997491D01*
X173090758Y-103995458D01*
X173087062Y-103993891D01*
X173066040Y-103980512D01*
X173044918Y-103960875D01*
X173026917Y-103938458D01*
X173015256Y-103916739D01*
X173015002Y-103916034D01*
X173013190Y-103908869D01*
X173011685Y-103897974D01*
X173010462Y-103882476D01*
X173009497Y-103861499D01*
X173008766Y-103834169D01*
X173008244Y-103799611D01*
X173007907Y-103756952D01*
X173007730Y-103705317D01*
X173007723Y-103696947D01*
X173148521Y-103696947D01*
X173148564Y-103736196D01*
X173149250Y-103767231D01*
X173150758Y-103791238D01*
X173153264Y-103809399D01*
X173156948Y-103822897D01*
X173161988Y-103832917D01*
X173168561Y-103840641D01*
X173176847Y-103847253D01*
X173179126Y-103848817D01*
X173184552Y-103852288D01*
X173190173Y-103855022D01*
X173197247Y-103857108D01*
X173207035Y-103858633D01*
X173220798Y-103859684D01*
X173239794Y-103860351D01*
X173265285Y-103860719D01*
X173298529Y-103860879D01*
X173340787Y-103860916D01*
X173352691Y-103860917D01*
X173399561Y-103860823D01*
X173436979Y-103860510D01*
X173466073Y-103859925D01*
X173487975Y-103859019D01*
X173503813Y-103857740D01*
X173514716Y-103856037D01*
X173521816Y-103853860D01*
X173523102Y-103853249D01*
X173536941Y-103843102D01*
X173547974Y-103830760D01*
X173550862Y-103825852D01*
X173553140Y-103819804D01*
X173554878Y-103811386D01*
X173556150Y-103799367D01*
X173557026Y-103782520D01*
X173557579Y-103759613D01*
X173557881Y-103729419D01*
X173558003Y-103690706D01*
X173558021Y-103658898D01*
X173558151Y-103606858D01*
X173557898Y-103564411D01*
X173556296Y-103530584D01*
X173552380Y-103504403D01*
X173545183Y-103484894D01*
X173533740Y-103471084D01*
X173517085Y-103461998D01*
X173494253Y-103456664D01*
X173464278Y-103454106D01*
X173426193Y-103453353D01*
X173379034Y-103453429D01*
X173354292Y-103453475D01*
X173307427Y-103453568D01*
X173269893Y-103453992D01*
X173240440Y-103454964D01*
X173217816Y-103456702D01*
X173200770Y-103459421D01*
X173188050Y-103463339D01*
X173178406Y-103468673D01*
X173170586Y-103475641D01*
X173163339Y-103484458D01*
X173161522Y-103486907D01*
X173158274Y-103491845D01*
X173155716Y-103497639D01*
X173153748Y-103505573D01*
X173152268Y-103516932D01*
X173151178Y-103533002D01*
X173150377Y-103555066D01*
X173149764Y-103584410D01*
X173149240Y-103622319D01*
X173148942Y-103648303D01*
X173148521Y-103696947D01*
X173007723Y-103696947D01*
X173007687Y-103654542D01*
X173007687Y-103413771D01*
X173023562Y-103385087D01*
X173045278Y-103355574D01*
X173073274Y-103332564D01*
X173105228Y-103317847D01*
X173113521Y-103315682D01*
X173126916Y-103314011D01*
X173150321Y-103312723D01*
X173183843Y-103311816D01*
X173227587Y-103311289D01*
X173281660Y-103311141D01*
X173346168Y-103311369D01*
X173346168Y-103311369D01*
G37*
X173346168Y-103311369D02*
X173370167Y-103311529D01*
X173425591Y-103311953D01*
X173471448Y-103312366D01*
X173508752Y-103312821D01*
X173538519Y-103313372D01*
X173561764Y-103314070D01*
X173579502Y-103314971D01*
X173592749Y-103316126D01*
X173602519Y-103317588D01*
X173609829Y-103319411D01*
X173615694Y-103321649D01*
X173621128Y-103324353D01*
X173621759Y-103324689D01*
X173643621Y-103339781D01*
X173664891Y-103360199D01*
X173682566Y-103382646D01*
X173693581Y-103403633D01*
X173695403Y-103410837D01*
X173696915Y-103421787D01*
X173698141Y-103437362D01*
X173699107Y-103458439D01*
X173699836Y-103485900D01*
X173700355Y-103520622D01*
X173700687Y-103563485D01*
X173700858Y-103615369D01*
X173700896Y-103662479D01*
X173700896Y-103900604D01*
X173688546Y-103925680D01*
X173672911Y-103949691D01*
X173651779Y-103971740D01*
X173628294Y-103988976D01*
X173609314Y-103997568D01*
X173599551Y-103999243D01*
X173582109Y-104000632D01*
X173556520Y-104001747D01*
X173522319Y-104002598D01*
X173479039Y-104003196D01*
X173426211Y-104003552D01*
X173363371Y-104003678D01*
X173348386Y-104003675D01*
X173291282Y-104003621D01*
X173243774Y-104003495D01*
X173204875Y-104003260D01*
X173173599Y-104002879D01*
X173148960Y-104002316D01*
X173129969Y-104001532D01*
X173115640Y-104000491D01*
X173104986Y-103999156D01*
X173097021Y-103997491D01*
X173090758Y-103995458D01*
X173087062Y-103993891D01*
X173066040Y-103980512D01*
X173044918Y-103960875D01*
X173026917Y-103938458D01*
X173015256Y-103916739D01*
X173015002Y-103916034D01*
X173013190Y-103908869D01*
X173011685Y-103897974D01*
X173010462Y-103882476D01*
X173009497Y-103861499D01*
X173008766Y-103834169D01*
X173008244Y-103799611D01*
X173007907Y-103756952D01*
X173007730Y-103705317D01*
X173007723Y-103696947D01*
X173148521Y-103696947D01*
X173148564Y-103736196D01*
X173149250Y-103767231D01*
X173150758Y-103791238D01*
X173153264Y-103809399D01*
X173156948Y-103822897D01*
X173161988Y-103832917D01*
X173168561Y-103840641D01*
X173176847Y-103847253D01*
X173179126Y-103848817D01*
X173184552Y-103852288D01*
X173190173Y-103855022D01*
X173197247Y-103857108D01*
X173207035Y-103858633D01*
X173220798Y-103859684D01*
X173239794Y-103860351D01*
X173265285Y-103860719D01*
X173298529Y-103860879D01*
X173340787Y-103860916D01*
X173352691Y-103860917D01*
X173399561Y-103860823D01*
X173436979Y-103860510D01*
X173466073Y-103859925D01*
X173487975Y-103859019D01*
X173503813Y-103857740D01*
X173514716Y-103856037D01*
X173521816Y-103853860D01*
X173523102Y-103853249D01*
X173536941Y-103843102D01*
X173547974Y-103830760D01*
X173550862Y-103825852D01*
X173553140Y-103819804D01*
X173554878Y-103811386D01*
X173556150Y-103799367D01*
X173557026Y-103782520D01*
X173557579Y-103759613D01*
X173557881Y-103729419D01*
X173558003Y-103690706D01*
X173558021Y-103658898D01*
X173558151Y-103606858D01*
X173557898Y-103564411D01*
X173556296Y-103530584D01*
X173552380Y-103504403D01*
X173545183Y-103484894D01*
X173533740Y-103471084D01*
X173517085Y-103461998D01*
X173494253Y-103456664D01*
X173464278Y-103454106D01*
X173426193Y-103453353D01*
X173379034Y-103453429D01*
X173354292Y-103453475D01*
X173307427Y-103453568D01*
X173269893Y-103453992D01*
X173240440Y-103454964D01*
X173217816Y-103456702D01*
X173200770Y-103459421D01*
X173188050Y-103463339D01*
X173178406Y-103468673D01*
X173170586Y-103475641D01*
X173163339Y-103484458D01*
X173161522Y-103486907D01*
X173158274Y-103491845D01*
X173155716Y-103497639D01*
X173153748Y-103505573D01*
X173152268Y-103516932D01*
X173151178Y-103533002D01*
X173150377Y-103555066D01*
X173149764Y-103584410D01*
X173149240Y-103622319D01*
X173148942Y-103648303D01*
X173148521Y-103696947D01*
X173007723Y-103696947D01*
X173007687Y-103654542D01*
X173007687Y-103413771D01*
X173023562Y-103385087D01*
X173045278Y-103355574D01*
X173073274Y-103332564D01*
X173105228Y-103317847D01*
X173113521Y-103315682D01*
X173126916Y-103314011D01*
X173150321Y-103312723D01*
X173183843Y-103311816D01*
X173227587Y-103311289D01*
X173281660Y-103311141D01*
X173346168Y-103311369D01*
G36*
X174400719Y-103514312D02*
X174503906Y-103720633D01*
X174606446Y-103515608D01*
X174708985Y-103310583D01*
X174780409Y-103310583D01*
X174806519Y-103310768D01*
X174828350Y-103311276D01*
X174843972Y-103312035D01*
X174851457Y-103312972D01*
X174851833Y-103313245D01*
X174849523Y-103318780D01*
X174842897Y-103332783D01*
X174832411Y-103354351D01*
X174818523Y-103382576D01*
X174801687Y-103416554D01*
X174782360Y-103455378D01*
X174760999Y-103498145D01*
X174738059Y-103543947D01*
X174713998Y-103591879D01*
X174689272Y-103641036D01*
X174664336Y-103690513D01*
X174639647Y-103739403D01*
X174615661Y-103786802D01*
X174592836Y-103831803D01*
X174571626Y-103873501D01*
X174552488Y-103910991D01*
X174535880Y-103943367D01*
X174522256Y-103969724D01*
X174512073Y-103989156D01*
X174505787Y-104000757D01*
X174503866Y-104003792D01*
X174500733Y-103999212D01*
X174493407Y-103986120D01*
X174482392Y-103965489D01*
X174468193Y-103938289D01*
X174451316Y-103905492D01*
X174432264Y-103868070D01*
X174411543Y-103826995D01*
X174398713Y-103801390D01*
X174297554Y-103598988D01*
X174196326Y-103801390D01*
X174174843Y-103844165D01*
X174154732Y-103883861D01*
X174136499Y-103919508D01*
X174120648Y-103950133D01*
X174107685Y-103974765D01*
X174098114Y-103992433D01*
X174092440Y-104002165D01*
X174091123Y-104003792D01*
X174088166Y-103999178D01*
X174080878Y-103985836D01*
X174069641Y-103964512D01*
X174054839Y-103935955D01*
X174036853Y-103900911D01*
X174016066Y-103860127D01*
X173992861Y-103814352D01*
X173967619Y-103764332D01*
X173940722Y-103710815D01*
X173916512Y-103662468D01*
X173888527Y-103606419D01*
X173861971Y-103553093D01*
X173837219Y-103503251D01*
X173814646Y-103457655D01*
X173794625Y-103417065D01*
X173777532Y-103382241D01*
X173763741Y-103353946D01*
X173753626Y-103332940D01*
X173747563Y-103319983D01*
X173745875Y-103315864D01*
X173750980Y-103313627D01*
X173765571Y-103311947D01*
X173788560Y-103310906D01*
X173816021Y-103310583D01*
X173886168Y-103310583D01*
X173988651Y-103515631D01*
X174091133Y-103720679D01*
X174194332Y-103514335D01*
X174297531Y-103307992D01*
X174400719Y-103514312D01*
X174400719Y-103514312D01*
G37*
X174400719Y-103514312D02*
X174503906Y-103720633D01*
X174606446Y-103515608D01*
X174708985Y-103310583D01*
X174780409Y-103310583D01*
X174806519Y-103310768D01*
X174828350Y-103311276D01*
X174843972Y-103312035D01*
X174851457Y-103312972D01*
X174851833Y-103313245D01*
X174849523Y-103318780D01*
X174842897Y-103332783D01*
X174832411Y-103354351D01*
X174818523Y-103382576D01*
X174801687Y-103416554D01*
X174782360Y-103455378D01*
X174760999Y-103498145D01*
X174738059Y-103543947D01*
X174713998Y-103591879D01*
X174689272Y-103641036D01*
X174664336Y-103690513D01*
X174639647Y-103739403D01*
X174615661Y-103786802D01*
X174592836Y-103831803D01*
X174571626Y-103873501D01*
X174552488Y-103910991D01*
X174535880Y-103943367D01*
X174522256Y-103969724D01*
X174512073Y-103989156D01*
X174505787Y-104000757D01*
X174503866Y-104003792D01*
X174500733Y-103999212D01*
X174493407Y-103986120D01*
X174482392Y-103965489D01*
X174468193Y-103938289D01*
X174451316Y-103905492D01*
X174432264Y-103868070D01*
X174411543Y-103826995D01*
X174398713Y-103801390D01*
X174297554Y-103598988D01*
X174196326Y-103801390D01*
X174174843Y-103844165D01*
X174154732Y-103883861D01*
X174136499Y-103919508D01*
X174120648Y-103950133D01*
X174107685Y-103974765D01*
X174098114Y-103992433D01*
X174092440Y-104002165D01*
X174091123Y-104003792D01*
X174088166Y-103999178D01*
X174080878Y-103985836D01*
X174069641Y-103964512D01*
X174054839Y-103935955D01*
X174036853Y-103900911D01*
X174016066Y-103860127D01*
X173992861Y-103814352D01*
X173967619Y-103764332D01*
X173940722Y-103710815D01*
X173916512Y-103662468D01*
X173888527Y-103606419D01*
X173861971Y-103553093D01*
X173837219Y-103503251D01*
X173814646Y-103457655D01*
X173794625Y-103417065D01*
X173777532Y-103382241D01*
X173763741Y-103353946D01*
X173753626Y-103332940D01*
X173747563Y-103319983D01*
X173745875Y-103315864D01*
X173750980Y-103313627D01*
X173765571Y-103311947D01*
X173788560Y-103310906D01*
X173816021Y-103310583D01*
X173886168Y-103310583D01*
X173988651Y-103515631D01*
X174091133Y-103720679D01*
X174194332Y-103514335D01*
X174297531Y-103307992D01*
X174400719Y-103514312D01*
G36*
X175058219Y-103315169D02*
X175065141Y-103328321D01*
X175075872Y-103349135D01*
X175089957Y-103376705D01*
X175106943Y-103410123D01*
X175126374Y-103448485D01*
X175147796Y-103490885D01*
X175170754Y-103536417D01*
X175194794Y-103584174D01*
X175219460Y-103633251D01*
X175244298Y-103682742D01*
X175268853Y-103731741D01*
X175292671Y-103779343D01*
X175315297Y-103824641D01*
X175336276Y-103866729D01*
X175355153Y-103904701D01*
X175371474Y-103937652D01*
X175384784Y-103964676D01*
X175394628Y-103984866D01*
X175400552Y-103997318D01*
X175402167Y-104001130D01*
X175397193Y-104002093D01*
X175383545Y-104002901D01*
X175363129Y-104003484D01*
X175337855Y-104003773D01*
X175329219Y-104003792D01*
X175256271Y-104003792D01*
X175222349Y-103935000D01*
X174885855Y-103935000D01*
X174868893Y-103969396D01*
X174851932Y-104003792D01*
X174780445Y-104003792D01*
X174754322Y-104003606D01*
X174732479Y-104003099D01*
X174716842Y-104002341D01*
X174709339Y-104001405D01*
X174708958Y-104001130D01*
X174711260Y-103995836D01*
X174717861Y-103982046D01*
X174728309Y-103960667D01*
X174742146Y-103932604D01*
X174758920Y-103898763D01*
X174778175Y-103860049D01*
X174799457Y-103817370D01*
X174812070Y-103792125D01*
X174957611Y-103792125D01*
X175052889Y-103792125D01*
X175083296Y-103791916D01*
X175109660Y-103791336D01*
X175130316Y-103790455D01*
X175143602Y-103789342D01*
X175147886Y-103788156D01*
X175145519Y-103782412D01*
X175139088Y-103768744D01*
X175129327Y-103748658D01*
X175116970Y-103723664D01*
X175102750Y-103695269D01*
X175100922Y-103691642D01*
X175054238Y-103599097D01*
X175005924Y-103695611D01*
X174957611Y-103792125D01*
X174812070Y-103792125D01*
X174822310Y-103771630D01*
X174846281Y-103723736D01*
X174870914Y-103674593D01*
X174895755Y-103625108D01*
X174920349Y-103576186D01*
X174944242Y-103528733D01*
X174966978Y-103483656D01*
X174988103Y-103441859D01*
X175007162Y-103404250D01*
X175023701Y-103371733D01*
X175037265Y-103345215D01*
X175047399Y-103325602D01*
X175053649Y-103313799D01*
X175055562Y-103310583D01*
X175058219Y-103315169D01*
X175058219Y-103315169D01*
G37*
X175058219Y-103315169D02*
X175065141Y-103328321D01*
X175075872Y-103349135D01*
X175089957Y-103376705D01*
X175106943Y-103410123D01*
X175126374Y-103448485D01*
X175147796Y-103490885D01*
X175170754Y-103536417D01*
X175194794Y-103584174D01*
X175219460Y-103633251D01*
X175244298Y-103682742D01*
X175268853Y-103731741D01*
X175292671Y-103779343D01*
X175315297Y-103824641D01*
X175336276Y-103866729D01*
X175355153Y-103904701D01*
X175371474Y-103937652D01*
X175384784Y-103964676D01*
X175394628Y-103984866D01*
X175400552Y-103997318D01*
X175402167Y-104001130D01*
X175397193Y-104002093D01*
X175383545Y-104002901D01*
X175363129Y-104003484D01*
X175337855Y-104003773D01*
X175329219Y-104003792D01*
X175256271Y-104003792D01*
X175222349Y-103935000D01*
X174885855Y-103935000D01*
X174868893Y-103969396D01*
X174851932Y-104003792D01*
X174780445Y-104003792D01*
X174754322Y-104003606D01*
X174732479Y-104003099D01*
X174716842Y-104002341D01*
X174709339Y-104001405D01*
X174708958Y-104001130D01*
X174711260Y-103995836D01*
X174717861Y-103982046D01*
X174728309Y-103960667D01*
X174742146Y-103932604D01*
X174758920Y-103898763D01*
X174778175Y-103860049D01*
X174799457Y-103817370D01*
X174812070Y-103792125D01*
X174957611Y-103792125D01*
X175052889Y-103792125D01*
X175083296Y-103791916D01*
X175109660Y-103791336D01*
X175130316Y-103790455D01*
X175143602Y-103789342D01*
X175147886Y-103788156D01*
X175145519Y-103782412D01*
X175139088Y-103768744D01*
X175129327Y-103748658D01*
X175116970Y-103723664D01*
X175102750Y-103695269D01*
X175100922Y-103691642D01*
X175054238Y-103599097D01*
X175005924Y-103695611D01*
X174957611Y-103792125D01*
X174812070Y-103792125D01*
X174822310Y-103771630D01*
X174846281Y-103723736D01*
X174870914Y-103674593D01*
X174895755Y-103625108D01*
X174920349Y-103576186D01*
X174944242Y-103528733D01*
X174966978Y-103483656D01*
X174988103Y-103441859D01*
X175007162Y-103404250D01*
X175023701Y-103371733D01*
X175037265Y-103345215D01*
X175047399Y-103325602D01*
X175053649Y-103313799D01*
X175055562Y-103310583D01*
X175058219Y-103315169D01*
G36*
X176065837Y-102921153D02*
X176135815Y-102930609D01*
X176201889Y-102949081D01*
X176263358Y-102976180D01*
X176319519Y-103011521D01*
X176369671Y-103054717D01*
X176413113Y-103105382D01*
X176449143Y-103163128D01*
X176455801Y-103176324D01*
X176474685Y-103220201D01*
X176488715Y-103264863D01*
X176498444Y-103312852D01*
X176504427Y-103366708D01*
X176506701Y-103409802D01*
X176509607Y-103495792D01*
X175649882Y-103495792D01*
X175653642Y-103523573D01*
X175666992Y-103588961D01*
X175688318Y-103649214D01*
X175717038Y-103703654D01*
X175752568Y-103751606D01*
X175794326Y-103792393D01*
X175841730Y-103825340D01*
X175894197Y-103849769D01*
X175947208Y-103864288D01*
X175983828Y-103868865D01*
X176025674Y-103870354D01*
X176068787Y-103868878D01*
X176109209Y-103864561D01*
X176140354Y-103858256D01*
X176184722Y-103842990D01*
X176229221Y-103821728D01*
X176271530Y-103795977D01*
X176309331Y-103767248D01*
X176340304Y-103737049D01*
X176354667Y-103718822D01*
X176364805Y-103704751D01*
X176372602Y-103694970D01*
X176375986Y-103691831D01*
X176381079Y-103694942D01*
X176392139Y-103703434D01*
X176407223Y-103715664D01*
X176424384Y-103729983D01*
X176441678Y-103744748D01*
X176457161Y-103758310D01*
X176468887Y-103769025D01*
X176474912Y-103775246D01*
X176475290Y-103775876D01*
X176472956Y-103782661D01*
X176464601Y-103795159D01*
X176451717Y-103811634D01*
X176435801Y-103830350D01*
X176418346Y-103849568D01*
X176400847Y-103867553D01*
X176384797Y-103882567D01*
X176379979Y-103886652D01*
X176327339Y-103923199D01*
X176267314Y-103952902D01*
X176200966Y-103975289D01*
X176157474Y-103985222D01*
X176121140Y-103990537D01*
X176079279Y-103994141D01*
X176035795Y-103995881D01*
X175994595Y-103995607D01*
X175959583Y-103993167D01*
X175957792Y-103992951D01*
X175884736Y-103979026D01*
X175817084Y-103956275D01*
X175755218Y-103925193D01*
X175699524Y-103886271D01*
X175650383Y-103840003D01*
X175608180Y-103786880D01*
X175573297Y-103727395D01*
X175546119Y-103662041D01*
X175527028Y-103591310D01*
X175516409Y-103515694D01*
X175514644Y-103435687D01*
X175515116Y-103424354D01*
X175521345Y-103367362D01*
X175650875Y-103367362D01*
X175656023Y-103367603D01*
X175670897Y-103367831D01*
X175694635Y-103368043D01*
X175726382Y-103368235D01*
X175765276Y-103368405D01*
X175810460Y-103368548D01*
X175861075Y-103368661D01*
X175916262Y-103368741D01*
X175975163Y-103368784D01*
X176011032Y-103368792D01*
X176371190Y-103368792D01*
X176367804Y-103343656D01*
X176354789Y-103284881D01*
X176332432Y-103230779D01*
X176301147Y-103181921D01*
X176261348Y-103138880D01*
X176213450Y-103102226D01*
X176178190Y-103082107D01*
X176129215Y-103062644D01*
X176075698Y-103050630D01*
X176019987Y-103046084D01*
X175964431Y-103049025D01*
X175911377Y-103059471D01*
X175863175Y-103077443D01*
X175858969Y-103079524D01*
X175809865Y-103110109D01*
X175765126Y-103149288D01*
X175725949Y-103195556D01*
X175693535Y-103247409D01*
X175669082Y-103303342D01*
X175661581Y-103327299D01*
X175656468Y-103345923D01*
X175652684Y-103360041D01*
X175650923Y-103367051D01*
X175650875Y-103367362D01*
X175521345Y-103367362D01*
X175523719Y-103345650D01*
X175541498Y-103272061D01*
X175568405Y-103203706D01*
X175604392Y-103140703D01*
X175649410Y-103083171D01*
X175658196Y-103073692D01*
X175711176Y-103025421D01*
X175769879Y-102985949D01*
X175833845Y-102955488D01*
X175902615Y-102934245D01*
X175975731Y-102922430D01*
X175992656Y-102921098D01*
X176065837Y-102921153D01*
X176065837Y-102921153D01*
G37*
X176065837Y-102921153D02*
X176135815Y-102930609D01*
X176201889Y-102949081D01*
X176263358Y-102976180D01*
X176319519Y-103011521D01*
X176369671Y-103054717D01*
X176413113Y-103105382D01*
X176449143Y-103163128D01*
X176455801Y-103176324D01*
X176474685Y-103220201D01*
X176488715Y-103264863D01*
X176498444Y-103312852D01*
X176504427Y-103366708D01*
X176506701Y-103409802D01*
X176509607Y-103495792D01*
X175649882Y-103495792D01*
X175653642Y-103523573D01*
X175666992Y-103588961D01*
X175688318Y-103649214D01*
X175717038Y-103703654D01*
X175752568Y-103751606D01*
X175794326Y-103792393D01*
X175841730Y-103825340D01*
X175894197Y-103849769D01*
X175947208Y-103864288D01*
X175983828Y-103868865D01*
X176025674Y-103870354D01*
X176068787Y-103868878D01*
X176109209Y-103864561D01*
X176140354Y-103858256D01*
X176184722Y-103842990D01*
X176229221Y-103821728D01*
X176271530Y-103795977D01*
X176309331Y-103767248D01*
X176340304Y-103737049D01*
X176354667Y-103718822D01*
X176364805Y-103704751D01*
X176372602Y-103694970D01*
X176375986Y-103691831D01*
X176381079Y-103694942D01*
X176392139Y-103703434D01*
X176407223Y-103715664D01*
X176424384Y-103729983D01*
X176441678Y-103744748D01*
X176457161Y-103758310D01*
X176468887Y-103769025D01*
X176474912Y-103775246D01*
X176475290Y-103775876D01*
X176472956Y-103782661D01*
X176464601Y-103795159D01*
X176451717Y-103811634D01*
X176435801Y-103830350D01*
X176418346Y-103849568D01*
X176400847Y-103867553D01*
X176384797Y-103882567D01*
X176379979Y-103886652D01*
X176327339Y-103923199D01*
X176267314Y-103952902D01*
X176200966Y-103975289D01*
X176157474Y-103985222D01*
X176121140Y-103990537D01*
X176079279Y-103994141D01*
X176035795Y-103995881D01*
X175994595Y-103995607D01*
X175959583Y-103993167D01*
X175957792Y-103992951D01*
X175884736Y-103979026D01*
X175817084Y-103956275D01*
X175755218Y-103925193D01*
X175699524Y-103886271D01*
X175650383Y-103840003D01*
X175608180Y-103786880D01*
X175573297Y-103727395D01*
X175546119Y-103662041D01*
X175527028Y-103591310D01*
X175516409Y-103515694D01*
X175514644Y-103435687D01*
X175515116Y-103424354D01*
X175521345Y-103367362D01*
X175650875Y-103367362D01*
X175656023Y-103367603D01*
X175670897Y-103367831D01*
X175694635Y-103368043D01*
X175726382Y-103368235D01*
X175765276Y-103368405D01*
X175810460Y-103368548D01*
X175861075Y-103368661D01*
X175916262Y-103368741D01*
X175975163Y-103368784D01*
X176011032Y-103368792D01*
X176371190Y-103368792D01*
X176367804Y-103343656D01*
X176354789Y-103284881D01*
X176332432Y-103230779D01*
X176301147Y-103181921D01*
X176261348Y-103138880D01*
X176213450Y-103102226D01*
X176178190Y-103082107D01*
X176129215Y-103062644D01*
X176075698Y-103050630D01*
X176019987Y-103046084D01*
X175964431Y-103049025D01*
X175911377Y-103059471D01*
X175863175Y-103077443D01*
X175858969Y-103079524D01*
X175809865Y-103110109D01*
X175765126Y-103149288D01*
X175725949Y-103195556D01*
X175693535Y-103247409D01*
X175669082Y-103303342D01*
X175661581Y-103327299D01*
X175656468Y-103345923D01*
X175652684Y-103360041D01*
X175650923Y-103367051D01*
X175650875Y-103367362D01*
X175521345Y-103367362D01*
X175523719Y-103345650D01*
X175541498Y-103272061D01*
X175568405Y-103203706D01*
X175604392Y-103140703D01*
X175649410Y-103083171D01*
X175658196Y-103073692D01*
X175711176Y-103025421D01*
X175769879Y-102985949D01*
X175833845Y-102955488D01*
X175902615Y-102934245D01*
X175975731Y-102922430D01*
X175992656Y-102921098D01*
X176065837Y-102921153D01*
G36*
X177710614Y-103619918D02*
X177737396Y-103627791D01*
X177761329Y-103642514D01*
X177773281Y-103652827D01*
X177795278Y-103677490D01*
X177808598Y-103703407D01*
X177814322Y-103733378D01*
X177814323Y-103759406D01*
X177807805Y-103796752D01*
X177792708Y-103827977D01*
X177768844Y-103853406D01*
X177754587Y-103863422D01*
X177740777Y-103871355D01*
X177728613Y-103876136D01*
X177714585Y-103878547D01*
X177695184Y-103879374D01*
X177682875Y-103879437D01*
X177659618Y-103879093D01*
X177643418Y-103877539D01*
X177630753Y-103873987D01*
X177618105Y-103867654D01*
X177611022Y-103863406D01*
X177584530Y-103841401D01*
X177569104Y-103819926D01*
X177553229Y-103792479D01*
X177465866Y-103792302D01*
X177378502Y-103792125D01*
X177275417Y-103895312D01*
X177172331Y-103998500D01*
X176872356Y-103998500D01*
X176807513Y-103998471D01*
X176752451Y-103998370D01*
X176706368Y-103998176D01*
X176668462Y-103997869D01*
X176637931Y-103997428D01*
X176613973Y-103996832D01*
X176595786Y-103996061D01*
X176582568Y-103995093D01*
X176573516Y-103993907D01*
X176567829Y-103992484D01*
X176564705Y-103990802D01*
X176564412Y-103990531D01*
X176553799Y-103974335D01*
X176553698Y-103957716D01*
X176559730Y-103946270D01*
X176570119Y-103932354D01*
X176855181Y-103930985D01*
X177140242Y-103929615D01*
X177246488Y-103823828D01*
X177323081Y-103747567D01*
X177599671Y-103747567D01*
X177603552Y-103773256D01*
X177617718Y-103797718D01*
X177626089Y-103806767D01*
X177650225Y-103825219D01*
X177674278Y-103833397D01*
X177699202Y-103831559D01*
X177707666Y-103828842D01*
X177726945Y-103817577D01*
X177745302Y-103800283D01*
X177759014Y-103780784D01*
X177762674Y-103772318D01*
X177766081Y-103746062D01*
X177759053Y-103720229D01*
X177742860Y-103696610D01*
X177719456Y-103677369D01*
X177693997Y-103668116D01*
X177667923Y-103668853D01*
X177642677Y-103679579D01*
X177622890Y-103696610D01*
X177606108Y-103721676D01*
X177599671Y-103747567D01*
X177323081Y-103747567D01*
X177352735Y-103718042D01*
X177550088Y-103718042D01*
X177560062Y-103695493D01*
X177579191Y-103664464D01*
X177605254Y-103640452D01*
X177636621Y-103624537D01*
X177671660Y-103617800D01*
X177677583Y-103617646D01*
X177710614Y-103619918D01*
X177710614Y-103619918D01*
G37*
X177710614Y-103619918D02*
X177737396Y-103627791D01*
X177761329Y-103642514D01*
X177773281Y-103652827D01*
X177795278Y-103677490D01*
X177808598Y-103703407D01*
X177814322Y-103733378D01*
X177814323Y-103759406D01*
X177807805Y-103796752D01*
X177792708Y-103827977D01*
X177768844Y-103853406D01*
X177754587Y-103863422D01*
X177740777Y-103871355D01*
X177728613Y-103876136D01*
X177714585Y-103878547D01*
X177695184Y-103879374D01*
X177682875Y-103879437D01*
X177659618Y-103879093D01*
X177643418Y-103877539D01*
X177630753Y-103873987D01*
X177618105Y-103867654D01*
X177611022Y-103863406D01*
X177584530Y-103841401D01*
X177569104Y-103819926D01*
X177553229Y-103792479D01*
X177465866Y-103792302D01*
X177378502Y-103792125D01*
X177275417Y-103895312D01*
X177172331Y-103998500D01*
X176872356Y-103998500D01*
X176807513Y-103998471D01*
X176752451Y-103998370D01*
X176706368Y-103998176D01*
X176668462Y-103997869D01*
X176637931Y-103997428D01*
X176613973Y-103996832D01*
X176595786Y-103996061D01*
X176582568Y-103995093D01*
X176573516Y-103993907D01*
X176567829Y-103992484D01*
X176564705Y-103990802D01*
X176564412Y-103990531D01*
X176553799Y-103974335D01*
X176553698Y-103957716D01*
X176559730Y-103946270D01*
X176570119Y-103932354D01*
X176855181Y-103930985D01*
X177140242Y-103929615D01*
X177246488Y-103823828D01*
X177323081Y-103747567D01*
X177599671Y-103747567D01*
X177603552Y-103773256D01*
X177617718Y-103797718D01*
X177626089Y-103806767D01*
X177650225Y-103825219D01*
X177674278Y-103833397D01*
X177699202Y-103831559D01*
X177707666Y-103828842D01*
X177726945Y-103817577D01*
X177745302Y-103800283D01*
X177759014Y-103780784D01*
X177762674Y-103772318D01*
X177766081Y-103746062D01*
X177759053Y-103720229D01*
X177742860Y-103696610D01*
X177719456Y-103677369D01*
X177693997Y-103668116D01*
X177667923Y-103668853D01*
X177642677Y-103679579D01*
X177622890Y-103696610D01*
X177606108Y-103721676D01*
X177599671Y-103747567D01*
X177323081Y-103747567D01*
X177352735Y-103718042D01*
X177550088Y-103718042D01*
X177560062Y-103695493D01*
X177579191Y-103664464D01*
X177605254Y-103640452D01*
X177636621Y-103624537D01*
X177671660Y-103617800D01*
X177677583Y-103617646D01*
X177710614Y-103619918D01*
G36*
X177078649Y-103575788D02*
X177109405Y-103587707D01*
X177131742Y-103603276D01*
X177152255Y-103629238D01*
X177165497Y-103660664D01*
X177171085Y-103694982D01*
X177168634Y-103729618D01*
X177157762Y-103762000D01*
X177155945Y-103765480D01*
X177134181Y-103796071D01*
X177106979Y-103817647D01*
X177074085Y-103830354D01*
X177036139Y-103834342D01*
X177007477Y-103831921D01*
X176983675Y-103825433D01*
X176981729Y-103824586D01*
X176962967Y-103812813D01*
X176943630Y-103795548D01*
X176926857Y-103776062D01*
X176915789Y-103757622D01*
X176914682Y-103754771D01*
X176909402Y-103739626D01*
X176740696Y-103738094D01*
X176693476Y-103737617D01*
X176655718Y-103737093D01*
X176626297Y-103736454D01*
X176604092Y-103735633D01*
X176587980Y-103734566D01*
X176576839Y-103733184D01*
X176569545Y-103731421D01*
X176564976Y-103729211D01*
X176562988Y-103727554D01*
X176555187Y-103713060D01*
X176554681Y-103695684D01*
X176561207Y-103679955D01*
X176566037Y-103674884D01*
X176570083Y-103672141D01*
X176575478Y-103669964D01*
X176583392Y-103668287D01*
X176594998Y-103667046D01*
X176611469Y-103666177D01*
X176633977Y-103665615D01*
X176663693Y-103665296D01*
X176701790Y-103665154D01*
X176743127Y-103665125D01*
X176908165Y-103665125D01*
X176914393Y-103647904D01*
X176925145Y-103628682D01*
X176942462Y-103608597D01*
X176963150Y-103590882D01*
X176981729Y-103579764D01*
X177011539Y-103571303D01*
X177044937Y-103570149D01*
X177078649Y-103575788D01*
X177078649Y-103575788D01*
G37*
X177078649Y-103575788D02*
X177109405Y-103587707D01*
X177131742Y-103603276D01*
X177152255Y-103629238D01*
X177165497Y-103660664D01*
X177171085Y-103694982D01*
X177168634Y-103729618D01*
X177157762Y-103762000D01*
X177155945Y-103765480D01*
X177134181Y-103796071D01*
X177106979Y-103817647D01*
X177074085Y-103830354D01*
X177036139Y-103834342D01*
X177007477Y-103831921D01*
X176983675Y-103825433D01*
X176981729Y-103824586D01*
X176962967Y-103812813D01*
X176943630Y-103795548D01*
X176926857Y-103776062D01*
X176915789Y-103757622D01*
X176914682Y-103754771D01*
X176909402Y-103739626D01*
X176740696Y-103738094D01*
X176693476Y-103737617D01*
X176655718Y-103737093D01*
X176626297Y-103736454D01*
X176604092Y-103735633D01*
X176587980Y-103734566D01*
X176576839Y-103733184D01*
X176569545Y-103731421D01*
X176564976Y-103729211D01*
X176562988Y-103727554D01*
X176555187Y-103713060D01*
X176554681Y-103695684D01*
X176561207Y-103679955D01*
X176566037Y-103674884D01*
X176570083Y-103672141D01*
X176575478Y-103669964D01*
X176583392Y-103668287D01*
X176594998Y-103667046D01*
X176611469Y-103666177D01*
X176633977Y-103665615D01*
X176663693Y-103665296D01*
X176701790Y-103665154D01*
X176743127Y-103665125D01*
X176908165Y-103665125D01*
X176914393Y-103647904D01*
X176925145Y-103628682D01*
X176942462Y-103608597D01*
X176963150Y-103590882D01*
X176981729Y-103579764D01*
X177011539Y-103571303D01*
X177044937Y-103570149D01*
X177078649Y-103575788D01*
G36*
X177702801Y-103097167D02*
X177733935Y-103105785D01*
X177762428Y-103121855D01*
X177786597Y-103145367D01*
X177800614Y-103167370D01*
X177810907Y-103196148D01*
X177815394Y-103228068D01*
X177813815Y-103259055D01*
X177807891Y-103280711D01*
X177789722Y-103311205D01*
X177764313Y-103335426D01*
X177733502Y-103352541D01*
X177699127Y-103361716D01*
X177663027Y-103362115D01*
X177639294Y-103357209D01*
X177618496Y-103347244D01*
X177596502Y-103330809D01*
X177576640Y-103310938D01*
X177562237Y-103290663D01*
X177559154Y-103284166D01*
X177550669Y-103262958D01*
X177383796Y-103262958D01*
X177278062Y-103368792D01*
X177172328Y-103474625D01*
X176872797Y-103474625D01*
X176808953Y-103474616D01*
X176754855Y-103474570D01*
X176709662Y-103474459D01*
X176672537Y-103474253D01*
X176642641Y-103473923D01*
X176619136Y-103473441D01*
X176601182Y-103472778D01*
X176587942Y-103471904D01*
X176578576Y-103470792D01*
X176572246Y-103469411D01*
X176568113Y-103467734D01*
X176565340Y-103465730D01*
X176563626Y-103463973D01*
X176555979Y-103449643D01*
X176554369Y-103433089D01*
X176558781Y-103418597D01*
X176563817Y-103413022D01*
X176567761Y-103411396D01*
X176575304Y-103410024D01*
X176587223Y-103408884D01*
X176604298Y-103407958D01*
X176627307Y-103407228D01*
X176657026Y-103406673D01*
X176694235Y-103406276D01*
X176739712Y-103406016D01*
X176794234Y-103405875D01*
X176856898Y-103405833D01*
X177140149Y-103405833D01*
X177352735Y-103194167D01*
X177452982Y-103193926D01*
X177553229Y-103193686D01*
X177566458Y-103166156D01*
X177585536Y-103137385D01*
X177610394Y-103116109D01*
X177639346Y-103102320D01*
X177670710Y-103096009D01*
X177702801Y-103097167D01*
X177702801Y-103097167D01*
G37*
X177702801Y-103097167D02*
X177733935Y-103105785D01*
X177762428Y-103121855D01*
X177786597Y-103145367D01*
X177800614Y-103167370D01*
X177810907Y-103196148D01*
X177815394Y-103228068D01*
X177813815Y-103259055D01*
X177807891Y-103280711D01*
X177789722Y-103311205D01*
X177764313Y-103335426D01*
X177733502Y-103352541D01*
X177699127Y-103361716D01*
X177663027Y-103362115D01*
X177639294Y-103357209D01*
X177618496Y-103347244D01*
X177596502Y-103330809D01*
X177576640Y-103310938D01*
X177562237Y-103290663D01*
X177559154Y-103284166D01*
X177550669Y-103262958D01*
X177383796Y-103262958D01*
X177278062Y-103368792D01*
X177172328Y-103474625D01*
X176872797Y-103474625D01*
X176808953Y-103474616D01*
X176754855Y-103474570D01*
X176709662Y-103474459D01*
X176672537Y-103474253D01*
X176642641Y-103473923D01*
X176619136Y-103473441D01*
X176601182Y-103472778D01*
X176587942Y-103471904D01*
X176578576Y-103470792D01*
X176572246Y-103469411D01*
X176568113Y-103467734D01*
X176565340Y-103465730D01*
X176563626Y-103463973D01*
X176555979Y-103449643D01*
X176554369Y-103433089D01*
X176558781Y-103418597D01*
X176563817Y-103413022D01*
X176567761Y-103411396D01*
X176575304Y-103410024D01*
X176587223Y-103408884D01*
X176604298Y-103407958D01*
X176627307Y-103407228D01*
X176657026Y-103406673D01*
X176694235Y-103406276D01*
X176739712Y-103406016D01*
X176794234Y-103405875D01*
X176856898Y-103405833D01*
X177140149Y-103405833D01*
X177352735Y-103194167D01*
X177452982Y-103193926D01*
X177553229Y-103193686D01*
X177566458Y-103166156D01*
X177585536Y-103137385D01*
X177610394Y-103116109D01*
X177639346Y-103102320D01*
X177670710Y-103096009D01*
X177702801Y-103097167D01*
G36*
X177076961Y-103048875D02*
X177108548Y-103062661D01*
X177135798Y-103084065D01*
X177156908Y-103112463D01*
X177162960Y-103124990D01*
X177169511Y-103150629D01*
X177170924Y-103180739D01*
X177167297Y-103210595D01*
X177160766Y-103231268D01*
X177141331Y-103263179D01*
X177115232Y-103286916D01*
X177082742Y-103302300D01*
X177044131Y-103309152D01*
X177042583Y-103309239D01*
X177019611Y-103309385D01*
X177001562Y-103306311D01*
X176983020Y-103299056D01*
X176981690Y-103298427D01*
X176953690Y-103280545D01*
X176930778Y-103257011D01*
X176915620Y-103230600D01*
X176914989Y-103228913D01*
X176908165Y-103210042D01*
X176740907Y-103210042D01*
X176692081Y-103209952D01*
X176652835Y-103209658D01*
X176622167Y-103209118D01*
X176599074Y-103208291D01*
X176582555Y-103207137D01*
X176571607Y-103205615D01*
X176565227Y-103203684D01*
X176563817Y-103202853D01*
X176556073Y-103191350D01*
X176554342Y-103175410D01*
X176554615Y-103174386D01*
X176954457Y-103174386D01*
X176959525Y-103199657D01*
X176961953Y-103205531D01*
X176975396Y-103229010D01*
X176992480Y-103244839D01*
X177014452Y-103255292D01*
X177030268Y-103260534D01*
X177041209Y-103261918D01*
X177052237Y-103259225D01*
X177066615Y-103253012D01*
X177091784Y-103236803D01*
X177109139Y-103215809D01*
X177118608Y-103191889D01*
X177120117Y-103166903D01*
X177113594Y-103142708D01*
X177098967Y-103121165D01*
X177076162Y-103104133D01*
X177072509Y-103102307D01*
X177045197Y-103094161D01*
X177019291Y-103096414D01*
X176994583Y-103109119D01*
X176974838Y-103127637D01*
X176959488Y-103150824D01*
X176954457Y-103174386D01*
X176554615Y-103174386D01*
X176558639Y-103159318D01*
X176563626Y-103151901D01*
X176566699Y-103148945D01*
X176570747Y-103146593D01*
X176576917Y-103144775D01*
X176586357Y-103143424D01*
X176600216Y-103142471D01*
X176619640Y-103141846D01*
X176645780Y-103141480D01*
X176679782Y-103141305D01*
X176722795Y-103141252D01*
X176741205Y-103141250D01*
X176909144Y-103141250D01*
X176912213Y-103129023D01*
X176921562Y-103108590D01*
X176938268Y-103087504D01*
X176959730Y-103068684D01*
X176974200Y-103059480D01*
X177007984Y-103046658D01*
X177042839Y-103043332D01*
X177076961Y-103048875D01*
X177076961Y-103048875D01*
G37*
X177076961Y-103048875D02*
X177108548Y-103062661D01*
X177135798Y-103084065D01*
X177156908Y-103112463D01*
X177162960Y-103124990D01*
X177169511Y-103150629D01*
X177170924Y-103180739D01*
X177167297Y-103210595D01*
X177160766Y-103231268D01*
X177141331Y-103263179D01*
X177115232Y-103286916D01*
X177082742Y-103302300D01*
X177044131Y-103309152D01*
X177042583Y-103309239D01*
X177019611Y-103309385D01*
X177001562Y-103306311D01*
X176983020Y-103299056D01*
X176981690Y-103298427D01*
X176953690Y-103280545D01*
X176930778Y-103257011D01*
X176915620Y-103230600D01*
X176914989Y-103228913D01*
X176908165Y-103210042D01*
X176740907Y-103210042D01*
X176692081Y-103209952D01*
X176652835Y-103209658D01*
X176622167Y-103209118D01*
X176599074Y-103208291D01*
X176582555Y-103207137D01*
X176571607Y-103205615D01*
X176565227Y-103203684D01*
X176563817Y-103202853D01*
X176556073Y-103191350D01*
X176554342Y-103175410D01*
X176554615Y-103174386D01*
X176954457Y-103174386D01*
X176959525Y-103199657D01*
X176961953Y-103205531D01*
X176975396Y-103229010D01*
X176992480Y-103244839D01*
X177014452Y-103255292D01*
X177030268Y-103260534D01*
X177041209Y-103261918D01*
X177052237Y-103259225D01*
X177066615Y-103253012D01*
X177091784Y-103236803D01*
X177109139Y-103215809D01*
X177118608Y-103191889D01*
X177120117Y-103166903D01*
X177113594Y-103142708D01*
X177098967Y-103121165D01*
X177076162Y-103104133D01*
X177072509Y-103102307D01*
X177045197Y-103094161D01*
X177019291Y-103096414D01*
X176994583Y-103109119D01*
X176974838Y-103127637D01*
X176959488Y-103150824D01*
X176954457Y-103174386D01*
X176554615Y-103174386D01*
X176558639Y-103159318D01*
X176563626Y-103151901D01*
X176566699Y-103148945D01*
X176570747Y-103146593D01*
X176576917Y-103144775D01*
X176586357Y-103143424D01*
X176600216Y-103142471D01*
X176619640Y-103141846D01*
X176645780Y-103141480D01*
X176679782Y-103141305D01*
X176722795Y-103141252D01*
X176741205Y-103141250D01*
X176909144Y-103141250D01*
X176912213Y-103129023D01*
X176921562Y-103108590D01*
X176938268Y-103087504D01*
X176959730Y-103068684D01*
X176974200Y-103059480D01*
X177007984Y-103046658D01*
X177042839Y-103043332D01*
X177076961Y-103048875D01*
G36*
X177402862Y-102784712D02*
X177413749Y-102787558D01*
X177443412Y-102801671D01*
X177468019Y-102823669D01*
X177486665Y-102851698D01*
X177498441Y-102883908D01*
X177502442Y-102918445D01*
X177497760Y-102953458D01*
X177496735Y-102957064D01*
X177486494Y-102978524D01*
X177469692Y-103000959D01*
X177449385Y-103020933D01*
X177428633Y-103035009D01*
X177426434Y-103036060D01*
X177398981Y-103043941D01*
X177367137Y-103046055D01*
X177335304Y-103042521D01*
X177307884Y-103033460D01*
X177306516Y-103032765D01*
X177277793Y-103012621D01*
X177255224Y-102986271D01*
X177245439Y-102967948D01*
X177238233Y-102950750D01*
X176908161Y-102950750D01*
X176840746Y-102950737D01*
X176783113Y-102950683D01*
X176734463Y-102950565D01*
X176693994Y-102950361D01*
X176660907Y-102950046D01*
X176634400Y-102949600D01*
X176613674Y-102948998D01*
X176597926Y-102948218D01*
X176586358Y-102947238D01*
X176578168Y-102946033D01*
X176572556Y-102944582D01*
X176568721Y-102942862D01*
X176566037Y-102940991D01*
X176556606Y-102927330D01*
X176554097Y-102910101D01*
X176558770Y-102893832D01*
X176562992Y-102888321D01*
X176565483Y-102886481D01*
X176569526Y-102884899D01*
X176575903Y-102883552D01*
X176585397Y-102882416D01*
X176598792Y-102881467D01*
X176616870Y-102880680D01*
X176640414Y-102880032D01*
X176670208Y-102879499D01*
X176707034Y-102879058D01*
X176751676Y-102878683D01*
X176804916Y-102878352D01*
X176867538Y-102878041D01*
X176905156Y-102877874D01*
X177238314Y-102876435D01*
X177251496Y-102850421D01*
X177271623Y-102821763D01*
X177298469Y-102800226D01*
X177330389Y-102786446D01*
X177365735Y-102781062D01*
X177402862Y-102784712D01*
X177402862Y-102784712D01*
G37*
X177402862Y-102784712D02*
X177413749Y-102787558D01*
X177443412Y-102801671D01*
X177468019Y-102823669D01*
X177486665Y-102851698D01*
X177498441Y-102883908D01*
X177502442Y-102918445D01*
X177497760Y-102953458D01*
X177496735Y-102957064D01*
X177486494Y-102978524D01*
X177469692Y-103000959D01*
X177449385Y-103020933D01*
X177428633Y-103035009D01*
X177426434Y-103036060D01*
X177398981Y-103043941D01*
X177367137Y-103046055D01*
X177335304Y-103042521D01*
X177307884Y-103033460D01*
X177306516Y-103032765D01*
X177277793Y-103012621D01*
X177255224Y-102986271D01*
X177245439Y-102967948D01*
X177238233Y-102950750D01*
X176908161Y-102950750D01*
X176840746Y-102950737D01*
X176783113Y-102950683D01*
X176734463Y-102950565D01*
X176693994Y-102950361D01*
X176660907Y-102950046D01*
X176634400Y-102949600D01*
X176613674Y-102948998D01*
X176597926Y-102948218D01*
X176586358Y-102947238D01*
X176578168Y-102946033D01*
X176572556Y-102944582D01*
X176568721Y-102942862D01*
X176566037Y-102940991D01*
X176556606Y-102927330D01*
X176554097Y-102910101D01*
X176558770Y-102893832D01*
X176562992Y-102888321D01*
X176565483Y-102886481D01*
X176569526Y-102884899D01*
X176575903Y-102883552D01*
X176585397Y-102882416D01*
X176598792Y-102881467D01*
X176616870Y-102880680D01*
X176640414Y-102880032D01*
X176670208Y-102879499D01*
X176707034Y-102879058D01*
X176751676Y-102878683D01*
X176804916Y-102878352D01*
X176867538Y-102878041D01*
X176905156Y-102877874D01*
X177238314Y-102876435D01*
X177251496Y-102850421D01*
X177271623Y-102821763D01*
X177298469Y-102800226D01*
X177330389Y-102786446D01*
X177365735Y-102781062D01*
X177402862Y-102784712D01*
D14*
G36*
X177501900Y-117115060D02*
X177446020Y-117115060D01*
X177446020Y-116444500D01*
X177446020Y-115712980D01*
X177446020Y-114978920D01*
X177425700Y-114958600D01*
X177407920Y-114940820D01*
X175002540Y-114940820D01*
X172599700Y-114940820D01*
X172579380Y-114958600D01*
X172561600Y-114978920D01*
X172561600Y-115712980D01*
X172561600Y-116444500D01*
X172675900Y-116447040D01*
X172787660Y-116447040D01*
X172830840Y-116510540D01*
X172891800Y-116594360D01*
X172962920Y-116670560D01*
X173041660Y-116739140D01*
X173130560Y-116800100D01*
X173224540Y-116848360D01*
X173323600Y-116889000D01*
X173425200Y-116916940D01*
X173509020Y-116929640D01*
X173552200Y-116934720D01*
X173603000Y-116934720D01*
X173658880Y-116934720D01*
X173712220Y-116929640D01*
X173763020Y-116924560D01*
X173793500Y-116919480D01*
X173900180Y-116891540D01*
X174001780Y-116850900D01*
X174095760Y-116802640D01*
X174184660Y-116741680D01*
X174268480Y-116670560D01*
X174301500Y-116635000D01*
X174329440Y-116604520D01*
X174357380Y-116568960D01*
X174385320Y-116533400D01*
X174400560Y-116510540D01*
X174441200Y-116447040D01*
X175942340Y-116447040D01*
X177446020Y-116444500D01*
X177446020Y-117115060D01*
X177438400Y-117115060D01*
X177438400Y-117064260D01*
X177438400Y-116784860D01*
X177438400Y-116502920D01*
X175960120Y-116502920D01*
X174484380Y-116502920D01*
X174443740Y-116561340D01*
X174395480Y-116629920D01*
X174347220Y-116690880D01*
X174298960Y-116739140D01*
X174245620Y-116784860D01*
X174187200Y-116822960D01*
X174144020Y-116848360D01*
X174075440Y-116883920D01*
X174011940Y-116914400D01*
X173953520Y-116937260D01*
X173895100Y-116957580D01*
X173831600Y-116972820D01*
X173829060Y-116972820D01*
X173737620Y-116990600D01*
X173651260Y-116998220D01*
X173569980Y-116998220D01*
X173486160Y-116988060D01*
X173399800Y-116972820D01*
X173303280Y-116942340D01*
X173204220Y-116901700D01*
X173105160Y-116848360D01*
X173003560Y-116782320D01*
X172970540Y-116756920D01*
X172945140Y-116736600D01*
X172914660Y-116706120D01*
X172881640Y-116673100D01*
X172848620Y-116640080D01*
X172818140Y-116601980D01*
X172790200Y-116568960D01*
X172769880Y-116541020D01*
X172757180Y-116523240D01*
X172747020Y-116502920D01*
X172650500Y-116502920D01*
X172553980Y-116502920D01*
X172553980Y-116784860D01*
X172553980Y-117064260D01*
X174997460Y-117064260D01*
X177438400Y-117064260D01*
X177438400Y-117115060D01*
X175005080Y-117115060D01*
X172510800Y-117115060D01*
X172508260Y-117026160D01*
X172505720Y-117005840D01*
X172505720Y-116977900D01*
X172505720Y-116937260D01*
X172505720Y-116886460D01*
X172505720Y-116828040D01*
X172505720Y-116762000D01*
X172505720Y-116688340D01*
X172505720Y-116609600D01*
X172505720Y-116523240D01*
X172505720Y-116434340D01*
X172505720Y-116340360D01*
X172505720Y-116243840D01*
X172505720Y-116144780D01*
X172505720Y-116043180D01*
X172505720Y-115944120D01*
X172505720Y-115842520D01*
X172505720Y-115743460D01*
X172505720Y-115644400D01*
X172505720Y-115547880D01*
X172505720Y-115456440D01*
X172508260Y-115367540D01*
X172508260Y-115283720D01*
X172508260Y-115207520D01*
X172508260Y-115136400D01*
X172508260Y-115072900D01*
X172510800Y-115017020D01*
X172510800Y-114971300D01*
X172510800Y-114935740D01*
X172510800Y-114907800D01*
X172513340Y-114895100D01*
X172513340Y-114892560D01*
X172518420Y-114892560D01*
X172538740Y-114892560D01*
X172569220Y-114890020D01*
X172609860Y-114890020D01*
X172663200Y-114890020D01*
X172726700Y-114890020D01*
X172797820Y-114890020D01*
X172879100Y-114890020D01*
X172968000Y-114890020D01*
X173067060Y-114890020D01*
X173171200Y-114887480D01*
X173282960Y-114887480D01*
X173402340Y-114887480D01*
X173526800Y-114887480D01*
X173656340Y-114887480D01*
X173790960Y-114887480D01*
X173930660Y-114887480D01*
X174072900Y-114887480D01*
X174217680Y-114887480D01*
X174367540Y-114887480D01*
X174517400Y-114887480D01*
X174669800Y-114884940D01*
X174824740Y-114884940D01*
X174979680Y-114884940D01*
X175129540Y-114884940D01*
X175284480Y-114884940D01*
X175436880Y-114884940D01*
X175586740Y-114884940D01*
X175736600Y-114884940D01*
X175883920Y-114884940D01*
X176026160Y-114884940D01*
X176165860Y-114884940D01*
X176303020Y-114884940D01*
X176432560Y-114884940D01*
X176559560Y-114884940D01*
X176678940Y-114884940D01*
X176790700Y-114884940D01*
X176897380Y-114884940D01*
X176996440Y-114884940D01*
X177087880Y-114884940D01*
X177171700Y-114884940D01*
X177245360Y-114887480D01*
X177311400Y-114887480D01*
X177364740Y-114887480D01*
X177407920Y-114887480D01*
X177440940Y-114887480D01*
X177463800Y-114887480D01*
X177471420Y-114887480D01*
X177501900Y-114892560D01*
X177501900Y-116002540D01*
X177501900Y-117115060D01*
X177501900Y-117115060D01*
X177501900Y-117115060D01*
G37*
X177501900Y-117115060D02*
X177446020Y-117115060D01*
X177446020Y-116444500D01*
X177446020Y-115712980D01*
X177446020Y-114978920D01*
X177425700Y-114958600D01*
X177407920Y-114940820D01*
X175002540Y-114940820D01*
X172599700Y-114940820D01*
X172579380Y-114958600D01*
X172561600Y-114978920D01*
X172561600Y-115712980D01*
X172561600Y-116444500D01*
X172675900Y-116447040D01*
X172787660Y-116447040D01*
X172830840Y-116510540D01*
X172891800Y-116594360D01*
X172962920Y-116670560D01*
X173041660Y-116739140D01*
X173130560Y-116800100D01*
X173224540Y-116848360D01*
X173323600Y-116889000D01*
X173425200Y-116916940D01*
X173509020Y-116929640D01*
X173552200Y-116934720D01*
X173603000Y-116934720D01*
X173658880Y-116934720D01*
X173712220Y-116929640D01*
X173763020Y-116924560D01*
X173793500Y-116919480D01*
X173900180Y-116891540D01*
X174001780Y-116850900D01*
X174095760Y-116802640D01*
X174184660Y-116741680D01*
X174268480Y-116670560D01*
X174301500Y-116635000D01*
X174329440Y-116604520D01*
X174357380Y-116568960D01*
X174385320Y-116533400D01*
X174400560Y-116510540D01*
X174441200Y-116447040D01*
X175942340Y-116447040D01*
X177446020Y-116444500D01*
X177446020Y-117115060D01*
X177438400Y-117115060D01*
X177438400Y-117064260D01*
X177438400Y-116784860D01*
X177438400Y-116502920D01*
X175960120Y-116502920D01*
X174484380Y-116502920D01*
X174443740Y-116561340D01*
X174395480Y-116629920D01*
X174347220Y-116690880D01*
X174298960Y-116739140D01*
X174245620Y-116784860D01*
X174187200Y-116822960D01*
X174144020Y-116848360D01*
X174075440Y-116883920D01*
X174011940Y-116914400D01*
X173953520Y-116937260D01*
X173895100Y-116957580D01*
X173831600Y-116972820D01*
X173829060Y-116972820D01*
X173737620Y-116990600D01*
X173651260Y-116998220D01*
X173569980Y-116998220D01*
X173486160Y-116988060D01*
X173399800Y-116972820D01*
X173303280Y-116942340D01*
X173204220Y-116901700D01*
X173105160Y-116848360D01*
X173003560Y-116782320D01*
X172970540Y-116756920D01*
X172945140Y-116736600D01*
X172914660Y-116706120D01*
X172881640Y-116673100D01*
X172848620Y-116640080D01*
X172818140Y-116601980D01*
X172790200Y-116568960D01*
X172769880Y-116541020D01*
X172757180Y-116523240D01*
X172747020Y-116502920D01*
X172650500Y-116502920D01*
X172553980Y-116502920D01*
X172553980Y-116784860D01*
X172553980Y-117064260D01*
X174997460Y-117064260D01*
X177438400Y-117064260D01*
X177438400Y-117115060D01*
X175005080Y-117115060D01*
X172510800Y-117115060D01*
X172508260Y-117026160D01*
X172505720Y-117005840D01*
X172505720Y-116977900D01*
X172505720Y-116937260D01*
X172505720Y-116886460D01*
X172505720Y-116828040D01*
X172505720Y-116762000D01*
X172505720Y-116688340D01*
X172505720Y-116609600D01*
X172505720Y-116523240D01*
X172505720Y-116434340D01*
X172505720Y-116340360D01*
X172505720Y-116243840D01*
X172505720Y-116144780D01*
X172505720Y-116043180D01*
X172505720Y-115944120D01*
X172505720Y-115842520D01*
X172505720Y-115743460D01*
X172505720Y-115644400D01*
X172505720Y-115547880D01*
X172505720Y-115456440D01*
X172508260Y-115367540D01*
X172508260Y-115283720D01*
X172508260Y-115207520D01*
X172508260Y-115136400D01*
X172508260Y-115072900D01*
X172510800Y-115017020D01*
X172510800Y-114971300D01*
X172510800Y-114935740D01*
X172510800Y-114907800D01*
X172513340Y-114895100D01*
X172513340Y-114892560D01*
X172518420Y-114892560D01*
X172538740Y-114892560D01*
X172569220Y-114890020D01*
X172609860Y-114890020D01*
X172663200Y-114890020D01*
X172726700Y-114890020D01*
X172797820Y-114890020D01*
X172879100Y-114890020D01*
X172968000Y-114890020D01*
X173067060Y-114890020D01*
X173171200Y-114887480D01*
X173282960Y-114887480D01*
X173402340Y-114887480D01*
X173526800Y-114887480D01*
X173656340Y-114887480D01*
X173790960Y-114887480D01*
X173930660Y-114887480D01*
X174072900Y-114887480D01*
X174217680Y-114887480D01*
X174367540Y-114887480D01*
X174517400Y-114887480D01*
X174669800Y-114884940D01*
X174824740Y-114884940D01*
X174979680Y-114884940D01*
X175129540Y-114884940D01*
X175284480Y-114884940D01*
X175436880Y-114884940D01*
X175586740Y-114884940D01*
X175736600Y-114884940D01*
X175883920Y-114884940D01*
X176026160Y-114884940D01*
X176165860Y-114884940D01*
X176303020Y-114884940D01*
X176432560Y-114884940D01*
X176559560Y-114884940D01*
X176678940Y-114884940D01*
X176790700Y-114884940D01*
X176897380Y-114884940D01*
X176996440Y-114884940D01*
X177087880Y-114884940D01*
X177171700Y-114884940D01*
X177245360Y-114887480D01*
X177311400Y-114887480D01*
X177364740Y-114887480D01*
X177407920Y-114887480D01*
X177440940Y-114887480D01*
X177463800Y-114887480D01*
X177471420Y-114887480D01*
X177501900Y-114892560D01*
X177501900Y-116002540D01*
X177501900Y-117115060D01*
X177501900Y-117115060D01*
G36*
X176569720Y-116886460D02*
X176562100Y-116911860D01*
X176549400Y-116934720D01*
X176544320Y-116939800D01*
X176518920Y-116960120D01*
X176483360Y-116975360D01*
X176445260Y-116982980D01*
X176404620Y-116985520D01*
X176399540Y-116982980D01*
X176356360Y-116972820D01*
X176320800Y-116955040D01*
X176292860Y-116929640D01*
X176277620Y-116896620D01*
X176275080Y-116891540D01*
X176272540Y-116873760D01*
X176275080Y-116861060D01*
X176287780Y-116855980D01*
X176308100Y-116855980D01*
X176313180Y-116855980D01*
X176333500Y-116858520D01*
X176346200Y-116861060D01*
X176351280Y-116868680D01*
X176353820Y-116878840D01*
X176369060Y-116901700D01*
X176389380Y-116916940D01*
X176417320Y-116924560D01*
X176447800Y-116922020D01*
X176465580Y-116914400D01*
X176483360Y-116904240D01*
X176490980Y-116889000D01*
X176490980Y-116871220D01*
X176485900Y-116863600D01*
X176478280Y-116853440D01*
X176460500Y-116845820D01*
X176437640Y-116835660D01*
X176402080Y-116825500D01*
X176384300Y-116820420D01*
X176353820Y-116810260D01*
X176333500Y-116800100D01*
X176318260Y-116789940D01*
X176308100Y-116782320D01*
X176290320Y-116751840D01*
X176285240Y-116723900D01*
X176287780Y-116695960D01*
X176300480Y-116670560D01*
X176320800Y-116647700D01*
X176348740Y-116629920D01*
X176381760Y-116617220D01*
X176417320Y-116614680D01*
X176452880Y-116617220D01*
X176496060Y-116629920D01*
X176526540Y-116647700D01*
X176544320Y-116673100D01*
X176554480Y-116706120D01*
X176554480Y-116706120D01*
X176559560Y-116734060D01*
X176521460Y-116734060D01*
X176501140Y-116731520D01*
X176490980Y-116728980D01*
X176483360Y-116723900D01*
X176478280Y-116713740D01*
X176465580Y-116693420D01*
X176445260Y-116680720D01*
X176422400Y-116675640D01*
X176397000Y-116678180D01*
X176376680Y-116690880D01*
X176374140Y-116690880D01*
X176361440Y-116706120D01*
X176361440Y-116716280D01*
X176366520Y-116728980D01*
X176369060Y-116731520D01*
X176384300Y-116741680D01*
X176409700Y-116751840D01*
X176447800Y-116764540D01*
X176450340Y-116764540D01*
X176493520Y-116777240D01*
X176524000Y-116792480D01*
X176546860Y-116807720D01*
X176559560Y-116828040D01*
X176567180Y-116850900D01*
X176567180Y-116855980D01*
X176569720Y-116886460D01*
X176569720Y-116886460D01*
X176569720Y-116886460D01*
G37*
X176569720Y-116886460D02*
X176562100Y-116911860D01*
X176549400Y-116934720D01*
X176544320Y-116939800D01*
X176518920Y-116960120D01*
X176483360Y-116975360D01*
X176445260Y-116982980D01*
X176404620Y-116985520D01*
X176399540Y-116982980D01*
X176356360Y-116972820D01*
X176320800Y-116955040D01*
X176292860Y-116929640D01*
X176277620Y-116896620D01*
X176275080Y-116891540D01*
X176272540Y-116873760D01*
X176275080Y-116861060D01*
X176287780Y-116855980D01*
X176308100Y-116855980D01*
X176313180Y-116855980D01*
X176333500Y-116858520D01*
X176346200Y-116861060D01*
X176351280Y-116868680D01*
X176353820Y-116878840D01*
X176369060Y-116901700D01*
X176389380Y-116916940D01*
X176417320Y-116924560D01*
X176447800Y-116922020D01*
X176465580Y-116914400D01*
X176483360Y-116904240D01*
X176490980Y-116889000D01*
X176490980Y-116871220D01*
X176485900Y-116863600D01*
X176478280Y-116853440D01*
X176460500Y-116845820D01*
X176437640Y-116835660D01*
X176402080Y-116825500D01*
X176384300Y-116820420D01*
X176353820Y-116810260D01*
X176333500Y-116800100D01*
X176318260Y-116789940D01*
X176308100Y-116782320D01*
X176290320Y-116751840D01*
X176285240Y-116723900D01*
X176287780Y-116695960D01*
X176300480Y-116670560D01*
X176320800Y-116647700D01*
X176348740Y-116629920D01*
X176381760Y-116617220D01*
X176417320Y-116614680D01*
X176452880Y-116617220D01*
X176496060Y-116629920D01*
X176526540Y-116647700D01*
X176544320Y-116673100D01*
X176554480Y-116706120D01*
X176554480Y-116706120D01*
X176559560Y-116734060D01*
X176521460Y-116734060D01*
X176501140Y-116731520D01*
X176490980Y-116728980D01*
X176483360Y-116723900D01*
X176478280Y-116713740D01*
X176465580Y-116693420D01*
X176445260Y-116680720D01*
X176422400Y-116675640D01*
X176397000Y-116678180D01*
X176376680Y-116690880D01*
X176374140Y-116690880D01*
X176361440Y-116706120D01*
X176361440Y-116716280D01*
X176366520Y-116728980D01*
X176369060Y-116731520D01*
X176384300Y-116741680D01*
X176409700Y-116751840D01*
X176447800Y-116764540D01*
X176450340Y-116764540D01*
X176493520Y-116777240D01*
X176524000Y-116792480D01*
X176546860Y-116807720D01*
X176559560Y-116828040D01*
X176567180Y-116850900D01*
X176567180Y-116855980D01*
X176569720Y-116886460D01*
X176569720Y-116886460D01*
G36*
X175208280Y-116886460D02*
X175198120Y-116919480D01*
X175177800Y-116947420D01*
X175149860Y-116962660D01*
X175137160Y-116967740D01*
X175127000Y-116970280D01*
X175127000Y-116866140D01*
X175124460Y-116848360D01*
X175116840Y-116835660D01*
X175114300Y-116833120D01*
X175114300Y-116721360D01*
X175106680Y-116703580D01*
X175104140Y-116698500D01*
X175093980Y-116693420D01*
X175076200Y-116690880D01*
X175048260Y-116688340D01*
X175043180Y-116688340D01*
X174997460Y-116688340D01*
X174994920Y-116708660D01*
X174992380Y-116728980D01*
X174992380Y-116746760D01*
X174994920Y-116756920D01*
X175000000Y-116762000D01*
X175005080Y-116764540D01*
X175022860Y-116764540D01*
X175038100Y-116764540D01*
X175071120Y-116764540D01*
X175093980Y-116759460D01*
X175099060Y-116754380D01*
X175111760Y-116739140D01*
X175114300Y-116721360D01*
X175114300Y-116833120D01*
X175101600Y-116828040D01*
X175076200Y-116822960D01*
X175045720Y-116822960D01*
X174994920Y-116822960D01*
X174994920Y-116866140D01*
X174994920Y-116911860D01*
X175048260Y-116911860D01*
X175078740Y-116911860D01*
X175096520Y-116909320D01*
X175109220Y-116904240D01*
X175114300Y-116901700D01*
X175124460Y-116883920D01*
X175127000Y-116866140D01*
X175127000Y-116970280D01*
X175124460Y-116970280D01*
X175106680Y-116972820D01*
X175081280Y-116975360D01*
X175048260Y-116975360D01*
X175015240Y-116975360D01*
X174911100Y-116975360D01*
X174911100Y-116800100D01*
X174911100Y-116624840D01*
X175015240Y-116624840D01*
X175060960Y-116624840D01*
X175096520Y-116627380D01*
X175121920Y-116629920D01*
X175142240Y-116635000D01*
X175157480Y-116640080D01*
X175167640Y-116650240D01*
X175172720Y-116655320D01*
X175182880Y-116673100D01*
X175187960Y-116698500D01*
X175190500Y-116723900D01*
X175187960Y-116736600D01*
X175180340Y-116751840D01*
X175167640Y-116769620D01*
X175165100Y-116769620D01*
X175154940Y-116779780D01*
X175154940Y-116787400D01*
X175157480Y-116789940D01*
X175175260Y-116800100D01*
X175193040Y-116820420D01*
X175203200Y-116840740D01*
X175205740Y-116850900D01*
X175208280Y-116886460D01*
X175208280Y-116886460D01*
X175208280Y-116886460D01*
G37*
X175208280Y-116886460D02*
X175198120Y-116919480D01*
X175177800Y-116947420D01*
X175149860Y-116962660D01*
X175137160Y-116967740D01*
X175127000Y-116970280D01*
X175127000Y-116866140D01*
X175124460Y-116848360D01*
X175116840Y-116835660D01*
X175114300Y-116833120D01*
X175114300Y-116721360D01*
X175106680Y-116703580D01*
X175104140Y-116698500D01*
X175093980Y-116693420D01*
X175076200Y-116690880D01*
X175048260Y-116688340D01*
X175043180Y-116688340D01*
X174997460Y-116688340D01*
X174994920Y-116708660D01*
X174992380Y-116728980D01*
X174992380Y-116746760D01*
X174994920Y-116756920D01*
X175000000Y-116762000D01*
X175005080Y-116764540D01*
X175022860Y-116764540D01*
X175038100Y-116764540D01*
X175071120Y-116764540D01*
X175093980Y-116759460D01*
X175099060Y-116754380D01*
X175111760Y-116739140D01*
X175114300Y-116721360D01*
X175114300Y-116833120D01*
X175101600Y-116828040D01*
X175076200Y-116822960D01*
X175045720Y-116822960D01*
X174994920Y-116822960D01*
X174994920Y-116866140D01*
X174994920Y-116911860D01*
X175048260Y-116911860D01*
X175078740Y-116911860D01*
X175096520Y-116909320D01*
X175109220Y-116904240D01*
X175114300Y-116901700D01*
X175124460Y-116883920D01*
X175127000Y-116866140D01*
X175127000Y-116970280D01*
X175124460Y-116970280D01*
X175106680Y-116972820D01*
X175081280Y-116975360D01*
X175048260Y-116975360D01*
X175015240Y-116975360D01*
X174911100Y-116975360D01*
X174911100Y-116800100D01*
X174911100Y-116624840D01*
X175015240Y-116624840D01*
X175060960Y-116624840D01*
X175096520Y-116627380D01*
X175121920Y-116629920D01*
X175142240Y-116635000D01*
X175157480Y-116640080D01*
X175167640Y-116650240D01*
X175172720Y-116655320D01*
X175182880Y-116673100D01*
X175187960Y-116698500D01*
X175190500Y-116723900D01*
X175187960Y-116736600D01*
X175180340Y-116751840D01*
X175167640Y-116769620D01*
X175165100Y-116769620D01*
X175154940Y-116779780D01*
X175154940Y-116787400D01*
X175157480Y-116789940D01*
X175175260Y-116800100D01*
X175193040Y-116820420D01*
X175203200Y-116840740D01*
X175205740Y-116850900D01*
X175208280Y-116886460D01*
X175208280Y-116886460D01*
G36*
X175561340Y-116624840D02*
X175492760Y-116736600D01*
X175426720Y-116848360D01*
X175426720Y-116911860D01*
X175426720Y-116975360D01*
X175388620Y-116975360D01*
X175350520Y-116975360D01*
X175350520Y-116909320D01*
X175350520Y-116840740D01*
X175287020Y-116736600D01*
X175269240Y-116703580D01*
X175251460Y-116675640D01*
X175238760Y-116652780D01*
X175228600Y-116637540D01*
X175223520Y-116629920D01*
X175228600Y-116627380D01*
X175243840Y-116624840D01*
X175264160Y-116624840D01*
X175266700Y-116624840D01*
X175309880Y-116624840D01*
X175350520Y-116693420D01*
X175368300Y-116723900D01*
X175381000Y-116741680D01*
X175391160Y-116751840D01*
X175396240Y-116751840D01*
X175401320Y-116741680D01*
X175411480Y-116726440D01*
X175424180Y-116703580D01*
X175434340Y-116685800D01*
X175467360Y-116627380D01*
X175513080Y-116624840D01*
X175561340Y-116624840D01*
X175561340Y-116624840D01*
X175561340Y-116624840D01*
G37*
X175561340Y-116624840D02*
X175492760Y-116736600D01*
X175426720Y-116848360D01*
X175426720Y-116911860D01*
X175426720Y-116975360D01*
X175388620Y-116975360D01*
X175350520Y-116975360D01*
X175350520Y-116909320D01*
X175350520Y-116840740D01*
X175287020Y-116736600D01*
X175269240Y-116703580D01*
X175251460Y-116675640D01*
X175238760Y-116652780D01*
X175228600Y-116637540D01*
X175223520Y-116629920D01*
X175228600Y-116627380D01*
X175243840Y-116624840D01*
X175264160Y-116624840D01*
X175266700Y-116624840D01*
X175309880Y-116624840D01*
X175350520Y-116693420D01*
X175368300Y-116723900D01*
X175381000Y-116741680D01*
X175391160Y-116751840D01*
X175396240Y-116751840D01*
X175401320Y-116741680D01*
X175411480Y-116726440D01*
X175424180Y-116703580D01*
X175434340Y-116685800D01*
X175467360Y-116627380D01*
X175513080Y-116624840D01*
X175561340Y-116624840D01*
X175561340Y-116624840D01*
G36*
X176920240Y-116970280D02*
X176915160Y-116972820D01*
X176899920Y-116975360D01*
X176879600Y-116975360D01*
X176838960Y-116975360D01*
X176828800Y-116937260D01*
X176816100Y-116899160D01*
X176793240Y-116899160D01*
X176793240Y-116835660D01*
X176772920Y-116777240D01*
X176765300Y-116754380D01*
X176755140Y-116734060D01*
X176750060Y-116726440D01*
X176750060Y-116723900D01*
X176744980Y-116731520D01*
X176737360Y-116749300D01*
X176729740Y-116769620D01*
X176722120Y-116792480D01*
X176714500Y-116812800D01*
X176711960Y-116828040D01*
X176709420Y-116830580D01*
X176717040Y-116833120D01*
X176732280Y-116835660D01*
X176750060Y-116835660D01*
X176793240Y-116835660D01*
X176793240Y-116899160D01*
X176750060Y-116899160D01*
X176686560Y-116899160D01*
X176671320Y-116937260D01*
X176658620Y-116975360D01*
X176617980Y-116975360D01*
X176577340Y-116975360D01*
X176643380Y-116802640D01*
X176709420Y-116627380D01*
X176752600Y-116627380D01*
X176793240Y-116627380D01*
X176856740Y-116797560D01*
X176874520Y-116840740D01*
X176889760Y-116881380D01*
X176902460Y-116914400D01*
X176910080Y-116942340D01*
X176917700Y-116962660D01*
X176920240Y-116970280D01*
X176920240Y-116970280D01*
X176920240Y-116970280D01*
X176920240Y-116970280D01*
G37*
X176920240Y-116970280D02*
X176915160Y-116972820D01*
X176899920Y-116975360D01*
X176879600Y-116975360D01*
X176838960Y-116975360D01*
X176828800Y-116937260D01*
X176816100Y-116899160D01*
X176793240Y-116899160D01*
X176793240Y-116835660D01*
X176772920Y-116777240D01*
X176765300Y-116754380D01*
X176755140Y-116734060D01*
X176750060Y-116726440D01*
X176750060Y-116723900D01*
X176744980Y-116731520D01*
X176737360Y-116749300D01*
X176729740Y-116769620D01*
X176722120Y-116792480D01*
X176714500Y-116812800D01*
X176711960Y-116828040D01*
X176709420Y-116830580D01*
X176717040Y-116833120D01*
X176732280Y-116835660D01*
X176750060Y-116835660D01*
X176793240Y-116835660D01*
X176793240Y-116899160D01*
X176750060Y-116899160D01*
X176686560Y-116899160D01*
X176671320Y-116937260D01*
X176658620Y-116975360D01*
X176617980Y-116975360D01*
X176577340Y-116975360D01*
X176643380Y-116802640D01*
X176709420Y-116627380D01*
X176752600Y-116627380D01*
X176793240Y-116627380D01*
X176856740Y-116797560D01*
X176874520Y-116840740D01*
X176889760Y-116881380D01*
X176902460Y-116914400D01*
X176910080Y-116942340D01*
X176917700Y-116962660D01*
X176920240Y-116970280D01*
X176920240Y-116970280D01*
X176920240Y-116970280D01*
G36*
X174443740Y-115913640D02*
X174443740Y-115959360D01*
X174441200Y-116017780D01*
X174436120Y-116071120D01*
X174428500Y-116119380D01*
X174415800Y-116165100D01*
X174400560Y-116210820D01*
X174387860Y-116243840D01*
X174349760Y-116327660D01*
X174298960Y-116406400D01*
X174296420Y-116406400D01*
X174296420Y-115913640D01*
X174291340Y-115824740D01*
X174271020Y-115738380D01*
X174243080Y-115654560D01*
X174202440Y-115575820D01*
X174151640Y-115502160D01*
X174093220Y-115436120D01*
X174022100Y-115375160D01*
X173943360Y-115324360D01*
X173940820Y-115321820D01*
X173864620Y-115286260D01*
X173780800Y-115260860D01*
X173696980Y-115248160D01*
X173608080Y-115243080D01*
X173521720Y-115248160D01*
X173437900Y-115265940D01*
X173356620Y-115293880D01*
X173303280Y-115316740D01*
X173232160Y-115362460D01*
X173163580Y-115418340D01*
X173102620Y-115481840D01*
X173049280Y-115552960D01*
X173006100Y-115626620D01*
X172970540Y-115705360D01*
X172957840Y-115748540D01*
X172940060Y-115842520D01*
X172934980Y-115931420D01*
X172940060Y-116020320D01*
X172960380Y-116106680D01*
X172990860Y-116190500D01*
X173034040Y-116269240D01*
X173087380Y-116345440D01*
X173153420Y-116414020D01*
X173224540Y-116474980D01*
X173303280Y-116523240D01*
X173382020Y-116561340D01*
X173468380Y-116586740D01*
X173557280Y-116599440D01*
X173648720Y-116599440D01*
X173732540Y-116591820D01*
X173811280Y-116574040D01*
X173887480Y-116543560D01*
X173963680Y-116505460D01*
X174032260Y-116457200D01*
X174095760Y-116401320D01*
X174154180Y-116340360D01*
X174202440Y-116274320D01*
X174238000Y-116203200D01*
X174248160Y-116182880D01*
X174276100Y-116091440D01*
X174293880Y-116000000D01*
X174296420Y-115913640D01*
X174296420Y-116406400D01*
X174238000Y-116477520D01*
X174171960Y-116543560D01*
X174095760Y-116601980D01*
X174017020Y-116652780D01*
X173933200Y-116693420D01*
X173844300Y-116723900D01*
X173757940Y-116744220D01*
X173714760Y-116749300D01*
X173674120Y-116751840D01*
X173641100Y-116754380D01*
X173615700Y-116754380D01*
X173590300Y-116754380D01*
X173564900Y-116754380D01*
X173542040Y-116751840D01*
X173442980Y-116739140D01*
X173351540Y-116713740D01*
X173262640Y-116678180D01*
X173178820Y-116629920D01*
X173097540Y-116571500D01*
X173018800Y-116497840D01*
X173018800Y-116495300D01*
X172950220Y-116419100D01*
X172894340Y-116337820D01*
X172851160Y-116254000D01*
X172818140Y-116167640D01*
X172797820Y-116073660D01*
X172787660Y-115977140D01*
X172785120Y-115923800D01*
X172790200Y-115832360D01*
X172800360Y-115748540D01*
X172820680Y-115667260D01*
X172851160Y-115588520D01*
X172876560Y-115540260D01*
X172927360Y-115453900D01*
X172988320Y-115375160D01*
X173059440Y-115304040D01*
X173135640Y-115240540D01*
X173219460Y-115189740D01*
X173308360Y-115146560D01*
X173399800Y-115116080D01*
X173458220Y-115103380D01*
X173501400Y-115095760D01*
X173552200Y-115093220D01*
X173608080Y-115093220D01*
X173663960Y-115093220D01*
X173714760Y-115095760D01*
X173760480Y-115100840D01*
X173770640Y-115103380D01*
X173867160Y-115126240D01*
X173961140Y-115161800D01*
X174047500Y-115207520D01*
X174128780Y-115263400D01*
X174202440Y-115326900D01*
X174268480Y-115400560D01*
X174324360Y-115479300D01*
X174372620Y-115565660D01*
X174408180Y-115659640D01*
X174415800Y-115682500D01*
X174428500Y-115725680D01*
X174436120Y-115768860D01*
X174441200Y-115812040D01*
X174443740Y-115857760D01*
X174443740Y-115913640D01*
X174443740Y-115913640D01*
X174443740Y-115913640D01*
G37*
X174443740Y-115913640D02*
X174443740Y-115959360D01*
X174441200Y-116017780D01*
X174436120Y-116071120D01*
X174428500Y-116119380D01*
X174415800Y-116165100D01*
X174400560Y-116210820D01*
X174387860Y-116243840D01*
X174349760Y-116327660D01*
X174298960Y-116406400D01*
X174296420Y-116406400D01*
X174296420Y-115913640D01*
X174291340Y-115824740D01*
X174271020Y-115738380D01*
X174243080Y-115654560D01*
X174202440Y-115575820D01*
X174151640Y-115502160D01*
X174093220Y-115436120D01*
X174022100Y-115375160D01*
X173943360Y-115324360D01*
X173940820Y-115321820D01*
X173864620Y-115286260D01*
X173780800Y-115260860D01*
X173696980Y-115248160D01*
X173608080Y-115243080D01*
X173521720Y-115248160D01*
X173437900Y-115265940D01*
X173356620Y-115293880D01*
X173303280Y-115316740D01*
X173232160Y-115362460D01*
X173163580Y-115418340D01*
X173102620Y-115481840D01*
X173049280Y-115552960D01*
X173006100Y-115626620D01*
X172970540Y-115705360D01*
X172957840Y-115748540D01*
X172940060Y-115842520D01*
X172934980Y-115931420D01*
X172940060Y-116020320D01*
X172960380Y-116106680D01*
X172990860Y-116190500D01*
X173034040Y-116269240D01*
X173087380Y-116345440D01*
X173153420Y-116414020D01*
X173224540Y-116474980D01*
X173303280Y-116523240D01*
X173382020Y-116561340D01*
X173468380Y-116586740D01*
X173557280Y-116599440D01*
X173648720Y-116599440D01*
X173732540Y-116591820D01*
X173811280Y-116574040D01*
X173887480Y-116543560D01*
X173963680Y-116505460D01*
X174032260Y-116457200D01*
X174095760Y-116401320D01*
X174154180Y-116340360D01*
X174202440Y-116274320D01*
X174238000Y-116203200D01*
X174248160Y-116182880D01*
X174276100Y-116091440D01*
X174293880Y-116000000D01*
X174296420Y-115913640D01*
X174296420Y-116406400D01*
X174238000Y-116477520D01*
X174171960Y-116543560D01*
X174095760Y-116601980D01*
X174017020Y-116652780D01*
X173933200Y-116693420D01*
X173844300Y-116723900D01*
X173757940Y-116744220D01*
X173714760Y-116749300D01*
X173674120Y-116751840D01*
X173641100Y-116754380D01*
X173615700Y-116754380D01*
X173590300Y-116754380D01*
X173564900Y-116754380D01*
X173542040Y-116751840D01*
X173442980Y-116739140D01*
X173351540Y-116713740D01*
X173262640Y-116678180D01*
X173178820Y-116629920D01*
X173097540Y-116571500D01*
X173018800Y-116497840D01*
X173018800Y-116495300D01*
X172950220Y-116419100D01*
X172894340Y-116337820D01*
X172851160Y-116254000D01*
X172818140Y-116167640D01*
X172797820Y-116073660D01*
X172787660Y-115977140D01*
X172785120Y-115923800D01*
X172790200Y-115832360D01*
X172800360Y-115748540D01*
X172820680Y-115667260D01*
X172851160Y-115588520D01*
X172876560Y-115540260D01*
X172927360Y-115453900D01*
X172988320Y-115375160D01*
X173059440Y-115304040D01*
X173135640Y-115240540D01*
X173219460Y-115189740D01*
X173308360Y-115146560D01*
X173399800Y-115116080D01*
X173458220Y-115103380D01*
X173501400Y-115095760D01*
X173552200Y-115093220D01*
X173608080Y-115093220D01*
X173663960Y-115093220D01*
X173714760Y-115095760D01*
X173760480Y-115100840D01*
X173770640Y-115103380D01*
X173867160Y-115126240D01*
X173961140Y-115161800D01*
X174047500Y-115207520D01*
X174128780Y-115263400D01*
X174202440Y-115326900D01*
X174268480Y-115400560D01*
X174324360Y-115479300D01*
X174372620Y-115565660D01*
X174408180Y-115659640D01*
X174415800Y-115682500D01*
X174428500Y-115725680D01*
X174436120Y-115768860D01*
X174441200Y-115812040D01*
X174443740Y-115857760D01*
X174443740Y-115913640D01*
X174443740Y-115913640D01*
G36*
X175876300Y-115682500D02*
X175871220Y-115768860D01*
X175855980Y-115847600D01*
X175833120Y-115918720D01*
X175797560Y-115987300D01*
X175759460Y-116040640D01*
X175759460Y-115682500D01*
X175754380Y-115613920D01*
X175744220Y-115552960D01*
X175726440Y-115494540D01*
X175711200Y-115461520D01*
X175675640Y-115398020D01*
X175627380Y-115339600D01*
X175571500Y-115288800D01*
X175508000Y-115243080D01*
X175441960Y-115210060D01*
X175401320Y-115194820D01*
X175381000Y-115189740D01*
X175360680Y-115184660D01*
X175337820Y-115182120D01*
X175309880Y-115182120D01*
X175274320Y-115179580D01*
X175256540Y-115179580D01*
X175218440Y-115182120D01*
X175187960Y-115182120D01*
X175162560Y-115184660D01*
X175142240Y-115187200D01*
X175121920Y-115192280D01*
X175114300Y-115194820D01*
X175040640Y-115225300D01*
X174974600Y-115265940D01*
X174913640Y-115314200D01*
X174860300Y-115372620D01*
X174817120Y-115438660D01*
X174784100Y-115512320D01*
X174768860Y-115552960D01*
X174761240Y-115593600D01*
X174756160Y-115641860D01*
X174756160Y-115692660D01*
X174758700Y-115740920D01*
X174763780Y-115786640D01*
X174766320Y-115801880D01*
X174794260Y-115878080D01*
X174832360Y-115946660D01*
X174880620Y-116010160D01*
X174939040Y-116066040D01*
X174972060Y-116091440D01*
X175038100Y-116132080D01*
X175109220Y-116160020D01*
X175185420Y-116177800D01*
X175264160Y-116182880D01*
X175330200Y-116177800D01*
X175388620Y-116165100D01*
X175447040Y-116144780D01*
X175502920Y-116116840D01*
X175518160Y-116109220D01*
X175538480Y-116096520D01*
X175563880Y-116076200D01*
X175591820Y-116050800D01*
X175617220Y-116025400D01*
X175617220Y-116025400D01*
X175647700Y-115997460D01*
X175668020Y-115972060D01*
X175685800Y-115949200D01*
X175698500Y-115926340D01*
X175706120Y-115911100D01*
X175731520Y-115855220D01*
X175746760Y-115799340D01*
X175756920Y-115743460D01*
X175759460Y-115682500D01*
X175759460Y-116040640D01*
X175754380Y-116050800D01*
X175703580Y-116104140D01*
X175635000Y-116165100D01*
X175563880Y-116215900D01*
X175487680Y-116254000D01*
X175408940Y-116279400D01*
X175406400Y-116279400D01*
X175368300Y-116287020D01*
X175325120Y-116292100D01*
X175276860Y-116294640D01*
X175228600Y-116297180D01*
X175187960Y-116294640D01*
X175162560Y-116292100D01*
X175078740Y-116271780D01*
X175000000Y-116241300D01*
X174923800Y-116198120D01*
X174852680Y-116144780D01*
X174822200Y-116114300D01*
X174763780Y-116045720D01*
X174715520Y-115977140D01*
X174677420Y-115898400D01*
X174657100Y-115834900D01*
X174652020Y-115806960D01*
X174646940Y-115781560D01*
X174644400Y-115753620D01*
X174641860Y-115723140D01*
X174641860Y-115685040D01*
X174644400Y-115626620D01*
X174646940Y-115578360D01*
X174652020Y-115550420D01*
X174677420Y-115466600D01*
X174712980Y-115390400D01*
X174758700Y-115319280D01*
X174812040Y-115253240D01*
X174875540Y-115194820D01*
X174944120Y-115146560D01*
X175015240Y-115108460D01*
X175096520Y-115080520D01*
X175111760Y-115077980D01*
X175149860Y-115070360D01*
X175198120Y-115067820D01*
X175248920Y-115065280D01*
X175302260Y-115065280D01*
X175353060Y-115070360D01*
X175396240Y-115075440D01*
X175416560Y-115080520D01*
X175500380Y-115108460D01*
X175576580Y-115149100D01*
X175650240Y-115202440D01*
X175713740Y-115263400D01*
X175772160Y-115334520D01*
X175777240Y-115342140D01*
X175815340Y-115403100D01*
X175840740Y-115464060D01*
X175861060Y-115527560D01*
X175871220Y-115596140D01*
X175876300Y-115674880D01*
X175876300Y-115682500D01*
X175876300Y-115682500D01*
X175876300Y-115682500D01*
G37*
X175876300Y-115682500D02*
X175871220Y-115768860D01*
X175855980Y-115847600D01*
X175833120Y-115918720D01*
X175797560Y-115987300D01*
X175759460Y-116040640D01*
X175759460Y-115682500D01*
X175754380Y-115613920D01*
X175744220Y-115552960D01*
X175726440Y-115494540D01*
X175711200Y-115461520D01*
X175675640Y-115398020D01*
X175627380Y-115339600D01*
X175571500Y-115288800D01*
X175508000Y-115243080D01*
X175441960Y-115210060D01*
X175401320Y-115194820D01*
X175381000Y-115189740D01*
X175360680Y-115184660D01*
X175337820Y-115182120D01*
X175309880Y-115182120D01*
X175274320Y-115179580D01*
X175256540Y-115179580D01*
X175218440Y-115182120D01*
X175187960Y-115182120D01*
X175162560Y-115184660D01*
X175142240Y-115187200D01*
X175121920Y-115192280D01*
X175114300Y-115194820D01*
X175040640Y-115225300D01*
X174974600Y-115265940D01*
X174913640Y-115314200D01*
X174860300Y-115372620D01*
X174817120Y-115438660D01*
X174784100Y-115512320D01*
X174768860Y-115552960D01*
X174761240Y-115593600D01*
X174756160Y-115641860D01*
X174756160Y-115692660D01*
X174758700Y-115740920D01*
X174763780Y-115786640D01*
X174766320Y-115801880D01*
X174794260Y-115878080D01*
X174832360Y-115946660D01*
X174880620Y-116010160D01*
X174939040Y-116066040D01*
X174972060Y-116091440D01*
X175038100Y-116132080D01*
X175109220Y-116160020D01*
X175185420Y-116177800D01*
X175264160Y-116182880D01*
X175330200Y-116177800D01*
X175388620Y-116165100D01*
X175447040Y-116144780D01*
X175502920Y-116116840D01*
X175518160Y-116109220D01*
X175538480Y-116096520D01*
X175563880Y-116076200D01*
X175591820Y-116050800D01*
X175617220Y-116025400D01*
X175617220Y-116025400D01*
X175647700Y-115997460D01*
X175668020Y-115972060D01*
X175685800Y-115949200D01*
X175698500Y-115926340D01*
X175706120Y-115911100D01*
X175731520Y-115855220D01*
X175746760Y-115799340D01*
X175756920Y-115743460D01*
X175759460Y-115682500D01*
X175759460Y-116040640D01*
X175754380Y-116050800D01*
X175703580Y-116104140D01*
X175635000Y-116165100D01*
X175563880Y-116215900D01*
X175487680Y-116254000D01*
X175408940Y-116279400D01*
X175406400Y-116279400D01*
X175368300Y-116287020D01*
X175325120Y-116292100D01*
X175276860Y-116294640D01*
X175228600Y-116297180D01*
X175187960Y-116294640D01*
X175162560Y-116292100D01*
X175078740Y-116271780D01*
X175000000Y-116241300D01*
X174923800Y-116198120D01*
X174852680Y-116144780D01*
X174822200Y-116114300D01*
X174763780Y-116045720D01*
X174715520Y-115977140D01*
X174677420Y-115898400D01*
X174657100Y-115834900D01*
X174652020Y-115806960D01*
X174646940Y-115781560D01*
X174644400Y-115753620D01*
X174641860Y-115723140D01*
X174641860Y-115685040D01*
X174644400Y-115626620D01*
X174646940Y-115578360D01*
X174652020Y-115550420D01*
X174677420Y-115466600D01*
X174712980Y-115390400D01*
X174758700Y-115319280D01*
X174812040Y-115253240D01*
X174875540Y-115194820D01*
X174944120Y-115146560D01*
X175015240Y-115108460D01*
X175096520Y-115080520D01*
X175111760Y-115077980D01*
X175149860Y-115070360D01*
X175198120Y-115067820D01*
X175248920Y-115065280D01*
X175302260Y-115065280D01*
X175353060Y-115070360D01*
X175396240Y-115075440D01*
X175416560Y-115080520D01*
X175500380Y-115108460D01*
X175576580Y-115149100D01*
X175650240Y-115202440D01*
X175713740Y-115263400D01*
X175772160Y-115334520D01*
X175777240Y-115342140D01*
X175815340Y-115403100D01*
X175840740Y-115464060D01*
X175861060Y-115527560D01*
X175871220Y-115596140D01*
X175876300Y-115674880D01*
X175876300Y-115682500D01*
X175876300Y-115682500D01*
G36*
X177263140Y-115695200D02*
X177260600Y-115746000D01*
X177258060Y-115789180D01*
X177252980Y-115824740D01*
X177250440Y-115829820D01*
X177225040Y-115913640D01*
X177184400Y-115992380D01*
X177148840Y-116040640D01*
X177148840Y-115700280D01*
X177148840Y-115662180D01*
X177146300Y-115611380D01*
X177138680Y-115568200D01*
X177131060Y-115527560D01*
X177115820Y-115489460D01*
X177100580Y-115456440D01*
X177059940Y-115390400D01*
X177011680Y-115331980D01*
X176953260Y-115281180D01*
X176889760Y-115238000D01*
X176821180Y-115204980D01*
X176800860Y-115197360D01*
X176755140Y-115187200D01*
X176704340Y-115179580D01*
X176648460Y-115177040D01*
X176592580Y-115179580D01*
X176544320Y-115184660D01*
X176539240Y-115187200D01*
X176465580Y-115210060D01*
X176397000Y-115243080D01*
X176333500Y-115286260D01*
X176277620Y-115339600D01*
X176229360Y-115403100D01*
X176191260Y-115471680D01*
X176165860Y-115527560D01*
X176158240Y-115552960D01*
X176153160Y-115575820D01*
X176148080Y-115593600D01*
X176145540Y-115616460D01*
X176145540Y-115644400D01*
X176145540Y-115679960D01*
X176145540Y-115733300D01*
X176150620Y-115781560D01*
X176160780Y-115822200D01*
X176176020Y-115862840D01*
X176191260Y-115895860D01*
X176221740Y-115946660D01*
X176259840Y-115997460D01*
X176303020Y-116040640D01*
X176351280Y-116083820D01*
X176394460Y-116111760D01*
X176460500Y-116144780D01*
X176531620Y-116167640D01*
X176605280Y-116180340D01*
X176681480Y-116180340D01*
X176755140Y-116170180D01*
X176780540Y-116165100D01*
X176846580Y-116139700D01*
X176912620Y-116104140D01*
X176973580Y-116060960D01*
X177026920Y-116010160D01*
X177072640Y-115956820D01*
X177105660Y-115895860D01*
X177110740Y-115888240D01*
X177131060Y-115829820D01*
X177143760Y-115768860D01*
X177148840Y-115700280D01*
X177148840Y-116040640D01*
X177136140Y-116060960D01*
X177075180Y-116127000D01*
X177021840Y-116172720D01*
X176945640Y-116220980D01*
X176866900Y-116256540D01*
X176783080Y-116281940D01*
X176696720Y-116294640D01*
X176607820Y-116297180D01*
X176544320Y-116289560D01*
X176463040Y-116269240D01*
X176384300Y-116238760D01*
X176310640Y-116195580D01*
X176242060Y-116142240D01*
X176178560Y-116078740D01*
X176170940Y-116068580D01*
X176117600Y-116000000D01*
X176079500Y-115926340D01*
X176049020Y-115845060D01*
X176033780Y-115763780D01*
X176028700Y-115679960D01*
X176033780Y-115593600D01*
X176051560Y-115509780D01*
X176082040Y-115428500D01*
X176092200Y-115410720D01*
X176132840Y-115337060D01*
X176186180Y-115268480D01*
X176247140Y-115207520D01*
X176315720Y-115156720D01*
X176389380Y-115116080D01*
X176468120Y-115085600D01*
X176485900Y-115080520D01*
X176508760Y-115075440D01*
X176531620Y-115070360D01*
X176554480Y-115067820D01*
X176582420Y-115067820D01*
X176617980Y-115065280D01*
X176648460Y-115065280D01*
X176694180Y-115067820D01*
X176727200Y-115067820D01*
X176752600Y-115070360D01*
X176775460Y-115072900D01*
X176798320Y-115077980D01*
X176808480Y-115080520D01*
X176861820Y-115098300D01*
X176915160Y-115121160D01*
X176968500Y-115149100D01*
X177006600Y-115174500D01*
X177034540Y-115194820D01*
X177065020Y-115225300D01*
X177098040Y-115255780D01*
X177128520Y-115288800D01*
X177153920Y-115319280D01*
X177161540Y-115331980D01*
X177186940Y-115370080D01*
X177209800Y-115415800D01*
X177230120Y-115464060D01*
X177245360Y-115509780D01*
X177247900Y-115519940D01*
X177255520Y-115552960D01*
X177258060Y-115596140D01*
X177263140Y-115644400D01*
X177263140Y-115695200D01*
X177263140Y-115695200D01*
X177263140Y-115695200D01*
G37*
X177263140Y-115695200D02*
X177260600Y-115746000D01*
X177258060Y-115789180D01*
X177252980Y-115824740D01*
X177250440Y-115829820D01*
X177225040Y-115913640D01*
X177184400Y-115992380D01*
X177148840Y-116040640D01*
X177148840Y-115700280D01*
X177148840Y-115662180D01*
X177146300Y-115611380D01*
X177138680Y-115568200D01*
X177131060Y-115527560D01*
X177115820Y-115489460D01*
X177100580Y-115456440D01*
X177059940Y-115390400D01*
X177011680Y-115331980D01*
X176953260Y-115281180D01*
X176889760Y-115238000D01*
X176821180Y-115204980D01*
X176800860Y-115197360D01*
X176755140Y-115187200D01*
X176704340Y-115179580D01*
X176648460Y-115177040D01*
X176592580Y-115179580D01*
X176544320Y-115184660D01*
X176539240Y-115187200D01*
X176465580Y-115210060D01*
X176397000Y-115243080D01*
X176333500Y-115286260D01*
X176277620Y-115339600D01*
X176229360Y-115403100D01*
X176191260Y-115471680D01*
X176165860Y-115527560D01*
X176158240Y-115552960D01*
X176153160Y-115575820D01*
X176148080Y-115593600D01*
X176145540Y-115616460D01*
X176145540Y-115644400D01*
X176145540Y-115679960D01*
X176145540Y-115733300D01*
X176150620Y-115781560D01*
X176160780Y-115822200D01*
X176176020Y-115862840D01*
X176191260Y-115895860D01*
X176221740Y-115946660D01*
X176259840Y-115997460D01*
X176303020Y-116040640D01*
X176351280Y-116083820D01*
X176394460Y-116111760D01*
X176460500Y-116144780D01*
X176531620Y-116167640D01*
X176605280Y-116180340D01*
X176681480Y-116180340D01*
X176755140Y-116170180D01*
X176780540Y-116165100D01*
X176846580Y-116139700D01*
X176912620Y-116104140D01*
X176973580Y-116060960D01*
X177026920Y-116010160D01*
X177072640Y-115956820D01*
X177105660Y-115895860D01*
X177110740Y-115888240D01*
X177131060Y-115829820D01*
X177143760Y-115768860D01*
X177148840Y-115700280D01*
X177148840Y-116040640D01*
X177136140Y-116060960D01*
X177075180Y-116127000D01*
X177021840Y-116172720D01*
X176945640Y-116220980D01*
X176866900Y-116256540D01*
X176783080Y-116281940D01*
X176696720Y-116294640D01*
X176607820Y-116297180D01*
X176544320Y-116289560D01*
X176463040Y-116269240D01*
X176384300Y-116238760D01*
X176310640Y-116195580D01*
X176242060Y-116142240D01*
X176178560Y-116078740D01*
X176170940Y-116068580D01*
X176117600Y-116000000D01*
X176079500Y-115926340D01*
X176049020Y-115845060D01*
X176033780Y-115763780D01*
X176028700Y-115679960D01*
X176033780Y-115593600D01*
X176051560Y-115509780D01*
X176082040Y-115428500D01*
X176092200Y-115410720D01*
X176132840Y-115337060D01*
X176186180Y-115268480D01*
X176247140Y-115207520D01*
X176315720Y-115156720D01*
X176389380Y-115116080D01*
X176468120Y-115085600D01*
X176485900Y-115080520D01*
X176508760Y-115075440D01*
X176531620Y-115070360D01*
X176554480Y-115067820D01*
X176582420Y-115067820D01*
X176617980Y-115065280D01*
X176648460Y-115065280D01*
X176694180Y-115067820D01*
X176727200Y-115067820D01*
X176752600Y-115070360D01*
X176775460Y-115072900D01*
X176798320Y-115077980D01*
X176808480Y-115080520D01*
X176861820Y-115098300D01*
X176915160Y-115121160D01*
X176968500Y-115149100D01*
X177006600Y-115174500D01*
X177034540Y-115194820D01*
X177065020Y-115225300D01*
X177098040Y-115255780D01*
X177128520Y-115288800D01*
X177153920Y-115319280D01*
X177161540Y-115331980D01*
X177186940Y-115370080D01*
X177209800Y-115415800D01*
X177230120Y-115464060D01*
X177245360Y-115509780D01*
X177247900Y-115519940D01*
X177255520Y-115552960D01*
X177258060Y-115596140D01*
X177263140Y-115644400D01*
X177263140Y-115695200D01*
X177263140Y-115695200D01*
G36*
X173608080Y-116050800D02*
X173597920Y-116071120D01*
X173580140Y-116093980D01*
X173554740Y-116116840D01*
X173529340Y-116139700D01*
X173501400Y-116157480D01*
X173496320Y-116160020D01*
X173450600Y-116172720D01*
X173397260Y-116177800D01*
X173356620Y-116177800D01*
X173300740Y-116165100D01*
X173255020Y-116144780D01*
X173214380Y-116114300D01*
X173183900Y-116076200D01*
X173161040Y-116027940D01*
X173145800Y-115977140D01*
X173143260Y-115916180D01*
X173145800Y-115900940D01*
X173153420Y-115845060D01*
X173171200Y-115796800D01*
X173196600Y-115756160D01*
X173206760Y-115743460D01*
X173247400Y-115707900D01*
X173295660Y-115682500D01*
X173349000Y-115667260D01*
X173404880Y-115667260D01*
X173430280Y-115669800D01*
X173460760Y-115674880D01*
X173491240Y-115682500D01*
X173511560Y-115692660D01*
X173529340Y-115702820D01*
X173552200Y-115720600D01*
X173572520Y-115738380D01*
X173587760Y-115756160D01*
X173600460Y-115773940D01*
X173603000Y-115781560D01*
X173597920Y-115789180D01*
X173582680Y-115799340D01*
X173562360Y-115809500D01*
X173552200Y-115817120D01*
X173501400Y-115842520D01*
X173470920Y-115809500D01*
X173453140Y-115791720D01*
X173440440Y-115784100D01*
X173427740Y-115779020D01*
X173412500Y-115776480D01*
X173402340Y-115776480D01*
X173366780Y-115784100D01*
X173338840Y-115799340D01*
X173313440Y-115824740D01*
X173313440Y-115829820D01*
X173303280Y-115850140D01*
X173298200Y-115883160D01*
X173295660Y-115916180D01*
X173298200Y-115954280D01*
X173300740Y-115984760D01*
X173305820Y-116000000D01*
X173321060Y-116030480D01*
X173341380Y-116050800D01*
X173371860Y-116063500D01*
X173402340Y-116066040D01*
X173435360Y-116063500D01*
X173460760Y-116053340D01*
X173481080Y-116033020D01*
X173491240Y-116020320D01*
X173501400Y-116005080D01*
X173509020Y-116000000D01*
X173509020Y-116000000D01*
X173516640Y-116002540D01*
X173531880Y-116010160D01*
X173552200Y-116020320D01*
X173562360Y-116025400D01*
X173608080Y-116050800D01*
X173608080Y-116050800D01*
X173608080Y-116050800D01*
G37*
X173608080Y-116050800D02*
X173597920Y-116071120D01*
X173580140Y-116093980D01*
X173554740Y-116116840D01*
X173529340Y-116139700D01*
X173501400Y-116157480D01*
X173496320Y-116160020D01*
X173450600Y-116172720D01*
X173397260Y-116177800D01*
X173356620Y-116177800D01*
X173300740Y-116165100D01*
X173255020Y-116144780D01*
X173214380Y-116114300D01*
X173183900Y-116076200D01*
X173161040Y-116027940D01*
X173145800Y-115977140D01*
X173143260Y-115916180D01*
X173145800Y-115900940D01*
X173153420Y-115845060D01*
X173171200Y-115796800D01*
X173196600Y-115756160D01*
X173206760Y-115743460D01*
X173247400Y-115707900D01*
X173295660Y-115682500D01*
X173349000Y-115667260D01*
X173404880Y-115667260D01*
X173430280Y-115669800D01*
X173460760Y-115674880D01*
X173491240Y-115682500D01*
X173511560Y-115692660D01*
X173529340Y-115702820D01*
X173552200Y-115720600D01*
X173572520Y-115738380D01*
X173587760Y-115756160D01*
X173600460Y-115773940D01*
X173603000Y-115781560D01*
X173597920Y-115789180D01*
X173582680Y-115799340D01*
X173562360Y-115809500D01*
X173552200Y-115817120D01*
X173501400Y-115842520D01*
X173470920Y-115809500D01*
X173453140Y-115791720D01*
X173440440Y-115784100D01*
X173427740Y-115779020D01*
X173412500Y-115776480D01*
X173402340Y-115776480D01*
X173366780Y-115784100D01*
X173338840Y-115799340D01*
X173313440Y-115824740D01*
X173313440Y-115829820D01*
X173303280Y-115850140D01*
X173298200Y-115883160D01*
X173295660Y-115916180D01*
X173298200Y-115954280D01*
X173300740Y-115984760D01*
X173305820Y-116000000D01*
X173321060Y-116030480D01*
X173341380Y-116050800D01*
X173371860Y-116063500D01*
X173402340Y-116066040D01*
X173435360Y-116063500D01*
X173460760Y-116053340D01*
X173481080Y-116033020D01*
X173491240Y-116020320D01*
X173501400Y-116005080D01*
X173509020Y-116000000D01*
X173509020Y-116000000D01*
X173516640Y-116002540D01*
X173531880Y-116010160D01*
X173552200Y-116020320D01*
X173562360Y-116025400D01*
X173608080Y-116050800D01*
X173608080Y-116050800D01*
G36*
X174083060Y-116050800D02*
X174083060Y-116058420D01*
X174075440Y-116071120D01*
X174067820Y-116083820D01*
X174032260Y-116124460D01*
X173991620Y-116152400D01*
X173945900Y-116170180D01*
X173892560Y-116177800D01*
X173834140Y-116177800D01*
X173785880Y-116167640D01*
X173745240Y-116149860D01*
X173707140Y-116124460D01*
X173699520Y-116116840D01*
X173666500Y-116078740D01*
X173643640Y-116033020D01*
X173628400Y-115979680D01*
X173628400Y-115969520D01*
X173625860Y-115911100D01*
X173630940Y-115855220D01*
X173648720Y-115804420D01*
X173674120Y-115758700D01*
X173707140Y-115723140D01*
X173747780Y-115692660D01*
X173770640Y-115682500D01*
X173821440Y-115669800D01*
X173874780Y-115667260D01*
X173928120Y-115672340D01*
X173976380Y-115685040D01*
X173984000Y-115687580D01*
X174006860Y-115700280D01*
X174032260Y-115720600D01*
X174055120Y-115740920D01*
X174072900Y-115761240D01*
X174077980Y-115771400D01*
X174083060Y-115779020D01*
X174083060Y-115786640D01*
X174075440Y-115791720D01*
X174062740Y-115799340D01*
X174042420Y-115809500D01*
X174032260Y-115814580D01*
X173978920Y-115842520D01*
X173948440Y-115809500D01*
X173930660Y-115791720D01*
X173920500Y-115784100D01*
X173907800Y-115779020D01*
X173890020Y-115776480D01*
X173882400Y-115776480D01*
X173846840Y-115781560D01*
X173818900Y-115796800D01*
X173798580Y-115822200D01*
X173788420Y-115837440D01*
X173778260Y-115870460D01*
X173773180Y-115911100D01*
X173773180Y-115951740D01*
X173780800Y-115989840D01*
X173785880Y-116007620D01*
X173806200Y-116035560D01*
X173831600Y-116055880D01*
X173862080Y-116066040D01*
X173895100Y-116068580D01*
X173925580Y-116058420D01*
X173953520Y-116038100D01*
X173968760Y-116022860D01*
X173978920Y-116010160D01*
X173981460Y-116005080D01*
X173984000Y-116002540D01*
X173994160Y-116002540D01*
X174009400Y-116007620D01*
X174032260Y-116020320D01*
X174052580Y-116033020D01*
X174072900Y-116043180D01*
X174083060Y-116048260D01*
X174083060Y-116050800D01*
X174083060Y-116050800D01*
X174083060Y-116050800D01*
G37*
X174083060Y-116050800D02*
X174083060Y-116058420D01*
X174075440Y-116071120D01*
X174067820Y-116083820D01*
X174032260Y-116124460D01*
X173991620Y-116152400D01*
X173945900Y-116170180D01*
X173892560Y-116177800D01*
X173834140Y-116177800D01*
X173785880Y-116167640D01*
X173745240Y-116149860D01*
X173707140Y-116124460D01*
X173699520Y-116116840D01*
X173666500Y-116078740D01*
X173643640Y-116033020D01*
X173628400Y-115979680D01*
X173628400Y-115969520D01*
X173625860Y-115911100D01*
X173630940Y-115855220D01*
X173648720Y-115804420D01*
X173674120Y-115758700D01*
X173707140Y-115723140D01*
X173747780Y-115692660D01*
X173770640Y-115682500D01*
X173821440Y-115669800D01*
X173874780Y-115667260D01*
X173928120Y-115672340D01*
X173976380Y-115685040D01*
X173984000Y-115687580D01*
X174006860Y-115700280D01*
X174032260Y-115720600D01*
X174055120Y-115740920D01*
X174072900Y-115761240D01*
X174077980Y-115771400D01*
X174083060Y-115779020D01*
X174083060Y-115786640D01*
X174075440Y-115791720D01*
X174062740Y-115799340D01*
X174042420Y-115809500D01*
X174032260Y-115814580D01*
X173978920Y-115842520D01*
X173948440Y-115809500D01*
X173930660Y-115791720D01*
X173920500Y-115784100D01*
X173907800Y-115779020D01*
X173890020Y-115776480D01*
X173882400Y-115776480D01*
X173846840Y-115781560D01*
X173818900Y-115796800D01*
X173798580Y-115822200D01*
X173788420Y-115837440D01*
X173778260Y-115870460D01*
X173773180Y-115911100D01*
X173773180Y-115951740D01*
X173780800Y-115989840D01*
X173785880Y-116007620D01*
X173806200Y-116035560D01*
X173831600Y-116055880D01*
X173862080Y-116066040D01*
X173895100Y-116068580D01*
X173925580Y-116058420D01*
X173953520Y-116038100D01*
X173968760Y-116022860D01*
X173978920Y-116010160D01*
X173981460Y-116005080D01*
X173984000Y-116002540D01*
X173994160Y-116002540D01*
X174009400Y-116007620D01*
X174032260Y-116020320D01*
X174052580Y-116033020D01*
X174072900Y-116043180D01*
X174083060Y-116048260D01*
X174083060Y-116050800D01*
X174083060Y-116050800D01*
G36*
X175421640Y-115547880D02*
X175421640Y-115568200D01*
X175421640Y-115596140D01*
X175421640Y-115629160D01*
X175421640Y-115662180D01*
X175419100Y-115776480D01*
X175386080Y-115779020D01*
X175353060Y-115781560D01*
X175350520Y-115928880D01*
X175350520Y-116076200D01*
X175254000Y-116076200D01*
X175157480Y-116076200D01*
X175157480Y-115926340D01*
X175157480Y-115776480D01*
X175132080Y-115779020D01*
X175111760Y-115779020D01*
X175099060Y-115779020D01*
X175096520Y-115779020D01*
X175093980Y-115773940D01*
X175091440Y-115763780D01*
X175088900Y-115746000D01*
X175088900Y-115718060D01*
X175088900Y-115679960D01*
X175088900Y-115646940D01*
X175088900Y-115603760D01*
X175088900Y-115568200D01*
X175088900Y-115542800D01*
X175091440Y-115525020D01*
X175093980Y-115512320D01*
X175096520Y-115504700D01*
X175099060Y-115504700D01*
X175101600Y-115499620D01*
X175106680Y-115497080D01*
X175114300Y-115494540D01*
X175124460Y-115492000D01*
X175142240Y-115492000D01*
X175167640Y-115489460D01*
X175200660Y-115489460D01*
X175246380Y-115489460D01*
X175254000Y-115489460D01*
X175304800Y-115489460D01*
X175342900Y-115492000D01*
X175373380Y-115492000D01*
X175393700Y-115494540D01*
X175408940Y-115499620D01*
X175416560Y-115504700D01*
X175419100Y-115514860D01*
X175421640Y-115525020D01*
X175421640Y-115537720D01*
X175421640Y-115547880D01*
X175421640Y-115547880D01*
X175421640Y-115547880D01*
G37*
X175421640Y-115547880D02*
X175421640Y-115568200D01*
X175421640Y-115596140D01*
X175421640Y-115629160D01*
X175421640Y-115662180D01*
X175419100Y-115776480D01*
X175386080Y-115779020D01*
X175353060Y-115781560D01*
X175350520Y-115928880D01*
X175350520Y-116076200D01*
X175254000Y-116076200D01*
X175157480Y-116076200D01*
X175157480Y-115926340D01*
X175157480Y-115776480D01*
X175132080Y-115779020D01*
X175111760Y-115779020D01*
X175099060Y-115779020D01*
X175096520Y-115779020D01*
X175093980Y-115773940D01*
X175091440Y-115763780D01*
X175088900Y-115746000D01*
X175088900Y-115718060D01*
X175088900Y-115679960D01*
X175088900Y-115646940D01*
X175088900Y-115603760D01*
X175088900Y-115568200D01*
X175088900Y-115542800D01*
X175091440Y-115525020D01*
X175093980Y-115512320D01*
X175096520Y-115504700D01*
X175099060Y-115504700D01*
X175101600Y-115499620D01*
X175106680Y-115497080D01*
X175114300Y-115494540D01*
X175124460Y-115492000D01*
X175142240Y-115492000D01*
X175167640Y-115489460D01*
X175200660Y-115489460D01*
X175246380Y-115489460D01*
X175254000Y-115489460D01*
X175304800Y-115489460D01*
X175342900Y-115492000D01*
X175373380Y-115492000D01*
X175393700Y-115494540D01*
X175408940Y-115499620D01*
X175416560Y-115504700D01*
X175419100Y-115514860D01*
X175421640Y-115525020D01*
X175421640Y-115537720D01*
X175421640Y-115547880D01*
X175421640Y-115547880D01*
G36*
X175340360Y-115375160D02*
X175335280Y-115400560D01*
X175322580Y-115423420D01*
X175302260Y-115443740D01*
X175271780Y-115453900D01*
X175269240Y-115453900D01*
X175251460Y-115453900D01*
X175231140Y-115451360D01*
X175226060Y-115448820D01*
X175208280Y-115443740D01*
X175200660Y-115438660D01*
X175198120Y-115438660D01*
X175195580Y-115433580D01*
X175187960Y-115423420D01*
X175185420Y-115418340D01*
X175172720Y-115387860D01*
X175170180Y-115357380D01*
X175180340Y-115329440D01*
X175198120Y-115306580D01*
X175223520Y-115291340D01*
X175254000Y-115283720D01*
X175259080Y-115283720D01*
X175289560Y-115288800D01*
X175312420Y-115304040D01*
X175330200Y-115324360D01*
X175337820Y-115349760D01*
X175340360Y-115375160D01*
X175340360Y-115375160D01*
X175340360Y-115375160D01*
G37*
X175340360Y-115375160D02*
X175335280Y-115400560D01*
X175322580Y-115423420D01*
X175302260Y-115443740D01*
X175271780Y-115453900D01*
X175269240Y-115453900D01*
X175251460Y-115453900D01*
X175231140Y-115451360D01*
X175226060Y-115448820D01*
X175208280Y-115443740D01*
X175200660Y-115438660D01*
X175198120Y-115438660D01*
X175195580Y-115433580D01*
X175187960Y-115423420D01*
X175185420Y-115418340D01*
X175172720Y-115387860D01*
X175170180Y-115357380D01*
X175180340Y-115329440D01*
X175198120Y-115306580D01*
X175223520Y-115291340D01*
X175254000Y-115283720D01*
X175259080Y-115283720D01*
X175289560Y-115288800D01*
X175312420Y-115304040D01*
X175330200Y-115324360D01*
X175337820Y-115349760D01*
X175340360Y-115375160D01*
X175340360Y-115375160D01*
G36*
X176960880Y-115677420D02*
X176955800Y-115738380D01*
X176943100Y-115799340D01*
X176922780Y-115855220D01*
X176910080Y-115875540D01*
X176889760Y-115900940D01*
X176869440Y-115926340D01*
X176866900Y-115928880D01*
X176818640Y-115966980D01*
X176765300Y-115997460D01*
X176706880Y-116010160D01*
X176643380Y-116017780D01*
X176579880Y-116012700D01*
X176577340Y-116010160D01*
X176524000Y-115997460D01*
X176475740Y-115969520D01*
X176435100Y-115931420D01*
X176402080Y-115885700D01*
X176379220Y-115829820D01*
X176369060Y-115794260D01*
X176363980Y-115776480D01*
X176445260Y-115776480D01*
X176524000Y-115776480D01*
X176529080Y-115804420D01*
X176536700Y-115829820D01*
X176554480Y-115855220D01*
X176574800Y-115873000D01*
X176577340Y-115873000D01*
X176590040Y-115878080D01*
X176610360Y-115883160D01*
X176625600Y-115885700D01*
X176668780Y-115888240D01*
X176706880Y-115878080D01*
X176739900Y-115857760D01*
X176767840Y-115827280D01*
X176785620Y-115784100D01*
X176798320Y-115733300D01*
X176798320Y-115733300D01*
X176803400Y-115687580D01*
X176800860Y-115639320D01*
X176793240Y-115596140D01*
X176778000Y-115558040D01*
X176778000Y-115552960D01*
X176755140Y-115525020D01*
X176727200Y-115502160D01*
X176696720Y-115489460D01*
X176656080Y-115484380D01*
X176617980Y-115489460D01*
X176582420Y-115504700D01*
X176554480Y-115525020D01*
X176539240Y-115550420D01*
X176529080Y-115570740D01*
X176526540Y-115583440D01*
X176531620Y-115591060D01*
X176544320Y-115593600D01*
X176549400Y-115593600D01*
X176572260Y-115593600D01*
X176511300Y-115654560D01*
X176447800Y-115718060D01*
X176386840Y-115654560D01*
X176323340Y-115593600D01*
X176346200Y-115593600D01*
X176366520Y-115588520D01*
X176376680Y-115578360D01*
X176379220Y-115560580D01*
X176381760Y-115545340D01*
X176391920Y-115522480D01*
X176404620Y-115497080D01*
X176419860Y-115469140D01*
X176437640Y-115446280D01*
X176450340Y-115431040D01*
X176493520Y-115398020D01*
X176541780Y-115372620D01*
X176595120Y-115359920D01*
X176651000Y-115354840D01*
X176709420Y-115359920D01*
X176767840Y-115377700D01*
X176800860Y-115392940D01*
X176846580Y-115420880D01*
X176884680Y-115461520D01*
X176915160Y-115507240D01*
X176938020Y-115560580D01*
X176953260Y-115619000D01*
X176960880Y-115677420D01*
X176960880Y-115677420D01*
X176960880Y-115677420D01*
G37*
X176960880Y-115677420D02*
X176955800Y-115738380D01*
X176943100Y-115799340D01*
X176922780Y-115855220D01*
X176910080Y-115875540D01*
X176889760Y-115900940D01*
X176869440Y-115926340D01*
X176866900Y-115928880D01*
X176818640Y-115966980D01*
X176765300Y-115997460D01*
X176706880Y-116010160D01*
X176643380Y-116017780D01*
X176579880Y-116012700D01*
X176577340Y-116010160D01*
X176524000Y-115997460D01*
X176475740Y-115969520D01*
X176435100Y-115931420D01*
X176402080Y-115885700D01*
X176379220Y-115829820D01*
X176369060Y-115794260D01*
X176363980Y-115776480D01*
X176445260Y-115776480D01*
X176524000Y-115776480D01*
X176529080Y-115804420D01*
X176536700Y-115829820D01*
X176554480Y-115855220D01*
X176574800Y-115873000D01*
X176577340Y-115873000D01*
X176590040Y-115878080D01*
X176610360Y-115883160D01*
X176625600Y-115885700D01*
X176668780Y-115888240D01*
X176706880Y-115878080D01*
X176739900Y-115857760D01*
X176767840Y-115827280D01*
X176785620Y-115784100D01*
X176798320Y-115733300D01*
X176798320Y-115733300D01*
X176803400Y-115687580D01*
X176800860Y-115639320D01*
X176793240Y-115596140D01*
X176778000Y-115558040D01*
X176778000Y-115552960D01*
X176755140Y-115525020D01*
X176727200Y-115502160D01*
X176696720Y-115489460D01*
X176656080Y-115484380D01*
X176617980Y-115489460D01*
X176582420Y-115504700D01*
X176554480Y-115525020D01*
X176539240Y-115550420D01*
X176529080Y-115570740D01*
X176526540Y-115583440D01*
X176531620Y-115591060D01*
X176544320Y-115593600D01*
X176549400Y-115593600D01*
X176572260Y-115593600D01*
X176511300Y-115654560D01*
X176447800Y-115718060D01*
X176386840Y-115654560D01*
X176323340Y-115593600D01*
X176346200Y-115593600D01*
X176366520Y-115588520D01*
X176376680Y-115578360D01*
X176379220Y-115560580D01*
X176381760Y-115545340D01*
X176391920Y-115522480D01*
X176404620Y-115497080D01*
X176419860Y-115469140D01*
X176437640Y-115446280D01*
X176450340Y-115431040D01*
X176493520Y-115398020D01*
X176541780Y-115372620D01*
X176595120Y-115359920D01*
X176651000Y-115354840D01*
X176709420Y-115359920D01*
X176767840Y-115377700D01*
X176800860Y-115392940D01*
X176846580Y-115420880D01*
X176884680Y-115461520D01*
X176915160Y-115507240D01*
X176938020Y-115560580D01*
X176953260Y-115619000D01*
X176960880Y-115677420D01*
X176960880Y-115677420D01*
D15*
X177160000Y-113120000D02*
X177160000Y-113580000D01*
X177250000Y-113120000D02*
X177300000Y-113120000D01*
X177200000Y-113150000D02*
X177250000Y-113120000D01*
X177180000Y-113170000D02*
X177200000Y-113150000D01*
X177160000Y-113240000D02*
X177180000Y-113170000D01*
X177600000Y-113580000D02*
X177650000Y-113550000D01*
X177500000Y-113580000D02*
X177600000Y-113580000D01*
X177460000Y-113550000D02*
X177500000Y-113580000D01*
X177440000Y-113480000D02*
X177460000Y-113550000D01*
X177440000Y-113210000D02*
X177440000Y-113480000D01*
X177470000Y-113150000D02*
X177440000Y-113210000D01*
X177510000Y-113120000D02*
X177470000Y-113150000D01*
X177610000Y-113120000D02*
X177510000Y-113120000D01*
X177650000Y-113160000D02*
X177610000Y-113120000D01*
X177670000Y-113230000D02*
X177650000Y-113160000D01*
X177670000Y-113350000D02*
X177670000Y-113230000D01*
X177670000Y-113350000D02*
X177440000Y-113350000D01*
X176920000Y-113210000D02*
X176920000Y-113580000D01*
X176890000Y-113150000D02*
X176920000Y-113210000D01*
X176850000Y-113120000D02*
X176890000Y-113150000D01*
X176750000Y-113120000D02*
X176850000Y-113120000D01*
X176700000Y-113150000D02*
X176750000Y-113120000D01*
X176760000Y-113310000D02*
X176710000Y-113340000D01*
X176880000Y-113310000D02*
X176760000Y-113310000D01*
X176920000Y-113280000D02*
X176880000Y-113310000D01*
X176870000Y-113580000D02*
X176920000Y-113540000D01*
X176750000Y-113580000D02*
X176870000Y-113580000D01*
X176700000Y-113540000D02*
X176750000Y-113580000D01*
X176680000Y-113480000D02*
X176700000Y-113540000D01*
X176680000Y-113410000D02*
X176680000Y-113480000D01*
X176710000Y-113340000D02*
X176680000Y-113410000D01*
X176130000Y-113120000D02*
X176230000Y-113580000D01*
X176230000Y-113580000D02*
X176320000Y-113240000D01*
X176320000Y-113240000D02*
X176420000Y-113580000D01*
X176420000Y-113580000D02*
X176520000Y-113120000D01*
X175940000Y-113550000D02*
X175900000Y-113580000D01*
X175900000Y-113580000D02*
X175790000Y-113580000D01*
X175790000Y-113580000D02*
X175750000Y-113550000D01*
X175750000Y-113550000D02*
X175730000Y-113520000D01*
X175730000Y-113520000D02*
X175700000Y-113450000D01*
X175700000Y-113450000D02*
X175700000Y-113250000D01*
X175700000Y-113250000D02*
X175730000Y-113180000D01*
X175730000Y-113180000D02*
X175750000Y-113150000D01*
X175750000Y-113150000D02*
X175810000Y-113110000D01*
X175810000Y-113110000D02*
X175880000Y-113110000D01*
X175880000Y-113110000D02*
X175940000Y-113150000D01*
X175940000Y-112880000D02*
X175940000Y-113580000D01*
X175420000Y-113240000D02*
X175440000Y-113170000D01*
X175440000Y-113170000D02*
X175460000Y-113150000D01*
X175460000Y-113150000D02*
X175510000Y-113120000D01*
X175510000Y-113120000D02*
X175560000Y-113120000D01*
X175420000Y-113120000D02*
X175420000Y-113580000D01*
X174970000Y-113340000D02*
X174940000Y-113410000D01*
X174940000Y-113410000D02*
X174940000Y-113480000D01*
X174940000Y-113480000D02*
X174960000Y-113540000D01*
X174960000Y-113540000D02*
X175010000Y-113580000D01*
X175010000Y-113580000D02*
X175130000Y-113580000D01*
X175130000Y-113580000D02*
X175180000Y-113540000D01*
X175180000Y-113280000D02*
X175140000Y-113310000D01*
X175140000Y-113310000D02*
X175020000Y-113310000D01*
X175020000Y-113310000D02*
X174970000Y-113340000D01*
X174960000Y-113150000D02*
X175010000Y-113120000D01*
X175010000Y-113120000D02*
X175110000Y-113120000D01*
X175110000Y-113120000D02*
X175150000Y-113150000D01*
X175150000Y-113150000D02*
X175180000Y-113210000D01*
X175180000Y-113210000D02*
X175180000Y-113580000D01*
X174510000Y-113190000D02*
X174530000Y-113150000D01*
X174530000Y-113150000D02*
X174580000Y-113120000D01*
X174580000Y-113120000D02*
X174660000Y-113120000D01*
X174660000Y-113120000D02*
X174700000Y-113150000D01*
X174700000Y-113150000D02*
X174720000Y-113210000D01*
X174720000Y-113210000D02*
X174720000Y-113580000D01*
X174510000Y-112880000D02*
X174510000Y-113580000D01*
X173460000Y-113350000D02*
X173230000Y-113350000D01*
X173680000Y-113180000D02*
X173700000Y-113150000D01*
X173700000Y-113150000D02*
X173740000Y-113120000D01*
X173740000Y-113120000D02*
X173830000Y-113120000D01*
X173830000Y-113120000D02*
X173870000Y-113150000D01*
X173870000Y-113150000D02*
X173890000Y-113210000D01*
X173890000Y-113210000D02*
X173890000Y-113580000D01*
X173680000Y-113120000D02*
X173680000Y-113580000D01*
X173460000Y-113350000D02*
X173460000Y-113230000D01*
X173460000Y-113230000D02*
X173440000Y-113160000D01*
X173440000Y-113160000D02*
X173400000Y-113120000D01*
X173400000Y-113120000D02*
X173300000Y-113120000D01*
X173300000Y-113120000D02*
X173260000Y-113150000D01*
X173260000Y-113150000D02*
X173230000Y-113210000D01*
X173230000Y-113210000D02*
X173230000Y-113480000D01*
X173230000Y-113480000D02*
X173250000Y-113550000D01*
X173250000Y-113550000D02*
X173290000Y-113580000D01*
X173290000Y-113580000D02*
X173390000Y-113580000D01*
X173390000Y-113580000D02*
X173440000Y-113550000D01*
X172800000Y-113150000D02*
X172840000Y-113120000D01*
X172840000Y-113120000D02*
X172940000Y-113120000D01*
X172940000Y-113120000D02*
X172980000Y-113150000D01*
X172980000Y-113150000D02*
X173010000Y-113180000D01*
X173010000Y-113180000D02*
X173030000Y-113240000D01*
X173030000Y-113240000D02*
X173030000Y-113460000D01*
X173030000Y-113460000D02*
X173010000Y-113520000D01*
X173010000Y-113520000D02*
X172990000Y-113550000D01*
X172990000Y-113550000D02*
X172950000Y-113580000D01*
X172950000Y-113580000D02*
X172850000Y-113580000D01*
X172850000Y-113580000D02*
X172800000Y-113550000D01*
X172800000Y-113820000D02*
X172800000Y-113120000D01*
X172490000Y-113120000D02*
X172410000Y-113120000D01*
X172410000Y-113120000D02*
X172370000Y-113150000D01*
X172370000Y-113150000D02*
X172350000Y-113180000D01*
X172350000Y-113180000D02*
X172320000Y-113250000D01*
X172410000Y-113580000D02*
X172490000Y-113580000D01*
X172490000Y-113580000D02*
X172540000Y-113550000D01*
X172540000Y-113550000D02*
X172560000Y-113520000D01*
X172560000Y-113520000D02*
X172580000Y-113450000D01*
X172580000Y-113450000D02*
X172580000Y-113250000D01*
X172580000Y-113250000D02*
X172560000Y-113190000D01*
X172560000Y-113190000D02*
X172540000Y-113160000D01*
X172540000Y-113160000D02*
X172490000Y-113120000D01*
X172320000Y-113250000D02*
X172320000Y-113450000D01*
X172320000Y-113450000D02*
X172340000Y-113510000D01*
X172340000Y-113510000D02*
X172360000Y-113540000D01*
X172360000Y-113540000D02*
X172410000Y-113580000D01*
D14*
G36*
X173486160Y-112745360D02*
X173511560Y-112730120D01*
X173569980Y-112694560D01*
X173653800Y-112638680D01*
X173752860Y-112572640D01*
X173851920Y-112506600D01*
X173933200Y-112453260D01*
X173989080Y-112415160D01*
X174014480Y-112402460D01*
X174027180Y-112407540D01*
X174072900Y-112430400D01*
X174141480Y-112465960D01*
X174182120Y-112486280D01*
X174243080Y-112511680D01*
X174276100Y-112519300D01*
X174281180Y-112509140D01*
X174304040Y-112460880D01*
X174339600Y-112379600D01*
X174385320Y-112270380D01*
X174441200Y-112143380D01*
X174497080Y-112008760D01*
X174555500Y-111869060D01*
X174611380Y-111734440D01*
X174659640Y-111615060D01*
X174700280Y-111518540D01*
X174725680Y-111449960D01*
X174735840Y-111422020D01*
X174733300Y-111414400D01*
X174700280Y-111383920D01*
X174646940Y-111343280D01*
X174527560Y-111246760D01*
X174410720Y-111101980D01*
X174339600Y-110936880D01*
X174316740Y-110751460D01*
X174337060Y-110581280D01*
X174403100Y-110418720D01*
X174517400Y-110271400D01*
X174657100Y-110162180D01*
X174819660Y-110093600D01*
X175000000Y-110070740D01*
X175172720Y-110091060D01*
X175340360Y-110157100D01*
X175487680Y-110268860D01*
X175551180Y-110339980D01*
X175637540Y-110489840D01*
X175685800Y-110647320D01*
X175690880Y-110687960D01*
X175683260Y-110863220D01*
X175632460Y-111033400D01*
X175538480Y-111183260D01*
X175408940Y-111307720D01*
X175393700Y-111317880D01*
X175335280Y-111363600D01*
X175294640Y-111394080D01*
X175264160Y-111419480D01*
X175487680Y-111957960D01*
X175523240Y-112041780D01*
X175584200Y-112189100D01*
X175637540Y-112316100D01*
X175680720Y-112417700D01*
X175711200Y-112483740D01*
X175723900Y-112511680D01*
X175723900Y-112514220D01*
X175744220Y-112516760D01*
X175784860Y-112501520D01*
X175861060Y-112465960D01*
X175909320Y-112440560D01*
X175967740Y-112412620D01*
X175993140Y-112402460D01*
X176016000Y-112415160D01*
X176069340Y-112450720D01*
X176150620Y-112504060D01*
X176247140Y-112567560D01*
X176338580Y-112631060D01*
X176422400Y-112686940D01*
X176483360Y-112725040D01*
X176513840Y-112742820D01*
X176518920Y-112742820D01*
X176544320Y-112727580D01*
X176592580Y-112686940D01*
X176666240Y-112618360D01*
X176770380Y-112514220D01*
X176785620Y-112498980D01*
X176871980Y-112412620D01*
X176940560Y-112338960D01*
X176986280Y-112288160D01*
X177004060Y-112265300D01*
X177004060Y-112265300D01*
X176988820Y-112234820D01*
X176950720Y-112173860D01*
X176894840Y-112087500D01*
X176826260Y-111988440D01*
X176648460Y-111729360D01*
X176744980Y-111485520D01*
X176775460Y-111409320D01*
X176813560Y-111320420D01*
X176841500Y-111254380D01*
X176856740Y-111226440D01*
X176882140Y-111216280D01*
X176950720Y-111201040D01*
X177047240Y-111180720D01*
X177161540Y-111160400D01*
X177273300Y-111140080D01*
X177372360Y-111119760D01*
X177443480Y-111107060D01*
X177476500Y-111099440D01*
X177484120Y-111094360D01*
X177491740Y-111079120D01*
X177494280Y-111046100D01*
X177496820Y-110985140D01*
X177499360Y-110891160D01*
X177499360Y-110751460D01*
X177499360Y-110736220D01*
X177496820Y-110606680D01*
X177494280Y-110500000D01*
X177491740Y-110433960D01*
X177486660Y-110406020D01*
X177486660Y-110406020D01*
X177456180Y-110398400D01*
X177385060Y-110383160D01*
X177286000Y-110365380D01*
X177166620Y-110342520D01*
X177159000Y-110339980D01*
X177042160Y-110317120D01*
X176943100Y-110296800D01*
X176871980Y-110281560D01*
X176844040Y-110271400D01*
X176836420Y-110263780D01*
X176813560Y-110218060D01*
X176780540Y-110144400D01*
X176739900Y-110055500D01*
X176701800Y-109961520D01*
X176668780Y-109877700D01*
X176645920Y-109816740D01*
X176638300Y-109788800D01*
X176640840Y-109786260D01*
X176658620Y-109758320D01*
X176699260Y-109697360D01*
X176755140Y-109613540D01*
X176823720Y-109511940D01*
X176828800Y-109504320D01*
X176897380Y-109405260D01*
X176953260Y-109318900D01*
X176988820Y-109260480D01*
X177004060Y-109232540D01*
X177004060Y-109230000D01*
X176981200Y-109199520D01*
X176930400Y-109143640D01*
X176856740Y-109067440D01*
X176770380Y-108978540D01*
X176742440Y-108953140D01*
X176643380Y-108856620D01*
X176577340Y-108795660D01*
X176534160Y-108762640D01*
X176513840Y-108755020D01*
X176513840Y-108755020D01*
X176483360Y-108772800D01*
X176419860Y-108813440D01*
X176336040Y-108871860D01*
X176234440Y-108940440D01*
X176226820Y-108945520D01*
X176127760Y-109014100D01*
X176043940Y-109069980D01*
X175985520Y-109110620D01*
X175957580Y-109125860D01*
X175955040Y-109125860D01*
X175914400Y-109113160D01*
X175843280Y-109087760D01*
X175754380Y-109054740D01*
X175662940Y-109016640D01*
X175579120Y-108981080D01*
X175515620Y-108953140D01*
X175485140Y-108935360D01*
X175485140Y-108935360D01*
X175474980Y-108899800D01*
X175457200Y-108823600D01*
X175436880Y-108722000D01*
X175411480Y-108600080D01*
X175408940Y-108579760D01*
X175386080Y-108460380D01*
X175368300Y-108361320D01*
X175353060Y-108292740D01*
X175345440Y-108264800D01*
X175330200Y-108262260D01*
X175271780Y-108257180D01*
X175182880Y-108254640D01*
X175073660Y-108254640D01*
X174961900Y-108254640D01*
X174852680Y-108257180D01*
X174758700Y-108259720D01*
X174690120Y-108264800D01*
X174662180Y-108269880D01*
X174662180Y-108272420D01*
X174652020Y-108310520D01*
X174634240Y-108384180D01*
X174613920Y-108488320D01*
X174591060Y-108610240D01*
X174585980Y-108633100D01*
X174563120Y-108749940D01*
X174542800Y-108849000D01*
X174530100Y-108915040D01*
X174522480Y-108942980D01*
X174509780Y-108948060D01*
X174461520Y-108968380D01*
X174382780Y-109001400D01*
X174283720Y-109042040D01*
X174055120Y-109133480D01*
X173773180Y-108942980D01*
X173747780Y-108925200D01*
X173646180Y-108856620D01*
X173564900Y-108800740D01*
X173506480Y-108762640D01*
X173483620Y-108749940D01*
X173481080Y-108749940D01*
X173453140Y-108775340D01*
X173397260Y-108828680D01*
X173321060Y-108902340D01*
X173232160Y-108988700D01*
X173168660Y-109054740D01*
X173089920Y-109133480D01*
X173041660Y-109186820D01*
X173013720Y-109219840D01*
X173006100Y-109240160D01*
X173008640Y-109255400D01*
X173026420Y-109283340D01*
X173067060Y-109344300D01*
X173125480Y-109430660D01*
X173194060Y-109529720D01*
X173249940Y-109613540D01*
X173310900Y-109707520D01*
X173349000Y-109773560D01*
X173364240Y-109806580D01*
X173359160Y-109819280D01*
X173341380Y-109875160D01*
X173305820Y-109958980D01*
X173265180Y-110058040D01*
X173166120Y-110279020D01*
X173021340Y-110306960D01*
X172932440Y-110324740D01*
X172810520Y-110347600D01*
X172691140Y-110370460D01*
X172508260Y-110406020D01*
X172500640Y-111081660D01*
X172528580Y-111094360D01*
X172556520Y-111101980D01*
X172625100Y-111117220D01*
X172721620Y-111137540D01*
X172838460Y-111157860D01*
X172934980Y-111175640D01*
X173034040Y-111195960D01*
X173105160Y-111208660D01*
X173135640Y-111216280D01*
X173145800Y-111226440D01*
X173168660Y-111274700D01*
X173204220Y-111350900D01*
X173244860Y-111442340D01*
X173282960Y-111536320D01*
X173318520Y-111625220D01*
X173341380Y-111691260D01*
X173351540Y-111724280D01*
X173338840Y-111752220D01*
X173300740Y-111810640D01*
X173247400Y-111891920D01*
X173178820Y-111990980D01*
X173112780Y-112087500D01*
X173054360Y-112171320D01*
X173016260Y-112232280D01*
X172998480Y-112260220D01*
X173008640Y-112278000D01*
X173046740Y-112326260D01*
X173120400Y-112402460D01*
X173232160Y-112511680D01*
X173249940Y-112529460D01*
X173336300Y-112613280D01*
X173409960Y-112681860D01*
X173463300Y-112727580D01*
X173486160Y-112745360D01*
X173486160Y-112745360D01*
G37*
X173486160Y-112745360D02*
X173511560Y-112730120D01*
X173569980Y-112694560D01*
X173653800Y-112638680D01*
X173752860Y-112572640D01*
X173851920Y-112506600D01*
X173933200Y-112453260D01*
X173989080Y-112415160D01*
X174014480Y-112402460D01*
X174027180Y-112407540D01*
X174072900Y-112430400D01*
X174141480Y-112465960D01*
X174182120Y-112486280D01*
X174243080Y-112511680D01*
X174276100Y-112519300D01*
X174281180Y-112509140D01*
X174304040Y-112460880D01*
X174339600Y-112379600D01*
X174385320Y-112270380D01*
X174441200Y-112143380D01*
X174497080Y-112008760D01*
X174555500Y-111869060D01*
X174611380Y-111734440D01*
X174659640Y-111615060D01*
X174700280Y-111518540D01*
X174725680Y-111449960D01*
X174735840Y-111422020D01*
X174733300Y-111414400D01*
X174700280Y-111383920D01*
X174646940Y-111343280D01*
X174527560Y-111246760D01*
X174410720Y-111101980D01*
X174339600Y-110936880D01*
X174316740Y-110751460D01*
X174337060Y-110581280D01*
X174403100Y-110418720D01*
X174517400Y-110271400D01*
X174657100Y-110162180D01*
X174819660Y-110093600D01*
X175000000Y-110070740D01*
X175172720Y-110091060D01*
X175340360Y-110157100D01*
X175487680Y-110268860D01*
X175551180Y-110339980D01*
X175637540Y-110489840D01*
X175685800Y-110647320D01*
X175690880Y-110687960D01*
X175683260Y-110863220D01*
X175632460Y-111033400D01*
X175538480Y-111183260D01*
X175408940Y-111307720D01*
X175393700Y-111317880D01*
X175335280Y-111363600D01*
X175294640Y-111394080D01*
X175264160Y-111419480D01*
X175487680Y-111957960D01*
X175523240Y-112041780D01*
X175584200Y-112189100D01*
X175637540Y-112316100D01*
X175680720Y-112417700D01*
X175711200Y-112483740D01*
X175723900Y-112511680D01*
X175723900Y-112514220D01*
X175744220Y-112516760D01*
X175784860Y-112501520D01*
X175861060Y-112465960D01*
X175909320Y-112440560D01*
X175967740Y-112412620D01*
X175993140Y-112402460D01*
X176016000Y-112415160D01*
X176069340Y-112450720D01*
X176150620Y-112504060D01*
X176247140Y-112567560D01*
X176338580Y-112631060D01*
X176422400Y-112686940D01*
X176483360Y-112725040D01*
X176513840Y-112742820D01*
X176518920Y-112742820D01*
X176544320Y-112727580D01*
X176592580Y-112686940D01*
X176666240Y-112618360D01*
X176770380Y-112514220D01*
X176785620Y-112498980D01*
X176871980Y-112412620D01*
X176940560Y-112338960D01*
X176986280Y-112288160D01*
X177004060Y-112265300D01*
X177004060Y-112265300D01*
X176988820Y-112234820D01*
X176950720Y-112173860D01*
X176894840Y-112087500D01*
X176826260Y-111988440D01*
X176648460Y-111729360D01*
X176744980Y-111485520D01*
X176775460Y-111409320D01*
X176813560Y-111320420D01*
X176841500Y-111254380D01*
X176856740Y-111226440D01*
X176882140Y-111216280D01*
X176950720Y-111201040D01*
X177047240Y-111180720D01*
X177161540Y-111160400D01*
X177273300Y-111140080D01*
X177372360Y-111119760D01*
X177443480Y-111107060D01*
X177476500Y-111099440D01*
X177484120Y-111094360D01*
X177491740Y-111079120D01*
X177494280Y-111046100D01*
X177496820Y-110985140D01*
X177499360Y-110891160D01*
X177499360Y-110751460D01*
X177499360Y-110736220D01*
X177496820Y-110606680D01*
X177494280Y-110500000D01*
X177491740Y-110433960D01*
X177486660Y-110406020D01*
X177486660Y-110406020D01*
X177456180Y-110398400D01*
X177385060Y-110383160D01*
X177286000Y-110365380D01*
X177166620Y-110342520D01*
X177159000Y-110339980D01*
X177042160Y-110317120D01*
X176943100Y-110296800D01*
X176871980Y-110281560D01*
X176844040Y-110271400D01*
X176836420Y-110263780D01*
X176813560Y-110218060D01*
X176780540Y-110144400D01*
X176739900Y-110055500D01*
X176701800Y-109961520D01*
X176668780Y-109877700D01*
X176645920Y-109816740D01*
X176638300Y-109788800D01*
X176640840Y-109786260D01*
X176658620Y-109758320D01*
X176699260Y-109697360D01*
X176755140Y-109613540D01*
X176823720Y-109511940D01*
X176828800Y-109504320D01*
X176897380Y-109405260D01*
X176953260Y-109318900D01*
X176988820Y-109260480D01*
X177004060Y-109232540D01*
X177004060Y-109230000D01*
X176981200Y-109199520D01*
X176930400Y-109143640D01*
X176856740Y-109067440D01*
X176770380Y-108978540D01*
X176742440Y-108953140D01*
X176643380Y-108856620D01*
X176577340Y-108795660D01*
X176534160Y-108762640D01*
X176513840Y-108755020D01*
X176513840Y-108755020D01*
X176483360Y-108772800D01*
X176419860Y-108813440D01*
X176336040Y-108871860D01*
X176234440Y-108940440D01*
X176226820Y-108945520D01*
X176127760Y-109014100D01*
X176043940Y-109069980D01*
X175985520Y-109110620D01*
X175957580Y-109125860D01*
X175955040Y-109125860D01*
X175914400Y-109113160D01*
X175843280Y-109087760D01*
X175754380Y-109054740D01*
X175662940Y-109016640D01*
X175579120Y-108981080D01*
X175515620Y-108953140D01*
X175485140Y-108935360D01*
X175485140Y-108935360D01*
X175474980Y-108899800D01*
X175457200Y-108823600D01*
X175436880Y-108722000D01*
X175411480Y-108600080D01*
X175408940Y-108579760D01*
X175386080Y-108460380D01*
X175368300Y-108361320D01*
X175353060Y-108292740D01*
X175345440Y-108264800D01*
X175330200Y-108262260D01*
X175271780Y-108257180D01*
X175182880Y-108254640D01*
X175073660Y-108254640D01*
X174961900Y-108254640D01*
X174852680Y-108257180D01*
X174758700Y-108259720D01*
X174690120Y-108264800D01*
X174662180Y-108269880D01*
X174662180Y-108272420D01*
X174652020Y-108310520D01*
X174634240Y-108384180D01*
X174613920Y-108488320D01*
X174591060Y-108610240D01*
X174585980Y-108633100D01*
X174563120Y-108749940D01*
X174542800Y-108849000D01*
X174530100Y-108915040D01*
X174522480Y-108942980D01*
X174509780Y-108948060D01*
X174461520Y-108968380D01*
X174382780Y-109001400D01*
X174283720Y-109042040D01*
X174055120Y-109133480D01*
X173773180Y-108942980D01*
X173747780Y-108925200D01*
X173646180Y-108856620D01*
X173564900Y-108800740D01*
X173506480Y-108762640D01*
X173483620Y-108749940D01*
X173481080Y-108749940D01*
X173453140Y-108775340D01*
X173397260Y-108828680D01*
X173321060Y-108902340D01*
X173232160Y-108988700D01*
X173168660Y-109054740D01*
X173089920Y-109133480D01*
X173041660Y-109186820D01*
X173013720Y-109219840D01*
X173006100Y-109240160D01*
X173008640Y-109255400D01*
X173026420Y-109283340D01*
X173067060Y-109344300D01*
X173125480Y-109430660D01*
X173194060Y-109529720D01*
X173249940Y-109613540D01*
X173310900Y-109707520D01*
X173349000Y-109773560D01*
X173364240Y-109806580D01*
X173359160Y-109819280D01*
X173341380Y-109875160D01*
X173305820Y-109958980D01*
X173265180Y-110058040D01*
X173166120Y-110279020D01*
X173021340Y-110306960D01*
X172932440Y-110324740D01*
X172810520Y-110347600D01*
X172691140Y-110370460D01*
X172508260Y-110406020D01*
X172500640Y-111081660D01*
X172528580Y-111094360D01*
X172556520Y-111101980D01*
X172625100Y-111117220D01*
X172721620Y-111137540D01*
X172838460Y-111157860D01*
X172934980Y-111175640D01*
X173034040Y-111195960D01*
X173105160Y-111208660D01*
X173135640Y-111216280D01*
X173145800Y-111226440D01*
X173168660Y-111274700D01*
X173204220Y-111350900D01*
X173244860Y-111442340D01*
X173282960Y-111536320D01*
X173318520Y-111625220D01*
X173341380Y-111691260D01*
X173351540Y-111724280D01*
X173338840Y-111752220D01*
X173300740Y-111810640D01*
X173247400Y-111891920D01*
X173178820Y-111990980D01*
X173112780Y-112087500D01*
X173054360Y-112171320D01*
X173016260Y-112232280D01*
X172998480Y-112260220D01*
X173008640Y-112278000D01*
X173046740Y-112326260D01*
X173120400Y-112402460D01*
X173232160Y-112511680D01*
X173249940Y-112529460D01*
X173336300Y-112613280D01*
X173409960Y-112681860D01*
X173463300Y-112727580D01*
X173486160Y-112745360D01*
D11*
X186561905Y-105190476D02*
X185761905Y-105190476D01*
X185761905Y-105000000D01*
X185800000Y-104885714D01*
X185876190Y-104809523D01*
X185952381Y-104771428D01*
X186104762Y-104733333D01*
X186219048Y-104733333D01*
X186371429Y-104771428D01*
X186447619Y-104809523D01*
X186523810Y-104885714D01*
X186561905Y-105000000D01*
X186561905Y-105190476D01*
X186561905Y-103971428D02*
X186561905Y-104428571D01*
X186561905Y-104200000D02*
X185761905Y-104200000D01*
X185876190Y-104276190D01*
X185952381Y-104352381D01*
X185990476Y-104428571D01*
X188761905Y-99533333D02*
X187961905Y-99533333D01*
X188457143Y-99457142D02*
X188761905Y-99228571D01*
X188228571Y-99228571D02*
X188533333Y-99533333D01*
X191966667Y-94661905D02*
X191700000Y-94280952D01*
X191509524Y-94661905D02*
X191509524Y-93861905D01*
X191814286Y-93861905D01*
X191890477Y-93900000D01*
X191928572Y-93938095D01*
X191966667Y-94014286D01*
X191966667Y-94128571D01*
X191928572Y-94204762D01*
X191890477Y-94242857D01*
X191814286Y-94280952D01*
X191509524Y-94280952D01*
X192423810Y-94204762D02*
X192347619Y-94166667D01*
X192309524Y-94128571D01*
X192271429Y-94052381D01*
X192271429Y-94014286D01*
X192309524Y-93938095D01*
X192347619Y-93900000D01*
X192423810Y-93861905D01*
X192576191Y-93861905D01*
X192652381Y-93900000D01*
X192690477Y-93938095D01*
X192728572Y-94014286D01*
X192728572Y-94052381D01*
X192690477Y-94128571D01*
X192652381Y-94166667D01*
X192576191Y-94204762D01*
X192423810Y-94204762D01*
X192347619Y-94242857D01*
X192309524Y-94280952D01*
X192271429Y-94357143D01*
X192271429Y-94509524D01*
X192309524Y-94585714D01*
X192347619Y-94623810D01*
X192423810Y-94661905D01*
X192576191Y-94661905D01*
X192652381Y-94623810D01*
X192690477Y-94585714D01*
X192728572Y-94509524D01*
X192728572Y-94357143D01*
X192690477Y-94280952D01*
X192652381Y-94242857D01*
X192576191Y-94204762D01*
X187466667Y-84261905D02*
X187200000Y-83880952D01*
X187009524Y-84261905D02*
X187009524Y-83461905D01*
X187314286Y-83461905D01*
X187390477Y-83500000D01*
X187428572Y-83538095D01*
X187466667Y-83614286D01*
X187466667Y-83728571D01*
X187428572Y-83804762D01*
X187390477Y-83842857D01*
X187314286Y-83880952D01*
X187009524Y-83880952D01*
X187733334Y-83461905D02*
X188266667Y-83461905D01*
X187923810Y-84261905D01*
X187466667Y-82161905D02*
X187200000Y-81780952D01*
X187009524Y-82161905D02*
X187009524Y-81361905D01*
X187314286Y-81361905D01*
X187390477Y-81400000D01*
X187428572Y-81438095D01*
X187466667Y-81514286D01*
X187466667Y-81628571D01*
X187428572Y-81704762D01*
X187390477Y-81742857D01*
X187314286Y-81780952D01*
X187009524Y-81780952D01*
X188152381Y-81361905D02*
X188000000Y-81361905D01*
X187923810Y-81400000D01*
X187885715Y-81438095D01*
X187809524Y-81552381D01*
X187771429Y-81704762D01*
X187771429Y-82009524D01*
X187809524Y-82085714D01*
X187847619Y-82123810D01*
X187923810Y-82161905D01*
X188076191Y-82161905D01*
X188152381Y-82123810D01*
X188190477Y-82085714D01*
X188228572Y-82009524D01*
X188228572Y-81819048D01*
X188190477Y-81742857D01*
X188152381Y-81704762D01*
X188076191Y-81666667D01*
X187923810Y-81666667D01*
X187847619Y-81704762D01*
X187809524Y-81742857D01*
X187771429Y-81819048D01*
X180561905Y-101133333D02*
X180180952Y-101400000D01*
X180561905Y-101590476D02*
X179761905Y-101590476D01*
X179761905Y-101285714D01*
X179800000Y-101209523D01*
X179838095Y-101171428D01*
X179914286Y-101133333D01*
X180028571Y-101133333D01*
X180104762Y-101171428D01*
X180142857Y-101209523D01*
X180180952Y-101285714D01*
X180180952Y-101590476D01*
X179761905Y-100409523D02*
X179761905Y-100790476D01*
X180142857Y-100828571D01*
X180104762Y-100790476D01*
X180066667Y-100714285D01*
X180066667Y-100523809D01*
X180104762Y-100447619D01*
X180142857Y-100409523D01*
X180219048Y-100371428D01*
X180409524Y-100371428D01*
X180485714Y-100409523D01*
X180523810Y-100447619D01*
X180561905Y-100523809D01*
X180561905Y-100714285D01*
X180523810Y-100790476D01*
X180485714Y-100828571D01*
X191966667Y-85466905D02*
X191700000Y-85085952D01*
X191509524Y-85466905D02*
X191509524Y-84666905D01*
X191814286Y-84666905D01*
X191890477Y-84705000D01*
X191928572Y-84743095D01*
X191966667Y-84819286D01*
X191966667Y-84933571D01*
X191928572Y-85009762D01*
X191890477Y-85047857D01*
X191814286Y-85085952D01*
X191509524Y-85085952D01*
X192652381Y-84933571D02*
X192652381Y-85466905D01*
X192461905Y-84628810D02*
X192271429Y-85200238D01*
X192766667Y-85200238D01*
X191966667Y-90766905D02*
X191700000Y-90385952D01*
X191509524Y-90766905D02*
X191509524Y-89966905D01*
X191814286Y-89966905D01*
X191890477Y-90005000D01*
X191928572Y-90043095D01*
X191966667Y-90119286D01*
X191966667Y-90233571D01*
X191928572Y-90309762D01*
X191890477Y-90347857D01*
X191814286Y-90385952D01*
X191509524Y-90385952D01*
X192233334Y-89966905D02*
X192728572Y-89966905D01*
X192461905Y-90271667D01*
X192576191Y-90271667D01*
X192652381Y-90309762D01*
X192690477Y-90347857D01*
X192728572Y-90424048D01*
X192728572Y-90614524D01*
X192690477Y-90690714D01*
X192652381Y-90728810D01*
X192576191Y-90766905D01*
X192347619Y-90766905D01*
X192271429Y-90728810D01*
X192233334Y-90690714D01*
X189566667Y-75861905D02*
X189300000Y-75480952D01*
X189109524Y-75861905D02*
X189109524Y-75061905D01*
X189414286Y-75061905D01*
X189490477Y-75100000D01*
X189528572Y-75138095D01*
X189566667Y-75214286D01*
X189566667Y-75328571D01*
X189528572Y-75404762D01*
X189490477Y-75442857D01*
X189414286Y-75480952D01*
X189109524Y-75480952D01*
X189871429Y-75138095D02*
X189909524Y-75100000D01*
X189985715Y-75061905D01*
X190176191Y-75061905D01*
X190252381Y-75100000D01*
X190290477Y-75138095D01*
X190328572Y-75214286D01*
X190328572Y-75290476D01*
X190290477Y-75404762D01*
X189833334Y-75861905D01*
X190328572Y-75861905D01*
X189566667Y-77061905D02*
X189300000Y-76680952D01*
X189109524Y-77061905D02*
X189109524Y-76261905D01*
X189414286Y-76261905D01*
X189490477Y-76300000D01*
X189528572Y-76338095D01*
X189566667Y-76414286D01*
X189566667Y-76528571D01*
X189528572Y-76604762D01*
X189490477Y-76642857D01*
X189414286Y-76680952D01*
X189109524Y-76680952D01*
X190328572Y-77061905D02*
X189871429Y-77061905D01*
X190100000Y-77061905D02*
X190100000Y-76261905D01*
X190023810Y-76376190D01*
X189947619Y-76452381D01*
X189871429Y-76490476D01*
X194989524Y-71151905D02*
X194989524Y-70351905D01*
X195294286Y-70351905D01*
X195370477Y-70390000D01*
X195408572Y-70428095D01*
X195446667Y-70504286D01*
X195446667Y-70618571D01*
X195408572Y-70694762D01*
X195370477Y-70732857D01*
X195294286Y-70770952D01*
X194989524Y-70770952D01*
X195751429Y-70428095D02*
X195789524Y-70390000D01*
X195865715Y-70351905D01*
X196056191Y-70351905D01*
X196132381Y-70390000D01*
X196170477Y-70428095D01*
X196208572Y-70504286D01*
X196208572Y-70580476D01*
X196170477Y-70694762D01*
X195713334Y-71151905D01*
X196208572Y-71151905D01*
X198109524Y-95361905D02*
X198109524Y-94561905D01*
X198414286Y-94561905D01*
X198490477Y-94600000D01*
X198528572Y-94638095D01*
X198566667Y-94714286D01*
X198566667Y-94828571D01*
X198528572Y-94904762D01*
X198490477Y-94942857D01*
X198414286Y-94980952D01*
X198109524Y-94980952D01*
X199328572Y-95361905D02*
X198871429Y-95361905D01*
X199100000Y-95361905D02*
X199100000Y-94561905D01*
X199023810Y-94676190D01*
X198947619Y-94752381D01*
X198871429Y-94790476D01*
X198210000Y-98329523D02*
X198171905Y-98405714D01*
X198171905Y-98519999D01*
X198210000Y-98634285D01*
X198286190Y-98710476D01*
X198362381Y-98748571D01*
X198514762Y-98786666D01*
X198629048Y-98786666D01*
X198781429Y-98748571D01*
X198857619Y-98710476D01*
X198933810Y-98634285D01*
X198971905Y-98519999D01*
X198971905Y-98443809D01*
X198933810Y-98329523D01*
X198895714Y-98291428D01*
X198629048Y-98291428D01*
X198629048Y-98443809D01*
X198971905Y-97948571D02*
X198171905Y-97948571D01*
X198971905Y-97491428D01*
X198171905Y-97491428D01*
X198971905Y-97110476D02*
X198171905Y-97110476D01*
X198171905Y-96920000D01*
X198210000Y-96805714D01*
X198286190Y-96729523D01*
X198362381Y-96691428D01*
X198514762Y-96653333D01*
X198629048Y-96653333D01*
X198781429Y-96691428D01*
X198857619Y-96729523D01*
X198933810Y-96805714D01*
X198971905Y-96920000D01*
X198971905Y-97110476D01*
X198667143Y-102777142D02*
X198667143Y-102167618D01*
X198971905Y-102472380D02*
X198362381Y-102472380D01*
X198171905Y-101900952D02*
X198971905Y-101634285D01*
X198171905Y-101367618D01*
X198971905Y-101100952D02*
X198171905Y-101100952D01*
X198971905Y-100720000D02*
X198171905Y-100720000D01*
X198971905Y-100262857D01*
X198171905Y-100262857D01*
X188685714Y-84261905D02*
X188685714Y-83461905D01*
X188876190Y-83461905D01*
X188990476Y-83500000D01*
X189066667Y-83576190D01*
X189104762Y-83652381D01*
X189142857Y-83804762D01*
X189142857Y-83919048D01*
X189104762Y-84071429D01*
X189066667Y-84147619D01*
X188990476Y-84223810D01*
X188876190Y-84261905D01*
X188685714Y-84261905D01*
X189866667Y-84261905D02*
X189485714Y-84261905D01*
X189485714Y-83461905D01*
X190514286Y-83461905D02*
X190133333Y-83461905D01*
X190095238Y-83842857D01*
X190133333Y-83804762D01*
X190209524Y-83766667D01*
X190400000Y-83766667D01*
X190476190Y-83804762D01*
X190514286Y-83842857D01*
X190552381Y-83919048D01*
X190552381Y-84109524D01*
X190514286Y-84185714D01*
X190476190Y-84223810D01*
X190400000Y-84261905D01*
X190209524Y-84261905D01*
X190133333Y-84223810D01*
X190095238Y-84185714D01*
X193566667Y-84161905D02*
X193566667Y-83361905D01*
X193642858Y-83857143D02*
X193871429Y-84161905D01*
X193871429Y-83628571D02*
X193566667Y-83933333D01*
X188685714Y-82161905D02*
X188685714Y-81361905D01*
X188876190Y-81361905D01*
X188990476Y-81400000D01*
X189066667Y-81476190D01*
X189104762Y-81552381D01*
X189142857Y-81704762D01*
X189142857Y-81819048D01*
X189104762Y-81971429D01*
X189066667Y-82047619D01*
X188990476Y-82123810D01*
X188876190Y-82161905D01*
X188685714Y-82161905D01*
X189866667Y-82161905D02*
X189485714Y-82161905D01*
X189485714Y-81361905D01*
X190476190Y-81628571D02*
X190476190Y-82161905D01*
X190285714Y-81323810D02*
X190095238Y-81895238D01*
X190590476Y-81895238D01*
X193566667Y-82161905D02*
X193566667Y-81361905D01*
X193642858Y-81857143D02*
X193871429Y-82161905D01*
X193871429Y-81628571D02*
X193566667Y-81933333D01*
X194185714Y-94661905D02*
X194185714Y-93861905D01*
X194376190Y-93861905D01*
X194490476Y-93900000D01*
X194566667Y-93976190D01*
X194604762Y-94052381D01*
X194642857Y-94204762D01*
X194642857Y-94319048D01*
X194604762Y-94471429D01*
X194566667Y-94547619D01*
X194490476Y-94623810D01*
X194376190Y-94661905D01*
X194185714Y-94661905D01*
X195366667Y-94661905D02*
X194985714Y-94661905D01*
X194985714Y-93861905D01*
X195557143Y-93861905D02*
X196052381Y-93861905D01*
X195785714Y-94166667D01*
X195900000Y-94166667D01*
X195976190Y-94204762D01*
X196014286Y-94242857D01*
X196052381Y-94319048D01*
X196052381Y-94509524D01*
X196014286Y-94585714D01*
X195976190Y-94623810D01*
X195900000Y-94661905D01*
X195671428Y-94661905D01*
X195595238Y-94623810D01*
X195557143Y-94585714D01*
X196766667Y-93261905D02*
X196766667Y-92461905D01*
X196842858Y-92957143D02*
X197071429Y-93261905D01*
X197071429Y-92728571D02*
X196766667Y-93033333D01*
X194185714Y-85461905D02*
X194185714Y-84661905D01*
X194376190Y-84661905D01*
X194490476Y-84700000D01*
X194566667Y-84776190D01*
X194604762Y-84852381D01*
X194642857Y-85004762D01*
X194642857Y-85119048D01*
X194604762Y-85271429D01*
X194566667Y-85347619D01*
X194490476Y-85423810D01*
X194376190Y-85461905D01*
X194185714Y-85461905D01*
X195366667Y-85461905D02*
X194985714Y-85461905D01*
X194985714Y-84661905D01*
X195595238Y-84738095D02*
X195633333Y-84700000D01*
X195709524Y-84661905D01*
X195900000Y-84661905D01*
X195976190Y-84700000D01*
X196014286Y-84738095D01*
X196052381Y-84814286D01*
X196052381Y-84890476D01*
X196014286Y-85004762D01*
X195557143Y-85461905D01*
X196052381Y-85461905D01*
X196766667Y-86761905D02*
X196766667Y-85961905D01*
X196842858Y-86457143D02*
X197071429Y-86761905D01*
X197071429Y-86228571D02*
X196766667Y-86533333D01*
X194185714Y-90766905D02*
X194185714Y-89966905D01*
X194376190Y-89966905D01*
X194490476Y-90005000D01*
X194566667Y-90081190D01*
X194604762Y-90157381D01*
X194642857Y-90309762D01*
X194642857Y-90424048D01*
X194604762Y-90576429D01*
X194566667Y-90652619D01*
X194490476Y-90728810D01*
X194376190Y-90766905D01*
X194185714Y-90766905D01*
X195366667Y-90766905D02*
X194985714Y-90766905D01*
X194985714Y-89966905D01*
X196052381Y-90766905D02*
X195595238Y-90766905D01*
X195823809Y-90766905D02*
X195823809Y-89966905D01*
X195747619Y-90081190D01*
X195671428Y-90157381D01*
X195595238Y-90195476D01*
X196766667Y-89361905D02*
X196766667Y-88561905D01*
X196842858Y-89057143D02*
X197071429Y-89361905D01*
X197071429Y-88828571D02*
X196766667Y-89133333D01*
X182416667Y-93985714D02*
X182378572Y-94023810D01*
X182264286Y-94061905D01*
X182188096Y-94061905D01*
X182073810Y-94023810D01*
X181997619Y-93947619D01*
X181959524Y-93871429D01*
X181921429Y-93719048D01*
X181921429Y-93604762D01*
X181959524Y-93452381D01*
X181997619Y-93376190D01*
X182073810Y-93300000D01*
X182188096Y-93261905D01*
X182264286Y-93261905D01*
X182378572Y-93300000D01*
X182416667Y-93338095D01*
X183102381Y-93261905D02*
X182950000Y-93261905D01*
X182873810Y-93300000D01*
X182835715Y-93338095D01*
X182759524Y-93452381D01*
X182721429Y-93604762D01*
X182721429Y-93909524D01*
X182759524Y-93985714D01*
X182797619Y-94023810D01*
X182873810Y-94061905D01*
X183026191Y-94061905D01*
X183102381Y-94023810D01*
X183140477Y-93985714D01*
X183178572Y-93909524D01*
X183178572Y-93719048D01*
X183140477Y-93642857D01*
X183102381Y-93604762D01*
X183026191Y-93566667D01*
X182873810Y-93566667D01*
X182797619Y-93604762D01*
X182759524Y-93642857D01*
X182721429Y-93719048D01*
X191966667Y-79385714D02*
X191928572Y-79423810D01*
X191814286Y-79461905D01*
X191738096Y-79461905D01*
X191623810Y-79423810D01*
X191547619Y-79347619D01*
X191509524Y-79271429D01*
X191471429Y-79119048D01*
X191471429Y-79004762D01*
X191509524Y-78852381D01*
X191547619Y-78776190D01*
X191623810Y-78700000D01*
X191738096Y-78661905D01*
X191814286Y-78661905D01*
X191928572Y-78700000D01*
X191966667Y-78738095D01*
X192690477Y-78661905D02*
X192309524Y-78661905D01*
X192271429Y-79042857D01*
X192309524Y-79004762D01*
X192385715Y-78966667D01*
X192576191Y-78966667D01*
X192652381Y-79004762D01*
X192690477Y-79042857D01*
X192728572Y-79119048D01*
X192728572Y-79309524D01*
X192690477Y-79385714D01*
X192652381Y-79423810D01*
X192576191Y-79461905D01*
X192385715Y-79461905D01*
X192309524Y-79423810D01*
X192271429Y-79385714D01*
X182866667Y-102585714D02*
X182828572Y-102623810D01*
X182714286Y-102661905D01*
X182638096Y-102661905D01*
X182523810Y-102623810D01*
X182447619Y-102547619D01*
X182409524Y-102471429D01*
X182371429Y-102319048D01*
X182371429Y-102204762D01*
X182409524Y-102052381D01*
X182447619Y-101976190D01*
X182523810Y-101900000D01*
X182638096Y-101861905D01*
X182714286Y-101861905D01*
X182828572Y-101900000D01*
X182866667Y-101938095D01*
X183552381Y-102128571D02*
X183552381Y-102661905D01*
X183361905Y-101823810D02*
X183171429Y-102395238D01*
X183666667Y-102395238D01*
X189566667Y-74585714D02*
X189528572Y-74623810D01*
X189414286Y-74661905D01*
X189338096Y-74661905D01*
X189223810Y-74623810D01*
X189147619Y-74547619D01*
X189109524Y-74471429D01*
X189071429Y-74319048D01*
X189071429Y-74204762D01*
X189109524Y-74052381D01*
X189147619Y-73976190D01*
X189223810Y-73900000D01*
X189338096Y-73861905D01*
X189414286Y-73861905D01*
X189528572Y-73900000D01*
X189566667Y-73938095D01*
X189833334Y-73861905D02*
X190328572Y-73861905D01*
X190061905Y-74166667D01*
X190176191Y-74166667D01*
X190252381Y-74204762D01*
X190290477Y-74242857D01*
X190328572Y-74319048D01*
X190328572Y-74509524D01*
X190290477Y-74585714D01*
X190252381Y-74623810D01*
X190176191Y-74661905D01*
X189947619Y-74661905D01*
X189871429Y-74623810D01*
X189833334Y-74585714D01*
X186785714Y-96333333D02*
X186823810Y-96371428D01*
X186861905Y-96485714D01*
X186861905Y-96561904D01*
X186823810Y-96676190D01*
X186747619Y-96752381D01*
X186671429Y-96790476D01*
X186519048Y-96828571D01*
X186404762Y-96828571D01*
X186252381Y-96790476D01*
X186176190Y-96752381D01*
X186100000Y-96676190D01*
X186061905Y-96561904D01*
X186061905Y-96485714D01*
X186100000Y-96371428D01*
X186138095Y-96333333D01*
X186138095Y-96028571D02*
X186100000Y-95990476D01*
X186061905Y-95914285D01*
X186061905Y-95723809D01*
X186100000Y-95647619D01*
X186138095Y-95609523D01*
X186214286Y-95571428D01*
X186290476Y-95571428D01*
X186404762Y-95609523D01*
X186861905Y-96066666D01*
X186861905Y-95571428D01*
X189566667Y-78285714D02*
X189528572Y-78323810D01*
X189414286Y-78361905D01*
X189338096Y-78361905D01*
X189223810Y-78323810D01*
X189147619Y-78247619D01*
X189109524Y-78171429D01*
X189071429Y-78019048D01*
X189071429Y-77904762D01*
X189109524Y-77752381D01*
X189147619Y-77676190D01*
X189223810Y-77600000D01*
X189338096Y-77561905D01*
X189414286Y-77561905D01*
X189528572Y-77600000D01*
X189566667Y-77638095D01*
X190328572Y-78361905D02*
X189871429Y-78361905D01*
X190100000Y-78361905D02*
X190100000Y-77561905D01*
X190023810Y-77676190D01*
X189947619Y-77752381D01*
X189871429Y-77790476D01*
X92856191Y-86302857D02*
X92970477Y-86340952D01*
X93008572Y-86379048D01*
X93046667Y-86455238D01*
X93046667Y-86569524D01*
X93008572Y-86645714D01*
X92970477Y-86683810D01*
X92894286Y-86721905D01*
X92589524Y-86721905D01*
X92589524Y-85921905D01*
X92856191Y-85921905D01*
X92932381Y-85960000D01*
X92970477Y-85998095D01*
X93008572Y-86074286D01*
X93008572Y-86150476D01*
X92970477Y-86226667D01*
X92932381Y-86264762D01*
X92856191Y-86302857D01*
X92589524Y-86302857D01*
X93846667Y-86721905D02*
X93580000Y-86340952D01*
X93389524Y-86721905D02*
X93389524Y-85921905D01*
X93694286Y-85921905D01*
X93770477Y-85960000D01*
X93808572Y-85998095D01*
X93846667Y-86074286D01*
X93846667Y-86188571D01*
X93808572Y-86264762D01*
X93770477Y-86302857D01*
X93694286Y-86340952D01*
X93389524Y-86340952D01*
X94189524Y-86721905D02*
X94189524Y-85921905D01*
X94380000Y-85921905D01*
X94494286Y-85960000D01*
X94570477Y-86036190D01*
X94608572Y-86112381D01*
X94646667Y-86264762D01*
X94646667Y-86379048D01*
X94608572Y-86531429D01*
X94570477Y-86607619D01*
X94494286Y-86683810D01*
X94380000Y-86721905D01*
X94189524Y-86721905D01*
X95408572Y-86721905D02*
X94951429Y-86721905D01*
X95180000Y-86721905D02*
X95180000Y-85921905D01*
X95103810Y-86036190D01*
X95027619Y-86112381D01*
X94951429Y-86150476D01*
X182061905Y-76809524D02*
X182709524Y-76809524D01*
X182785714Y-76771429D01*
X182823810Y-76733333D01*
X182861905Y-76657143D01*
X182861905Y-76504762D01*
X182823810Y-76428571D01*
X182785714Y-76390476D01*
X182709524Y-76352381D01*
X182061905Y-76352381D01*
X182138095Y-76009524D02*
X182100000Y-75971429D01*
X182061905Y-75895238D01*
X182061905Y-75704762D01*
X182100000Y-75628572D01*
X182138095Y-75590476D01*
X182214286Y-75552381D01*
X182290476Y-75552381D01*
X182404762Y-75590476D01*
X182861905Y-76047619D01*
X182861905Y-75552381D01*
X176461905Y-97233333D02*
X176461905Y-97614286D01*
X175661905Y-97614286D01*
X176461905Y-96547619D02*
X176461905Y-97004762D01*
X176461905Y-96776191D02*
X175661905Y-96776191D01*
X175776190Y-96852381D01*
X175852381Y-96928572D01*
X175890476Y-97004762D01*
X188861905Y-71216666D02*
X189433333Y-71216666D01*
X189547619Y-71254762D01*
X189623810Y-71330952D01*
X189661905Y-71445238D01*
X189661905Y-71521428D01*
X189661905Y-70416666D02*
X189661905Y-70873809D01*
X189661905Y-70645238D02*
X188861905Y-70645238D01*
X188976190Y-70721428D01*
X189052381Y-70797619D01*
X189090476Y-70873809D01*
X184491905Y-71216666D02*
X185063333Y-71216666D01*
X185177619Y-71254762D01*
X185253810Y-71330952D01*
X185291905Y-71445238D01*
X185291905Y-71521428D01*
X184568095Y-70873809D02*
X184530000Y-70835714D01*
X184491905Y-70759523D01*
X184491905Y-70569047D01*
X184530000Y-70492857D01*
X184568095Y-70454761D01*
X184644286Y-70416666D01*
X184720476Y-70416666D01*
X184834762Y-70454761D01*
X185291905Y-70911904D01*
X185291905Y-70416666D01*
X180590476Y-97061905D02*
X180590476Y-97709524D01*
X180628571Y-97785714D01*
X180666667Y-97823810D01*
X180742857Y-97861905D01*
X180895238Y-97861905D01*
X180971429Y-97823810D01*
X181009524Y-97785714D01*
X181047619Y-97709524D01*
X181047619Y-97061905D01*
X181847619Y-97861905D02*
X181390476Y-97861905D01*
X181619047Y-97861905D02*
X181619047Y-97061905D01*
X181542857Y-97176190D01*
X181466666Y-97252381D01*
X181390476Y-97290476D01*
M02*
