G04 #@! TF.FileFunction,Copper,L1,Top,Signal*
%FSLAX46Y46*%
G04 Gerber Fmt 4.6, Leading zero omitted, Abs format (unit mm)*
G04 Created by KiCad (PCBNEW 4.0.2-stable) date Domenica 28 Maggio 2017 19:12:34*
%MOMM*%
G01*
G04 APERTURE LIST*
%ADD10C,0.100000*%
%ADD11C,0.150000*%
%ADD12C,2.000000*%
%ADD13R,1.700000X1.600000*%
%ADD14R,0.600000X0.500000*%
%ADD15R,0.500000X0.600000*%
%ADD16R,1.300000X0.450000*%
%ADD17O,2.000000X1.450000*%
%ADD18O,1.800000X1.150000*%
%ADD19R,2.700000X2.200000*%
%ADD20O,2.700000X2.200000*%
%ADD21R,0.900000X0.800000*%
%ADD22R,0.900000X1.700000*%
%ADD23R,1.700000X0.900000*%
%ADD24O,1.524000X2.000000*%
%ADD25R,1.524000X2.000000*%
%ADD26R,0.400000X1.200000*%
%ADD27R,1.800000X1.300000*%
%ADD28R,0.750000X0.250000*%
%ADD29R,0.750000X0.300000*%
%ADD30R,0.300000X0.750000*%
%ADD31R,1.700000X1.700000*%
%ADD32C,0.500000*%
%ADD33C,0.800000*%
%ADD34C,0.600000*%
%ADD35C,1.000000*%
%ADD36C,1.000000*%
%ADD37C,1.500000*%
%ADD38C,0.250000*%
%ADD39C,0.400000*%
%ADD40C,0.254000*%
G04 APERTURE END LIST*
D10*
D11*
X61500000Y-120000000D02*
G75*
G03X61500000Y-120000000I-500000J0D01*
G01*
X128500000Y-55000000D02*
G75*
G03X128500000Y-55000000I-500000J0D01*
G01*
X189500000Y-120000000D02*
G75*
G03X189500000Y-120000000I-500000J0D01*
G01*
X189500000Y-55000000D02*
G75*
G03X189500000Y-55000000I-500000J0D01*
G01*
D12*
X53340000Y-106680000D03*
X53340000Y-104140000D03*
X53340000Y-101600000D03*
X53340000Y-111760000D03*
X53340000Y-109220000D03*
X53340000Y-99060000D03*
X53340000Y-93980000D03*
X53340000Y-96520000D03*
X55880000Y-104140000D03*
X55880000Y-106680000D03*
X55880000Y-93980000D03*
X55880000Y-99060000D03*
X55880000Y-96520000D03*
X55880000Y-101600000D03*
X55880000Y-109220000D03*
X55880000Y-111760000D03*
X53340000Y-88900000D03*
X53340000Y-91440000D03*
X53340000Y-81280000D03*
X53340000Y-78740000D03*
X53340000Y-76200000D03*
X53340000Y-86360000D03*
X53340000Y-83820000D03*
X53340000Y-73660000D03*
X53340000Y-68580000D03*
X53340000Y-71120000D03*
X55880000Y-78740000D03*
X55880000Y-81280000D03*
X55880000Y-68580000D03*
X55880000Y-73660000D03*
X55880000Y-71120000D03*
X55880000Y-76200000D03*
X55880000Y-88900000D03*
X55880000Y-83820000D03*
X55880000Y-86360000D03*
X55880000Y-91440000D03*
X53340000Y-66040000D03*
X55880000Y-66040000D03*
X63500000Y-66040000D03*
X60960000Y-60960000D03*
X58420000Y-63500000D03*
X63500000Y-60960000D03*
X60960000Y-63500000D03*
X63500000Y-63500000D03*
X53340000Y-63500000D03*
X55880000Y-63500000D03*
X58420000Y-58420000D03*
X58420000Y-60960000D03*
X58420000Y-66040000D03*
X60960000Y-66040000D03*
X63500000Y-58420000D03*
X60960000Y-58420000D03*
X68580000Y-63500000D03*
X68580000Y-60960000D03*
X68580000Y-66040000D03*
X66040000Y-66040000D03*
X66040000Y-63500000D03*
X68580000Y-58420000D03*
X66040000Y-60960000D03*
X66040000Y-58420000D03*
X68580000Y-68580000D03*
X60960000Y-68580000D03*
X63500000Y-68580000D03*
X66040000Y-68580000D03*
X60960000Y-78740000D03*
X63500000Y-76200000D03*
X63500000Y-78740000D03*
X66040000Y-76200000D03*
X58420000Y-78740000D03*
X58420000Y-73660000D03*
X58420000Y-76200000D03*
X58420000Y-68580000D03*
X58420000Y-71120000D03*
X60960000Y-71120000D03*
X63500000Y-71120000D03*
X66040000Y-71120000D03*
X66040000Y-73660000D03*
X63500000Y-73660000D03*
X68580000Y-76200000D03*
X68580000Y-73660000D03*
X68580000Y-71120000D03*
X68580000Y-78740000D03*
X66040000Y-81280000D03*
X66040000Y-78740000D03*
X60960000Y-76200000D03*
X60960000Y-73660000D03*
X58420000Y-83820000D03*
X60960000Y-83820000D03*
X68580000Y-81280000D03*
X68580000Y-83820000D03*
X60960000Y-81280000D03*
X58420000Y-81280000D03*
X63500000Y-81280000D03*
X66040000Y-83820000D03*
X63500000Y-83820000D03*
X60960000Y-86360000D03*
X58420000Y-86360000D03*
X58420000Y-88900000D03*
X58420000Y-91440000D03*
X60960000Y-91440000D03*
X63500000Y-86360000D03*
X60960000Y-88900000D03*
X63500000Y-88900000D03*
X63500000Y-91440000D03*
X66040000Y-86360000D03*
X68580000Y-88900000D03*
X66040000Y-91440000D03*
X66040000Y-88900000D03*
X68580000Y-86360000D03*
X68580000Y-91440000D03*
X68580000Y-93980000D03*
X60960000Y-93980000D03*
X63500000Y-93980000D03*
X66040000Y-93980000D03*
X60960000Y-104140000D03*
X63500000Y-101600000D03*
X63500000Y-104140000D03*
X66040000Y-101600000D03*
X58420000Y-104140000D03*
X58420000Y-99060000D03*
X58420000Y-101600000D03*
X58420000Y-93980000D03*
X58420000Y-96520000D03*
X60960000Y-96520000D03*
X63500000Y-96520000D03*
X66040000Y-96520000D03*
X66040000Y-99060000D03*
X63500000Y-99060000D03*
X68580000Y-101600000D03*
X68580000Y-99060000D03*
X68580000Y-96520000D03*
X68580000Y-104140000D03*
X66040000Y-106680000D03*
X66040000Y-104140000D03*
X60960000Y-101600000D03*
X60960000Y-99060000D03*
X58420000Y-109220000D03*
X60960000Y-109220000D03*
X68580000Y-106680000D03*
X68580000Y-109220000D03*
X60960000Y-106680000D03*
X58420000Y-106680000D03*
X63500000Y-106680000D03*
X66040000Y-109220000D03*
X63500000Y-109220000D03*
X60960000Y-111760000D03*
X58420000Y-111760000D03*
X58420000Y-114300000D03*
X58420000Y-116840000D03*
X60960000Y-116840000D03*
X63500000Y-111760000D03*
X60960000Y-114300000D03*
X63500000Y-114300000D03*
X63500000Y-116840000D03*
X66040000Y-111760000D03*
X68580000Y-114300000D03*
X66040000Y-116840000D03*
X66040000Y-114300000D03*
X68580000Y-111760000D03*
X68580000Y-116840000D03*
X180340000Y-91440000D03*
X182880000Y-91440000D03*
X185420000Y-91440000D03*
X177800000Y-91440000D03*
X193040000Y-63500000D03*
X195580000Y-68580000D03*
X193040000Y-66040000D03*
X195580000Y-66040000D03*
X193040000Y-68580000D03*
X195580000Y-63500000D03*
X187960000Y-58420000D03*
X190500000Y-58420000D03*
X187960000Y-60960000D03*
X190500000Y-60960000D03*
X187960000Y-63500000D03*
X190500000Y-68580000D03*
X187960000Y-66040000D03*
X190500000Y-66040000D03*
X187960000Y-68580000D03*
X190500000Y-63500000D03*
X180340000Y-60960000D03*
X180340000Y-63500000D03*
X182880000Y-63500000D03*
X182880000Y-58420000D03*
X180340000Y-58420000D03*
X182880000Y-60960000D03*
X180340000Y-66040000D03*
X182880000Y-68580000D03*
X182880000Y-66040000D03*
X180340000Y-68580000D03*
X172720000Y-58420000D03*
X172720000Y-60960000D03*
X177800000Y-58420000D03*
X175260000Y-60960000D03*
X177800000Y-60960000D03*
X175260000Y-58420000D03*
X175260000Y-63500000D03*
X172720000Y-63500000D03*
X177800000Y-63500000D03*
X175260000Y-66040000D03*
X177800000Y-68580000D03*
X175260000Y-68580000D03*
X177800000Y-66040000D03*
X172720000Y-66040000D03*
X177800000Y-71120000D03*
X172720000Y-71120000D03*
X172720000Y-68580000D03*
X175260000Y-71120000D03*
X177800000Y-73660000D03*
X175260000Y-76200000D03*
X172720000Y-76200000D03*
X172720000Y-73660000D03*
X175260000Y-73660000D03*
X177800000Y-76200000D03*
X177800000Y-78740000D03*
X175260000Y-78740000D03*
X172720000Y-78740000D03*
X177800000Y-81280000D03*
X185420000Y-86360000D03*
X185420000Y-88900000D03*
X177800000Y-86360000D03*
X175260000Y-81280000D03*
X182880000Y-88900000D03*
X180340000Y-83820000D03*
X180340000Y-86360000D03*
X177800000Y-88900000D03*
X177800000Y-83820000D03*
X180340000Y-88900000D03*
X182880000Y-86360000D03*
X172720000Y-81280000D03*
X190500000Y-114300000D03*
X187960000Y-116840000D03*
X190500000Y-116840000D03*
X185420000Y-116840000D03*
X182880000Y-114300000D03*
X182880000Y-109220000D03*
X180340000Y-116840000D03*
X180340000Y-114300000D03*
X180340000Y-111760000D03*
X182880000Y-116840000D03*
X180340000Y-109220000D03*
X182880000Y-111760000D03*
X185420000Y-114300000D03*
X187960000Y-111760000D03*
X185420000Y-111760000D03*
X190500000Y-111760000D03*
X187960000Y-114300000D03*
X185420000Y-109220000D03*
X187960000Y-109220000D03*
X190500000Y-109220000D03*
X195580000Y-111760000D03*
X193040000Y-111760000D03*
X195580000Y-109220000D03*
X193040000Y-109220000D03*
X132080000Y-109220000D03*
X127000000Y-114300000D03*
X127000000Y-111760000D03*
X127000000Y-109220000D03*
X129540000Y-109220000D03*
X134620000Y-116840000D03*
X127000000Y-116840000D03*
X134620000Y-114300000D03*
X134620000Y-111760000D03*
X134620000Y-109220000D03*
X121920000Y-116840000D03*
X119380000Y-116840000D03*
X124460000Y-116840000D03*
X124460000Y-114300000D03*
X119380000Y-114300000D03*
X121920000Y-114300000D03*
X132080000Y-111760000D03*
X129540000Y-111760000D03*
X129540000Y-116840000D03*
X132080000Y-114300000D03*
X132080000Y-116840000D03*
X129540000Y-114300000D03*
X162560000Y-109220000D03*
X162560000Y-111760000D03*
X165100000Y-109220000D03*
X165100000Y-111760000D03*
X157480000Y-109220000D03*
X160020000Y-109220000D03*
X154940000Y-109220000D03*
X157480000Y-116840000D03*
X157480000Y-111760000D03*
X152400000Y-116840000D03*
X152400000Y-114300000D03*
X154940000Y-111760000D03*
X154940000Y-114300000D03*
X154940000Y-116840000D03*
X157480000Y-114300000D03*
X165100000Y-116840000D03*
X165100000Y-114300000D03*
X160020000Y-111760000D03*
X162560000Y-114300000D03*
X162560000Y-116840000D03*
X160020000Y-114300000D03*
X160020000Y-116840000D03*
X149860000Y-116840000D03*
X147320000Y-116840000D03*
X149860000Y-114300000D03*
X144780000Y-114300000D03*
X144780000Y-116840000D03*
X147320000Y-114300000D03*
X147320000Y-111760000D03*
X142240000Y-116840000D03*
X142240000Y-114300000D03*
X142240000Y-111760000D03*
X144780000Y-111760000D03*
X139700000Y-116840000D03*
X137160000Y-111760000D03*
X137160000Y-114300000D03*
X137160000Y-116840000D03*
X139700000Y-111760000D03*
X139700000Y-114300000D03*
X149860000Y-111760000D03*
X152400000Y-111760000D03*
X152400000Y-109220000D03*
X149860000Y-109220000D03*
X137160000Y-109220000D03*
X147320000Y-109220000D03*
X139700000Y-109220000D03*
X142240000Y-109220000D03*
X144780000Y-109220000D03*
X119380000Y-109220000D03*
X119380000Y-111760000D03*
X121920000Y-111760000D03*
X124460000Y-111760000D03*
X124460000Y-109220000D03*
X121920000Y-109220000D03*
X167640000Y-116840000D03*
X170180000Y-111760000D03*
X170180000Y-114300000D03*
X170180000Y-116840000D03*
X167640000Y-111760000D03*
X167640000Y-114300000D03*
X167640000Y-109220000D03*
X170180000Y-109220000D03*
X132080000Y-66040000D03*
X160020000Y-60960000D03*
X160020000Y-63500000D03*
X162560000Y-60960000D03*
X162560000Y-63500000D03*
X160020000Y-58420000D03*
X154940000Y-66040000D03*
X152400000Y-66040000D03*
X152400000Y-63500000D03*
X154940000Y-63500000D03*
X157480000Y-63500000D03*
X157480000Y-60960000D03*
X157480000Y-58420000D03*
X152400000Y-60960000D03*
X152400000Y-58420000D03*
X154940000Y-58420000D03*
X154940000Y-60960000D03*
X165100000Y-66040000D03*
X165100000Y-63500000D03*
X165100000Y-60960000D03*
X165100000Y-58420000D03*
X162560000Y-58420000D03*
X162560000Y-66040000D03*
X160020000Y-66040000D03*
X157480000Y-66040000D03*
X147320000Y-66040000D03*
X149860000Y-66040000D03*
X142240000Y-66040000D03*
X144780000Y-66040000D03*
X142240000Y-63500000D03*
X142240000Y-60960000D03*
X142240000Y-58420000D03*
X144780000Y-58420000D03*
X144780000Y-60960000D03*
X144780000Y-63500000D03*
X137160000Y-66040000D03*
X139700000Y-66040000D03*
X139700000Y-63500000D03*
X139700000Y-58420000D03*
X137160000Y-58420000D03*
X137160000Y-60960000D03*
X137160000Y-63500000D03*
X139700000Y-60960000D03*
X149860000Y-63500000D03*
X149860000Y-58420000D03*
X147320000Y-58420000D03*
X147320000Y-60960000D03*
X147320000Y-63500000D03*
X149860000Y-60960000D03*
X134620000Y-66040000D03*
X121920000Y-60960000D03*
X119380000Y-58420000D03*
X119380000Y-60960000D03*
X124460000Y-60960000D03*
X124460000Y-58420000D03*
X121920000Y-58420000D03*
X121920000Y-66040000D03*
X119380000Y-63500000D03*
X119380000Y-66040000D03*
X124460000Y-66040000D03*
X124460000Y-63500000D03*
X121920000Y-63500000D03*
X134620000Y-63500000D03*
X134620000Y-58420000D03*
X132080000Y-58420000D03*
X132080000Y-60960000D03*
X132080000Y-63500000D03*
X134620000Y-60960000D03*
X127000000Y-66040000D03*
X129540000Y-63500000D03*
X129540000Y-66040000D03*
X127000000Y-63500000D03*
X127000000Y-60960000D03*
X127000000Y-58420000D03*
X129540000Y-58420000D03*
X129540000Y-60960000D03*
X167640000Y-63500000D03*
X167640000Y-58420000D03*
X170180000Y-58420000D03*
X170180000Y-60960000D03*
X170180000Y-63500000D03*
X167640000Y-60960000D03*
X167640000Y-66040000D03*
X170180000Y-66040000D03*
X101600000Y-111760000D03*
X101600000Y-109220000D03*
D13*
X188400000Y-105100000D03*
X188400000Y-100700000D03*
D12*
X116840000Y-106680000D03*
X116840000Y-104140000D03*
X116840000Y-101600000D03*
X116840000Y-99060000D03*
X116840000Y-96520000D03*
X116840000Y-93980000D03*
X116840000Y-91440000D03*
X116840000Y-88900000D03*
X116840000Y-86360000D03*
X116840000Y-83820000D03*
X116840000Y-81280000D03*
X116840000Y-78740000D03*
X116840000Y-76200000D03*
X116840000Y-73660000D03*
X116840000Y-71120000D03*
X116840000Y-68580000D03*
D14*
X192700000Y-92900000D03*
X191500000Y-92900000D03*
X191300000Y-83800000D03*
X192500000Y-83800000D03*
X192500000Y-81800000D03*
X191300000Y-81800000D03*
D15*
X181200000Y-101600000D03*
X181200000Y-100400000D03*
D14*
X191500000Y-86400000D03*
X192700000Y-86400000D03*
X192700000Y-89000000D03*
X191500000Y-89000000D03*
X191000000Y-75500000D03*
X192200000Y-75500000D03*
X192200000Y-76700000D03*
X191000000Y-76700000D03*
D16*
X194150000Y-75870000D03*
X194150000Y-76520000D03*
X194150000Y-75220000D03*
X194150000Y-74570000D03*
X194150000Y-77170000D03*
D17*
X194200000Y-72145000D03*
X194200000Y-79595000D03*
D18*
X198025000Y-79745000D03*
X198025000Y-71995000D03*
D19*
X194310000Y-101525000D03*
D20*
X194310000Y-97715000D03*
D21*
X196400000Y-83800000D03*
X194600000Y-83800000D03*
X196400000Y-81800000D03*
X194600000Y-81800000D03*
X194200000Y-92900000D03*
X196000000Y-92900000D03*
X194200000Y-86400000D03*
X196000000Y-86400000D03*
X194200000Y-89000000D03*
X196000000Y-89000000D03*
D22*
X181100000Y-95600000D03*
X184000000Y-95600000D03*
D14*
X189600000Y-79100000D03*
X190800000Y-79100000D03*
X185600000Y-102300000D03*
X184400000Y-102300000D03*
X192200000Y-74300000D03*
X191000000Y-74300000D03*
D23*
X188200000Y-98200000D03*
X188200000Y-95300000D03*
D14*
X192200000Y-77900000D03*
X191000000Y-77900000D03*
D24*
X116840000Y-111760000D03*
X116840000Y-109220000D03*
X114300000Y-111760000D03*
X114300000Y-109220000D03*
X111760000Y-111760000D03*
X111760000Y-109220000D03*
X109220000Y-111760000D03*
X109220000Y-109220000D03*
X106680000Y-111760000D03*
X106680000Y-109220000D03*
X104140000Y-111760000D03*
D25*
X104140000Y-109220000D03*
D24*
X99060000Y-111760000D03*
X99060000Y-109220000D03*
X96520000Y-111760000D03*
X96520000Y-109220000D03*
X93980000Y-111760000D03*
X93980000Y-109220000D03*
X91440000Y-111760000D03*
X91440000Y-109220000D03*
X88900000Y-111760000D03*
X88900000Y-109220000D03*
X86360000Y-111760000D03*
X86360000Y-109220000D03*
X83820000Y-111760000D03*
X83820000Y-109220000D03*
X81280000Y-111760000D03*
D25*
X81280000Y-109220000D03*
D24*
X116840000Y-63500000D03*
D25*
X116840000Y-66040000D03*
D24*
X114300000Y-63500000D03*
X114300000Y-66040000D03*
X111760000Y-63500000D03*
X111760000Y-66040000D03*
X109220000Y-63500000D03*
X109220000Y-66040000D03*
X106680000Y-63500000D03*
X106680000Y-66040000D03*
X104140000Y-63500000D03*
X104140000Y-66040000D03*
X101600000Y-63500000D03*
X101600000Y-66040000D03*
X99060000Y-63500000D03*
X99060000Y-66040000D03*
D25*
X95250000Y-66040000D03*
D24*
X95250000Y-63500000D03*
X92710000Y-66040000D03*
X92710000Y-63500000D03*
X90170000Y-66040000D03*
X90170000Y-63500000D03*
X87630000Y-66040000D03*
X87630000Y-63500000D03*
X85090000Y-66040000D03*
X85090000Y-63500000D03*
X82550000Y-66040000D03*
X82550000Y-63500000D03*
X80010000Y-66040000D03*
X80010000Y-63500000D03*
X77470000Y-66040000D03*
X77470000Y-63500000D03*
X74930000Y-66040000D03*
X74930000Y-63500000D03*
X72390000Y-66040000D03*
X72390000Y-63500000D03*
D12*
X114300000Y-68580000D03*
X114300000Y-71120000D03*
X114300000Y-73660000D03*
X114300000Y-76200000D03*
X114300000Y-78740000D03*
X114300000Y-81280000D03*
X114300000Y-83820000D03*
X114300000Y-86360000D03*
X114300000Y-88900000D03*
X114300000Y-91440000D03*
X114300000Y-93980000D03*
X114300000Y-96520000D03*
X114300000Y-99060000D03*
X114300000Y-101600000D03*
X114300000Y-104140000D03*
X114300000Y-106680000D03*
X109220000Y-106680000D03*
X109220000Y-104140000D03*
X109220000Y-101600000D03*
X109220000Y-99060000D03*
X109220000Y-96520000D03*
X109220000Y-93980000D03*
X109220000Y-91440000D03*
X109220000Y-88900000D03*
X109220000Y-86360000D03*
X109220000Y-83820000D03*
X109220000Y-81280000D03*
X109220000Y-78740000D03*
X109220000Y-76200000D03*
X109220000Y-73660000D03*
X109220000Y-71120000D03*
X109220000Y-68580000D03*
X111760000Y-68580000D03*
X111760000Y-71120000D03*
X111760000Y-73660000D03*
X111760000Y-76200000D03*
X111760000Y-78740000D03*
X111760000Y-81280000D03*
X111760000Y-83820000D03*
X111760000Y-86360000D03*
X111760000Y-88900000D03*
X111760000Y-91440000D03*
X111760000Y-93980000D03*
X111760000Y-96520000D03*
X111760000Y-99060000D03*
X111760000Y-101600000D03*
X111760000Y-104140000D03*
X111760000Y-106680000D03*
X101600000Y-106680000D03*
X101600000Y-104140000D03*
X101600000Y-101600000D03*
X101600000Y-99060000D03*
X101600000Y-96520000D03*
X101600000Y-93980000D03*
X101600000Y-91440000D03*
X101600000Y-88900000D03*
X101600000Y-86360000D03*
X101600000Y-83820000D03*
X101600000Y-81280000D03*
X101600000Y-78740000D03*
X101600000Y-76200000D03*
X101600000Y-73660000D03*
X101600000Y-71120000D03*
X101600000Y-68580000D03*
X99060000Y-68580000D03*
X99060000Y-71120000D03*
X99060000Y-73660000D03*
X99060000Y-76200000D03*
X99060000Y-78740000D03*
X99060000Y-81280000D03*
X99060000Y-83820000D03*
X99060000Y-86360000D03*
X99060000Y-88900000D03*
X99060000Y-91440000D03*
X99060000Y-93980000D03*
X99060000Y-96520000D03*
X99060000Y-99060000D03*
X99060000Y-101600000D03*
X99060000Y-104140000D03*
X99060000Y-106680000D03*
X104140000Y-106680000D03*
X104140000Y-104140000D03*
X104140000Y-101600000D03*
X104140000Y-99060000D03*
X104140000Y-96520000D03*
X104140000Y-93980000D03*
X104140000Y-91440000D03*
X104140000Y-88900000D03*
X104140000Y-86360000D03*
X104140000Y-83820000D03*
X104140000Y-81280000D03*
X104140000Y-78740000D03*
X104140000Y-76200000D03*
X104140000Y-73660000D03*
X104140000Y-71120000D03*
X104140000Y-68580000D03*
X106680000Y-68580000D03*
X106680000Y-71120000D03*
X106680000Y-73660000D03*
X106680000Y-76200000D03*
X106680000Y-78740000D03*
X106680000Y-81280000D03*
X106680000Y-83820000D03*
X106680000Y-86360000D03*
X106680000Y-88900000D03*
X106680000Y-91440000D03*
X106680000Y-93980000D03*
X106680000Y-96520000D03*
X106680000Y-99060000D03*
X106680000Y-101600000D03*
X106680000Y-104140000D03*
X106680000Y-106680000D03*
X86360000Y-106680000D03*
X86360000Y-104140000D03*
X86360000Y-101600000D03*
X86360000Y-99060000D03*
X86360000Y-96520000D03*
X86360000Y-93980000D03*
X86360000Y-91440000D03*
X86360000Y-88900000D03*
X86360000Y-86360000D03*
X86360000Y-83820000D03*
X86360000Y-81280000D03*
X86360000Y-78740000D03*
X86360000Y-76200000D03*
X86360000Y-73660000D03*
X86360000Y-71120000D03*
X86360000Y-68580000D03*
X83820000Y-68580000D03*
X83820000Y-71120000D03*
X83820000Y-73660000D03*
X83820000Y-76200000D03*
X83820000Y-78740000D03*
X83820000Y-81280000D03*
X83820000Y-83820000D03*
X83820000Y-86360000D03*
X83820000Y-88900000D03*
X83820000Y-91440000D03*
X83820000Y-93980000D03*
X83820000Y-96520000D03*
X83820000Y-99060000D03*
X83820000Y-101600000D03*
X83820000Y-104140000D03*
X83820000Y-106680000D03*
X78740000Y-106680000D03*
X78740000Y-104140000D03*
X78740000Y-101600000D03*
X78740000Y-99060000D03*
X78740000Y-96520000D03*
X78740000Y-93980000D03*
X78740000Y-91440000D03*
X78740000Y-88900000D03*
X78740000Y-86360000D03*
X78740000Y-83820000D03*
X78740000Y-81280000D03*
X78740000Y-78740000D03*
X78740000Y-76200000D03*
X78740000Y-73660000D03*
X78740000Y-71120000D03*
X78740000Y-68580000D03*
X81280000Y-68580000D03*
X81280000Y-71120000D03*
X81280000Y-73660000D03*
X81280000Y-76200000D03*
X81280000Y-78740000D03*
X81280000Y-81280000D03*
X81280000Y-83820000D03*
X81280000Y-86360000D03*
X81280000Y-88900000D03*
X81280000Y-91440000D03*
X81280000Y-93980000D03*
X81280000Y-96520000D03*
X81280000Y-99060000D03*
X81280000Y-101600000D03*
X81280000Y-104140000D03*
X81280000Y-106680000D03*
X91440000Y-106680000D03*
X91440000Y-104140000D03*
X91440000Y-101600000D03*
X91440000Y-99060000D03*
X91440000Y-96520000D03*
X91440000Y-93980000D03*
X91440000Y-91440000D03*
X91440000Y-88900000D03*
X91440000Y-86360000D03*
X91440000Y-83820000D03*
X91440000Y-81280000D03*
X91440000Y-78740000D03*
X91440000Y-76200000D03*
X91440000Y-73660000D03*
X91440000Y-71120000D03*
X91440000Y-68580000D03*
X88900000Y-68580000D03*
X88900000Y-71120000D03*
X88900000Y-73660000D03*
X88900000Y-76200000D03*
X88900000Y-78740000D03*
X88900000Y-81280000D03*
X88900000Y-83820000D03*
X88900000Y-86360000D03*
X88900000Y-88900000D03*
X88900000Y-91440000D03*
X88900000Y-93980000D03*
X88900000Y-96520000D03*
X88900000Y-99060000D03*
X88900000Y-101600000D03*
X88900000Y-104140000D03*
X88900000Y-106680000D03*
X93980000Y-106680000D03*
X93980000Y-104140000D03*
X93980000Y-101600000D03*
X93980000Y-99060000D03*
X93980000Y-96520000D03*
X93980000Y-93980000D03*
X93980000Y-91440000D03*
X93980000Y-88900000D03*
X93980000Y-86360000D03*
X93980000Y-83820000D03*
X93980000Y-81280000D03*
X93980000Y-78740000D03*
X93980000Y-76200000D03*
X93980000Y-73660000D03*
X93980000Y-71120000D03*
X93980000Y-68580000D03*
X96520000Y-68580000D03*
X96520000Y-71120000D03*
X96520000Y-73660000D03*
X96520000Y-76200000D03*
X96520000Y-78740000D03*
X96520000Y-81280000D03*
X96520000Y-83820000D03*
X96520000Y-86360000D03*
X96520000Y-88900000D03*
X96520000Y-91440000D03*
X96520000Y-93980000D03*
X96520000Y-96520000D03*
X96520000Y-99060000D03*
X96520000Y-101600000D03*
X96520000Y-104140000D03*
X96520000Y-106680000D03*
X73660000Y-106680000D03*
X73660000Y-104140000D03*
X73660000Y-101600000D03*
X73660000Y-99060000D03*
X73660000Y-96520000D03*
X73660000Y-93980000D03*
X73660000Y-91440000D03*
X73660000Y-88900000D03*
X73660000Y-86360000D03*
X73660000Y-83820000D03*
X73660000Y-81280000D03*
X73660000Y-78740000D03*
X73660000Y-76200000D03*
X73660000Y-73660000D03*
X73660000Y-71120000D03*
X73660000Y-68580000D03*
X71120000Y-68580000D03*
X71120000Y-71120000D03*
X71120000Y-73660000D03*
X71120000Y-76200000D03*
X71120000Y-78740000D03*
X71120000Y-81280000D03*
X71120000Y-83820000D03*
X71120000Y-86360000D03*
X71120000Y-88900000D03*
X71120000Y-91440000D03*
X71120000Y-93980000D03*
X71120000Y-96520000D03*
X71120000Y-99060000D03*
X71120000Y-101600000D03*
X71120000Y-104140000D03*
X71120000Y-106680000D03*
X76200000Y-106680000D03*
X76200000Y-104140000D03*
X76200000Y-101600000D03*
X76200000Y-99060000D03*
X76200000Y-96520000D03*
X76200000Y-93980000D03*
X76200000Y-91440000D03*
X76200000Y-88900000D03*
X76200000Y-86360000D03*
X76200000Y-83820000D03*
X76200000Y-81280000D03*
X76200000Y-78740000D03*
X76200000Y-76200000D03*
X76200000Y-73660000D03*
X76200000Y-71120000D03*
X76200000Y-68580000D03*
X76200000Y-109220000D03*
X76200000Y-111760000D03*
X76200000Y-114300000D03*
X76200000Y-116840000D03*
X71120000Y-116840000D03*
X71120000Y-114300000D03*
X71120000Y-111760000D03*
X71120000Y-109220000D03*
X73660000Y-109220000D03*
X73660000Y-111760000D03*
X73660000Y-114300000D03*
X73660000Y-116840000D03*
X78740000Y-109220000D03*
X78740000Y-111760000D03*
X78740000Y-114300000D03*
X78740000Y-116840000D03*
X96520000Y-116840000D03*
X96520000Y-114300000D03*
X93980000Y-114300000D03*
X93980000Y-116840000D03*
X88900000Y-116840000D03*
X88900000Y-114300000D03*
X91440000Y-114300000D03*
X91440000Y-116840000D03*
X81280000Y-116840000D03*
X81280000Y-114300000D03*
X83820000Y-116840000D03*
X83820000Y-114300000D03*
X86360000Y-114300000D03*
X86360000Y-116840000D03*
X106680000Y-116840000D03*
X106680000Y-114300000D03*
X104140000Y-114300000D03*
X104140000Y-116840000D03*
X99060000Y-116840000D03*
X99060000Y-114300000D03*
X101600000Y-114300000D03*
X101600000Y-116840000D03*
X111760000Y-116840000D03*
X111760000Y-114300000D03*
X109220000Y-114300000D03*
X109220000Y-116840000D03*
X114300000Y-116840000D03*
X114300000Y-114300000D03*
X116840000Y-114300000D03*
X116840000Y-116840000D03*
X124460000Y-68580000D03*
X124460000Y-71120000D03*
X124460000Y-73660000D03*
X124460000Y-76200000D03*
X124460000Y-78740000D03*
X124460000Y-81280000D03*
X124460000Y-83820000D03*
X124460000Y-86360000D03*
X124460000Y-88900000D03*
X124460000Y-91440000D03*
X124460000Y-93980000D03*
X124460000Y-96520000D03*
X124460000Y-99060000D03*
X124460000Y-101600000D03*
X124460000Y-104140000D03*
X124460000Y-106680000D03*
X119380000Y-106680000D03*
X119380000Y-104140000D03*
X119380000Y-101600000D03*
X119380000Y-99060000D03*
X119380000Y-96520000D03*
X119380000Y-93980000D03*
X119380000Y-91440000D03*
X119380000Y-88900000D03*
X119380000Y-86360000D03*
X119380000Y-83820000D03*
X119380000Y-81280000D03*
X119380000Y-78740000D03*
X119380000Y-76200000D03*
X119380000Y-73660000D03*
X119380000Y-71120000D03*
X119380000Y-68580000D03*
X121920000Y-68580000D03*
X121920000Y-71120000D03*
X121920000Y-73660000D03*
X121920000Y-76200000D03*
X121920000Y-78740000D03*
X121920000Y-81280000D03*
X121920000Y-83820000D03*
X121920000Y-86360000D03*
X121920000Y-88900000D03*
X121920000Y-91440000D03*
X121920000Y-93980000D03*
X121920000Y-96520000D03*
X121920000Y-99060000D03*
X121920000Y-101600000D03*
X121920000Y-104140000D03*
X121920000Y-106680000D03*
X144780000Y-106680000D03*
X144780000Y-104140000D03*
X144780000Y-101600000D03*
X144780000Y-99060000D03*
X144780000Y-96520000D03*
X144780000Y-93980000D03*
X144780000Y-91440000D03*
X144780000Y-88900000D03*
X144780000Y-86360000D03*
X144780000Y-83820000D03*
X144780000Y-81280000D03*
X144780000Y-78740000D03*
X144780000Y-76200000D03*
X144780000Y-73660000D03*
X144780000Y-71120000D03*
X144780000Y-68580000D03*
X142240000Y-68580000D03*
X142240000Y-71120000D03*
X142240000Y-73660000D03*
X142240000Y-76200000D03*
X142240000Y-78740000D03*
X142240000Y-81280000D03*
X142240000Y-83820000D03*
X142240000Y-86360000D03*
X142240000Y-88900000D03*
X142240000Y-91440000D03*
X142240000Y-93980000D03*
X142240000Y-96520000D03*
X142240000Y-99060000D03*
X142240000Y-101600000D03*
X142240000Y-104140000D03*
X142240000Y-106680000D03*
X137160000Y-106680000D03*
X137160000Y-104140000D03*
X137160000Y-101600000D03*
X137160000Y-99060000D03*
X137160000Y-96520000D03*
X137160000Y-93980000D03*
X137160000Y-91440000D03*
X137160000Y-88900000D03*
X137160000Y-86360000D03*
X137160000Y-83820000D03*
X137160000Y-81280000D03*
X137160000Y-78740000D03*
X137160000Y-76200000D03*
X137160000Y-73660000D03*
X137160000Y-71120000D03*
X137160000Y-68580000D03*
X139700000Y-68580000D03*
X139700000Y-71120000D03*
X139700000Y-73660000D03*
X139700000Y-76200000D03*
X139700000Y-78740000D03*
X139700000Y-81280000D03*
X139700000Y-83820000D03*
X139700000Y-86360000D03*
X139700000Y-88900000D03*
X139700000Y-91440000D03*
X139700000Y-93980000D03*
X139700000Y-96520000D03*
X139700000Y-99060000D03*
X139700000Y-101600000D03*
X139700000Y-104140000D03*
X139700000Y-106680000D03*
X129540000Y-106680000D03*
X129540000Y-104140000D03*
X129540000Y-101600000D03*
X129540000Y-99060000D03*
X129540000Y-96520000D03*
X129540000Y-93980000D03*
X129540000Y-91440000D03*
X129540000Y-88900000D03*
X129540000Y-86360000D03*
X129540000Y-83820000D03*
X129540000Y-81280000D03*
X129540000Y-78740000D03*
X129540000Y-76200000D03*
X129540000Y-73660000D03*
X129540000Y-71120000D03*
X129540000Y-68580000D03*
X127000000Y-68580000D03*
X127000000Y-71120000D03*
X127000000Y-73660000D03*
X127000000Y-76200000D03*
X127000000Y-78740000D03*
X127000000Y-81280000D03*
X127000000Y-83820000D03*
X127000000Y-86360000D03*
X127000000Y-88900000D03*
X127000000Y-91440000D03*
X127000000Y-93980000D03*
X127000000Y-96520000D03*
X127000000Y-99060000D03*
X127000000Y-101600000D03*
X127000000Y-104140000D03*
X127000000Y-106680000D03*
X132080000Y-106680000D03*
X132080000Y-104140000D03*
X132080000Y-101600000D03*
X132080000Y-99060000D03*
X132080000Y-96520000D03*
X132080000Y-93980000D03*
X132080000Y-91440000D03*
X132080000Y-88900000D03*
X132080000Y-86360000D03*
X132080000Y-83820000D03*
X132080000Y-81280000D03*
X132080000Y-78740000D03*
X132080000Y-76200000D03*
X132080000Y-73660000D03*
X132080000Y-71120000D03*
X132080000Y-68580000D03*
X134620000Y-68580000D03*
X134620000Y-71120000D03*
X134620000Y-73660000D03*
X134620000Y-76200000D03*
X134620000Y-78740000D03*
X134620000Y-81280000D03*
X134620000Y-83820000D03*
X134620000Y-86360000D03*
X134620000Y-88900000D03*
X134620000Y-91440000D03*
X134620000Y-93980000D03*
X134620000Y-96520000D03*
X134620000Y-99060000D03*
X134620000Y-101600000D03*
X134620000Y-104140000D03*
X134620000Y-106680000D03*
X154940000Y-106680000D03*
X154940000Y-104140000D03*
X154940000Y-101600000D03*
X154940000Y-99060000D03*
X154940000Y-96520000D03*
X154940000Y-93980000D03*
X154940000Y-91440000D03*
X154940000Y-88900000D03*
X154940000Y-86360000D03*
X154940000Y-83820000D03*
X154940000Y-81280000D03*
X154940000Y-78740000D03*
X154940000Y-76200000D03*
X154940000Y-73660000D03*
X154940000Y-71120000D03*
X154940000Y-68580000D03*
X152400000Y-68580000D03*
X152400000Y-71120000D03*
X152400000Y-73660000D03*
X152400000Y-76200000D03*
X152400000Y-78740000D03*
X152400000Y-81280000D03*
X152400000Y-83820000D03*
X152400000Y-86360000D03*
X152400000Y-88900000D03*
X152400000Y-91440000D03*
X152400000Y-93980000D03*
X152400000Y-96520000D03*
X152400000Y-99060000D03*
X152400000Y-101600000D03*
X152400000Y-104140000D03*
X152400000Y-106680000D03*
X147320000Y-106680000D03*
X147320000Y-104140000D03*
X147320000Y-101600000D03*
X147320000Y-99060000D03*
X147320000Y-96520000D03*
X147320000Y-93980000D03*
X147320000Y-91440000D03*
X147320000Y-88900000D03*
X147320000Y-86360000D03*
X147320000Y-83820000D03*
X147320000Y-81280000D03*
X147320000Y-78740000D03*
X147320000Y-76200000D03*
X147320000Y-73660000D03*
X147320000Y-71120000D03*
X147320000Y-68580000D03*
X149860000Y-68580000D03*
X149860000Y-71120000D03*
X149860000Y-73660000D03*
X149860000Y-76200000D03*
X149860000Y-78740000D03*
X149860000Y-81280000D03*
X149860000Y-83820000D03*
X149860000Y-86360000D03*
X149860000Y-88900000D03*
X149860000Y-91440000D03*
X149860000Y-93980000D03*
X149860000Y-96520000D03*
X149860000Y-99060000D03*
X149860000Y-101600000D03*
X149860000Y-104140000D03*
X149860000Y-106680000D03*
X160020000Y-106680000D03*
X160020000Y-104140000D03*
X160020000Y-101600000D03*
X160020000Y-99060000D03*
X160020000Y-96520000D03*
X160020000Y-93980000D03*
X160020000Y-91440000D03*
X160020000Y-88900000D03*
X160020000Y-86360000D03*
X160020000Y-83820000D03*
X160020000Y-81280000D03*
X160020000Y-78740000D03*
X160020000Y-76200000D03*
X160020000Y-73660000D03*
X160020000Y-71120000D03*
X160020000Y-68580000D03*
X157480000Y-68580000D03*
X157480000Y-71120000D03*
X157480000Y-73660000D03*
X157480000Y-76200000D03*
X157480000Y-78740000D03*
X157480000Y-81280000D03*
X157480000Y-83820000D03*
X157480000Y-86360000D03*
X157480000Y-88900000D03*
X157480000Y-91440000D03*
X157480000Y-93980000D03*
X157480000Y-96520000D03*
X157480000Y-99060000D03*
X157480000Y-101600000D03*
X157480000Y-104140000D03*
X157480000Y-106680000D03*
X162560000Y-106680000D03*
X162560000Y-104140000D03*
X162560000Y-101600000D03*
X162560000Y-99060000D03*
X162560000Y-96520000D03*
X162560000Y-93980000D03*
X162560000Y-91440000D03*
X162560000Y-88900000D03*
X162560000Y-86360000D03*
X162560000Y-83820000D03*
X162560000Y-81280000D03*
X162560000Y-78740000D03*
X162560000Y-76200000D03*
X162560000Y-73660000D03*
X162560000Y-71120000D03*
X162560000Y-68580000D03*
X165100000Y-68580000D03*
X165100000Y-71120000D03*
X165100000Y-73660000D03*
X165100000Y-76200000D03*
X165100000Y-78740000D03*
X165100000Y-81280000D03*
X165100000Y-83820000D03*
X165100000Y-86360000D03*
X165100000Y-88900000D03*
X165100000Y-91440000D03*
X165100000Y-93980000D03*
X165100000Y-96520000D03*
X165100000Y-99060000D03*
X165100000Y-101600000D03*
X165100000Y-104140000D03*
X165100000Y-106680000D03*
X170180000Y-106680000D03*
X170180000Y-104140000D03*
X170180000Y-101600000D03*
X170180000Y-99060000D03*
X170180000Y-96520000D03*
X170180000Y-93980000D03*
X170180000Y-91440000D03*
X170180000Y-88900000D03*
X170180000Y-86360000D03*
X170180000Y-83820000D03*
X170180000Y-81280000D03*
X170180000Y-78740000D03*
X170180000Y-76200000D03*
X170180000Y-73660000D03*
X170180000Y-71120000D03*
X170180000Y-68580000D03*
X167640000Y-68580000D03*
X167640000Y-71120000D03*
X167640000Y-73660000D03*
X167640000Y-76200000D03*
X167640000Y-78740000D03*
X167640000Y-81280000D03*
X167640000Y-83820000D03*
X167640000Y-86360000D03*
X167640000Y-88900000D03*
X167640000Y-91440000D03*
X167640000Y-93980000D03*
X167640000Y-96520000D03*
X167640000Y-99060000D03*
X167640000Y-101600000D03*
X167640000Y-104140000D03*
X167640000Y-106680000D03*
X76200000Y-58420000D03*
X76200000Y-60960000D03*
X71120000Y-60960000D03*
X71120000Y-58420000D03*
X73660000Y-58420000D03*
X73660000Y-60960000D03*
X96520000Y-60960000D03*
X96520000Y-58420000D03*
X93980000Y-58420000D03*
X93980000Y-60960000D03*
X88900000Y-60960000D03*
X88900000Y-58420000D03*
X91440000Y-58420000D03*
X91440000Y-60960000D03*
X81280000Y-60960000D03*
X81280000Y-58420000D03*
X78740000Y-58420000D03*
X78740000Y-60960000D03*
X83820000Y-60960000D03*
X83820000Y-58420000D03*
X86360000Y-58420000D03*
X86360000Y-60960000D03*
X106680000Y-60960000D03*
X106680000Y-58420000D03*
X104140000Y-58420000D03*
X104140000Y-60960000D03*
X99060000Y-60960000D03*
X99060000Y-58420000D03*
X101600000Y-58420000D03*
X101600000Y-60960000D03*
X111760000Y-60960000D03*
X111760000Y-58420000D03*
X109220000Y-58420000D03*
X109220000Y-60960000D03*
X114300000Y-60960000D03*
X114300000Y-58420000D03*
X116840000Y-58420000D03*
X116840000Y-60960000D03*
D26*
X188022500Y-73600000D03*
X187387500Y-73600000D03*
X186752500Y-73600000D03*
X186117500Y-73600000D03*
X185482500Y-73600000D03*
X184847500Y-73600000D03*
X184212500Y-73600000D03*
X183577500Y-73600000D03*
X183577500Y-78800000D03*
X184212500Y-78800000D03*
X184847500Y-78800000D03*
X185482500Y-78800000D03*
X186117500Y-78800000D03*
X186752500Y-78800000D03*
X187387500Y-78800000D03*
X188022500Y-78800000D03*
D27*
X178300000Y-98500000D03*
X178300000Y-95700000D03*
D28*
X188000000Y-71200000D03*
X188000000Y-70700000D03*
X186130000Y-71200000D03*
X186130000Y-70700000D03*
D12*
X187960000Y-88900000D03*
X187960000Y-86360000D03*
D29*
X182700000Y-98500000D03*
X182700000Y-99000000D03*
X182700000Y-99500000D03*
X182700000Y-100000000D03*
D30*
X183425000Y-100725000D03*
X183925000Y-100725000D03*
X184425000Y-100725000D03*
X184925000Y-100725000D03*
D29*
X185650000Y-100000000D03*
X185650000Y-99500000D03*
X185650000Y-99000000D03*
X185650000Y-98500000D03*
D30*
X184925000Y-97775000D03*
X184425000Y-97775000D03*
X183925000Y-97775000D03*
X183425000Y-97775000D03*
D31*
X184175000Y-99250000D03*
D32*
X184175000Y-99250000D03*
X184775000Y-98650000D03*
X183575000Y-99850000D03*
X183575000Y-98650000D03*
X184775000Y-99850000D03*
D33*
X196800000Y-95200000D03*
X195000000Y-95200000D03*
X193200000Y-95200000D03*
X191400000Y-95200000D03*
X184300000Y-103500000D03*
X184300000Y-104700000D03*
X184300000Y-106100000D03*
X182700000Y-106000000D03*
X182700000Y-104700000D03*
X182700000Y-103500000D03*
D34*
X185200000Y-96500000D03*
X179000000Y-100800000D03*
X179900000Y-94700000D03*
D35*
X179800000Y-102700000D03*
D34*
X191000000Y-78500000D03*
X176200000Y-93000000D03*
D35*
X83900000Y-119100000D03*
X90600000Y-120000000D03*
D34*
X184200000Y-80900000D03*
X186225001Y-84525001D03*
X186800000Y-72400000D03*
X190000000Y-81800000D03*
X188100000Y-80020010D03*
D33*
X194100000Y-87600000D03*
D36*
X137160000Y-88900000D02*
X137160000Y-86360000D01*
D37*
X170180000Y-91440000D02*
X137160000Y-91440000D01*
X137160000Y-88900000D02*
X170180000Y-88900000D01*
X170180000Y-86360000D02*
X137160000Y-86360000D01*
D38*
X181100000Y-93500000D02*
X179900000Y-94700000D01*
X181100000Y-93500000D02*
X190900000Y-93500000D01*
X190900000Y-93500000D02*
X191500000Y-92900000D01*
D37*
X170180000Y-83820000D02*
X137160000Y-83820000D01*
X170260000Y-83900000D02*
X170180000Y-83820000D01*
D36*
X172500000Y-83900000D02*
X170260000Y-83900000D01*
X100200000Y-118900000D02*
X173000000Y-118900000D01*
X174800000Y-86200000D02*
X172500000Y-83900000D01*
X174800000Y-96700000D02*
X174800000Y-86200000D01*
X174800000Y-96700000D02*
X175800000Y-95700000D01*
X175800000Y-95700000D02*
X178300000Y-95700000D01*
X174800000Y-117100000D02*
X174800000Y-96700000D01*
X173000000Y-118900000D02*
X174800000Y-117100000D01*
X99060000Y-117760000D02*
X100200000Y-118900000D01*
X99060000Y-111760000D02*
X99060000Y-117760000D01*
D38*
X184425000Y-97275000D02*
X185200000Y-96500000D01*
X184425000Y-97775000D02*
X184425000Y-97275000D01*
X179000000Y-100800000D02*
X180450000Y-100800000D01*
X180450000Y-100800000D02*
X181200000Y-101550000D01*
X181200000Y-101550000D02*
X181200000Y-101600000D01*
D36*
X177400000Y-105100000D02*
X176700000Y-105800000D01*
X178100000Y-104400000D02*
X177400000Y-105100000D01*
X177400000Y-105100000D02*
X179800000Y-102700000D01*
X176700000Y-117800000D02*
X173700000Y-120800000D01*
X176700000Y-105800000D02*
X176700000Y-117800000D01*
X93980000Y-116880000D02*
X93980000Y-111760000D01*
X173700000Y-120800000D02*
X97900000Y-120800000D01*
X97900000Y-120800000D02*
X93980000Y-116880000D01*
D39*
X192820001Y-73649999D02*
X192820001Y-73524999D01*
X192820001Y-73524999D02*
X194200000Y-72145000D01*
X190400000Y-80000000D02*
X190800000Y-79600000D01*
X190800000Y-79600000D02*
X190800000Y-79100000D01*
X189300000Y-80000000D02*
X190400000Y-80000000D01*
X188800000Y-79500000D02*
X189300000Y-80000000D01*
X188800000Y-77800000D02*
X188800000Y-79500000D01*
X188500000Y-77500000D02*
X188800000Y-77800000D01*
X186600000Y-77500000D02*
X188500000Y-77500000D01*
X186117500Y-77982500D02*
X186600000Y-77500000D01*
X186117500Y-78800000D02*
X186117500Y-77982500D01*
X186100000Y-75300000D02*
X189300000Y-75300000D01*
X189300000Y-75300000D02*
X190300000Y-74300000D01*
X185482500Y-74682500D02*
X186100000Y-75300000D01*
X185482500Y-73600000D02*
X185482500Y-74682500D01*
D38*
X191000000Y-78500000D02*
X191000000Y-78900000D01*
X191000000Y-77900000D02*
X191000000Y-78500000D01*
X191000000Y-78900000D02*
X190800000Y-79100000D01*
D36*
X93980000Y-111760000D02*
X96520000Y-111760000D01*
D38*
X196000000Y-92900000D02*
X196000000Y-96025000D01*
X196000000Y-96025000D02*
X194310000Y-97715000D01*
X186117500Y-78800000D02*
X186117500Y-78049998D01*
X186117500Y-78049998D02*
X186367498Y-77800000D01*
D39*
X194150000Y-74570000D02*
X193725000Y-74570000D01*
X193725000Y-74570000D02*
X192820001Y-73665001D01*
X192820001Y-73665001D02*
X192820001Y-73649999D01*
D38*
X193670000Y-74570000D02*
X192860000Y-73689998D01*
D39*
X191700001Y-73649999D02*
X192820001Y-73649999D01*
X192820001Y-73649999D02*
X192860000Y-73689998D01*
X191000000Y-74300000D02*
X191050000Y-74300000D01*
X191050000Y-74300000D02*
X191700001Y-73649999D01*
X190300000Y-74300000D02*
X191000000Y-74300000D01*
D38*
X191000000Y-77900000D02*
X191000000Y-78000000D01*
X194150000Y-74570000D02*
X193670000Y-74570000D01*
X191500000Y-89000000D02*
X191500000Y-86400000D01*
X191500000Y-89700000D02*
X191500000Y-91600000D01*
X191500000Y-89295000D02*
X191500000Y-89700000D01*
X191500000Y-89700000D02*
X191500000Y-89000000D01*
X190100000Y-93000000D02*
X176200000Y-93000000D01*
X191500000Y-91600000D02*
X190100000Y-93000000D01*
D36*
X83900000Y-119100000D02*
X83820000Y-119020000D01*
X83820000Y-119020000D02*
X83820000Y-111760000D01*
X88900000Y-111760000D02*
X88900000Y-118300000D01*
X88900000Y-118300000D02*
X90600000Y-120000000D01*
X88900000Y-111760000D02*
X88900000Y-116800000D01*
D38*
X191500000Y-89295000D02*
X191500000Y-89400000D01*
X194150000Y-76520000D02*
X192380000Y-76520000D01*
X192380000Y-76520000D02*
X192200000Y-76700000D01*
X192200000Y-76700000D02*
X192200000Y-77900000D01*
X192200000Y-75500000D02*
X192200000Y-74300000D01*
X194150000Y-75870000D02*
X192570000Y-75870000D01*
X192570000Y-75870000D02*
X192200000Y-75500000D01*
X189600000Y-79100000D02*
X189600000Y-77400000D01*
X189600000Y-77400000D02*
X189100000Y-76900000D01*
X189100000Y-76900000D02*
X185897500Y-76900000D01*
X185897500Y-76900000D02*
X184847500Y-77950000D01*
X184847500Y-77950000D02*
X184847500Y-78800000D01*
X194200000Y-89000000D02*
X192700000Y-89000000D01*
X192700000Y-86400000D02*
X194200000Y-86400000D01*
X192700000Y-92900000D02*
X194200000Y-92900000D01*
X184200000Y-80900000D02*
X184200000Y-78812500D01*
X184200000Y-78812500D02*
X184212500Y-78800000D01*
X186752500Y-73600000D02*
X186752500Y-72447500D01*
X186752500Y-72447500D02*
X186800000Y-72400000D01*
X186225001Y-84525001D02*
X195624999Y-84525001D01*
X195624999Y-84525001D02*
X196350000Y-83800000D01*
X196350000Y-83800000D02*
X196400000Y-83800000D01*
X196350000Y-81800000D02*
X196400000Y-81800000D01*
X196400000Y-83800000D02*
X196400000Y-81800000D01*
X194600000Y-81800000D02*
X192500000Y-81800000D01*
X194600000Y-83800000D02*
X192500000Y-83800000D01*
D39*
X185482500Y-79382500D02*
X185482500Y-79685002D01*
X185482500Y-79685002D02*
X186517508Y-80720010D01*
X186517508Y-80720010D02*
X195279990Y-80720010D01*
X195279990Y-80720010D02*
X196300000Y-79700000D01*
X196300000Y-79700000D02*
X196300000Y-77900000D01*
X196300000Y-77900000D02*
X195570000Y-77170000D01*
X195570000Y-77170000D02*
X194150000Y-77170000D01*
X185482500Y-79382500D02*
X185482500Y-79542524D01*
X185482500Y-78800000D02*
X185482500Y-79382500D01*
D38*
X191000000Y-76700000D02*
X190700000Y-76700000D01*
X184700000Y-76400000D02*
X190400000Y-76400000D01*
X190400000Y-76400000D02*
X190700000Y-76700000D01*
X183577500Y-77522500D02*
X184700000Y-76400000D01*
X183577500Y-78800000D02*
X183577500Y-77522500D01*
X191000000Y-75500000D02*
X190600000Y-75500000D01*
X184600000Y-75900000D02*
X190200000Y-75900000D01*
X190200000Y-75900000D02*
X190600000Y-75500000D01*
X183577500Y-74877500D02*
X184600000Y-75900000D01*
X183577500Y-73600000D02*
X183577500Y-74877500D01*
X190000000Y-81800000D02*
X191300000Y-81800000D01*
X186752500Y-78800000D02*
X186752500Y-79650000D01*
X186752500Y-79650000D02*
X187122510Y-80020010D01*
X187122510Y-80020010D02*
X188100000Y-80020010D01*
X183900000Y-72500000D02*
X184212500Y-72812500D01*
X184212500Y-72812500D02*
X184212500Y-73600000D01*
X182900000Y-72500000D02*
X183900000Y-72500000D01*
X182400000Y-73000000D02*
X182900000Y-72500000D01*
X182400000Y-80400000D02*
X182400000Y-73000000D01*
X185800000Y-83800000D02*
X182400000Y-80400000D01*
X191300000Y-83800000D02*
X185800000Y-83800000D01*
X186100000Y-101800000D02*
X185600000Y-102300000D01*
X186100000Y-100400000D02*
X186100000Y-101800000D01*
X185700000Y-100000000D02*
X186100000Y-100400000D01*
X185650000Y-100000000D02*
X185700000Y-100000000D01*
X182700000Y-100000000D02*
X181600000Y-100000000D01*
X181600000Y-100000000D02*
X181200000Y-100400000D01*
X183900000Y-56800000D02*
X117600000Y-56800000D01*
X184900000Y-68900000D02*
X184900000Y-57800000D01*
X184900000Y-57800000D02*
X183900000Y-56800000D01*
X186130000Y-70130000D02*
X184900000Y-68900000D01*
X186130000Y-70700000D02*
X186130000Y-70130000D01*
X116840000Y-63500000D02*
X116840000Y-57560000D01*
X116840000Y-57560000D02*
X117600000Y-56800000D01*
X184500000Y-56349990D02*
X115950010Y-56349990D01*
X186000000Y-69000000D02*
X186000000Y-57849990D01*
X186000000Y-57849990D02*
X184500000Y-56349990D01*
X187700000Y-70700000D02*
X186000000Y-69000000D01*
X188000000Y-70700000D02*
X187700000Y-70700000D01*
X115950010Y-56349990D02*
X114300000Y-58000000D01*
X114300000Y-58000000D02*
X114300000Y-63500000D01*
X196000000Y-88300000D02*
X195300000Y-87600000D01*
X195300000Y-87600000D02*
X194100000Y-87600000D01*
X196000000Y-89000000D02*
X196000000Y-88300000D01*
X196000000Y-89000000D02*
X196000000Y-88500000D01*
X187960000Y-88900000D02*
X187960000Y-89060000D01*
X187960000Y-88900000D02*
X187800000Y-88900000D01*
X196000000Y-89295000D02*
X195950000Y-89295000D01*
X195500000Y-85600000D02*
X188720000Y-85600000D01*
X188720000Y-85600000D02*
X187960000Y-86360000D01*
X196000000Y-86100000D02*
X195500000Y-85600000D01*
X196000000Y-86400000D02*
X196000000Y-86100000D01*
X188022500Y-73600000D02*
X188022500Y-71222500D01*
X188022500Y-71222500D02*
X188000000Y-71200000D01*
X186117500Y-73600000D02*
X186117500Y-71212500D01*
X186117500Y-71212500D02*
X186130000Y-71200000D01*
D11*
G36*
X190925000Y-97531066D02*
X190925000Y-100468934D01*
X189968934Y-101425000D01*
X186875000Y-101425000D01*
X186875000Y-100300000D01*
X186869091Y-100270821D01*
X186853033Y-100246967D01*
X186253033Y-99646967D01*
X186228222Y-99630512D01*
X186200000Y-99625000D01*
X186182817Y-99625000D01*
X186134086Y-99591704D01*
X186025000Y-99569613D01*
X185375000Y-99569613D01*
X185375000Y-98200000D01*
X185369091Y-98170821D01*
X185353033Y-98146967D01*
X185253033Y-98046967D01*
X185228222Y-98030512D01*
X185200000Y-98025000D01*
X184875000Y-98025000D01*
X184875000Y-97390686D01*
X184890686Y-97375000D01*
X186200000Y-97375000D01*
X186229179Y-97369091D01*
X186253033Y-97353033D01*
X187031066Y-96575000D01*
X189968934Y-96575000D01*
X190925000Y-97531066D01*
X190925000Y-97531066D01*
G37*
X190925000Y-97531066D02*
X190925000Y-100468934D01*
X189968934Y-101425000D01*
X186875000Y-101425000D01*
X186875000Y-100300000D01*
X186869091Y-100270821D01*
X186853033Y-100246967D01*
X186253033Y-99646967D01*
X186228222Y-99630512D01*
X186200000Y-99625000D01*
X186182817Y-99625000D01*
X186134086Y-99591704D01*
X186025000Y-99569613D01*
X185375000Y-99569613D01*
X185375000Y-98200000D01*
X185369091Y-98170821D01*
X185353033Y-98146967D01*
X185253033Y-98046967D01*
X185228222Y-98030512D01*
X185200000Y-98025000D01*
X184875000Y-98025000D01*
X184875000Y-97390686D01*
X184890686Y-97375000D01*
X186200000Y-97375000D01*
X186229179Y-97369091D01*
X186253033Y-97353033D01*
X187031066Y-96575000D01*
X189968934Y-96575000D01*
X190925000Y-97531066D01*
G36*
X182646967Y-98353033D02*
X182671778Y-98369488D01*
X182700000Y-98375000D01*
X183000000Y-98375000D01*
X183025000Y-98408333D01*
X183025000Y-99525000D01*
X176831066Y-99525000D01*
X176575000Y-99268934D01*
X176575000Y-97631066D01*
X176831066Y-97375000D01*
X181668934Y-97375000D01*
X182646967Y-98353033D01*
X182646967Y-98353033D01*
G37*
X182646967Y-98353033D02*
X182671778Y-98369488D01*
X182700000Y-98375000D01*
X183000000Y-98375000D01*
X183025000Y-98408333D01*
X183025000Y-99525000D01*
X176831066Y-99525000D01*
X176575000Y-99268934D01*
X176575000Y-97631066D01*
X176831066Y-97375000D01*
X181668934Y-97375000D01*
X182646967Y-98353033D01*
G36*
X182225000Y-94831066D02*
X182225000Y-96268934D01*
X181768934Y-96725000D01*
X176831066Y-96725000D01*
X176575000Y-96468934D01*
X176575000Y-94931066D01*
X177131066Y-94375000D01*
X181768934Y-94375000D01*
X182225000Y-94831066D01*
X182225000Y-94831066D01*
G37*
X182225000Y-94831066D02*
X182225000Y-96268934D01*
X181768934Y-96725000D01*
X176831066Y-96725000D01*
X176575000Y-96468934D01*
X176575000Y-94931066D01*
X177131066Y-94375000D01*
X181768934Y-94375000D01*
X182225000Y-94831066D01*
D40*
G36*
X198873000Y-94552606D02*
X198873000Y-99373000D01*
X192052606Y-99373000D01*
X191627000Y-98947394D01*
X191627000Y-97000000D01*
X191616994Y-96950590D01*
X191589803Y-96910197D01*
X190589803Y-95910197D01*
X190547789Y-95882334D01*
X190500000Y-95873000D01*
X185200547Y-95873000D01*
X185075829Y-95872891D01*
X185075565Y-95873000D01*
X185000000Y-95873000D01*
X184950590Y-95883006D01*
X184910197Y-95910197D01*
X184857144Y-95963250D01*
X184845297Y-95968145D01*
X184668765Y-96144369D01*
X184663610Y-96156784D01*
X184010197Y-96810197D01*
X183982334Y-96852211D01*
X183973000Y-96900000D01*
X183973000Y-97262766D01*
X183967862Y-97270286D01*
X183941594Y-97400000D01*
X183941594Y-98150000D01*
X183964395Y-98271179D01*
X183973000Y-98284551D01*
X183973000Y-98400000D01*
X183983006Y-98449410D01*
X184011447Y-98491035D01*
X184053841Y-98518315D01*
X184100000Y-98527000D01*
X184941594Y-98527000D01*
X184941594Y-98650000D01*
X184961101Y-98753673D01*
X184941594Y-98850000D01*
X184941594Y-99150000D01*
X184961101Y-99253673D01*
X184941594Y-99350000D01*
X184941594Y-99650000D01*
X184961101Y-99753673D01*
X184941594Y-99850000D01*
X184941594Y-100150000D01*
X184964395Y-100271179D01*
X184973000Y-100284551D01*
X184973000Y-102018367D01*
X184966594Y-102050000D01*
X184966594Y-102550000D01*
X184973000Y-102584046D01*
X184973000Y-106347394D01*
X184447394Y-106873000D01*
X182552606Y-106873000D01*
X182127000Y-106447394D01*
X182127000Y-102052606D01*
X183089803Y-101089803D01*
X183117666Y-101047789D01*
X183127000Y-101000000D01*
X183127000Y-100552606D01*
X183260194Y-100419412D01*
X183307474Y-100388988D01*
X183343837Y-100335769D01*
X183389803Y-100289803D01*
X183417666Y-100247789D01*
X183427000Y-100200000D01*
X183427000Y-98400000D01*
X183416994Y-98350590D01*
X183404390Y-98328655D01*
X183385605Y-98228821D01*
X183313988Y-98117526D01*
X183204714Y-98042862D01*
X183188422Y-98039563D01*
X183127000Y-97957667D01*
X183127000Y-94552606D01*
X183552606Y-94127000D01*
X198447394Y-94127000D01*
X198873000Y-94552606D01*
X198873000Y-94552606D01*
G37*
X198873000Y-94552606D02*
X198873000Y-99373000D01*
X192052606Y-99373000D01*
X191627000Y-98947394D01*
X191627000Y-97000000D01*
X191616994Y-96950590D01*
X191589803Y-96910197D01*
X190589803Y-95910197D01*
X190547789Y-95882334D01*
X190500000Y-95873000D01*
X185200547Y-95873000D01*
X185075829Y-95872891D01*
X185075565Y-95873000D01*
X185000000Y-95873000D01*
X184950590Y-95883006D01*
X184910197Y-95910197D01*
X184857144Y-95963250D01*
X184845297Y-95968145D01*
X184668765Y-96144369D01*
X184663610Y-96156784D01*
X184010197Y-96810197D01*
X183982334Y-96852211D01*
X183973000Y-96900000D01*
X183973000Y-97262766D01*
X183967862Y-97270286D01*
X183941594Y-97400000D01*
X183941594Y-98150000D01*
X183964395Y-98271179D01*
X183973000Y-98284551D01*
X183973000Y-98400000D01*
X183983006Y-98449410D01*
X184011447Y-98491035D01*
X184053841Y-98518315D01*
X184100000Y-98527000D01*
X184941594Y-98527000D01*
X184941594Y-98650000D01*
X184961101Y-98753673D01*
X184941594Y-98850000D01*
X184941594Y-99150000D01*
X184961101Y-99253673D01*
X184941594Y-99350000D01*
X184941594Y-99650000D01*
X184961101Y-99753673D01*
X184941594Y-99850000D01*
X184941594Y-100150000D01*
X184964395Y-100271179D01*
X184973000Y-100284551D01*
X184973000Y-102018367D01*
X184966594Y-102050000D01*
X184966594Y-102550000D01*
X184973000Y-102584046D01*
X184973000Y-106347394D01*
X184447394Y-106873000D01*
X182552606Y-106873000D01*
X182127000Y-106447394D01*
X182127000Y-102052606D01*
X183089803Y-101089803D01*
X183117666Y-101047789D01*
X183127000Y-101000000D01*
X183127000Y-100552606D01*
X183260194Y-100419412D01*
X183307474Y-100388988D01*
X183343837Y-100335769D01*
X183389803Y-100289803D01*
X183417666Y-100247789D01*
X183427000Y-100200000D01*
X183427000Y-98400000D01*
X183416994Y-98350590D01*
X183404390Y-98328655D01*
X183385605Y-98228821D01*
X183313988Y-98117526D01*
X183204714Y-98042862D01*
X183188422Y-98039563D01*
X183127000Y-97957667D01*
X183127000Y-94552606D01*
X183552606Y-94127000D01*
X198447394Y-94127000D01*
X198873000Y-94552606D01*
G36*
X198873000Y-105947394D02*
X198447394Y-106373000D01*
X187552606Y-106373000D01*
X187127000Y-105947394D01*
X187127000Y-104552606D01*
X187552606Y-104127000D01*
X189500000Y-104127000D01*
X189549410Y-104116994D01*
X189589803Y-104089803D01*
X190089803Y-103589803D01*
X190117666Y-103547789D01*
X190127000Y-103500000D01*
X190127000Y-102052606D01*
X192052606Y-100127000D01*
X198873000Y-100127000D01*
X198873000Y-105947394D01*
X198873000Y-105947394D01*
G37*
X198873000Y-105947394D02*
X198447394Y-106373000D01*
X187552606Y-106373000D01*
X187127000Y-105947394D01*
X187127000Y-104552606D01*
X187552606Y-104127000D01*
X189500000Y-104127000D01*
X189549410Y-104116994D01*
X189589803Y-104089803D01*
X190089803Y-103589803D01*
X190117666Y-103547789D01*
X190127000Y-103500000D01*
X190127000Y-102052606D01*
X192052606Y-100127000D01*
X198873000Y-100127000D01*
X198873000Y-105947394D01*
M02*
