G04 #@! TF.FileFunction,Soldermask,Top*
%FSLAX46Y46*%
G04 Gerber Fmt 4.6, Leading zero omitted, Abs format (unit mm)*
G04 Created by KiCad (PCBNEW 4.0.2-stable) date Domenica 28 Maggio 2017 18:35:47*
%MOMM*%
G01*
G04 APERTURE LIST*
%ADD10C,0.100000*%
%ADD11C,2.000000*%
%ADD12C,0.500000*%
%ADD13C,0.300000*%
%ADD14C,2.000000*%
%ADD15R,1.700000X1.600000*%
%ADD16R,0.600000X0.500000*%
%ADD17R,0.500000X0.600000*%
%ADD18R,1.300000X0.450000*%
%ADD19C,0.800000*%
%ADD20O,2.000000X1.450000*%
%ADD21O,1.800000X1.150000*%
%ADD22R,2.700000X2.200000*%
%ADD23O,2.700000X2.200000*%
%ADD24R,0.900000X0.800000*%
%ADD25R,0.900000X1.700000*%
%ADD26R,1.700000X0.900000*%
%ADD27O,1.524000X2.000000*%
%ADD28R,1.524000X2.000000*%
%ADD29R,0.400000X1.200000*%
%ADD30C,3.200000*%
%ADD31R,1.800000X1.300000*%
%ADD32R,0.750000X0.250000*%
%ADD33R,0.750000X0.300000*%
%ADD34R,0.300000X0.750000*%
%ADD35R,1.700000X1.700000*%
%ADD36C,0.500000*%
G04 APERTURE END LIST*
D10*
X51666666Y-54000000D02*
G75*
G03X51666666Y-54000000I-1666666J0D01*
G01*
X47500000Y-54000000D02*
X52500000Y-54000000D01*
X50000000Y-51500000D02*
X50000000Y-56500000D01*
D11*
X137160000Y-91440000D02*
X170180000Y-91440000D01*
X137160000Y-88900000D02*
X170180000Y-88900000D01*
X137160000Y-86360000D02*
X170180000Y-86360000D01*
X137160000Y-83820000D02*
X170180000Y-83820000D01*
D10*
X50000000Y-54000000D02*
X200000000Y-54000000D01*
X50000000Y-122000000D02*
X50000000Y-54000000D01*
X200000000Y-122000000D02*
X50000000Y-122000000D01*
X200000000Y-54000000D02*
X200000000Y-122000000D01*
D12*
X61360555Y-120000000D02*
G75*
G03X61360555Y-120000000I-360555J0D01*
G01*
D13*
X61141421Y-120000000D02*
G75*
G03X61141421Y-120000000I-141421J0D01*
G01*
D12*
X128360555Y-55000000D02*
G75*
G03X128360555Y-55000000I-360555J0D01*
G01*
D13*
X128141421Y-55000000D02*
G75*
G03X128141421Y-55000000I-141421J0D01*
G01*
D12*
X189360555Y-120000000D02*
G75*
G03X189360555Y-120000000I-360555J0D01*
G01*
D13*
X189141421Y-120000000D02*
G75*
G03X189141421Y-120000000I-141421J0D01*
G01*
D12*
X189360555Y-55000000D02*
G75*
G03X189360555Y-55000000I-360555J0D01*
G01*
D13*
X189141421Y-55000000D02*
G75*
G03X189141421Y-55000000I-141421J0D01*
G01*
D14*
X53340000Y-106680000D03*
X53340000Y-104140000D03*
X53340000Y-101600000D03*
X53340000Y-111760000D03*
X53340000Y-109220000D03*
X53340000Y-99060000D03*
X53340000Y-93980000D03*
X53340000Y-96520000D03*
X55880000Y-104140000D03*
X55880000Y-106680000D03*
X55880000Y-93980000D03*
X55880000Y-99060000D03*
X55880000Y-96520000D03*
X55880000Y-101600000D03*
X55880000Y-109220000D03*
X55880000Y-111760000D03*
X53340000Y-88900000D03*
X53340000Y-91440000D03*
X53340000Y-81280000D03*
X53340000Y-78740000D03*
X53340000Y-76200000D03*
X53340000Y-86360000D03*
X53340000Y-83820000D03*
X53340000Y-73660000D03*
X53340000Y-68580000D03*
X53340000Y-71120000D03*
X55880000Y-78740000D03*
X55880000Y-81280000D03*
X55880000Y-68580000D03*
X55880000Y-73660000D03*
X55880000Y-71120000D03*
X55880000Y-76200000D03*
X55880000Y-88900000D03*
X55880000Y-83820000D03*
X55880000Y-86360000D03*
X55880000Y-91440000D03*
X53340000Y-66040000D03*
X55880000Y-66040000D03*
X63500000Y-66040000D03*
X60960000Y-60960000D03*
X58420000Y-63500000D03*
X63500000Y-60960000D03*
X60960000Y-63500000D03*
X63500000Y-63500000D03*
X53340000Y-63500000D03*
X55880000Y-63500000D03*
X58420000Y-58420000D03*
X58420000Y-60960000D03*
X58420000Y-66040000D03*
X60960000Y-66040000D03*
X63500000Y-58420000D03*
X60960000Y-58420000D03*
X68580000Y-63500000D03*
X68580000Y-60960000D03*
X68580000Y-66040000D03*
X66040000Y-66040000D03*
X66040000Y-63500000D03*
X68580000Y-58420000D03*
X66040000Y-60960000D03*
X66040000Y-58420000D03*
X68580000Y-68580000D03*
X60960000Y-68580000D03*
X63500000Y-68580000D03*
X66040000Y-68580000D03*
X60960000Y-78740000D03*
X63500000Y-76200000D03*
X63500000Y-78740000D03*
X66040000Y-76200000D03*
X58420000Y-78740000D03*
X58420000Y-73660000D03*
X58420000Y-76200000D03*
X58420000Y-68580000D03*
X58420000Y-71120000D03*
X60960000Y-71120000D03*
X63500000Y-71120000D03*
X66040000Y-71120000D03*
X66040000Y-73660000D03*
X63500000Y-73660000D03*
X68580000Y-76200000D03*
X68580000Y-73660000D03*
X68580000Y-71120000D03*
X68580000Y-78740000D03*
X66040000Y-81280000D03*
X66040000Y-78740000D03*
X60960000Y-76200000D03*
X60960000Y-73660000D03*
X58420000Y-83820000D03*
X60960000Y-83820000D03*
X68580000Y-81280000D03*
X68580000Y-83820000D03*
X60960000Y-81280000D03*
X58420000Y-81280000D03*
X63500000Y-81280000D03*
X66040000Y-83820000D03*
X63500000Y-83820000D03*
X60960000Y-86360000D03*
X58420000Y-86360000D03*
X58420000Y-88900000D03*
X58420000Y-91440000D03*
X60960000Y-91440000D03*
X63500000Y-86360000D03*
X60960000Y-88900000D03*
X63500000Y-88900000D03*
X63500000Y-91440000D03*
X66040000Y-86360000D03*
X68580000Y-88900000D03*
X66040000Y-91440000D03*
X66040000Y-88900000D03*
X68580000Y-86360000D03*
X68580000Y-91440000D03*
X68580000Y-93980000D03*
X60960000Y-93980000D03*
X63500000Y-93980000D03*
X66040000Y-93980000D03*
X60960000Y-104140000D03*
X63500000Y-101600000D03*
X63500000Y-104140000D03*
X66040000Y-101600000D03*
X58420000Y-104140000D03*
X58420000Y-99060000D03*
X58420000Y-101600000D03*
X58420000Y-93980000D03*
X58420000Y-96520000D03*
X60960000Y-96520000D03*
X63500000Y-96520000D03*
X66040000Y-96520000D03*
X66040000Y-99060000D03*
X63500000Y-99060000D03*
X68580000Y-101600000D03*
X68580000Y-99060000D03*
X68580000Y-96520000D03*
X68580000Y-104140000D03*
X66040000Y-106680000D03*
X66040000Y-104140000D03*
X60960000Y-101600000D03*
X60960000Y-99060000D03*
X58420000Y-109220000D03*
X60960000Y-109220000D03*
X68580000Y-106680000D03*
X68580000Y-109220000D03*
X60960000Y-106680000D03*
X58420000Y-106680000D03*
X63500000Y-106680000D03*
X66040000Y-109220000D03*
X63500000Y-109220000D03*
X60960000Y-111760000D03*
X58420000Y-111760000D03*
X58420000Y-114300000D03*
X58420000Y-116840000D03*
X60960000Y-116840000D03*
X63500000Y-111760000D03*
X60960000Y-114300000D03*
X63500000Y-114300000D03*
X63500000Y-116840000D03*
X66040000Y-111760000D03*
X68580000Y-114300000D03*
X66040000Y-116840000D03*
X66040000Y-114300000D03*
X68580000Y-111760000D03*
X68580000Y-116840000D03*
X180340000Y-91440000D03*
X182880000Y-91440000D03*
X185420000Y-91440000D03*
X177800000Y-91440000D03*
X193040000Y-63500000D03*
X195580000Y-68580000D03*
X193040000Y-66040000D03*
X195580000Y-66040000D03*
X193040000Y-68580000D03*
X195580000Y-63500000D03*
X187960000Y-58420000D03*
X190500000Y-58420000D03*
X187960000Y-60960000D03*
X190500000Y-60960000D03*
X187960000Y-63500000D03*
X190500000Y-68580000D03*
X187960000Y-66040000D03*
X190500000Y-66040000D03*
X187960000Y-68580000D03*
X190500000Y-63500000D03*
X180340000Y-60960000D03*
X180340000Y-63500000D03*
X182880000Y-63500000D03*
X182880000Y-58420000D03*
X180340000Y-58420000D03*
X182880000Y-60960000D03*
X180340000Y-66040000D03*
X182880000Y-68580000D03*
X182880000Y-66040000D03*
X180340000Y-68580000D03*
X172720000Y-58420000D03*
X172720000Y-60960000D03*
X177800000Y-58420000D03*
X175260000Y-60960000D03*
X177800000Y-60960000D03*
X175260000Y-58420000D03*
X175260000Y-63500000D03*
X172720000Y-63500000D03*
X177800000Y-63500000D03*
X175260000Y-66040000D03*
X177800000Y-68580000D03*
X175260000Y-68580000D03*
X177800000Y-66040000D03*
X172720000Y-66040000D03*
X177800000Y-71120000D03*
X172720000Y-71120000D03*
X172720000Y-68580000D03*
X175260000Y-71120000D03*
X177800000Y-73660000D03*
X175260000Y-76200000D03*
X172720000Y-76200000D03*
X172720000Y-73660000D03*
X175260000Y-73660000D03*
X177800000Y-76200000D03*
X177800000Y-78740000D03*
X175260000Y-78740000D03*
X172720000Y-78740000D03*
X177800000Y-81280000D03*
X185420000Y-86360000D03*
X185420000Y-88900000D03*
X177800000Y-86360000D03*
X175260000Y-81280000D03*
X182880000Y-88900000D03*
X180340000Y-83820000D03*
X180340000Y-86360000D03*
X177800000Y-88900000D03*
X177800000Y-83820000D03*
X180340000Y-88900000D03*
X182880000Y-86360000D03*
X172720000Y-81280000D03*
X190500000Y-114300000D03*
X187960000Y-116840000D03*
X190500000Y-116840000D03*
X185420000Y-116840000D03*
X182880000Y-114300000D03*
X182880000Y-109220000D03*
X180340000Y-116840000D03*
X180340000Y-114300000D03*
X180340000Y-111760000D03*
X182880000Y-116840000D03*
X180340000Y-109220000D03*
X182880000Y-111760000D03*
X185420000Y-114300000D03*
X187960000Y-111760000D03*
X185420000Y-111760000D03*
X190500000Y-111760000D03*
X187960000Y-114300000D03*
X185420000Y-109220000D03*
X187960000Y-109220000D03*
X190500000Y-109220000D03*
X195580000Y-111760000D03*
X193040000Y-111760000D03*
X195580000Y-109220000D03*
X193040000Y-109220000D03*
X132080000Y-109220000D03*
X127000000Y-114300000D03*
X127000000Y-111760000D03*
X127000000Y-109220000D03*
X129540000Y-109220000D03*
X134620000Y-116840000D03*
X127000000Y-116840000D03*
X134620000Y-114300000D03*
X134620000Y-111760000D03*
X134620000Y-109220000D03*
X121920000Y-116840000D03*
X119380000Y-116840000D03*
X124460000Y-116840000D03*
X124460000Y-114300000D03*
X119380000Y-114300000D03*
X121920000Y-114300000D03*
X132080000Y-111760000D03*
X129540000Y-111760000D03*
X129540000Y-116840000D03*
X132080000Y-114300000D03*
X132080000Y-116840000D03*
X129540000Y-114300000D03*
X162560000Y-109220000D03*
X162560000Y-111760000D03*
X165100000Y-109220000D03*
X165100000Y-111760000D03*
X157480000Y-109220000D03*
X160020000Y-109220000D03*
X154940000Y-109220000D03*
X157480000Y-116840000D03*
X157480000Y-111760000D03*
X152400000Y-116840000D03*
X152400000Y-114300000D03*
X154940000Y-111760000D03*
X154940000Y-114300000D03*
X154940000Y-116840000D03*
X157480000Y-114300000D03*
X165100000Y-116840000D03*
X165100000Y-114300000D03*
X160020000Y-111760000D03*
X162560000Y-114300000D03*
X162560000Y-116840000D03*
X160020000Y-114300000D03*
X160020000Y-116840000D03*
X149860000Y-116840000D03*
X147320000Y-116840000D03*
X149860000Y-114300000D03*
X144780000Y-114300000D03*
X144780000Y-116840000D03*
X147320000Y-114300000D03*
X147320000Y-111760000D03*
X142240000Y-116840000D03*
X142240000Y-114300000D03*
X142240000Y-111760000D03*
X144780000Y-111760000D03*
X139700000Y-116840000D03*
X137160000Y-111760000D03*
X137160000Y-114300000D03*
X137160000Y-116840000D03*
X139700000Y-111760000D03*
X139700000Y-114300000D03*
X149860000Y-111760000D03*
X152400000Y-111760000D03*
X152400000Y-109220000D03*
X149860000Y-109220000D03*
X137160000Y-109220000D03*
X147320000Y-109220000D03*
X139700000Y-109220000D03*
X142240000Y-109220000D03*
X144780000Y-109220000D03*
X119380000Y-109220000D03*
X119380000Y-111760000D03*
X121920000Y-111760000D03*
X124460000Y-111760000D03*
X124460000Y-109220000D03*
X121920000Y-109220000D03*
X167640000Y-116840000D03*
X170180000Y-111760000D03*
X170180000Y-114300000D03*
X170180000Y-116840000D03*
X167640000Y-111760000D03*
X167640000Y-114300000D03*
X167640000Y-109220000D03*
X170180000Y-109220000D03*
X132080000Y-66040000D03*
X160020000Y-60960000D03*
X160020000Y-63500000D03*
X162560000Y-60960000D03*
X162560000Y-63500000D03*
X160020000Y-58420000D03*
X154940000Y-66040000D03*
X152400000Y-66040000D03*
X152400000Y-63500000D03*
X154940000Y-63500000D03*
X157480000Y-63500000D03*
X157480000Y-60960000D03*
X157480000Y-58420000D03*
X152400000Y-60960000D03*
X152400000Y-58420000D03*
X154940000Y-58420000D03*
X154940000Y-60960000D03*
X165100000Y-66040000D03*
X165100000Y-63500000D03*
X165100000Y-60960000D03*
X165100000Y-58420000D03*
X162560000Y-58420000D03*
X162560000Y-66040000D03*
X160020000Y-66040000D03*
X157480000Y-66040000D03*
X147320000Y-66040000D03*
X149860000Y-66040000D03*
X142240000Y-66040000D03*
X144780000Y-66040000D03*
X142240000Y-63500000D03*
X142240000Y-60960000D03*
X142240000Y-58420000D03*
X144780000Y-58420000D03*
X144780000Y-60960000D03*
X144780000Y-63500000D03*
X137160000Y-66040000D03*
X139700000Y-66040000D03*
X139700000Y-63500000D03*
X139700000Y-58420000D03*
X137160000Y-58420000D03*
X137160000Y-60960000D03*
X137160000Y-63500000D03*
X139700000Y-60960000D03*
X149860000Y-63500000D03*
X149860000Y-58420000D03*
X147320000Y-58420000D03*
X147320000Y-60960000D03*
X147320000Y-63500000D03*
X149860000Y-60960000D03*
X134620000Y-66040000D03*
X121920000Y-60960000D03*
X119380000Y-58420000D03*
X119380000Y-60960000D03*
X124460000Y-60960000D03*
X124460000Y-58420000D03*
X121920000Y-58420000D03*
X121920000Y-66040000D03*
X119380000Y-63500000D03*
X119380000Y-66040000D03*
X124460000Y-66040000D03*
X124460000Y-63500000D03*
X121920000Y-63500000D03*
X134620000Y-63500000D03*
X134620000Y-58420000D03*
X132080000Y-58420000D03*
X132080000Y-60960000D03*
X132080000Y-63500000D03*
X134620000Y-60960000D03*
X127000000Y-66040000D03*
X129540000Y-63500000D03*
X129540000Y-66040000D03*
X127000000Y-63500000D03*
X127000000Y-60960000D03*
X127000000Y-58420000D03*
X129540000Y-58420000D03*
X129540000Y-60960000D03*
X167640000Y-63500000D03*
X167640000Y-58420000D03*
X170180000Y-58420000D03*
X170180000Y-60960000D03*
X170180000Y-63500000D03*
X167640000Y-60960000D03*
X167640000Y-66040000D03*
X170180000Y-66040000D03*
X101600000Y-111760000D03*
X101600000Y-109220000D03*
D15*
X188400000Y-105100000D03*
X188400000Y-100700000D03*
D14*
X116840000Y-106680000D03*
X116840000Y-104140000D03*
X116840000Y-101600000D03*
X116840000Y-99060000D03*
X116840000Y-96520000D03*
X116840000Y-93980000D03*
X116840000Y-91440000D03*
X116840000Y-88900000D03*
X116840000Y-86360000D03*
X116840000Y-83820000D03*
X116840000Y-81280000D03*
X116840000Y-78740000D03*
X116840000Y-76200000D03*
X116840000Y-73660000D03*
X116840000Y-71120000D03*
X116840000Y-68580000D03*
D16*
X192700000Y-92900000D03*
X191500000Y-92900000D03*
X191300000Y-83800000D03*
X192500000Y-83800000D03*
X192500000Y-81800000D03*
X191300000Y-81800000D03*
D17*
X181200000Y-101600000D03*
X181200000Y-100400000D03*
D16*
X191500000Y-86400000D03*
X192700000Y-86400000D03*
X192700000Y-89000000D03*
X191500000Y-89000000D03*
X191000000Y-75500000D03*
X192200000Y-75500000D03*
X192200000Y-76700000D03*
X191000000Y-76700000D03*
D18*
X194150000Y-75870000D03*
D19*
X195250000Y-78370000D03*
X195250000Y-73370000D03*
D18*
X194150000Y-76520000D03*
X194150000Y-75220000D03*
X194150000Y-74570000D03*
X194150000Y-77170000D03*
D20*
X194200000Y-72145000D03*
X194200000Y-79595000D03*
D21*
X198025000Y-79745000D03*
X198025000Y-71995000D03*
D22*
X194310000Y-101525000D03*
D23*
X194310000Y-97715000D03*
D24*
X196400000Y-83800000D03*
X194600000Y-83800000D03*
X196400000Y-81800000D03*
X194600000Y-81800000D03*
X194200000Y-92900000D03*
X196000000Y-92900000D03*
X194200000Y-86400000D03*
X196000000Y-86400000D03*
X194200000Y-89000000D03*
X196000000Y-89000000D03*
D25*
X181100000Y-95600000D03*
X184000000Y-95600000D03*
D16*
X189600000Y-79100000D03*
X190800000Y-79100000D03*
X185600000Y-102300000D03*
X184400000Y-102300000D03*
X192200000Y-74300000D03*
X191000000Y-74300000D03*
D26*
X188200000Y-98200000D03*
X188200000Y-95300000D03*
D16*
X192200000Y-77900000D03*
X191000000Y-77900000D03*
D27*
X116840000Y-111760000D03*
X116840000Y-109220000D03*
X114300000Y-111760000D03*
X114300000Y-109220000D03*
X111760000Y-111760000D03*
X111760000Y-109220000D03*
X109220000Y-111760000D03*
X109220000Y-109220000D03*
X106680000Y-111760000D03*
X106680000Y-109220000D03*
X104140000Y-111760000D03*
D28*
X104140000Y-109220000D03*
D27*
X99060000Y-111760000D03*
X99060000Y-109220000D03*
X96520000Y-111760000D03*
X96520000Y-109220000D03*
X93980000Y-111760000D03*
X93980000Y-109220000D03*
X91440000Y-111760000D03*
X91440000Y-109220000D03*
X88900000Y-111760000D03*
X88900000Y-109220000D03*
X86360000Y-111760000D03*
X86360000Y-109220000D03*
X83820000Y-111760000D03*
X83820000Y-109220000D03*
X81280000Y-111760000D03*
D28*
X81280000Y-109220000D03*
D27*
X116840000Y-63500000D03*
D28*
X116840000Y-66040000D03*
D27*
X114300000Y-63500000D03*
X114300000Y-66040000D03*
X111760000Y-63500000D03*
X111760000Y-66040000D03*
X109220000Y-63500000D03*
X109220000Y-66040000D03*
X106680000Y-63500000D03*
X106680000Y-66040000D03*
X104140000Y-63500000D03*
X104140000Y-66040000D03*
X101600000Y-63500000D03*
X101600000Y-66040000D03*
X99060000Y-63500000D03*
X99060000Y-66040000D03*
D28*
X95250000Y-66040000D03*
D27*
X95250000Y-63500000D03*
X92710000Y-66040000D03*
X92710000Y-63500000D03*
X90170000Y-66040000D03*
X90170000Y-63500000D03*
X87630000Y-66040000D03*
X87630000Y-63500000D03*
X85090000Y-66040000D03*
X85090000Y-63500000D03*
X82550000Y-66040000D03*
X82550000Y-63500000D03*
X80010000Y-66040000D03*
X80010000Y-63500000D03*
X77470000Y-66040000D03*
X77470000Y-63500000D03*
X74930000Y-66040000D03*
X74930000Y-63500000D03*
X72390000Y-66040000D03*
X72390000Y-63500000D03*
D14*
X114300000Y-68580000D03*
X114300000Y-71120000D03*
X114300000Y-73660000D03*
X114300000Y-76200000D03*
X114300000Y-78740000D03*
X114300000Y-81280000D03*
X114300000Y-83820000D03*
X114300000Y-86360000D03*
X114300000Y-88900000D03*
X114300000Y-91440000D03*
X114300000Y-93980000D03*
X114300000Y-96520000D03*
X114300000Y-99060000D03*
X114300000Y-101600000D03*
X114300000Y-104140000D03*
X114300000Y-106680000D03*
X109220000Y-106680000D03*
X109220000Y-104140000D03*
X109220000Y-101600000D03*
X109220000Y-99060000D03*
X109220000Y-96520000D03*
X109220000Y-93980000D03*
X109220000Y-91440000D03*
X109220000Y-88900000D03*
X109220000Y-86360000D03*
X109220000Y-83820000D03*
X109220000Y-81280000D03*
X109220000Y-78740000D03*
X109220000Y-76200000D03*
X109220000Y-73660000D03*
X109220000Y-71120000D03*
X109220000Y-68580000D03*
X111760000Y-68580000D03*
X111760000Y-71120000D03*
X111760000Y-73660000D03*
X111760000Y-76200000D03*
X111760000Y-78740000D03*
X111760000Y-81280000D03*
X111760000Y-83820000D03*
X111760000Y-86360000D03*
X111760000Y-88900000D03*
X111760000Y-91440000D03*
X111760000Y-93980000D03*
X111760000Y-96520000D03*
X111760000Y-99060000D03*
X111760000Y-101600000D03*
X111760000Y-104140000D03*
X111760000Y-106680000D03*
X101600000Y-106680000D03*
X101600000Y-104140000D03*
X101600000Y-101600000D03*
X101600000Y-99060000D03*
X101600000Y-96520000D03*
X101600000Y-93980000D03*
X101600000Y-91440000D03*
X101600000Y-88900000D03*
X101600000Y-86360000D03*
X101600000Y-83820000D03*
X101600000Y-81280000D03*
X101600000Y-78740000D03*
X101600000Y-76200000D03*
X101600000Y-73660000D03*
X101600000Y-71120000D03*
X101600000Y-68580000D03*
X99060000Y-68580000D03*
X99060000Y-71120000D03*
X99060000Y-73660000D03*
X99060000Y-76200000D03*
X99060000Y-78740000D03*
X99060000Y-81280000D03*
X99060000Y-83820000D03*
X99060000Y-86360000D03*
X99060000Y-88900000D03*
X99060000Y-91440000D03*
X99060000Y-93980000D03*
X99060000Y-96520000D03*
X99060000Y-99060000D03*
X99060000Y-101600000D03*
X99060000Y-104140000D03*
X99060000Y-106680000D03*
X104140000Y-106680000D03*
X104140000Y-104140000D03*
X104140000Y-101600000D03*
X104140000Y-99060000D03*
X104140000Y-96520000D03*
X104140000Y-93980000D03*
X104140000Y-91440000D03*
X104140000Y-88900000D03*
X104140000Y-86360000D03*
X104140000Y-83820000D03*
X104140000Y-81280000D03*
X104140000Y-78740000D03*
X104140000Y-76200000D03*
X104140000Y-73660000D03*
X104140000Y-71120000D03*
X104140000Y-68580000D03*
X106680000Y-68580000D03*
X106680000Y-71120000D03*
X106680000Y-73660000D03*
X106680000Y-76200000D03*
X106680000Y-78740000D03*
X106680000Y-81280000D03*
X106680000Y-83820000D03*
X106680000Y-86360000D03*
X106680000Y-88900000D03*
X106680000Y-91440000D03*
X106680000Y-93980000D03*
X106680000Y-96520000D03*
X106680000Y-99060000D03*
X106680000Y-101600000D03*
X106680000Y-104140000D03*
X106680000Y-106680000D03*
X86360000Y-106680000D03*
X86360000Y-104140000D03*
X86360000Y-101600000D03*
X86360000Y-99060000D03*
X86360000Y-96520000D03*
X86360000Y-93980000D03*
X86360000Y-91440000D03*
X86360000Y-88900000D03*
X86360000Y-86360000D03*
X86360000Y-83820000D03*
X86360000Y-81280000D03*
X86360000Y-78740000D03*
X86360000Y-76200000D03*
X86360000Y-73660000D03*
X86360000Y-71120000D03*
X86360000Y-68580000D03*
X83820000Y-68580000D03*
X83820000Y-71120000D03*
X83820000Y-73660000D03*
X83820000Y-76200000D03*
X83820000Y-78740000D03*
X83820000Y-81280000D03*
X83820000Y-83820000D03*
X83820000Y-86360000D03*
X83820000Y-88900000D03*
X83820000Y-91440000D03*
X83820000Y-93980000D03*
X83820000Y-96520000D03*
X83820000Y-99060000D03*
X83820000Y-101600000D03*
X83820000Y-104140000D03*
X83820000Y-106680000D03*
X78740000Y-106680000D03*
X78740000Y-104140000D03*
X78740000Y-101600000D03*
X78740000Y-99060000D03*
X78740000Y-96520000D03*
X78740000Y-93980000D03*
X78740000Y-91440000D03*
X78740000Y-88900000D03*
X78740000Y-86360000D03*
X78740000Y-83820000D03*
X78740000Y-81280000D03*
X78740000Y-78740000D03*
X78740000Y-76200000D03*
X78740000Y-73660000D03*
X78740000Y-71120000D03*
X78740000Y-68580000D03*
X81280000Y-68580000D03*
X81280000Y-71120000D03*
X81280000Y-73660000D03*
X81280000Y-76200000D03*
X81280000Y-78740000D03*
X81280000Y-81280000D03*
X81280000Y-83820000D03*
X81280000Y-86360000D03*
X81280000Y-88900000D03*
X81280000Y-91440000D03*
X81280000Y-93980000D03*
X81280000Y-96520000D03*
X81280000Y-99060000D03*
X81280000Y-101600000D03*
X81280000Y-104140000D03*
X81280000Y-106680000D03*
X91440000Y-106680000D03*
X91440000Y-104140000D03*
X91440000Y-101600000D03*
X91440000Y-99060000D03*
X91440000Y-96520000D03*
X91440000Y-93980000D03*
X91440000Y-91440000D03*
X91440000Y-88900000D03*
X91440000Y-86360000D03*
X91440000Y-83820000D03*
X91440000Y-81280000D03*
X91440000Y-78740000D03*
X91440000Y-76200000D03*
X91440000Y-73660000D03*
X91440000Y-71120000D03*
X91440000Y-68580000D03*
X88900000Y-68580000D03*
X88900000Y-71120000D03*
X88900000Y-73660000D03*
X88900000Y-76200000D03*
X88900000Y-78740000D03*
X88900000Y-81280000D03*
X88900000Y-83820000D03*
X88900000Y-86360000D03*
X88900000Y-88900000D03*
X88900000Y-91440000D03*
X88900000Y-93980000D03*
X88900000Y-96520000D03*
X88900000Y-99060000D03*
X88900000Y-101600000D03*
X88900000Y-104140000D03*
X88900000Y-106680000D03*
X93980000Y-106680000D03*
X93980000Y-104140000D03*
X93980000Y-101600000D03*
X93980000Y-99060000D03*
X93980000Y-96520000D03*
X93980000Y-93980000D03*
X93980000Y-91440000D03*
X93980000Y-88900000D03*
X93980000Y-86360000D03*
X93980000Y-83820000D03*
X93980000Y-81280000D03*
X93980000Y-78740000D03*
X93980000Y-76200000D03*
X93980000Y-73660000D03*
X93980000Y-71120000D03*
X93980000Y-68580000D03*
X96520000Y-68580000D03*
X96520000Y-71120000D03*
X96520000Y-73660000D03*
X96520000Y-76200000D03*
X96520000Y-78740000D03*
X96520000Y-81280000D03*
X96520000Y-83820000D03*
X96520000Y-86360000D03*
X96520000Y-88900000D03*
X96520000Y-91440000D03*
X96520000Y-93980000D03*
X96520000Y-96520000D03*
X96520000Y-99060000D03*
X96520000Y-101600000D03*
X96520000Y-104140000D03*
X96520000Y-106680000D03*
X73660000Y-106680000D03*
X73660000Y-104140000D03*
X73660000Y-101600000D03*
X73660000Y-99060000D03*
X73660000Y-96520000D03*
X73660000Y-93980000D03*
X73660000Y-91440000D03*
X73660000Y-88900000D03*
X73660000Y-86360000D03*
X73660000Y-83820000D03*
X73660000Y-81280000D03*
X73660000Y-78740000D03*
X73660000Y-76200000D03*
X73660000Y-73660000D03*
X73660000Y-71120000D03*
X73660000Y-68580000D03*
X71120000Y-68580000D03*
X71120000Y-71120000D03*
X71120000Y-73660000D03*
X71120000Y-76200000D03*
X71120000Y-78740000D03*
X71120000Y-81280000D03*
X71120000Y-83820000D03*
X71120000Y-86360000D03*
X71120000Y-88900000D03*
X71120000Y-91440000D03*
X71120000Y-93980000D03*
X71120000Y-96520000D03*
X71120000Y-99060000D03*
X71120000Y-101600000D03*
X71120000Y-104140000D03*
X71120000Y-106680000D03*
X76200000Y-106680000D03*
X76200000Y-104140000D03*
X76200000Y-101600000D03*
X76200000Y-99060000D03*
X76200000Y-96520000D03*
X76200000Y-93980000D03*
X76200000Y-91440000D03*
X76200000Y-88900000D03*
X76200000Y-86360000D03*
X76200000Y-83820000D03*
X76200000Y-81280000D03*
X76200000Y-78740000D03*
X76200000Y-76200000D03*
X76200000Y-73660000D03*
X76200000Y-71120000D03*
X76200000Y-68580000D03*
X76200000Y-109220000D03*
X76200000Y-111760000D03*
X76200000Y-114300000D03*
X76200000Y-116840000D03*
X71120000Y-116840000D03*
X71120000Y-114300000D03*
X71120000Y-111760000D03*
X71120000Y-109220000D03*
X73660000Y-109220000D03*
X73660000Y-111760000D03*
X73660000Y-114300000D03*
X73660000Y-116840000D03*
X78740000Y-109220000D03*
X78740000Y-111760000D03*
X78740000Y-114300000D03*
X78740000Y-116840000D03*
X96520000Y-116840000D03*
X96520000Y-114300000D03*
X93980000Y-114300000D03*
X93980000Y-116840000D03*
X88900000Y-116840000D03*
X88900000Y-114300000D03*
X91440000Y-114300000D03*
X91440000Y-116840000D03*
X81280000Y-116840000D03*
X81280000Y-114300000D03*
X83820000Y-116840000D03*
X83820000Y-114300000D03*
X86360000Y-114300000D03*
X86360000Y-116840000D03*
X106680000Y-116840000D03*
X106680000Y-114300000D03*
X104140000Y-114300000D03*
X104140000Y-116840000D03*
X99060000Y-116840000D03*
X99060000Y-114300000D03*
X101600000Y-114300000D03*
X101600000Y-116840000D03*
X111760000Y-116840000D03*
X111760000Y-114300000D03*
X109220000Y-114300000D03*
X109220000Y-116840000D03*
X114300000Y-116840000D03*
X114300000Y-114300000D03*
X116840000Y-114300000D03*
X116840000Y-116840000D03*
X124460000Y-68580000D03*
X124460000Y-71120000D03*
X124460000Y-73660000D03*
X124460000Y-76200000D03*
X124460000Y-78740000D03*
X124460000Y-81280000D03*
X124460000Y-83820000D03*
X124460000Y-86360000D03*
X124460000Y-88900000D03*
X124460000Y-91440000D03*
X124460000Y-93980000D03*
X124460000Y-96520000D03*
X124460000Y-99060000D03*
X124460000Y-101600000D03*
X124460000Y-104140000D03*
X124460000Y-106680000D03*
X119380000Y-106680000D03*
X119380000Y-104140000D03*
X119380000Y-101600000D03*
X119380000Y-99060000D03*
X119380000Y-96520000D03*
X119380000Y-93980000D03*
X119380000Y-91440000D03*
X119380000Y-88900000D03*
X119380000Y-86360000D03*
X119380000Y-83820000D03*
X119380000Y-81280000D03*
X119380000Y-78740000D03*
X119380000Y-76200000D03*
X119380000Y-73660000D03*
X119380000Y-71120000D03*
X119380000Y-68580000D03*
X121920000Y-68580000D03*
X121920000Y-71120000D03*
X121920000Y-73660000D03*
X121920000Y-76200000D03*
X121920000Y-78740000D03*
X121920000Y-81280000D03*
X121920000Y-83820000D03*
X121920000Y-86360000D03*
X121920000Y-88900000D03*
X121920000Y-91440000D03*
X121920000Y-93980000D03*
X121920000Y-96520000D03*
X121920000Y-99060000D03*
X121920000Y-101600000D03*
X121920000Y-104140000D03*
X121920000Y-106680000D03*
X144780000Y-106680000D03*
X144780000Y-104140000D03*
X144780000Y-101600000D03*
X144780000Y-99060000D03*
X144780000Y-96520000D03*
X144780000Y-93980000D03*
X144780000Y-91440000D03*
X144780000Y-88900000D03*
X144780000Y-86360000D03*
X144780000Y-83820000D03*
X144780000Y-81280000D03*
X144780000Y-78740000D03*
X144780000Y-76200000D03*
X144780000Y-73660000D03*
X144780000Y-71120000D03*
X144780000Y-68580000D03*
X142240000Y-68580000D03*
X142240000Y-71120000D03*
X142240000Y-73660000D03*
X142240000Y-76200000D03*
X142240000Y-78740000D03*
X142240000Y-81280000D03*
X142240000Y-83820000D03*
X142240000Y-86360000D03*
X142240000Y-88900000D03*
X142240000Y-91440000D03*
X142240000Y-93980000D03*
X142240000Y-96520000D03*
X142240000Y-99060000D03*
X142240000Y-101600000D03*
X142240000Y-104140000D03*
X142240000Y-106680000D03*
X137160000Y-106680000D03*
X137160000Y-104140000D03*
X137160000Y-101600000D03*
X137160000Y-99060000D03*
X137160000Y-96520000D03*
X137160000Y-93980000D03*
X137160000Y-91440000D03*
X137160000Y-88900000D03*
X137160000Y-86360000D03*
X137160000Y-83820000D03*
X137160000Y-81280000D03*
X137160000Y-78740000D03*
X137160000Y-76200000D03*
X137160000Y-73660000D03*
X137160000Y-71120000D03*
X137160000Y-68580000D03*
X139700000Y-68580000D03*
X139700000Y-71120000D03*
X139700000Y-73660000D03*
X139700000Y-76200000D03*
X139700000Y-78740000D03*
X139700000Y-81280000D03*
X139700000Y-83820000D03*
X139700000Y-86360000D03*
X139700000Y-88900000D03*
X139700000Y-91440000D03*
X139700000Y-93980000D03*
X139700000Y-96520000D03*
X139700000Y-99060000D03*
X139700000Y-101600000D03*
X139700000Y-104140000D03*
X139700000Y-106680000D03*
X129540000Y-106680000D03*
X129540000Y-104140000D03*
X129540000Y-101600000D03*
X129540000Y-99060000D03*
X129540000Y-96520000D03*
X129540000Y-93980000D03*
X129540000Y-91440000D03*
X129540000Y-88900000D03*
X129540000Y-86360000D03*
X129540000Y-83820000D03*
X129540000Y-81280000D03*
X129540000Y-78740000D03*
X129540000Y-76200000D03*
X129540000Y-73660000D03*
X129540000Y-71120000D03*
X129540000Y-68580000D03*
X127000000Y-68580000D03*
X127000000Y-71120000D03*
X127000000Y-73660000D03*
X127000000Y-76200000D03*
X127000000Y-78740000D03*
X127000000Y-81280000D03*
X127000000Y-83820000D03*
X127000000Y-86360000D03*
X127000000Y-88900000D03*
X127000000Y-91440000D03*
X127000000Y-93980000D03*
X127000000Y-96520000D03*
X127000000Y-99060000D03*
X127000000Y-101600000D03*
X127000000Y-104140000D03*
X127000000Y-106680000D03*
X132080000Y-106680000D03*
X132080000Y-104140000D03*
X132080000Y-101600000D03*
X132080000Y-99060000D03*
X132080000Y-96520000D03*
X132080000Y-93980000D03*
X132080000Y-91440000D03*
X132080000Y-88900000D03*
X132080000Y-86360000D03*
X132080000Y-83820000D03*
X132080000Y-81280000D03*
X132080000Y-78740000D03*
X132080000Y-76200000D03*
X132080000Y-73660000D03*
X132080000Y-71120000D03*
X132080000Y-68580000D03*
X134620000Y-68580000D03*
X134620000Y-71120000D03*
X134620000Y-73660000D03*
X134620000Y-76200000D03*
X134620000Y-78740000D03*
X134620000Y-81280000D03*
X134620000Y-83820000D03*
X134620000Y-86360000D03*
X134620000Y-88900000D03*
X134620000Y-91440000D03*
X134620000Y-93980000D03*
X134620000Y-96520000D03*
X134620000Y-99060000D03*
X134620000Y-101600000D03*
X134620000Y-104140000D03*
X134620000Y-106680000D03*
X154940000Y-106680000D03*
X154940000Y-104140000D03*
X154940000Y-101600000D03*
X154940000Y-99060000D03*
X154940000Y-96520000D03*
X154940000Y-93980000D03*
X154940000Y-91440000D03*
X154940000Y-88900000D03*
X154940000Y-86360000D03*
X154940000Y-83820000D03*
X154940000Y-81280000D03*
X154940000Y-78740000D03*
X154940000Y-76200000D03*
X154940000Y-73660000D03*
X154940000Y-71120000D03*
X154940000Y-68580000D03*
X152400000Y-68580000D03*
X152400000Y-71120000D03*
X152400000Y-73660000D03*
X152400000Y-76200000D03*
X152400000Y-78740000D03*
X152400000Y-81280000D03*
X152400000Y-83820000D03*
X152400000Y-86360000D03*
X152400000Y-88900000D03*
X152400000Y-91440000D03*
X152400000Y-93980000D03*
X152400000Y-96520000D03*
X152400000Y-99060000D03*
X152400000Y-101600000D03*
X152400000Y-104140000D03*
X152400000Y-106680000D03*
X147320000Y-106680000D03*
X147320000Y-104140000D03*
X147320000Y-101600000D03*
X147320000Y-99060000D03*
X147320000Y-96520000D03*
X147320000Y-93980000D03*
X147320000Y-91440000D03*
X147320000Y-88900000D03*
X147320000Y-86360000D03*
X147320000Y-83820000D03*
X147320000Y-81280000D03*
X147320000Y-78740000D03*
X147320000Y-76200000D03*
X147320000Y-73660000D03*
X147320000Y-71120000D03*
X147320000Y-68580000D03*
X149860000Y-68580000D03*
X149860000Y-71120000D03*
X149860000Y-73660000D03*
X149860000Y-76200000D03*
X149860000Y-78740000D03*
X149860000Y-81280000D03*
X149860000Y-83820000D03*
X149860000Y-86360000D03*
X149860000Y-88900000D03*
X149860000Y-91440000D03*
X149860000Y-93980000D03*
X149860000Y-96520000D03*
X149860000Y-99060000D03*
X149860000Y-101600000D03*
X149860000Y-104140000D03*
X149860000Y-106680000D03*
X160020000Y-106680000D03*
X160020000Y-104140000D03*
X160020000Y-101600000D03*
X160020000Y-99060000D03*
X160020000Y-96520000D03*
X160020000Y-93980000D03*
X160020000Y-91440000D03*
X160020000Y-88900000D03*
X160020000Y-86360000D03*
X160020000Y-83820000D03*
X160020000Y-81280000D03*
X160020000Y-78740000D03*
X160020000Y-76200000D03*
X160020000Y-73660000D03*
X160020000Y-71120000D03*
X160020000Y-68580000D03*
X157480000Y-68580000D03*
X157480000Y-71120000D03*
X157480000Y-73660000D03*
X157480000Y-76200000D03*
X157480000Y-78740000D03*
X157480000Y-81280000D03*
X157480000Y-83820000D03*
X157480000Y-86360000D03*
X157480000Y-88900000D03*
X157480000Y-91440000D03*
X157480000Y-93980000D03*
X157480000Y-96520000D03*
X157480000Y-99060000D03*
X157480000Y-101600000D03*
X157480000Y-104140000D03*
X157480000Y-106680000D03*
X162560000Y-106680000D03*
X162560000Y-104140000D03*
X162560000Y-101600000D03*
X162560000Y-99060000D03*
X162560000Y-96520000D03*
X162560000Y-93980000D03*
X162560000Y-91440000D03*
X162560000Y-88900000D03*
X162560000Y-86360000D03*
X162560000Y-83820000D03*
X162560000Y-81280000D03*
X162560000Y-78740000D03*
X162560000Y-76200000D03*
X162560000Y-73660000D03*
X162560000Y-71120000D03*
X162560000Y-68580000D03*
X165100000Y-68580000D03*
X165100000Y-71120000D03*
X165100000Y-73660000D03*
X165100000Y-76200000D03*
X165100000Y-78740000D03*
X165100000Y-81280000D03*
X165100000Y-83820000D03*
X165100000Y-86360000D03*
X165100000Y-88900000D03*
X165100000Y-91440000D03*
X165100000Y-93980000D03*
X165100000Y-96520000D03*
X165100000Y-99060000D03*
X165100000Y-101600000D03*
X165100000Y-104140000D03*
X165100000Y-106680000D03*
X170180000Y-106680000D03*
X170180000Y-104140000D03*
X170180000Y-101600000D03*
X170180000Y-99060000D03*
X170180000Y-96520000D03*
X170180000Y-93980000D03*
X170180000Y-91440000D03*
X170180000Y-88900000D03*
X170180000Y-86360000D03*
X170180000Y-83820000D03*
X170180000Y-81280000D03*
X170180000Y-78740000D03*
X170180000Y-76200000D03*
X170180000Y-73660000D03*
X170180000Y-71120000D03*
X170180000Y-68580000D03*
X167640000Y-68580000D03*
X167640000Y-71120000D03*
X167640000Y-73660000D03*
X167640000Y-76200000D03*
X167640000Y-78740000D03*
X167640000Y-81280000D03*
X167640000Y-83820000D03*
X167640000Y-86360000D03*
X167640000Y-88900000D03*
X167640000Y-91440000D03*
X167640000Y-93980000D03*
X167640000Y-96520000D03*
X167640000Y-99060000D03*
X167640000Y-101600000D03*
X167640000Y-104140000D03*
X167640000Y-106680000D03*
X76200000Y-58420000D03*
X76200000Y-60960000D03*
X71120000Y-60960000D03*
X71120000Y-58420000D03*
X73660000Y-58420000D03*
X73660000Y-60960000D03*
X96520000Y-60960000D03*
X96520000Y-58420000D03*
X93980000Y-58420000D03*
X93980000Y-60960000D03*
X88900000Y-60960000D03*
X88900000Y-58420000D03*
X91440000Y-58420000D03*
X91440000Y-60960000D03*
X81280000Y-60960000D03*
X81280000Y-58420000D03*
X78740000Y-58420000D03*
X78740000Y-60960000D03*
X83820000Y-60960000D03*
X83820000Y-58420000D03*
X86360000Y-58420000D03*
X86360000Y-60960000D03*
X106680000Y-60960000D03*
X106680000Y-58420000D03*
X104140000Y-58420000D03*
X104140000Y-60960000D03*
X99060000Y-60960000D03*
X99060000Y-58420000D03*
X101600000Y-58420000D03*
X101600000Y-60960000D03*
X111760000Y-60960000D03*
X111760000Y-58420000D03*
X109220000Y-58420000D03*
X109220000Y-60960000D03*
X114300000Y-60960000D03*
X114300000Y-58420000D03*
X116840000Y-58420000D03*
X116840000Y-60960000D03*
D29*
X188022500Y-73600000D03*
X187387500Y-73600000D03*
X186752500Y-73600000D03*
X186117500Y-73600000D03*
X185482500Y-73600000D03*
X184847500Y-73600000D03*
X184212500Y-73600000D03*
X183577500Y-73600000D03*
X183577500Y-78800000D03*
X184212500Y-78800000D03*
X184847500Y-78800000D03*
X185482500Y-78800000D03*
X186117500Y-78800000D03*
X186752500Y-78800000D03*
X187387500Y-78800000D03*
X188022500Y-78800000D03*
D30*
X196000000Y-58000000D03*
X196000000Y-118000000D03*
X54000000Y-118000000D03*
X54000000Y-58000000D03*
D31*
X178300000Y-98500000D03*
X178300000Y-95700000D03*
D32*
X188000000Y-71200000D03*
X188000000Y-70700000D03*
X186130000Y-71200000D03*
X186130000Y-70700000D03*
D14*
X187960000Y-88900000D03*
X187960000Y-86360000D03*
D33*
X182700000Y-98500000D03*
X182700000Y-99000000D03*
X182700000Y-99500000D03*
X182700000Y-100000000D03*
D34*
X183425000Y-100725000D03*
X183925000Y-100725000D03*
X184425000Y-100725000D03*
X184925000Y-100725000D03*
D33*
X185650000Y-100000000D03*
X185650000Y-99500000D03*
X185650000Y-99000000D03*
X185650000Y-98500000D03*
D34*
X184925000Y-97775000D03*
X184425000Y-97775000D03*
X183925000Y-97775000D03*
X183425000Y-97775000D03*
D35*
X184175000Y-99250000D03*
D36*
X184175000Y-99250000D03*
X184775000Y-98650000D03*
X183575000Y-99850000D03*
X183575000Y-98650000D03*
X184775000Y-99850000D03*
M02*
