M48
;DRILL file {KiCad 4.0.2-stable} date Domenica 28 Maggio 2017 19:12:42
;FORMAT={2:4/ absolute / inch / suppress leading zeros}
FMAT,2
INCH,TZ
T1C0.008
T2C0.016
T3C0.020
T4C0.022
T5C0.033
T6C0.039
T7C0.047
%
G90
G05
M72
T1
X72274Y-38839
X72274Y-39311
X72510Y-39075
X72746Y-38839
X72746Y-39311
T2
X69370Y-36614
X70472Y-39685
X70827Y-37283
X71929Y-40748
X71929Y-41220
X71929Y-41732
X72520Y-31850
X72559Y-40748
X72559Y-41220
X72559Y-41772
X72913Y-37992
X73317Y-33278
X73543Y-28504
X74055Y-31504
X74803Y-32205
X75197Y-30906
X75354Y-37480
X76063Y-37480
X76417Y-34488
X76772Y-37480
X77480Y-37480
T3
X33031Y-46890
X35669Y-47244
X70787Y-40433
T6
X28500Y-25000
X28500Y-26000
X29500Y-25000
X29500Y-26000
X30500Y-25000
X30500Y-26000
X31500Y-25000
X31500Y-26000
X32000Y-43000
X32000Y-44000
X32500Y-25000
X32500Y-26000
X33000Y-43000
X33000Y-44000
X33500Y-25000
X33500Y-26000
X34000Y-43000
X34000Y-44000
X34500Y-25000
X34500Y-26000
X35000Y-43000
X35000Y-44000
X35500Y-25000
X35500Y-26000
X36000Y-43000
X36000Y-44000
X36500Y-25000
X36500Y-26000
X37000Y-43000
X37000Y-44000
X37500Y-25000
X37500Y-26000
X38000Y-43000
X38000Y-44000
X39000Y-25000
X39000Y-26000
X39000Y-43000
X39000Y-44000
X40000Y-25000
X40000Y-26000
X41000Y-25000
X41000Y-26000
X41000Y-43000
X41000Y-44000
X42000Y-25000
X42000Y-26000
X42000Y-43000
X42000Y-44000
X43000Y-25000
X43000Y-26000
X43000Y-43000
X43000Y-44000
X44000Y-25000
X44000Y-26000
X44000Y-43000
X44000Y-44000
X45000Y-25000
X45000Y-26000
X45000Y-43000
X45000Y-44000
X46000Y-25000
X46000Y-26000
X46000Y-43000
X46000Y-44000
T7
X21000Y-25000
X21000Y-26000
X21000Y-27000
X21000Y-28000
X21000Y-29000
X21000Y-30000
X21000Y-31000
X21000Y-32000
X21000Y-33000
X21000Y-34000
X21000Y-35000
X21000Y-36000
X21000Y-37000
X21000Y-38000
X21000Y-39000
X21000Y-40000
X21000Y-41000
X21000Y-42000
X21000Y-43000
X21000Y-44000
X22000Y-25000
X22000Y-26000
X22000Y-27000
X22000Y-28000
X22000Y-29000
X22000Y-30000
X22000Y-31000
X22000Y-32000
X22000Y-33000
X22000Y-34000
X22000Y-35000
X22000Y-36000
X22000Y-37000
X22000Y-38000
X22000Y-39000
X22000Y-40000
X22000Y-41000
X22000Y-42000
X22000Y-43000
X22000Y-44000
X23000Y-23000
X23000Y-24000
X23000Y-25000
X23000Y-26000
X23000Y-27000
X23000Y-28000
X23000Y-29000
X23000Y-30000
X23000Y-31000
X23000Y-32000
X23000Y-33000
X23000Y-34000
X23000Y-35000
X23000Y-36000
X23000Y-37000
X23000Y-38000
X23000Y-39000
X23000Y-40000
X23000Y-41000
X23000Y-42000
X23000Y-43000
X23000Y-44000
X23000Y-45000
X23000Y-46000
X24000Y-23000
X24000Y-24000
X24000Y-25000
X24000Y-26000
X24000Y-27000
X24000Y-28000
X24000Y-29000
X24000Y-30000
X24000Y-31000
X24000Y-32000
X24000Y-33000
X24000Y-34000
X24000Y-35000
X24000Y-36000
X24000Y-37000
X24000Y-38000
X24000Y-39000
X24000Y-40000
X24000Y-41000
X24000Y-42000
X24000Y-43000
X24000Y-44000
X24000Y-45000
X24000Y-46000
X25000Y-23000
X25000Y-24000
X25000Y-25000
X25000Y-26000
X25000Y-27000
X25000Y-28000
X25000Y-29000
X25000Y-30000
X25000Y-31000
X25000Y-32000
X25000Y-33000
X25000Y-34000
X25000Y-35000
X25000Y-36000
X25000Y-37000
X25000Y-38000
X25000Y-39000
X25000Y-40000
X25000Y-41000
X25000Y-42000
X25000Y-43000
X25000Y-44000
X25000Y-45000
X25000Y-46000
X26000Y-23000
X26000Y-24000
X26000Y-25000
X26000Y-26000
X26000Y-27000
X26000Y-28000
X26000Y-29000
X26000Y-30000
X26000Y-31000
X26000Y-32000
X26000Y-33000
X26000Y-34000
X26000Y-35000
X26000Y-36000
X26000Y-37000
X26000Y-38000
X26000Y-39000
X26000Y-40000
X26000Y-41000
X26000Y-42000
X26000Y-43000
X26000Y-44000
X26000Y-45000
X26000Y-46000
X27000Y-23000
X27000Y-24000
X27000Y-25000
X27000Y-26000
X27000Y-27000
X27000Y-28000
X27000Y-29000
X27000Y-30000
X27000Y-31000
X27000Y-32000
X27000Y-33000
X27000Y-34000
X27000Y-35000
X27000Y-36000
X27000Y-37000
X27000Y-38000
X27000Y-39000
X27000Y-40000
X27000Y-41000
X27000Y-42000
X27000Y-43000
X27000Y-44000
X27000Y-45000
X27000Y-46000
X28000Y-23000
X28000Y-24000
X28000Y-27000
X28000Y-28000
X28000Y-29000
X28000Y-30000
X28000Y-31000
X28000Y-32000
X28000Y-33000
X28000Y-34000
X28000Y-35000
X28000Y-36000
X28000Y-37000
X28000Y-38000
X28000Y-39000
X28000Y-40000
X28000Y-41000
X28000Y-42000
X28000Y-43000
X28000Y-44000
X28000Y-45000
X28000Y-46000
X29000Y-23000
X29000Y-24000
X29000Y-27000
X29000Y-28000
X29000Y-29000
X29000Y-30000
X29000Y-31000
X29000Y-32000
X29000Y-33000
X29000Y-34000
X29000Y-35000
X29000Y-36000
X29000Y-37000
X29000Y-38000
X29000Y-39000
X29000Y-40000
X29000Y-41000
X29000Y-42000
X29000Y-43000
X29000Y-44000
X29000Y-45000
X29000Y-46000
X30000Y-23000
X30000Y-24000
X30000Y-27000
X30000Y-28000
X30000Y-29000
X30000Y-30000
X30000Y-31000
X30000Y-32000
X30000Y-33000
X30000Y-34000
X30000Y-35000
X30000Y-36000
X30000Y-37000
X30000Y-38000
X30000Y-39000
X30000Y-40000
X30000Y-41000
X30000Y-42000
X30000Y-43000
X30000Y-44000
X30000Y-45000
X30000Y-46000
X31000Y-23000
X31000Y-24000
X31000Y-27000
X31000Y-28000
X31000Y-29000
X31000Y-30000
X31000Y-31000
X31000Y-32000
X31000Y-33000
X31000Y-34000
X31000Y-35000
X31000Y-36000
X31000Y-37000
X31000Y-38000
X31000Y-39000
X31000Y-40000
X31000Y-41000
X31000Y-42000
X31000Y-43000
X31000Y-44000
X31000Y-45000
X31000Y-46000
X32000Y-23000
X32000Y-24000
X32000Y-27000
X32000Y-28000
X32000Y-29000
X32000Y-30000
X32000Y-31000
X32000Y-32000
X32000Y-33000
X32000Y-34000
X32000Y-35000
X32000Y-36000
X32000Y-37000
X32000Y-38000
X32000Y-39000
X32000Y-40000
X32000Y-41000
X32000Y-42000
X32000Y-45000
X32000Y-46000
X33000Y-23000
X33000Y-24000
X33000Y-27000
X33000Y-28000
X33000Y-29000
X33000Y-30000
X33000Y-31000
X33000Y-32000
X33000Y-33000
X33000Y-34000
X33000Y-35000
X33000Y-36000
X33000Y-37000
X33000Y-38000
X33000Y-39000
X33000Y-40000
X33000Y-41000
X33000Y-42000
X33000Y-45000
X33000Y-46000
X34000Y-23000
X34000Y-24000
X34000Y-27000
X34000Y-28000
X34000Y-29000
X34000Y-30000
X34000Y-31000
X34000Y-32000
X34000Y-33000
X34000Y-34000
X34000Y-35000
X34000Y-36000
X34000Y-37000
X34000Y-38000
X34000Y-39000
X34000Y-40000
X34000Y-41000
X34000Y-42000
X34000Y-45000
X34000Y-46000
X35000Y-23000
X35000Y-24000
X35000Y-27000
X35000Y-28000
X35000Y-29000
X35000Y-30000
X35000Y-31000
X35000Y-32000
X35000Y-33000
X35000Y-34000
X35000Y-35000
X35000Y-36000
X35000Y-37000
X35000Y-38000
X35000Y-39000
X35000Y-40000
X35000Y-41000
X35000Y-42000
X35000Y-45000
X35000Y-46000
X36000Y-23000
X36000Y-24000
X36000Y-27000
X36000Y-28000
X36000Y-29000
X36000Y-30000
X36000Y-31000
X36000Y-32000
X36000Y-33000
X36000Y-34000
X36000Y-35000
X36000Y-36000
X36000Y-37000
X36000Y-38000
X36000Y-39000
X36000Y-40000
X36000Y-41000
X36000Y-42000
X36000Y-45000
X36000Y-46000
X37000Y-23000
X37000Y-24000
X37000Y-27000
X37000Y-28000
X37000Y-29000
X37000Y-30000
X37000Y-31000
X37000Y-32000
X37000Y-33000
X37000Y-34000
X37000Y-35000
X37000Y-36000
X37000Y-37000
X37000Y-38000
X37000Y-39000
X37000Y-40000
X37000Y-41000
X37000Y-42000
X37000Y-45000
X37000Y-46000
X38000Y-23000
X38000Y-24000
X38000Y-27000
X38000Y-28000
X38000Y-29000
X38000Y-30000
X38000Y-31000
X38000Y-32000
X38000Y-33000
X38000Y-34000
X38000Y-35000
X38000Y-36000
X38000Y-37000
X38000Y-38000
X38000Y-39000
X38000Y-40000
X38000Y-41000
X38000Y-42000
X38000Y-45000
X38000Y-46000
X39000Y-23000
X39000Y-24000
X39000Y-27000
X39000Y-28000
X39000Y-29000
X39000Y-30000
X39000Y-31000
X39000Y-32000
X39000Y-33000
X39000Y-34000
X39000Y-35000
X39000Y-36000
X39000Y-37000
X39000Y-38000
X39000Y-39000
X39000Y-40000
X39000Y-41000
X39000Y-42000
X39000Y-45000
X39000Y-46000
X40000Y-23000
X40000Y-24000
X40000Y-27000
X40000Y-28000
X40000Y-29000
X40000Y-30000
X40000Y-31000
X40000Y-32000
X40000Y-33000
X40000Y-34000
X40000Y-35000
X40000Y-36000
X40000Y-37000
X40000Y-38000
X40000Y-39000
X40000Y-40000
X40000Y-41000
X40000Y-42000
X40000Y-43000
X40000Y-44000
X40000Y-45000
X40000Y-46000
X41000Y-23000
X41000Y-24000
X41000Y-27000
X41000Y-28000
X41000Y-29000
X41000Y-30000
X41000Y-31000
X41000Y-32000
X41000Y-33000
X41000Y-34000
X41000Y-35000
X41000Y-36000
X41000Y-37000
X41000Y-38000
X41000Y-39000
X41000Y-40000
X41000Y-41000
X41000Y-42000
X41000Y-45000
X41000Y-46000
X42000Y-23000
X42000Y-24000
X42000Y-27000
X42000Y-28000
X42000Y-29000
X42000Y-30000
X42000Y-31000
X42000Y-32000
X42000Y-33000
X42000Y-34000
X42000Y-35000
X42000Y-36000
X42000Y-37000
X42000Y-38000
X42000Y-39000
X42000Y-40000
X42000Y-41000
X42000Y-42000
X42000Y-45000
X42000Y-46000
X43000Y-23000
X43000Y-24000
X43000Y-27000
X43000Y-28000
X43000Y-29000
X43000Y-30000
X43000Y-31000
X43000Y-32000
X43000Y-33000
X43000Y-34000
X43000Y-35000
X43000Y-36000
X43000Y-37000
X43000Y-38000
X43000Y-39000
X43000Y-40000
X43000Y-41000
X43000Y-42000
X43000Y-45000
X43000Y-46000
X44000Y-23000
X44000Y-24000
X44000Y-27000
X44000Y-28000
X44000Y-29000
X44000Y-30000
X44000Y-31000
X44000Y-32000
X44000Y-33000
X44000Y-34000
X44000Y-35000
X44000Y-36000
X44000Y-37000
X44000Y-38000
X44000Y-39000
X44000Y-40000
X44000Y-41000
X44000Y-42000
X44000Y-45000
X44000Y-46000
X45000Y-23000
X45000Y-24000
X45000Y-27000
X45000Y-28000
X45000Y-29000
X45000Y-30000
X45000Y-31000
X45000Y-32000
X45000Y-33000
X45000Y-34000
X45000Y-35000
X45000Y-36000
X45000Y-37000
X45000Y-38000
X45000Y-39000
X45000Y-40000
X45000Y-41000
X45000Y-42000
X45000Y-45000
X45000Y-46000
X46000Y-23000
X46000Y-24000
X46000Y-27000
X46000Y-28000
X46000Y-29000
X46000Y-30000
X46000Y-31000
X46000Y-32000
X46000Y-33000
X46000Y-34000
X46000Y-35000
X46000Y-36000
X46000Y-37000
X46000Y-38000
X46000Y-39000
X46000Y-40000
X46000Y-41000
X46000Y-42000
X46000Y-45000
X46000Y-46000
X47000Y-23000
X47000Y-24000
X47000Y-25000
X47000Y-26000
X47000Y-27000
X47000Y-28000
X47000Y-29000
X47000Y-30000
X47000Y-31000
X47000Y-32000
X47000Y-33000
X47000Y-34000
X47000Y-35000
X47000Y-36000
X47000Y-37000
X47000Y-38000
X47000Y-39000
X47000Y-40000
X47000Y-41000
X47000Y-42000
X47000Y-43000
X47000Y-44000
X47000Y-45000
X47000Y-46000
X48000Y-23000
X48000Y-24000
X48000Y-25000
X48000Y-26000
X48000Y-27000
X48000Y-28000
X48000Y-29000
X48000Y-30000
X48000Y-31000
X48000Y-32000
X48000Y-33000
X48000Y-34000
X48000Y-35000
X48000Y-36000
X48000Y-37000
X48000Y-38000
X48000Y-39000
X48000Y-40000
X48000Y-41000
X48000Y-42000
X48000Y-43000
X48000Y-44000
X48000Y-45000
X48000Y-46000
X49000Y-23000
X49000Y-24000
X49000Y-25000
X49000Y-26000
X49000Y-27000
X49000Y-28000
X49000Y-29000
X49000Y-30000
X49000Y-31000
X49000Y-32000
X49000Y-33000
X49000Y-34000
X49000Y-35000
X49000Y-36000
X49000Y-37000
X49000Y-38000
X49000Y-39000
X49000Y-40000
X49000Y-41000
X49000Y-42000
X49000Y-43000
X49000Y-44000
X49000Y-45000
X49000Y-46000
X50000Y-23000
X50000Y-24000
X50000Y-25000
X50000Y-26000
X50000Y-27000
X50000Y-28000
X50000Y-29000
X50000Y-30000
X50000Y-31000
X50000Y-32000
X50000Y-33000
X50000Y-34000
X50000Y-35000
X50000Y-36000
X50000Y-37000
X50000Y-38000
X50000Y-39000
X50000Y-40000
X50000Y-41000
X50000Y-42000
X50000Y-43000
X50000Y-44000
X50000Y-45000
X50000Y-46000
X51000Y-23000
X51000Y-24000
X51000Y-25000
X51000Y-26000
X51000Y-27000
X51000Y-28000
X51000Y-29000
X51000Y-30000
X51000Y-31000
X51000Y-32000
X51000Y-33000
X51000Y-34000
X51000Y-35000
X51000Y-36000
X51000Y-37000
X51000Y-38000
X51000Y-39000
X51000Y-40000
X51000Y-41000
X51000Y-42000
X51000Y-43000
X51000Y-44000
X51000Y-45000
X51000Y-46000
X52000Y-23000
X52000Y-24000
X52000Y-25000
X52000Y-26000
X52000Y-27000
X52000Y-28000
X52000Y-29000
X52000Y-30000
X52000Y-31000
X52000Y-32000
X52000Y-33000
X52000Y-34000
X52000Y-35000
X52000Y-36000
X52000Y-37000
X52000Y-38000
X52000Y-39000
X52000Y-40000
X52000Y-41000
X52000Y-42000
X52000Y-43000
X52000Y-44000
X52000Y-45000
X52000Y-46000
X53000Y-23000
X53000Y-24000
X53000Y-25000
X53000Y-26000
X53000Y-27000
X53000Y-28000
X53000Y-29000
X53000Y-30000
X53000Y-31000
X53000Y-32000
X53000Y-33000
X53000Y-34000
X53000Y-35000
X53000Y-36000
X53000Y-37000
X53000Y-38000
X53000Y-39000
X53000Y-40000
X53000Y-41000
X53000Y-42000
X53000Y-43000
X53000Y-44000
X53000Y-45000
X53000Y-46000
X54000Y-23000
X54000Y-24000
X54000Y-25000
X54000Y-26000
X54000Y-27000
X54000Y-28000
X54000Y-29000
X54000Y-30000
X54000Y-31000
X54000Y-32000
X54000Y-33000
X54000Y-34000
X54000Y-35000
X54000Y-36000
X54000Y-37000
X54000Y-38000
X54000Y-39000
X54000Y-40000
X54000Y-41000
X54000Y-42000
X54000Y-43000
X54000Y-44000
X54000Y-45000
X54000Y-46000
X55000Y-23000
X55000Y-24000
X55000Y-25000
X55000Y-26000
X55000Y-27000
X55000Y-28000
X55000Y-29000
X55000Y-30000
X55000Y-31000
X55000Y-32000
X55000Y-33000
X55000Y-34000
X55000Y-35000
X55000Y-36000
X55000Y-37000
X55000Y-38000
X55000Y-39000
X55000Y-40000
X55000Y-41000
X55000Y-42000
X55000Y-43000
X55000Y-44000
X55000Y-45000
X55000Y-46000
X56000Y-23000
X56000Y-24000
X56000Y-25000
X56000Y-26000
X56000Y-27000
X56000Y-28000
X56000Y-29000
X56000Y-30000
X56000Y-31000
X56000Y-32000
X56000Y-33000
X56000Y-34000
X56000Y-35000
X56000Y-36000
X56000Y-37000
X56000Y-38000
X56000Y-39000
X56000Y-40000
X56000Y-41000
X56000Y-42000
X56000Y-43000
X56000Y-44000
X56000Y-45000
X56000Y-46000
X57000Y-23000
X57000Y-24000
X57000Y-25000
X57000Y-26000
X57000Y-27000
X57000Y-28000
X57000Y-29000
X57000Y-30000
X57000Y-31000
X57000Y-32000
X57000Y-33000
X57000Y-34000
X57000Y-35000
X57000Y-36000
X57000Y-37000
X57000Y-38000
X57000Y-39000
X57000Y-40000
X57000Y-41000
X57000Y-42000
X57000Y-43000
X57000Y-44000
X57000Y-45000
X57000Y-46000
X58000Y-23000
X58000Y-24000
X58000Y-25000
X58000Y-26000
X58000Y-27000
X58000Y-28000
X58000Y-29000
X58000Y-30000
X58000Y-31000
X58000Y-32000
X58000Y-33000
X58000Y-34000
X58000Y-35000
X58000Y-36000
X58000Y-37000
X58000Y-38000
X58000Y-39000
X58000Y-40000
X58000Y-41000
X58000Y-42000
X58000Y-43000
X58000Y-44000
X58000Y-45000
X58000Y-46000
X59000Y-23000
X59000Y-24000
X59000Y-25000
X59000Y-26000
X59000Y-27000
X59000Y-28000
X59000Y-29000
X59000Y-30000
X59000Y-31000
X59000Y-32000
X59000Y-33000
X59000Y-34000
X59000Y-35000
X59000Y-36000
X59000Y-37000
X59000Y-38000
X59000Y-39000
X59000Y-40000
X59000Y-41000
X59000Y-42000
X59000Y-43000
X59000Y-44000
X59000Y-45000
X59000Y-46000
X60000Y-23000
X60000Y-24000
X60000Y-25000
X60000Y-26000
X60000Y-27000
X60000Y-28000
X60000Y-29000
X60000Y-30000
X60000Y-31000
X60000Y-32000
X60000Y-33000
X60000Y-34000
X60000Y-35000
X60000Y-36000
X60000Y-37000
X60000Y-38000
X60000Y-39000
X60000Y-40000
X60000Y-41000
X60000Y-42000
X60000Y-43000
X60000Y-44000
X60000Y-45000
X60000Y-46000
X61000Y-23000
X61000Y-24000
X61000Y-25000
X61000Y-26000
X61000Y-27000
X61000Y-28000
X61000Y-29000
X61000Y-30000
X61000Y-31000
X61000Y-32000
X61000Y-33000
X61000Y-34000
X61000Y-35000
X61000Y-36000
X61000Y-37000
X61000Y-38000
X61000Y-39000
X61000Y-40000
X61000Y-41000
X61000Y-42000
X61000Y-43000
X61000Y-44000
X61000Y-45000
X61000Y-46000
X62000Y-23000
X62000Y-24000
X62000Y-25000
X62000Y-26000
X62000Y-27000
X62000Y-28000
X62000Y-29000
X62000Y-30000
X62000Y-31000
X62000Y-32000
X62000Y-33000
X62000Y-34000
X62000Y-35000
X62000Y-36000
X62000Y-37000
X62000Y-38000
X62000Y-39000
X62000Y-40000
X62000Y-41000
X62000Y-42000
X62000Y-43000
X62000Y-44000
X62000Y-45000
X62000Y-46000
X63000Y-23000
X63000Y-24000
X63000Y-25000
X63000Y-26000
X63000Y-27000
X63000Y-28000
X63000Y-29000
X63000Y-30000
X63000Y-31000
X63000Y-32000
X63000Y-33000
X63000Y-34000
X63000Y-35000
X63000Y-36000
X63000Y-37000
X63000Y-38000
X63000Y-39000
X63000Y-40000
X63000Y-41000
X63000Y-42000
X63000Y-43000
X63000Y-44000
X63000Y-45000
X63000Y-46000
X64000Y-23000
X64000Y-24000
X64000Y-25000
X64000Y-26000
X64000Y-27000
X64000Y-28000
X64000Y-29000
X64000Y-30000
X64000Y-31000
X64000Y-32000
X64000Y-33000
X64000Y-34000
X64000Y-35000
X64000Y-36000
X64000Y-37000
X64000Y-38000
X64000Y-39000
X64000Y-40000
X64000Y-41000
X64000Y-42000
X64000Y-43000
X64000Y-44000
X64000Y-45000
X64000Y-46000
X65000Y-23000
X65000Y-24000
X65000Y-25000
X65000Y-26000
X65000Y-27000
X65000Y-28000
X65000Y-29000
X65000Y-30000
X65000Y-31000
X65000Y-32000
X65000Y-33000
X65000Y-34000
X65000Y-35000
X65000Y-36000
X65000Y-37000
X65000Y-38000
X65000Y-39000
X65000Y-40000
X65000Y-41000
X65000Y-42000
X65000Y-43000
X65000Y-44000
X65000Y-45000
X65000Y-46000
X66000Y-23000
X66000Y-24000
X66000Y-25000
X66000Y-26000
X66000Y-27000
X66000Y-28000
X66000Y-29000
X66000Y-30000
X66000Y-31000
X66000Y-32000
X66000Y-33000
X66000Y-34000
X66000Y-35000
X66000Y-36000
X66000Y-37000
X66000Y-38000
X66000Y-39000
X66000Y-40000
X66000Y-41000
X66000Y-42000
X66000Y-43000
X66000Y-44000
X66000Y-45000
X66000Y-46000
X67000Y-23000
X67000Y-24000
X67000Y-25000
X67000Y-26000
X67000Y-27000
X67000Y-28000
X67000Y-29000
X67000Y-30000
X67000Y-31000
X67000Y-32000
X67000Y-33000
X67000Y-34000
X67000Y-35000
X67000Y-36000
X67000Y-37000
X67000Y-38000
X67000Y-39000
X67000Y-40000
X67000Y-41000
X67000Y-42000
X67000Y-43000
X67000Y-44000
X67000Y-45000
X67000Y-46000
X68000Y-23000
X68000Y-24000
X68000Y-25000
X68000Y-26000
X68000Y-27000
X68000Y-28000
X68000Y-29000
X68000Y-30000
X68000Y-31000
X68000Y-32000
X69000Y-23000
X69000Y-24000
X69000Y-25000
X69000Y-26000
X69000Y-27000
X69000Y-28000
X69000Y-29000
X69000Y-30000
X69000Y-31000
X69000Y-32000
X70000Y-23000
X70000Y-24000
X70000Y-25000
X70000Y-26000
X70000Y-27000
X70000Y-28000
X70000Y-29000
X70000Y-30000
X70000Y-31000
X70000Y-32000
X70000Y-33000
X70000Y-34000
X70000Y-35000
X70000Y-36000
X71000Y-23000
X71000Y-24000
X71000Y-25000
X71000Y-26000
X71000Y-27000
X71000Y-33000
X71000Y-34000
X71000Y-35000
X71000Y-36000
X71000Y-43000
X71000Y-44000
X71000Y-45000
X71000Y-46000
X72000Y-23000
X72000Y-24000
X72000Y-25000
X72000Y-26000
X72000Y-27000
X72000Y-34000
X72000Y-35000
X72000Y-36000
X72000Y-43000
X72000Y-44000
X72000Y-45000
X72000Y-46000
X73000Y-34000
X73000Y-35000
X73000Y-36000
X73000Y-43000
X73000Y-44000
X73000Y-45000
X73000Y-46000
X74000Y-23000
X74000Y-24000
X74000Y-25000
X74000Y-26000
X74000Y-27000
X74000Y-34000
X74000Y-35000
X74000Y-43000
X74000Y-44000
X74000Y-45000
X74000Y-46000
X75000Y-23000
X75000Y-24000
X75000Y-25000
X75000Y-26000
X75000Y-27000
X75000Y-43000
X75000Y-44000
X75000Y-45000
X75000Y-46000
X76000Y-25000
X76000Y-26000
X76000Y-27000
X76000Y-43000
X76000Y-44000
X76500Y-38470
X76500Y-39970
X77000Y-25000
X77000Y-26000
X77000Y-27000
X77000Y-43000
X77000Y-44000
T4
X77835Y-28344G85X78091Y-28344
G05
X77835Y-31396G85X78091Y-31396
G05
T5
X76348Y-28404G85X76565Y-28404
G05
X76348Y-31337G85X76565Y-31337
G05
T0
M30
