G04 #@! TF.FileFunction,Copper,L2,Bot,Signal*
%FSLAX46Y46*%
G04 Gerber Fmt 4.6, Leading zero omitted, Abs format (unit mm)*
G04 Created by KiCad (PCBNEW 4.0.2-stable) date Domenica 28 Maggio 2017 19:12:34*
%MOMM*%
G01*
G04 APERTURE LIST*
%ADD10C,0.100000*%
%ADD11C,2.000000*%
%ADD12O,2.000000X1.450000*%
%ADD13O,1.800000X1.150000*%
%ADD14R,2.700000X2.200000*%
%ADD15O,2.700000X2.200000*%
%ADD16O,1.524000X2.000000*%
%ADD17R,1.524000X2.000000*%
%ADD18C,0.500000*%
%ADD19C,0.800000*%
%ADD20C,0.600000*%
%ADD21C,1.000000*%
%ADD22C,0.250000*%
%ADD23C,1.000000*%
%ADD24C,0.254000*%
G04 APERTURE END LIST*
D10*
D11*
X53340000Y-106680000D03*
X53340000Y-104140000D03*
X53340000Y-101600000D03*
X53340000Y-111760000D03*
X53340000Y-109220000D03*
X53340000Y-99060000D03*
X53340000Y-93980000D03*
X53340000Y-96520000D03*
X55880000Y-104140000D03*
X55880000Y-106680000D03*
X55880000Y-93980000D03*
X55880000Y-99060000D03*
X55880000Y-96520000D03*
X55880000Y-101600000D03*
X55880000Y-109220000D03*
X55880000Y-111760000D03*
X53340000Y-88900000D03*
X53340000Y-91440000D03*
X53340000Y-81280000D03*
X53340000Y-78740000D03*
X53340000Y-76200000D03*
X53340000Y-86360000D03*
X53340000Y-83820000D03*
X53340000Y-73660000D03*
X53340000Y-68580000D03*
X53340000Y-71120000D03*
X55880000Y-78740000D03*
X55880000Y-81280000D03*
X55880000Y-68580000D03*
X55880000Y-73660000D03*
X55880000Y-71120000D03*
X55880000Y-76200000D03*
X55880000Y-88900000D03*
X55880000Y-83820000D03*
X55880000Y-86360000D03*
X55880000Y-91440000D03*
X53340000Y-66040000D03*
X55880000Y-66040000D03*
X63500000Y-66040000D03*
X60960000Y-60960000D03*
X58420000Y-63500000D03*
X63500000Y-60960000D03*
X60960000Y-63500000D03*
X63500000Y-63500000D03*
X53340000Y-63500000D03*
X55880000Y-63500000D03*
X58420000Y-58420000D03*
X58420000Y-60960000D03*
X58420000Y-66040000D03*
X60960000Y-66040000D03*
X63500000Y-58420000D03*
X60960000Y-58420000D03*
X68580000Y-63500000D03*
X68580000Y-60960000D03*
X68580000Y-66040000D03*
X66040000Y-66040000D03*
X66040000Y-63500000D03*
X68580000Y-58420000D03*
X66040000Y-60960000D03*
X66040000Y-58420000D03*
X68580000Y-68580000D03*
X60960000Y-68580000D03*
X63500000Y-68580000D03*
X66040000Y-68580000D03*
X60960000Y-78740000D03*
X63500000Y-76200000D03*
X63500000Y-78740000D03*
X66040000Y-76200000D03*
X58420000Y-78740000D03*
X58420000Y-73660000D03*
X58420000Y-76200000D03*
X58420000Y-68580000D03*
X58420000Y-71120000D03*
X60960000Y-71120000D03*
X63500000Y-71120000D03*
X66040000Y-71120000D03*
X66040000Y-73660000D03*
X63500000Y-73660000D03*
X68580000Y-76200000D03*
X68580000Y-73660000D03*
X68580000Y-71120000D03*
X68580000Y-78740000D03*
X66040000Y-81280000D03*
X66040000Y-78740000D03*
X60960000Y-76200000D03*
X60960000Y-73660000D03*
X58420000Y-83820000D03*
X60960000Y-83820000D03*
X68580000Y-81280000D03*
X68580000Y-83820000D03*
X60960000Y-81280000D03*
X58420000Y-81280000D03*
X63500000Y-81280000D03*
X66040000Y-83820000D03*
X63500000Y-83820000D03*
X60960000Y-86360000D03*
X58420000Y-86360000D03*
X58420000Y-88900000D03*
X58420000Y-91440000D03*
X60960000Y-91440000D03*
X63500000Y-86360000D03*
X60960000Y-88900000D03*
X63500000Y-88900000D03*
X63500000Y-91440000D03*
X66040000Y-86360000D03*
X68580000Y-88900000D03*
X66040000Y-91440000D03*
X66040000Y-88900000D03*
X68580000Y-86360000D03*
X68580000Y-91440000D03*
X68580000Y-93980000D03*
X60960000Y-93980000D03*
X63500000Y-93980000D03*
X66040000Y-93980000D03*
X60960000Y-104140000D03*
X63500000Y-101600000D03*
X63500000Y-104140000D03*
X66040000Y-101600000D03*
X58420000Y-104140000D03*
X58420000Y-99060000D03*
X58420000Y-101600000D03*
X58420000Y-93980000D03*
X58420000Y-96520000D03*
X60960000Y-96520000D03*
X63500000Y-96520000D03*
X66040000Y-96520000D03*
X66040000Y-99060000D03*
X63500000Y-99060000D03*
X68580000Y-101600000D03*
X68580000Y-99060000D03*
X68580000Y-96520000D03*
X68580000Y-104140000D03*
X66040000Y-106680000D03*
X66040000Y-104140000D03*
X60960000Y-101600000D03*
X60960000Y-99060000D03*
X58420000Y-109220000D03*
X60960000Y-109220000D03*
X68580000Y-106680000D03*
X68580000Y-109220000D03*
X60960000Y-106680000D03*
X58420000Y-106680000D03*
X63500000Y-106680000D03*
X66040000Y-109220000D03*
X63500000Y-109220000D03*
X60960000Y-111760000D03*
X58420000Y-111760000D03*
X58420000Y-114300000D03*
X58420000Y-116840000D03*
X60960000Y-116840000D03*
X63500000Y-111760000D03*
X60960000Y-114300000D03*
X63500000Y-114300000D03*
X63500000Y-116840000D03*
X66040000Y-111760000D03*
X68580000Y-114300000D03*
X66040000Y-116840000D03*
X66040000Y-114300000D03*
X68580000Y-111760000D03*
X68580000Y-116840000D03*
X180340000Y-91440000D03*
X182880000Y-91440000D03*
X185420000Y-91440000D03*
X177800000Y-91440000D03*
X193040000Y-63500000D03*
X195580000Y-68580000D03*
X193040000Y-66040000D03*
X195580000Y-66040000D03*
X193040000Y-68580000D03*
X195580000Y-63500000D03*
X187960000Y-58420000D03*
X190500000Y-58420000D03*
X187960000Y-60960000D03*
X190500000Y-60960000D03*
X187960000Y-63500000D03*
X190500000Y-68580000D03*
X187960000Y-66040000D03*
X190500000Y-66040000D03*
X187960000Y-68580000D03*
X190500000Y-63500000D03*
X180340000Y-60960000D03*
X180340000Y-63500000D03*
X182880000Y-63500000D03*
X182880000Y-58420000D03*
X180340000Y-58420000D03*
X182880000Y-60960000D03*
X180340000Y-66040000D03*
X182880000Y-68580000D03*
X182880000Y-66040000D03*
X180340000Y-68580000D03*
X172720000Y-58420000D03*
X172720000Y-60960000D03*
X177800000Y-58420000D03*
X175260000Y-60960000D03*
X177800000Y-60960000D03*
X175260000Y-58420000D03*
X175260000Y-63500000D03*
X172720000Y-63500000D03*
X177800000Y-63500000D03*
X175260000Y-66040000D03*
X177800000Y-68580000D03*
X175260000Y-68580000D03*
X177800000Y-66040000D03*
X172720000Y-66040000D03*
X177800000Y-71120000D03*
X172720000Y-71120000D03*
X172720000Y-68580000D03*
X175260000Y-71120000D03*
X177800000Y-73660000D03*
X175260000Y-76200000D03*
X172720000Y-76200000D03*
X172720000Y-73660000D03*
X175260000Y-73660000D03*
X177800000Y-76200000D03*
X177800000Y-78740000D03*
X175260000Y-78740000D03*
X172720000Y-78740000D03*
X177800000Y-81280000D03*
X185420000Y-86360000D03*
X185420000Y-88900000D03*
X177800000Y-86360000D03*
X175260000Y-81280000D03*
X182880000Y-88900000D03*
X180340000Y-83820000D03*
X180340000Y-86360000D03*
X177800000Y-88900000D03*
X177800000Y-83820000D03*
X180340000Y-88900000D03*
X182880000Y-86360000D03*
X172720000Y-81280000D03*
X190500000Y-114300000D03*
X187960000Y-116840000D03*
X190500000Y-116840000D03*
X185420000Y-116840000D03*
X182880000Y-114300000D03*
X182880000Y-109220000D03*
X180340000Y-116840000D03*
X180340000Y-114300000D03*
X180340000Y-111760000D03*
X182880000Y-116840000D03*
X180340000Y-109220000D03*
X182880000Y-111760000D03*
X185420000Y-114300000D03*
X187960000Y-111760000D03*
X185420000Y-111760000D03*
X190500000Y-111760000D03*
X187960000Y-114300000D03*
X185420000Y-109220000D03*
X187960000Y-109220000D03*
X190500000Y-109220000D03*
X195580000Y-111760000D03*
X193040000Y-111760000D03*
X195580000Y-109220000D03*
X193040000Y-109220000D03*
X132080000Y-109220000D03*
X127000000Y-114300000D03*
X127000000Y-111760000D03*
X127000000Y-109220000D03*
X129540000Y-109220000D03*
X134620000Y-116840000D03*
X127000000Y-116840000D03*
X134620000Y-114300000D03*
X134620000Y-111760000D03*
X134620000Y-109220000D03*
X121920000Y-116840000D03*
X119380000Y-116840000D03*
X124460000Y-116840000D03*
X124460000Y-114300000D03*
X119380000Y-114300000D03*
X121920000Y-114300000D03*
X132080000Y-111760000D03*
X129540000Y-111760000D03*
X129540000Y-116840000D03*
X132080000Y-114300000D03*
X132080000Y-116840000D03*
X129540000Y-114300000D03*
X162560000Y-109220000D03*
X162560000Y-111760000D03*
X165100000Y-109220000D03*
X165100000Y-111760000D03*
X157480000Y-109220000D03*
X160020000Y-109220000D03*
X154940000Y-109220000D03*
X157480000Y-116840000D03*
X157480000Y-111760000D03*
X152400000Y-116840000D03*
X152400000Y-114300000D03*
X154940000Y-111760000D03*
X154940000Y-114300000D03*
X154940000Y-116840000D03*
X157480000Y-114300000D03*
X165100000Y-116840000D03*
X165100000Y-114300000D03*
X160020000Y-111760000D03*
X162560000Y-114300000D03*
X162560000Y-116840000D03*
X160020000Y-114300000D03*
X160020000Y-116840000D03*
X149860000Y-116840000D03*
X147320000Y-116840000D03*
X149860000Y-114300000D03*
X144780000Y-114300000D03*
X144780000Y-116840000D03*
X147320000Y-114300000D03*
X147320000Y-111760000D03*
X142240000Y-116840000D03*
X142240000Y-114300000D03*
X142240000Y-111760000D03*
X144780000Y-111760000D03*
X139700000Y-116840000D03*
X137160000Y-111760000D03*
X137160000Y-114300000D03*
X137160000Y-116840000D03*
X139700000Y-111760000D03*
X139700000Y-114300000D03*
X149860000Y-111760000D03*
X152400000Y-111760000D03*
X152400000Y-109220000D03*
X149860000Y-109220000D03*
X137160000Y-109220000D03*
X147320000Y-109220000D03*
X139700000Y-109220000D03*
X142240000Y-109220000D03*
X144780000Y-109220000D03*
X119380000Y-109220000D03*
X119380000Y-111760000D03*
X121920000Y-111760000D03*
X124460000Y-111760000D03*
X124460000Y-109220000D03*
X121920000Y-109220000D03*
X167640000Y-116840000D03*
X170180000Y-111760000D03*
X170180000Y-114300000D03*
X170180000Y-116840000D03*
X167640000Y-111760000D03*
X167640000Y-114300000D03*
X167640000Y-109220000D03*
X170180000Y-109220000D03*
X132080000Y-66040000D03*
X160020000Y-60960000D03*
X160020000Y-63500000D03*
X162560000Y-60960000D03*
X162560000Y-63500000D03*
X160020000Y-58420000D03*
X154940000Y-66040000D03*
X152400000Y-66040000D03*
X152400000Y-63500000D03*
X154940000Y-63500000D03*
X157480000Y-63500000D03*
X157480000Y-60960000D03*
X157480000Y-58420000D03*
X152400000Y-60960000D03*
X152400000Y-58420000D03*
X154940000Y-58420000D03*
X154940000Y-60960000D03*
X165100000Y-66040000D03*
X165100000Y-63500000D03*
X165100000Y-60960000D03*
X165100000Y-58420000D03*
X162560000Y-58420000D03*
X162560000Y-66040000D03*
X160020000Y-66040000D03*
X157480000Y-66040000D03*
X147320000Y-66040000D03*
X149860000Y-66040000D03*
X142240000Y-66040000D03*
X144780000Y-66040000D03*
X142240000Y-63500000D03*
X142240000Y-60960000D03*
X142240000Y-58420000D03*
X144780000Y-58420000D03*
X144780000Y-60960000D03*
X144780000Y-63500000D03*
X137160000Y-66040000D03*
X139700000Y-66040000D03*
X139700000Y-63500000D03*
X139700000Y-58420000D03*
X137160000Y-58420000D03*
X137160000Y-60960000D03*
X137160000Y-63500000D03*
X139700000Y-60960000D03*
X149860000Y-63500000D03*
X149860000Y-58420000D03*
X147320000Y-58420000D03*
X147320000Y-60960000D03*
X147320000Y-63500000D03*
X149860000Y-60960000D03*
X134620000Y-66040000D03*
X121920000Y-60960000D03*
X119380000Y-58420000D03*
X119380000Y-60960000D03*
X124460000Y-60960000D03*
X124460000Y-58420000D03*
X121920000Y-58420000D03*
X121920000Y-66040000D03*
X119380000Y-63500000D03*
X119380000Y-66040000D03*
X124460000Y-66040000D03*
X124460000Y-63500000D03*
X121920000Y-63500000D03*
X134620000Y-63500000D03*
X134620000Y-58420000D03*
X132080000Y-58420000D03*
X132080000Y-60960000D03*
X132080000Y-63500000D03*
X134620000Y-60960000D03*
X127000000Y-66040000D03*
X129540000Y-63500000D03*
X129540000Y-66040000D03*
X127000000Y-63500000D03*
X127000000Y-60960000D03*
X127000000Y-58420000D03*
X129540000Y-58420000D03*
X129540000Y-60960000D03*
X167640000Y-63500000D03*
X167640000Y-58420000D03*
X170180000Y-58420000D03*
X170180000Y-60960000D03*
X170180000Y-63500000D03*
X167640000Y-60960000D03*
X167640000Y-66040000D03*
X170180000Y-66040000D03*
X101600000Y-111760000D03*
X101600000Y-109220000D03*
X116840000Y-106680000D03*
X116840000Y-104140000D03*
X116840000Y-101600000D03*
X116840000Y-99060000D03*
X116840000Y-96520000D03*
X116840000Y-93980000D03*
X116840000Y-91440000D03*
X116840000Y-88900000D03*
X116840000Y-86360000D03*
X116840000Y-83820000D03*
X116840000Y-81280000D03*
X116840000Y-78740000D03*
X116840000Y-76200000D03*
X116840000Y-73660000D03*
X116840000Y-71120000D03*
X116840000Y-68580000D03*
D12*
X194200000Y-72145000D03*
X194200000Y-79595000D03*
D13*
X198025000Y-79745000D03*
X198025000Y-71995000D03*
D14*
X194310000Y-101525000D03*
D15*
X194310000Y-97715000D03*
D16*
X116840000Y-111760000D03*
X116840000Y-109220000D03*
X114300000Y-111760000D03*
X114300000Y-109220000D03*
X111760000Y-111760000D03*
X111760000Y-109220000D03*
X109220000Y-111760000D03*
X109220000Y-109220000D03*
X106680000Y-111760000D03*
X106680000Y-109220000D03*
X104140000Y-111760000D03*
D17*
X104140000Y-109220000D03*
D16*
X99060000Y-111760000D03*
X99060000Y-109220000D03*
X96520000Y-111760000D03*
X96520000Y-109220000D03*
X93980000Y-111760000D03*
X93980000Y-109220000D03*
X91440000Y-111760000D03*
X91440000Y-109220000D03*
X88900000Y-111760000D03*
X88900000Y-109220000D03*
X86360000Y-111760000D03*
X86360000Y-109220000D03*
X83820000Y-111760000D03*
X83820000Y-109220000D03*
X81280000Y-111760000D03*
D17*
X81280000Y-109220000D03*
D16*
X116840000Y-63500000D03*
D17*
X116840000Y-66040000D03*
D16*
X114300000Y-63500000D03*
X114300000Y-66040000D03*
X111760000Y-63500000D03*
X111760000Y-66040000D03*
X109220000Y-63500000D03*
X109220000Y-66040000D03*
X106680000Y-63500000D03*
X106680000Y-66040000D03*
X104140000Y-63500000D03*
X104140000Y-66040000D03*
X101600000Y-63500000D03*
X101600000Y-66040000D03*
X99060000Y-63500000D03*
X99060000Y-66040000D03*
D17*
X95250000Y-66040000D03*
D16*
X95250000Y-63500000D03*
X92710000Y-66040000D03*
X92710000Y-63500000D03*
X90170000Y-66040000D03*
X90170000Y-63500000D03*
X87630000Y-66040000D03*
X87630000Y-63500000D03*
X85090000Y-66040000D03*
X85090000Y-63500000D03*
X82550000Y-66040000D03*
X82550000Y-63500000D03*
X80010000Y-66040000D03*
X80010000Y-63500000D03*
X77470000Y-66040000D03*
X77470000Y-63500000D03*
X74930000Y-66040000D03*
X74930000Y-63500000D03*
X72390000Y-66040000D03*
X72390000Y-63500000D03*
D11*
X114300000Y-68580000D03*
X114300000Y-71120000D03*
X114300000Y-73660000D03*
X114300000Y-76200000D03*
X114300000Y-78740000D03*
X114300000Y-81280000D03*
X114300000Y-83820000D03*
X114300000Y-86360000D03*
X114300000Y-88900000D03*
X114300000Y-91440000D03*
X114300000Y-93980000D03*
X114300000Y-96520000D03*
X114300000Y-99060000D03*
X114300000Y-101600000D03*
X114300000Y-104140000D03*
X114300000Y-106680000D03*
X109220000Y-106680000D03*
X109220000Y-104140000D03*
X109220000Y-101600000D03*
X109220000Y-99060000D03*
X109220000Y-96520000D03*
X109220000Y-93980000D03*
X109220000Y-91440000D03*
X109220000Y-88900000D03*
X109220000Y-86360000D03*
X109220000Y-83820000D03*
X109220000Y-81280000D03*
X109220000Y-78740000D03*
X109220000Y-76200000D03*
X109220000Y-73660000D03*
X109220000Y-71120000D03*
X109220000Y-68580000D03*
X111760000Y-68580000D03*
X111760000Y-71120000D03*
X111760000Y-73660000D03*
X111760000Y-76200000D03*
X111760000Y-78740000D03*
X111760000Y-81280000D03*
X111760000Y-83820000D03*
X111760000Y-86360000D03*
X111760000Y-88900000D03*
X111760000Y-91440000D03*
X111760000Y-93980000D03*
X111760000Y-96520000D03*
X111760000Y-99060000D03*
X111760000Y-101600000D03*
X111760000Y-104140000D03*
X111760000Y-106680000D03*
X101600000Y-106680000D03*
X101600000Y-104140000D03*
X101600000Y-101600000D03*
X101600000Y-99060000D03*
X101600000Y-96520000D03*
X101600000Y-93980000D03*
X101600000Y-91440000D03*
X101600000Y-88900000D03*
X101600000Y-86360000D03*
X101600000Y-83820000D03*
X101600000Y-81280000D03*
X101600000Y-78740000D03*
X101600000Y-76200000D03*
X101600000Y-73660000D03*
X101600000Y-71120000D03*
X101600000Y-68580000D03*
X99060000Y-68580000D03*
X99060000Y-71120000D03*
X99060000Y-73660000D03*
X99060000Y-76200000D03*
X99060000Y-78740000D03*
X99060000Y-81280000D03*
X99060000Y-83820000D03*
X99060000Y-86360000D03*
X99060000Y-88900000D03*
X99060000Y-91440000D03*
X99060000Y-93980000D03*
X99060000Y-96520000D03*
X99060000Y-99060000D03*
X99060000Y-101600000D03*
X99060000Y-104140000D03*
X99060000Y-106680000D03*
X104140000Y-106680000D03*
X104140000Y-104140000D03*
X104140000Y-101600000D03*
X104140000Y-99060000D03*
X104140000Y-96520000D03*
X104140000Y-93980000D03*
X104140000Y-91440000D03*
X104140000Y-88900000D03*
X104140000Y-86360000D03*
X104140000Y-83820000D03*
X104140000Y-81280000D03*
X104140000Y-78740000D03*
X104140000Y-76200000D03*
X104140000Y-73660000D03*
X104140000Y-71120000D03*
X104140000Y-68580000D03*
X106680000Y-68580000D03*
X106680000Y-71120000D03*
X106680000Y-73660000D03*
X106680000Y-76200000D03*
X106680000Y-78740000D03*
X106680000Y-81280000D03*
X106680000Y-83820000D03*
X106680000Y-86360000D03*
X106680000Y-88900000D03*
X106680000Y-91440000D03*
X106680000Y-93980000D03*
X106680000Y-96520000D03*
X106680000Y-99060000D03*
X106680000Y-101600000D03*
X106680000Y-104140000D03*
X106680000Y-106680000D03*
X86360000Y-106680000D03*
X86360000Y-104140000D03*
X86360000Y-101600000D03*
X86360000Y-99060000D03*
X86360000Y-96520000D03*
X86360000Y-93980000D03*
X86360000Y-91440000D03*
X86360000Y-88900000D03*
X86360000Y-86360000D03*
X86360000Y-83820000D03*
X86360000Y-81280000D03*
X86360000Y-78740000D03*
X86360000Y-76200000D03*
X86360000Y-73660000D03*
X86360000Y-71120000D03*
X86360000Y-68580000D03*
X83820000Y-68580000D03*
X83820000Y-71120000D03*
X83820000Y-73660000D03*
X83820000Y-76200000D03*
X83820000Y-78740000D03*
X83820000Y-81280000D03*
X83820000Y-83820000D03*
X83820000Y-86360000D03*
X83820000Y-88900000D03*
X83820000Y-91440000D03*
X83820000Y-93980000D03*
X83820000Y-96520000D03*
X83820000Y-99060000D03*
X83820000Y-101600000D03*
X83820000Y-104140000D03*
X83820000Y-106680000D03*
X78740000Y-106680000D03*
X78740000Y-104140000D03*
X78740000Y-101600000D03*
X78740000Y-99060000D03*
X78740000Y-96520000D03*
X78740000Y-93980000D03*
X78740000Y-91440000D03*
X78740000Y-88900000D03*
X78740000Y-86360000D03*
X78740000Y-83820000D03*
X78740000Y-81280000D03*
X78740000Y-78740000D03*
X78740000Y-76200000D03*
X78740000Y-73660000D03*
X78740000Y-71120000D03*
X78740000Y-68580000D03*
X81280000Y-68580000D03*
X81280000Y-71120000D03*
X81280000Y-73660000D03*
X81280000Y-76200000D03*
X81280000Y-78740000D03*
X81280000Y-81280000D03*
X81280000Y-83820000D03*
X81280000Y-86360000D03*
X81280000Y-88900000D03*
X81280000Y-91440000D03*
X81280000Y-93980000D03*
X81280000Y-96520000D03*
X81280000Y-99060000D03*
X81280000Y-101600000D03*
X81280000Y-104140000D03*
X81280000Y-106680000D03*
X91440000Y-106680000D03*
X91440000Y-104140000D03*
X91440000Y-101600000D03*
X91440000Y-99060000D03*
X91440000Y-96520000D03*
X91440000Y-93980000D03*
X91440000Y-91440000D03*
X91440000Y-88900000D03*
X91440000Y-86360000D03*
X91440000Y-83820000D03*
X91440000Y-81280000D03*
X91440000Y-78740000D03*
X91440000Y-76200000D03*
X91440000Y-73660000D03*
X91440000Y-71120000D03*
X91440000Y-68580000D03*
X88900000Y-68580000D03*
X88900000Y-71120000D03*
X88900000Y-73660000D03*
X88900000Y-76200000D03*
X88900000Y-78740000D03*
X88900000Y-81280000D03*
X88900000Y-83820000D03*
X88900000Y-86360000D03*
X88900000Y-88900000D03*
X88900000Y-91440000D03*
X88900000Y-93980000D03*
X88900000Y-96520000D03*
X88900000Y-99060000D03*
X88900000Y-101600000D03*
X88900000Y-104140000D03*
X88900000Y-106680000D03*
X93980000Y-106680000D03*
X93980000Y-104140000D03*
X93980000Y-101600000D03*
X93980000Y-99060000D03*
X93980000Y-96520000D03*
X93980000Y-93980000D03*
X93980000Y-91440000D03*
X93980000Y-88900000D03*
X93980000Y-86360000D03*
X93980000Y-83820000D03*
X93980000Y-81280000D03*
X93980000Y-78740000D03*
X93980000Y-76200000D03*
X93980000Y-73660000D03*
X93980000Y-71120000D03*
X93980000Y-68580000D03*
X96520000Y-68580000D03*
X96520000Y-71120000D03*
X96520000Y-73660000D03*
X96520000Y-76200000D03*
X96520000Y-78740000D03*
X96520000Y-81280000D03*
X96520000Y-83820000D03*
X96520000Y-86360000D03*
X96520000Y-88900000D03*
X96520000Y-91440000D03*
X96520000Y-93980000D03*
X96520000Y-96520000D03*
X96520000Y-99060000D03*
X96520000Y-101600000D03*
X96520000Y-104140000D03*
X96520000Y-106680000D03*
X73660000Y-106680000D03*
X73660000Y-104140000D03*
X73660000Y-101600000D03*
X73660000Y-99060000D03*
X73660000Y-96520000D03*
X73660000Y-93980000D03*
X73660000Y-91440000D03*
X73660000Y-88900000D03*
X73660000Y-86360000D03*
X73660000Y-83820000D03*
X73660000Y-81280000D03*
X73660000Y-78740000D03*
X73660000Y-76200000D03*
X73660000Y-73660000D03*
X73660000Y-71120000D03*
X73660000Y-68580000D03*
X71120000Y-68580000D03*
X71120000Y-71120000D03*
X71120000Y-73660000D03*
X71120000Y-76200000D03*
X71120000Y-78740000D03*
X71120000Y-81280000D03*
X71120000Y-83820000D03*
X71120000Y-86360000D03*
X71120000Y-88900000D03*
X71120000Y-91440000D03*
X71120000Y-93980000D03*
X71120000Y-96520000D03*
X71120000Y-99060000D03*
X71120000Y-101600000D03*
X71120000Y-104140000D03*
X71120000Y-106680000D03*
X76200000Y-106680000D03*
X76200000Y-104140000D03*
X76200000Y-101600000D03*
X76200000Y-99060000D03*
X76200000Y-96520000D03*
X76200000Y-93980000D03*
X76200000Y-91440000D03*
X76200000Y-88900000D03*
X76200000Y-86360000D03*
X76200000Y-83820000D03*
X76200000Y-81280000D03*
X76200000Y-78740000D03*
X76200000Y-76200000D03*
X76200000Y-73660000D03*
X76200000Y-71120000D03*
X76200000Y-68580000D03*
X76200000Y-109220000D03*
X76200000Y-111760000D03*
X76200000Y-114300000D03*
X76200000Y-116840000D03*
X71120000Y-116840000D03*
X71120000Y-114300000D03*
X71120000Y-111760000D03*
X71120000Y-109220000D03*
X73660000Y-109220000D03*
X73660000Y-111760000D03*
X73660000Y-114300000D03*
X73660000Y-116840000D03*
X78740000Y-109220000D03*
X78740000Y-111760000D03*
X78740000Y-114300000D03*
X78740000Y-116840000D03*
X96520000Y-116840000D03*
X96520000Y-114300000D03*
X93980000Y-114300000D03*
X93980000Y-116840000D03*
X88900000Y-116840000D03*
X88900000Y-114300000D03*
X91440000Y-114300000D03*
X91440000Y-116840000D03*
X81280000Y-116840000D03*
X81280000Y-114300000D03*
X83820000Y-116840000D03*
X83820000Y-114300000D03*
X86360000Y-114300000D03*
X86360000Y-116840000D03*
X106680000Y-116840000D03*
X106680000Y-114300000D03*
X104140000Y-114300000D03*
X104140000Y-116840000D03*
X99060000Y-116840000D03*
X99060000Y-114300000D03*
X101600000Y-114300000D03*
X101600000Y-116840000D03*
X111760000Y-116840000D03*
X111760000Y-114300000D03*
X109220000Y-114300000D03*
X109220000Y-116840000D03*
X114300000Y-116840000D03*
X114300000Y-114300000D03*
X116840000Y-114300000D03*
X116840000Y-116840000D03*
X124460000Y-68580000D03*
X124460000Y-71120000D03*
X124460000Y-73660000D03*
X124460000Y-76200000D03*
X124460000Y-78740000D03*
X124460000Y-81280000D03*
X124460000Y-83820000D03*
X124460000Y-86360000D03*
X124460000Y-88900000D03*
X124460000Y-91440000D03*
X124460000Y-93980000D03*
X124460000Y-96520000D03*
X124460000Y-99060000D03*
X124460000Y-101600000D03*
X124460000Y-104140000D03*
X124460000Y-106680000D03*
X119380000Y-106680000D03*
X119380000Y-104140000D03*
X119380000Y-101600000D03*
X119380000Y-99060000D03*
X119380000Y-96520000D03*
X119380000Y-93980000D03*
X119380000Y-91440000D03*
X119380000Y-88900000D03*
X119380000Y-86360000D03*
X119380000Y-83820000D03*
X119380000Y-81280000D03*
X119380000Y-78740000D03*
X119380000Y-76200000D03*
X119380000Y-73660000D03*
X119380000Y-71120000D03*
X119380000Y-68580000D03*
X121920000Y-68580000D03*
X121920000Y-71120000D03*
X121920000Y-73660000D03*
X121920000Y-76200000D03*
X121920000Y-78740000D03*
X121920000Y-81280000D03*
X121920000Y-83820000D03*
X121920000Y-86360000D03*
X121920000Y-88900000D03*
X121920000Y-91440000D03*
X121920000Y-93980000D03*
X121920000Y-96520000D03*
X121920000Y-99060000D03*
X121920000Y-101600000D03*
X121920000Y-104140000D03*
X121920000Y-106680000D03*
X144780000Y-106680000D03*
X144780000Y-104140000D03*
X144780000Y-101600000D03*
X144780000Y-99060000D03*
X144780000Y-96520000D03*
X144780000Y-93980000D03*
X144780000Y-91440000D03*
X144780000Y-88900000D03*
X144780000Y-86360000D03*
X144780000Y-83820000D03*
X144780000Y-81280000D03*
X144780000Y-78740000D03*
X144780000Y-76200000D03*
X144780000Y-73660000D03*
X144780000Y-71120000D03*
X144780000Y-68580000D03*
X142240000Y-68580000D03*
X142240000Y-71120000D03*
X142240000Y-73660000D03*
X142240000Y-76200000D03*
X142240000Y-78740000D03*
X142240000Y-81280000D03*
X142240000Y-83820000D03*
X142240000Y-86360000D03*
X142240000Y-88900000D03*
X142240000Y-91440000D03*
X142240000Y-93980000D03*
X142240000Y-96520000D03*
X142240000Y-99060000D03*
X142240000Y-101600000D03*
X142240000Y-104140000D03*
X142240000Y-106680000D03*
X137160000Y-106680000D03*
X137160000Y-104140000D03*
X137160000Y-101600000D03*
X137160000Y-99060000D03*
X137160000Y-96520000D03*
X137160000Y-93980000D03*
X137160000Y-91440000D03*
X137160000Y-88900000D03*
X137160000Y-86360000D03*
X137160000Y-83820000D03*
X137160000Y-81280000D03*
X137160000Y-78740000D03*
X137160000Y-76200000D03*
X137160000Y-73660000D03*
X137160000Y-71120000D03*
X137160000Y-68580000D03*
X139700000Y-68580000D03*
X139700000Y-71120000D03*
X139700000Y-73660000D03*
X139700000Y-76200000D03*
X139700000Y-78740000D03*
X139700000Y-81280000D03*
X139700000Y-83820000D03*
X139700000Y-86360000D03*
X139700000Y-88900000D03*
X139700000Y-91440000D03*
X139700000Y-93980000D03*
X139700000Y-96520000D03*
X139700000Y-99060000D03*
X139700000Y-101600000D03*
X139700000Y-104140000D03*
X139700000Y-106680000D03*
X129540000Y-106680000D03*
X129540000Y-104140000D03*
X129540000Y-101600000D03*
X129540000Y-99060000D03*
X129540000Y-96520000D03*
X129540000Y-93980000D03*
X129540000Y-91440000D03*
X129540000Y-88900000D03*
X129540000Y-86360000D03*
X129540000Y-83820000D03*
X129540000Y-81280000D03*
X129540000Y-78740000D03*
X129540000Y-76200000D03*
X129540000Y-73660000D03*
X129540000Y-71120000D03*
X129540000Y-68580000D03*
X127000000Y-68580000D03*
X127000000Y-71120000D03*
X127000000Y-73660000D03*
X127000000Y-76200000D03*
X127000000Y-78740000D03*
X127000000Y-81280000D03*
X127000000Y-83820000D03*
X127000000Y-86360000D03*
X127000000Y-88900000D03*
X127000000Y-91440000D03*
X127000000Y-93980000D03*
X127000000Y-96520000D03*
X127000000Y-99060000D03*
X127000000Y-101600000D03*
X127000000Y-104140000D03*
X127000000Y-106680000D03*
X132080000Y-106680000D03*
X132080000Y-104140000D03*
X132080000Y-101600000D03*
X132080000Y-99060000D03*
X132080000Y-96520000D03*
X132080000Y-93980000D03*
X132080000Y-91440000D03*
X132080000Y-88900000D03*
X132080000Y-86360000D03*
X132080000Y-83820000D03*
X132080000Y-81280000D03*
X132080000Y-78740000D03*
X132080000Y-76200000D03*
X132080000Y-73660000D03*
X132080000Y-71120000D03*
X132080000Y-68580000D03*
X134620000Y-68580000D03*
X134620000Y-71120000D03*
X134620000Y-73660000D03*
X134620000Y-76200000D03*
X134620000Y-78740000D03*
X134620000Y-81280000D03*
X134620000Y-83820000D03*
X134620000Y-86360000D03*
X134620000Y-88900000D03*
X134620000Y-91440000D03*
X134620000Y-93980000D03*
X134620000Y-96520000D03*
X134620000Y-99060000D03*
X134620000Y-101600000D03*
X134620000Y-104140000D03*
X134620000Y-106680000D03*
X154940000Y-106680000D03*
X154940000Y-104140000D03*
X154940000Y-101600000D03*
X154940000Y-99060000D03*
X154940000Y-96520000D03*
X154940000Y-93980000D03*
X154940000Y-91440000D03*
X154940000Y-88900000D03*
X154940000Y-86360000D03*
X154940000Y-83820000D03*
X154940000Y-81280000D03*
X154940000Y-78740000D03*
X154940000Y-76200000D03*
X154940000Y-73660000D03*
X154940000Y-71120000D03*
X154940000Y-68580000D03*
X152400000Y-68580000D03*
X152400000Y-71120000D03*
X152400000Y-73660000D03*
X152400000Y-76200000D03*
X152400000Y-78740000D03*
X152400000Y-81280000D03*
X152400000Y-83820000D03*
X152400000Y-86360000D03*
X152400000Y-88900000D03*
X152400000Y-91440000D03*
X152400000Y-93980000D03*
X152400000Y-96520000D03*
X152400000Y-99060000D03*
X152400000Y-101600000D03*
X152400000Y-104140000D03*
X152400000Y-106680000D03*
X147320000Y-106680000D03*
X147320000Y-104140000D03*
X147320000Y-101600000D03*
X147320000Y-99060000D03*
X147320000Y-96520000D03*
X147320000Y-93980000D03*
X147320000Y-91440000D03*
X147320000Y-88900000D03*
X147320000Y-86360000D03*
X147320000Y-83820000D03*
X147320000Y-81280000D03*
X147320000Y-78740000D03*
X147320000Y-76200000D03*
X147320000Y-73660000D03*
X147320000Y-71120000D03*
X147320000Y-68580000D03*
X149860000Y-68580000D03*
X149860000Y-71120000D03*
X149860000Y-73660000D03*
X149860000Y-76200000D03*
X149860000Y-78740000D03*
X149860000Y-81280000D03*
X149860000Y-83820000D03*
X149860000Y-86360000D03*
X149860000Y-88900000D03*
X149860000Y-91440000D03*
X149860000Y-93980000D03*
X149860000Y-96520000D03*
X149860000Y-99060000D03*
X149860000Y-101600000D03*
X149860000Y-104140000D03*
X149860000Y-106680000D03*
X160020000Y-106680000D03*
X160020000Y-104140000D03*
X160020000Y-101600000D03*
X160020000Y-99060000D03*
X160020000Y-96520000D03*
X160020000Y-93980000D03*
X160020000Y-91440000D03*
X160020000Y-88900000D03*
X160020000Y-86360000D03*
X160020000Y-83820000D03*
X160020000Y-81280000D03*
X160020000Y-78740000D03*
X160020000Y-76200000D03*
X160020000Y-73660000D03*
X160020000Y-71120000D03*
X160020000Y-68580000D03*
X157480000Y-68580000D03*
X157480000Y-71120000D03*
X157480000Y-73660000D03*
X157480000Y-76200000D03*
X157480000Y-78740000D03*
X157480000Y-81280000D03*
X157480000Y-83820000D03*
X157480000Y-86360000D03*
X157480000Y-88900000D03*
X157480000Y-91440000D03*
X157480000Y-93980000D03*
X157480000Y-96520000D03*
X157480000Y-99060000D03*
X157480000Y-101600000D03*
X157480000Y-104140000D03*
X157480000Y-106680000D03*
X162560000Y-106680000D03*
X162560000Y-104140000D03*
X162560000Y-101600000D03*
X162560000Y-99060000D03*
X162560000Y-96520000D03*
X162560000Y-93980000D03*
X162560000Y-91440000D03*
X162560000Y-88900000D03*
X162560000Y-86360000D03*
X162560000Y-83820000D03*
X162560000Y-81280000D03*
X162560000Y-78740000D03*
X162560000Y-76200000D03*
X162560000Y-73660000D03*
X162560000Y-71120000D03*
X162560000Y-68580000D03*
X165100000Y-68580000D03*
X165100000Y-71120000D03*
X165100000Y-73660000D03*
X165100000Y-76200000D03*
X165100000Y-78740000D03*
X165100000Y-81280000D03*
X165100000Y-83820000D03*
X165100000Y-86360000D03*
X165100000Y-88900000D03*
X165100000Y-91440000D03*
X165100000Y-93980000D03*
X165100000Y-96520000D03*
X165100000Y-99060000D03*
X165100000Y-101600000D03*
X165100000Y-104140000D03*
X165100000Y-106680000D03*
X170180000Y-106680000D03*
X170180000Y-104140000D03*
X170180000Y-101600000D03*
X170180000Y-99060000D03*
X170180000Y-96520000D03*
X170180000Y-93980000D03*
X170180000Y-91440000D03*
X170180000Y-88900000D03*
X170180000Y-86360000D03*
X170180000Y-83820000D03*
X170180000Y-81280000D03*
X170180000Y-78740000D03*
X170180000Y-76200000D03*
X170180000Y-73660000D03*
X170180000Y-71120000D03*
X170180000Y-68580000D03*
X167640000Y-68580000D03*
X167640000Y-71120000D03*
X167640000Y-73660000D03*
X167640000Y-76200000D03*
X167640000Y-78740000D03*
X167640000Y-81280000D03*
X167640000Y-83820000D03*
X167640000Y-86360000D03*
X167640000Y-88900000D03*
X167640000Y-91440000D03*
X167640000Y-93980000D03*
X167640000Y-96520000D03*
X167640000Y-99060000D03*
X167640000Y-101600000D03*
X167640000Y-104140000D03*
X167640000Y-106680000D03*
X76200000Y-58420000D03*
X76200000Y-60960000D03*
X71120000Y-60960000D03*
X71120000Y-58420000D03*
X73660000Y-58420000D03*
X73660000Y-60960000D03*
X96520000Y-60960000D03*
X96520000Y-58420000D03*
X93980000Y-58420000D03*
X93980000Y-60960000D03*
X88900000Y-60960000D03*
X88900000Y-58420000D03*
X91440000Y-58420000D03*
X91440000Y-60960000D03*
X81280000Y-60960000D03*
X81280000Y-58420000D03*
X78740000Y-58420000D03*
X78740000Y-60960000D03*
X83820000Y-60960000D03*
X83820000Y-58420000D03*
X86360000Y-58420000D03*
X86360000Y-60960000D03*
X106680000Y-60960000D03*
X106680000Y-58420000D03*
X104140000Y-58420000D03*
X104140000Y-60960000D03*
X99060000Y-60960000D03*
X99060000Y-58420000D03*
X101600000Y-58420000D03*
X101600000Y-60960000D03*
X111760000Y-60960000D03*
X111760000Y-58420000D03*
X109220000Y-58420000D03*
X109220000Y-60960000D03*
X114300000Y-60960000D03*
X114300000Y-58420000D03*
X116840000Y-58420000D03*
X116840000Y-60960000D03*
X187960000Y-88900000D03*
X187960000Y-86360000D03*
D18*
X184175000Y-99250000D03*
X184775000Y-98650000D03*
X183575000Y-99850000D03*
X183575000Y-98650000D03*
X184775000Y-99850000D03*
D19*
X196800000Y-95200000D03*
X195000000Y-95200000D03*
X193200000Y-95200000D03*
X191400000Y-95200000D03*
X184300000Y-103500000D03*
X184300000Y-104700000D03*
X184300000Y-106100000D03*
X182700000Y-106000000D03*
X182700000Y-104700000D03*
X182700000Y-103500000D03*
D20*
X185200000Y-96500000D03*
X179000000Y-100800000D03*
X179900000Y-94700000D03*
D21*
X179800000Y-102700000D03*
D20*
X191000000Y-78500000D03*
X176200000Y-93000000D03*
D21*
X83900000Y-119100000D03*
X90600000Y-120000000D03*
D20*
X184200000Y-80900000D03*
X186225001Y-84525001D03*
X186800000Y-72400000D03*
X190000000Y-81800000D03*
X188100000Y-80020010D03*
D19*
X194100000Y-87600000D03*
D22*
X185300000Y-96300000D02*
X185300000Y-95600000D01*
X185300000Y-95600000D02*
X185300000Y-94700000D01*
X185200000Y-96500000D02*
X185300000Y-96400000D01*
X185300000Y-96400000D02*
X185300000Y-95600000D01*
X176100000Y-99800000D02*
X177100000Y-100800000D01*
X177100000Y-100800000D02*
X179000000Y-100800000D01*
X176100000Y-94800000D02*
X176100000Y-99800000D01*
X176900000Y-94000000D02*
X176100000Y-94800000D01*
X180600000Y-94000000D02*
X176900000Y-94000000D01*
X184600000Y-94000000D02*
X180600000Y-94000000D01*
X180600000Y-94000000D02*
X179900000Y-94700000D01*
X185300000Y-94700000D02*
X184600000Y-94000000D01*
D23*
X194310000Y-97715000D02*
X192965000Y-97715000D01*
D22*
X176200000Y-93000000D02*
X173800000Y-93000000D01*
X173800000Y-93000000D02*
X172800000Y-94000000D01*
X170180000Y-91440000D02*
X170180000Y-91420000D01*
D23*
X91700000Y-120200000D02*
X170200000Y-120200000D01*
X90800000Y-120200000D02*
X91700000Y-120200000D01*
X91700000Y-120200000D02*
X85000000Y-120200000D01*
X85000000Y-120200000D02*
X83900000Y-119100000D01*
X172800000Y-94000000D02*
X170200000Y-91400000D01*
X172800000Y-117600000D02*
X172800000Y-94000000D01*
X170200000Y-120200000D02*
X172800000Y-117600000D01*
X90600000Y-120000000D02*
X90800000Y-120200000D01*
D22*
X184200000Y-83500000D02*
X185225001Y-84525001D01*
X181700000Y-81000000D02*
X184200000Y-83500000D01*
X184200000Y-83500000D02*
X184200000Y-80900000D01*
X185225001Y-84525001D02*
X186225001Y-84525001D01*
X181700000Y-73100000D02*
X181700000Y-81000000D01*
X182700000Y-72100000D02*
X181700000Y-73100000D01*
X186500000Y-72100000D02*
X182700000Y-72100000D01*
X186800000Y-72400000D02*
X186500000Y-72100000D01*
X188100000Y-80020010D02*
X189879990Y-81800000D01*
X189879990Y-81800000D02*
X190000000Y-81800000D01*
X194100000Y-87600000D02*
X189260000Y-87600000D01*
X189260000Y-87600000D02*
X187960000Y-88900000D01*
X188560000Y-88300000D02*
X187960000Y-88900000D01*
X188020000Y-86300000D02*
X187960000Y-86360000D01*
D24*
G36*
X198873000Y-70907899D02*
X198477000Y-70785000D01*
X198152000Y-70785000D01*
X198152000Y-71868000D01*
X198172000Y-71868000D01*
X198172000Y-72122000D01*
X198152000Y-72122000D01*
X198152000Y-73205000D01*
X198477000Y-73205000D01*
X198873000Y-73082101D01*
X198873000Y-78657899D01*
X198477000Y-78535000D01*
X198152000Y-78535000D01*
X198152000Y-79618000D01*
X198172000Y-79618000D01*
X198172000Y-79872000D01*
X198152000Y-79872000D01*
X198152000Y-80955000D01*
X198477000Y-80955000D01*
X198873000Y-80832101D01*
X198873000Y-106873000D01*
X177052606Y-106873000D01*
X175127000Y-104947394D01*
X175127000Y-95052606D01*
X175379606Y-94800000D01*
X175648000Y-94800000D01*
X175648000Y-99800000D01*
X175682406Y-99972973D01*
X175780388Y-100119612D01*
X176780388Y-101119613D01*
X176927027Y-101217594D01*
X177100000Y-101252000D01*
X178565272Y-101252000D01*
X178644369Y-101331235D01*
X178874735Y-101426891D01*
X179124171Y-101427109D01*
X179354703Y-101331855D01*
X179531235Y-101155631D01*
X179626891Y-100925265D01*
X179627109Y-100675829D01*
X179536568Y-100456702D01*
X183145075Y-100456702D01*
X183150860Y-100646442D01*
X183487930Y-100748128D01*
X183838257Y-100713083D01*
X183999140Y-100646442D01*
X184004925Y-100456702D01*
X184345075Y-100456702D01*
X184350860Y-100646442D01*
X184687930Y-100748128D01*
X185038257Y-100713083D01*
X185199140Y-100646442D01*
X185204925Y-100456702D01*
X185173223Y-100425000D01*
X192626594Y-100425000D01*
X192626594Y-102625000D01*
X192649395Y-102746179D01*
X192721012Y-102857474D01*
X192830286Y-102932138D01*
X192960000Y-102958406D01*
X195660000Y-102958406D01*
X195781179Y-102935605D01*
X195892474Y-102863988D01*
X195967138Y-102754714D01*
X195993406Y-102625000D01*
X195993406Y-100425000D01*
X195970605Y-100303821D01*
X195898988Y-100192526D01*
X195789714Y-100117862D01*
X195660000Y-100091594D01*
X192960000Y-100091594D01*
X192838821Y-100114395D01*
X192727526Y-100186012D01*
X192652862Y-100295286D01*
X192626594Y-100425000D01*
X185173223Y-100425000D01*
X184775000Y-100026777D01*
X184345075Y-100456702D01*
X184004925Y-100456702D01*
X183575000Y-100026777D01*
X183145075Y-100456702D01*
X179536568Y-100456702D01*
X179531855Y-100445297D01*
X179355631Y-100268765D01*
X179125265Y-100173109D01*
X178875829Y-100172891D01*
X178645297Y-100268145D01*
X178565302Y-100348000D01*
X177287225Y-100348000D01*
X176702155Y-99762930D01*
X182676872Y-99762930D01*
X182711917Y-100113257D01*
X182778558Y-100274140D01*
X182968298Y-100279925D01*
X183398223Y-99850000D01*
X182968298Y-99420075D01*
X182778558Y-99425860D01*
X182676872Y-99762930D01*
X176702155Y-99762930D01*
X176552000Y-99612776D01*
X176552000Y-99243298D01*
X183145075Y-99243298D01*
X183151777Y-99250000D01*
X183145075Y-99256702D01*
X183150860Y-99446442D01*
X183310037Y-99494462D01*
X183311917Y-99513257D01*
X183378558Y-99674140D01*
X183568298Y-99679925D01*
X183723678Y-99524545D01*
X183838257Y-99513083D01*
X183968523Y-99459124D01*
X183893299Y-99708478D01*
X183745075Y-99856702D01*
X183750860Y-100046442D01*
X183910037Y-100094462D01*
X183911917Y-100113257D01*
X183978558Y-100274140D01*
X184168298Y-100279925D01*
X184175000Y-100273223D01*
X184181702Y-100279925D01*
X184371442Y-100274140D01*
X184419462Y-100114963D01*
X184438257Y-100113083D01*
X184599140Y-100046442D01*
X184604925Y-99856702D01*
X184598223Y-99850000D01*
X184951777Y-99850000D01*
X185381702Y-100279925D01*
X185571442Y-100274140D01*
X185673128Y-99937070D01*
X185638083Y-99586743D01*
X185571442Y-99425860D01*
X185381702Y-99420075D01*
X184951777Y-99850000D01*
X184598223Y-99850000D01*
X184449545Y-99701322D01*
X184438083Y-99586743D01*
X184384124Y-99456477D01*
X184633478Y-99531701D01*
X184781702Y-99679925D01*
X184971442Y-99674140D01*
X185019462Y-99514963D01*
X185038257Y-99513083D01*
X185199140Y-99446442D01*
X185204925Y-99256702D01*
X185198223Y-99250000D01*
X185204925Y-99243298D01*
X185199140Y-99053558D01*
X185039963Y-99005538D01*
X185038083Y-98986743D01*
X184971442Y-98825860D01*
X184781702Y-98820075D01*
X184626322Y-98975455D01*
X184511743Y-98986917D01*
X184381477Y-99040876D01*
X184456701Y-98791522D01*
X184598223Y-98650000D01*
X184951777Y-98650000D01*
X185381702Y-99079925D01*
X185571442Y-99074140D01*
X185673128Y-98737070D01*
X185638083Y-98386743D01*
X185571442Y-98225860D01*
X185381702Y-98220075D01*
X184951777Y-98650000D01*
X184598223Y-98650000D01*
X184604925Y-98643298D01*
X184599140Y-98453558D01*
X184439963Y-98405538D01*
X184438083Y-98386743D01*
X184371442Y-98225860D01*
X184181702Y-98220075D01*
X184175000Y-98226777D01*
X184168298Y-98220075D01*
X183978558Y-98225860D01*
X183930538Y-98385037D01*
X183911743Y-98386917D01*
X183750860Y-98453558D01*
X183745075Y-98643298D01*
X183900455Y-98798678D01*
X183911917Y-98913257D01*
X183965876Y-99043523D01*
X183716522Y-98968299D01*
X183568298Y-98820075D01*
X183378558Y-98825860D01*
X183330538Y-98985037D01*
X183311743Y-98986917D01*
X183150860Y-99053558D01*
X183145075Y-99243298D01*
X176552000Y-99243298D01*
X176552000Y-98562930D01*
X182676872Y-98562930D01*
X182711917Y-98913257D01*
X182778558Y-99074140D01*
X182968298Y-99079925D01*
X183398223Y-98650000D01*
X182968298Y-98220075D01*
X182778558Y-98225860D01*
X182676872Y-98562930D01*
X176552000Y-98562930D01*
X176552000Y-98043298D01*
X183145075Y-98043298D01*
X183575000Y-98473223D01*
X184004925Y-98043298D01*
X184345075Y-98043298D01*
X184775000Y-98473223D01*
X185137101Y-98111122D01*
X192370825Y-98111122D01*
X192397289Y-98240677D01*
X192725023Y-98836954D01*
X193255995Y-99262424D01*
X193909370Y-99452313D01*
X194183000Y-99295738D01*
X194183000Y-97842000D01*
X194437000Y-97842000D01*
X194437000Y-99295738D01*
X194710630Y-99452313D01*
X195364005Y-99262424D01*
X195894977Y-98836954D01*
X196222711Y-98240677D01*
X196249175Y-98111122D01*
X196131125Y-97842000D01*
X194437000Y-97842000D01*
X194183000Y-97842000D01*
X192488875Y-97842000D01*
X192370825Y-98111122D01*
X185137101Y-98111122D01*
X185204925Y-98043298D01*
X185199140Y-97853558D01*
X184862070Y-97751872D01*
X184511743Y-97786917D01*
X184350860Y-97853558D01*
X184345075Y-98043298D01*
X184004925Y-98043298D01*
X183999140Y-97853558D01*
X183662070Y-97751872D01*
X183311743Y-97786917D01*
X183150860Y-97853558D01*
X183145075Y-98043298D01*
X176552000Y-98043298D01*
X176552000Y-97318878D01*
X192370825Y-97318878D01*
X192488875Y-97588000D01*
X194183000Y-97588000D01*
X194183000Y-96134262D01*
X194437000Y-96134262D01*
X194437000Y-97588000D01*
X196131125Y-97588000D01*
X196249175Y-97318878D01*
X196222711Y-97189323D01*
X195894977Y-96593046D01*
X195364005Y-96167576D01*
X194710630Y-95977687D01*
X194437000Y-96134262D01*
X194183000Y-96134262D01*
X193909370Y-95977687D01*
X193255995Y-96167576D01*
X192725023Y-96593046D01*
X192397289Y-97189323D01*
X192370825Y-97318878D01*
X176552000Y-97318878D01*
X176552000Y-94987224D01*
X177087224Y-94452000D01*
X179324073Y-94452000D01*
X179273109Y-94574735D01*
X179272891Y-94824171D01*
X179368145Y-95054703D01*
X179544369Y-95231235D01*
X179774735Y-95326891D01*
X180024171Y-95327109D01*
X180254703Y-95231855D01*
X180431235Y-95055631D01*
X180526891Y-94825265D01*
X180526990Y-94712235D01*
X180787225Y-94452000D01*
X184412776Y-94452000D01*
X184848000Y-94887225D01*
X184848000Y-95967028D01*
X184845297Y-95968145D01*
X184668765Y-96144369D01*
X184573109Y-96374735D01*
X184572891Y-96624171D01*
X184668145Y-96854703D01*
X184844369Y-97031235D01*
X185074735Y-97126891D01*
X185324171Y-97127109D01*
X185554703Y-97031855D01*
X185731235Y-96855631D01*
X185826891Y-96625265D01*
X185827109Y-96375829D01*
X185752000Y-96194052D01*
X185752000Y-94700000D01*
X185717594Y-94527027D01*
X185717594Y-94527026D01*
X185619612Y-94380387D01*
X184919612Y-93680388D01*
X184772973Y-93582406D01*
X184600000Y-93548000D01*
X176900000Y-93548000D01*
X176727027Y-93582406D01*
X176580388Y-93680388D01*
X175780388Y-94480388D01*
X175682406Y-94627027D01*
X175648000Y-94800000D01*
X175379606Y-94800000D01*
X177052606Y-93127000D01*
X190000000Y-93127000D01*
X190049410Y-93116994D01*
X190089803Y-93089803D01*
X191089803Y-92089803D01*
X191117666Y-92047789D01*
X191127000Y-92000000D01*
X191127000Y-88052000D01*
X193523974Y-88052000D01*
X193687650Y-88215961D01*
X193954756Y-88326874D01*
X194243975Y-88327126D01*
X194511275Y-88216680D01*
X194715961Y-88012350D01*
X194826874Y-87745244D01*
X194827126Y-87456025D01*
X194716680Y-87188725D01*
X194512350Y-86984039D01*
X194245244Y-86873126D01*
X193956025Y-86872874D01*
X193688725Y-86983320D01*
X193523758Y-87148000D01*
X191127000Y-87148000D01*
X191127000Y-84000000D01*
X191116994Y-83950590D01*
X191089803Y-83910197D01*
X190089803Y-82910197D01*
X190047789Y-82882334D01*
X190000000Y-82873000D01*
X184652000Y-82873000D01*
X184652000Y-81334728D01*
X184731235Y-81255631D01*
X184826891Y-81025265D01*
X184827109Y-80775829D01*
X184731855Y-80545297D01*
X184555631Y-80368765D01*
X184325265Y-80273109D01*
X184075829Y-80272891D01*
X183845297Y-80368145D01*
X183668765Y-80544369D01*
X183573109Y-80774735D01*
X183572891Y-81024171D01*
X183668145Y-81254703D01*
X183748000Y-81334698D01*
X183748000Y-82408776D01*
X182152000Y-80812776D01*
X182152000Y-80144181D01*
X187472891Y-80144181D01*
X187568145Y-80374713D01*
X187744369Y-80551245D01*
X187974735Y-80646901D01*
X188087766Y-80647000D01*
X189378492Y-81937726D01*
X189468145Y-82154703D01*
X189644369Y-82331235D01*
X189874735Y-82426891D01*
X190124171Y-82427109D01*
X190354703Y-82331855D01*
X190531235Y-82155631D01*
X190626891Y-81925265D01*
X190627109Y-81675829D01*
X190531855Y-81445297D01*
X190355631Y-81268765D01*
X190125265Y-81173109D01*
X189892119Y-81172905D01*
X188727011Y-80007797D01*
X188727077Y-79932258D01*
X192607481Y-79932258D01*
X192619924Y-79998116D01*
X192873533Y-80466862D01*
X193287218Y-80802875D01*
X193798000Y-80955000D01*
X194073000Y-80955000D01*
X194073000Y-79722000D01*
X194327000Y-79722000D01*
X194327000Y-80955000D01*
X194602000Y-80955000D01*
X195112782Y-80802875D01*
X195526467Y-80466862D01*
X195747310Y-80058677D01*
X196531365Y-80058677D01*
X196533505Y-80090714D01*
X196754598Y-80510796D01*
X197119620Y-80814293D01*
X197573000Y-80955000D01*
X197898000Y-80955000D01*
X197898000Y-79872000D01*
X196656450Y-79872000D01*
X196531365Y-80058677D01*
X195747310Y-80058677D01*
X195780076Y-79998116D01*
X195792519Y-79932258D01*
X195669518Y-79722000D01*
X194327000Y-79722000D01*
X194073000Y-79722000D01*
X192730482Y-79722000D01*
X192607481Y-79932258D01*
X188727077Y-79932258D01*
X188727109Y-79895839D01*
X188631855Y-79665307D01*
X188455631Y-79488775D01*
X188225265Y-79393119D01*
X187975829Y-79392901D01*
X187745297Y-79488155D01*
X187568765Y-79664379D01*
X187473109Y-79894745D01*
X187472891Y-80144181D01*
X182152000Y-80144181D01*
X182152000Y-79257742D01*
X192607481Y-79257742D01*
X192730482Y-79468000D01*
X194073000Y-79468000D01*
X194073000Y-78235000D01*
X194327000Y-78235000D01*
X194327000Y-79468000D01*
X195669518Y-79468000D01*
X195690974Y-79431323D01*
X196531365Y-79431323D01*
X196656450Y-79618000D01*
X197898000Y-79618000D01*
X197898000Y-78535000D01*
X197573000Y-78535000D01*
X197119620Y-78675707D01*
X196754598Y-78979204D01*
X196533505Y-79399286D01*
X196531365Y-79431323D01*
X195690974Y-79431323D01*
X195792519Y-79257742D01*
X195780076Y-79191884D01*
X195666325Y-78981638D01*
X195865961Y-78782350D01*
X195976874Y-78515244D01*
X195977126Y-78226025D01*
X195866680Y-77958725D01*
X195662350Y-77754039D01*
X195395244Y-77643126D01*
X195106025Y-77642874D01*
X194838725Y-77753320D01*
X194634039Y-77957650D01*
X194523126Y-78224756D01*
X194523117Y-78235000D01*
X194327000Y-78235000D01*
X194073000Y-78235000D01*
X193798000Y-78235000D01*
X193287218Y-78387125D01*
X192873533Y-78723138D01*
X192619924Y-79191884D01*
X192607481Y-79257742D01*
X182152000Y-79257742D01*
X182152000Y-73287224D01*
X182887225Y-72552000D01*
X186184390Y-72552000D01*
X186268145Y-72754703D01*
X186444369Y-72931235D01*
X186674735Y-73026891D01*
X186924171Y-73027109D01*
X187154703Y-72931855D01*
X187331235Y-72755631D01*
X187426891Y-72525265D01*
X187426928Y-72482258D01*
X192607481Y-72482258D01*
X192619924Y-72548116D01*
X192873533Y-73016862D01*
X193287218Y-73352875D01*
X193798000Y-73505000D01*
X194073000Y-73505000D01*
X194073000Y-72272000D01*
X194327000Y-72272000D01*
X194327000Y-73505000D01*
X194522882Y-73505000D01*
X194522874Y-73513975D01*
X194633320Y-73781275D01*
X194837650Y-73985961D01*
X195104756Y-74096874D01*
X195393975Y-74097126D01*
X195661275Y-73986680D01*
X195865961Y-73782350D01*
X195976874Y-73515244D01*
X195977126Y-73226025D01*
X195866680Y-72958725D01*
X195666445Y-72758141D01*
X195780076Y-72548116D01*
X195792519Y-72482258D01*
X195690975Y-72308677D01*
X196531365Y-72308677D01*
X196533505Y-72340714D01*
X196754598Y-72760796D01*
X197119620Y-73064293D01*
X197573000Y-73205000D01*
X197898000Y-73205000D01*
X197898000Y-72122000D01*
X196656450Y-72122000D01*
X196531365Y-72308677D01*
X195690975Y-72308677D01*
X195669518Y-72272000D01*
X194327000Y-72272000D01*
X194073000Y-72272000D01*
X192730482Y-72272000D01*
X192607481Y-72482258D01*
X187426928Y-72482258D01*
X187427109Y-72275829D01*
X187331855Y-72045297D01*
X187155631Y-71868765D01*
X187008671Y-71807742D01*
X192607481Y-71807742D01*
X192730482Y-72018000D01*
X194073000Y-72018000D01*
X194073000Y-70785000D01*
X194327000Y-70785000D01*
X194327000Y-72018000D01*
X195669518Y-72018000D01*
X195792519Y-71807742D01*
X195780076Y-71741884D01*
X195747311Y-71681323D01*
X196531365Y-71681323D01*
X196656450Y-71868000D01*
X197898000Y-71868000D01*
X197898000Y-70785000D01*
X197573000Y-70785000D01*
X197119620Y-70925707D01*
X196754598Y-71229204D01*
X196533505Y-71649286D01*
X196531365Y-71681323D01*
X195747311Y-71681323D01*
X195526467Y-71273138D01*
X195112782Y-70937125D01*
X194602000Y-70785000D01*
X194327000Y-70785000D01*
X194073000Y-70785000D01*
X193798000Y-70785000D01*
X193287218Y-70937125D01*
X192873533Y-71273138D01*
X192619924Y-71741884D01*
X192607481Y-71807742D01*
X187008671Y-71807742D01*
X186925265Y-71773109D01*
X186808566Y-71773007D01*
X186672973Y-71682406D01*
X186500000Y-71648000D01*
X182700000Y-71648000D01*
X182527027Y-71682406D01*
X182380388Y-71780387D01*
X181380388Y-72780388D01*
X181282406Y-72927027D01*
X181248000Y-73100000D01*
X181248000Y-81000000D01*
X181282406Y-81172973D01*
X181380388Y-81319612D01*
X182933776Y-82873000D01*
X182052606Y-82873000D01*
X180127000Y-80947394D01*
X180127000Y-72052606D01*
X182052606Y-70127000D01*
X198873000Y-70127000D01*
X198873000Y-70907899D01*
X198873000Y-70907899D01*
G37*
X198873000Y-70907899D02*
X198477000Y-70785000D01*
X198152000Y-70785000D01*
X198152000Y-71868000D01*
X198172000Y-71868000D01*
X198172000Y-72122000D01*
X198152000Y-72122000D01*
X198152000Y-73205000D01*
X198477000Y-73205000D01*
X198873000Y-73082101D01*
X198873000Y-78657899D01*
X198477000Y-78535000D01*
X198152000Y-78535000D01*
X198152000Y-79618000D01*
X198172000Y-79618000D01*
X198172000Y-79872000D01*
X198152000Y-79872000D01*
X198152000Y-80955000D01*
X198477000Y-80955000D01*
X198873000Y-80832101D01*
X198873000Y-106873000D01*
X177052606Y-106873000D01*
X175127000Y-104947394D01*
X175127000Y-95052606D01*
X175379606Y-94800000D01*
X175648000Y-94800000D01*
X175648000Y-99800000D01*
X175682406Y-99972973D01*
X175780388Y-100119612D01*
X176780388Y-101119613D01*
X176927027Y-101217594D01*
X177100000Y-101252000D01*
X178565272Y-101252000D01*
X178644369Y-101331235D01*
X178874735Y-101426891D01*
X179124171Y-101427109D01*
X179354703Y-101331855D01*
X179531235Y-101155631D01*
X179626891Y-100925265D01*
X179627109Y-100675829D01*
X179536568Y-100456702D01*
X183145075Y-100456702D01*
X183150860Y-100646442D01*
X183487930Y-100748128D01*
X183838257Y-100713083D01*
X183999140Y-100646442D01*
X184004925Y-100456702D01*
X184345075Y-100456702D01*
X184350860Y-100646442D01*
X184687930Y-100748128D01*
X185038257Y-100713083D01*
X185199140Y-100646442D01*
X185204925Y-100456702D01*
X185173223Y-100425000D01*
X192626594Y-100425000D01*
X192626594Y-102625000D01*
X192649395Y-102746179D01*
X192721012Y-102857474D01*
X192830286Y-102932138D01*
X192960000Y-102958406D01*
X195660000Y-102958406D01*
X195781179Y-102935605D01*
X195892474Y-102863988D01*
X195967138Y-102754714D01*
X195993406Y-102625000D01*
X195993406Y-100425000D01*
X195970605Y-100303821D01*
X195898988Y-100192526D01*
X195789714Y-100117862D01*
X195660000Y-100091594D01*
X192960000Y-100091594D01*
X192838821Y-100114395D01*
X192727526Y-100186012D01*
X192652862Y-100295286D01*
X192626594Y-100425000D01*
X185173223Y-100425000D01*
X184775000Y-100026777D01*
X184345075Y-100456702D01*
X184004925Y-100456702D01*
X183575000Y-100026777D01*
X183145075Y-100456702D01*
X179536568Y-100456702D01*
X179531855Y-100445297D01*
X179355631Y-100268765D01*
X179125265Y-100173109D01*
X178875829Y-100172891D01*
X178645297Y-100268145D01*
X178565302Y-100348000D01*
X177287225Y-100348000D01*
X176702155Y-99762930D01*
X182676872Y-99762930D01*
X182711917Y-100113257D01*
X182778558Y-100274140D01*
X182968298Y-100279925D01*
X183398223Y-99850000D01*
X182968298Y-99420075D01*
X182778558Y-99425860D01*
X182676872Y-99762930D01*
X176702155Y-99762930D01*
X176552000Y-99612776D01*
X176552000Y-99243298D01*
X183145075Y-99243298D01*
X183151777Y-99250000D01*
X183145075Y-99256702D01*
X183150860Y-99446442D01*
X183310037Y-99494462D01*
X183311917Y-99513257D01*
X183378558Y-99674140D01*
X183568298Y-99679925D01*
X183723678Y-99524545D01*
X183838257Y-99513083D01*
X183968523Y-99459124D01*
X183893299Y-99708478D01*
X183745075Y-99856702D01*
X183750860Y-100046442D01*
X183910037Y-100094462D01*
X183911917Y-100113257D01*
X183978558Y-100274140D01*
X184168298Y-100279925D01*
X184175000Y-100273223D01*
X184181702Y-100279925D01*
X184371442Y-100274140D01*
X184419462Y-100114963D01*
X184438257Y-100113083D01*
X184599140Y-100046442D01*
X184604925Y-99856702D01*
X184598223Y-99850000D01*
X184951777Y-99850000D01*
X185381702Y-100279925D01*
X185571442Y-100274140D01*
X185673128Y-99937070D01*
X185638083Y-99586743D01*
X185571442Y-99425860D01*
X185381702Y-99420075D01*
X184951777Y-99850000D01*
X184598223Y-99850000D01*
X184449545Y-99701322D01*
X184438083Y-99586743D01*
X184384124Y-99456477D01*
X184633478Y-99531701D01*
X184781702Y-99679925D01*
X184971442Y-99674140D01*
X185019462Y-99514963D01*
X185038257Y-99513083D01*
X185199140Y-99446442D01*
X185204925Y-99256702D01*
X185198223Y-99250000D01*
X185204925Y-99243298D01*
X185199140Y-99053558D01*
X185039963Y-99005538D01*
X185038083Y-98986743D01*
X184971442Y-98825860D01*
X184781702Y-98820075D01*
X184626322Y-98975455D01*
X184511743Y-98986917D01*
X184381477Y-99040876D01*
X184456701Y-98791522D01*
X184598223Y-98650000D01*
X184951777Y-98650000D01*
X185381702Y-99079925D01*
X185571442Y-99074140D01*
X185673128Y-98737070D01*
X185638083Y-98386743D01*
X185571442Y-98225860D01*
X185381702Y-98220075D01*
X184951777Y-98650000D01*
X184598223Y-98650000D01*
X184604925Y-98643298D01*
X184599140Y-98453558D01*
X184439963Y-98405538D01*
X184438083Y-98386743D01*
X184371442Y-98225860D01*
X184181702Y-98220075D01*
X184175000Y-98226777D01*
X184168298Y-98220075D01*
X183978558Y-98225860D01*
X183930538Y-98385037D01*
X183911743Y-98386917D01*
X183750860Y-98453558D01*
X183745075Y-98643298D01*
X183900455Y-98798678D01*
X183911917Y-98913257D01*
X183965876Y-99043523D01*
X183716522Y-98968299D01*
X183568298Y-98820075D01*
X183378558Y-98825860D01*
X183330538Y-98985037D01*
X183311743Y-98986917D01*
X183150860Y-99053558D01*
X183145075Y-99243298D01*
X176552000Y-99243298D01*
X176552000Y-98562930D01*
X182676872Y-98562930D01*
X182711917Y-98913257D01*
X182778558Y-99074140D01*
X182968298Y-99079925D01*
X183398223Y-98650000D01*
X182968298Y-98220075D01*
X182778558Y-98225860D01*
X182676872Y-98562930D01*
X176552000Y-98562930D01*
X176552000Y-98043298D01*
X183145075Y-98043298D01*
X183575000Y-98473223D01*
X184004925Y-98043298D01*
X184345075Y-98043298D01*
X184775000Y-98473223D01*
X185137101Y-98111122D01*
X192370825Y-98111122D01*
X192397289Y-98240677D01*
X192725023Y-98836954D01*
X193255995Y-99262424D01*
X193909370Y-99452313D01*
X194183000Y-99295738D01*
X194183000Y-97842000D01*
X194437000Y-97842000D01*
X194437000Y-99295738D01*
X194710630Y-99452313D01*
X195364005Y-99262424D01*
X195894977Y-98836954D01*
X196222711Y-98240677D01*
X196249175Y-98111122D01*
X196131125Y-97842000D01*
X194437000Y-97842000D01*
X194183000Y-97842000D01*
X192488875Y-97842000D01*
X192370825Y-98111122D01*
X185137101Y-98111122D01*
X185204925Y-98043298D01*
X185199140Y-97853558D01*
X184862070Y-97751872D01*
X184511743Y-97786917D01*
X184350860Y-97853558D01*
X184345075Y-98043298D01*
X184004925Y-98043298D01*
X183999140Y-97853558D01*
X183662070Y-97751872D01*
X183311743Y-97786917D01*
X183150860Y-97853558D01*
X183145075Y-98043298D01*
X176552000Y-98043298D01*
X176552000Y-97318878D01*
X192370825Y-97318878D01*
X192488875Y-97588000D01*
X194183000Y-97588000D01*
X194183000Y-96134262D01*
X194437000Y-96134262D01*
X194437000Y-97588000D01*
X196131125Y-97588000D01*
X196249175Y-97318878D01*
X196222711Y-97189323D01*
X195894977Y-96593046D01*
X195364005Y-96167576D01*
X194710630Y-95977687D01*
X194437000Y-96134262D01*
X194183000Y-96134262D01*
X193909370Y-95977687D01*
X193255995Y-96167576D01*
X192725023Y-96593046D01*
X192397289Y-97189323D01*
X192370825Y-97318878D01*
X176552000Y-97318878D01*
X176552000Y-94987224D01*
X177087224Y-94452000D01*
X179324073Y-94452000D01*
X179273109Y-94574735D01*
X179272891Y-94824171D01*
X179368145Y-95054703D01*
X179544369Y-95231235D01*
X179774735Y-95326891D01*
X180024171Y-95327109D01*
X180254703Y-95231855D01*
X180431235Y-95055631D01*
X180526891Y-94825265D01*
X180526990Y-94712235D01*
X180787225Y-94452000D01*
X184412776Y-94452000D01*
X184848000Y-94887225D01*
X184848000Y-95967028D01*
X184845297Y-95968145D01*
X184668765Y-96144369D01*
X184573109Y-96374735D01*
X184572891Y-96624171D01*
X184668145Y-96854703D01*
X184844369Y-97031235D01*
X185074735Y-97126891D01*
X185324171Y-97127109D01*
X185554703Y-97031855D01*
X185731235Y-96855631D01*
X185826891Y-96625265D01*
X185827109Y-96375829D01*
X185752000Y-96194052D01*
X185752000Y-94700000D01*
X185717594Y-94527027D01*
X185717594Y-94527026D01*
X185619612Y-94380387D01*
X184919612Y-93680388D01*
X184772973Y-93582406D01*
X184600000Y-93548000D01*
X176900000Y-93548000D01*
X176727027Y-93582406D01*
X176580388Y-93680388D01*
X175780388Y-94480388D01*
X175682406Y-94627027D01*
X175648000Y-94800000D01*
X175379606Y-94800000D01*
X177052606Y-93127000D01*
X190000000Y-93127000D01*
X190049410Y-93116994D01*
X190089803Y-93089803D01*
X191089803Y-92089803D01*
X191117666Y-92047789D01*
X191127000Y-92000000D01*
X191127000Y-88052000D01*
X193523974Y-88052000D01*
X193687650Y-88215961D01*
X193954756Y-88326874D01*
X194243975Y-88327126D01*
X194511275Y-88216680D01*
X194715961Y-88012350D01*
X194826874Y-87745244D01*
X194827126Y-87456025D01*
X194716680Y-87188725D01*
X194512350Y-86984039D01*
X194245244Y-86873126D01*
X193956025Y-86872874D01*
X193688725Y-86983320D01*
X193523758Y-87148000D01*
X191127000Y-87148000D01*
X191127000Y-84000000D01*
X191116994Y-83950590D01*
X191089803Y-83910197D01*
X190089803Y-82910197D01*
X190047789Y-82882334D01*
X190000000Y-82873000D01*
X184652000Y-82873000D01*
X184652000Y-81334728D01*
X184731235Y-81255631D01*
X184826891Y-81025265D01*
X184827109Y-80775829D01*
X184731855Y-80545297D01*
X184555631Y-80368765D01*
X184325265Y-80273109D01*
X184075829Y-80272891D01*
X183845297Y-80368145D01*
X183668765Y-80544369D01*
X183573109Y-80774735D01*
X183572891Y-81024171D01*
X183668145Y-81254703D01*
X183748000Y-81334698D01*
X183748000Y-82408776D01*
X182152000Y-80812776D01*
X182152000Y-80144181D01*
X187472891Y-80144181D01*
X187568145Y-80374713D01*
X187744369Y-80551245D01*
X187974735Y-80646901D01*
X188087766Y-80647000D01*
X189378492Y-81937726D01*
X189468145Y-82154703D01*
X189644369Y-82331235D01*
X189874735Y-82426891D01*
X190124171Y-82427109D01*
X190354703Y-82331855D01*
X190531235Y-82155631D01*
X190626891Y-81925265D01*
X190627109Y-81675829D01*
X190531855Y-81445297D01*
X190355631Y-81268765D01*
X190125265Y-81173109D01*
X189892119Y-81172905D01*
X188727011Y-80007797D01*
X188727077Y-79932258D01*
X192607481Y-79932258D01*
X192619924Y-79998116D01*
X192873533Y-80466862D01*
X193287218Y-80802875D01*
X193798000Y-80955000D01*
X194073000Y-80955000D01*
X194073000Y-79722000D01*
X194327000Y-79722000D01*
X194327000Y-80955000D01*
X194602000Y-80955000D01*
X195112782Y-80802875D01*
X195526467Y-80466862D01*
X195747310Y-80058677D01*
X196531365Y-80058677D01*
X196533505Y-80090714D01*
X196754598Y-80510796D01*
X197119620Y-80814293D01*
X197573000Y-80955000D01*
X197898000Y-80955000D01*
X197898000Y-79872000D01*
X196656450Y-79872000D01*
X196531365Y-80058677D01*
X195747310Y-80058677D01*
X195780076Y-79998116D01*
X195792519Y-79932258D01*
X195669518Y-79722000D01*
X194327000Y-79722000D01*
X194073000Y-79722000D01*
X192730482Y-79722000D01*
X192607481Y-79932258D01*
X188727077Y-79932258D01*
X188727109Y-79895839D01*
X188631855Y-79665307D01*
X188455631Y-79488775D01*
X188225265Y-79393119D01*
X187975829Y-79392901D01*
X187745297Y-79488155D01*
X187568765Y-79664379D01*
X187473109Y-79894745D01*
X187472891Y-80144181D01*
X182152000Y-80144181D01*
X182152000Y-79257742D01*
X192607481Y-79257742D01*
X192730482Y-79468000D01*
X194073000Y-79468000D01*
X194073000Y-78235000D01*
X194327000Y-78235000D01*
X194327000Y-79468000D01*
X195669518Y-79468000D01*
X195690974Y-79431323D01*
X196531365Y-79431323D01*
X196656450Y-79618000D01*
X197898000Y-79618000D01*
X197898000Y-78535000D01*
X197573000Y-78535000D01*
X197119620Y-78675707D01*
X196754598Y-78979204D01*
X196533505Y-79399286D01*
X196531365Y-79431323D01*
X195690974Y-79431323D01*
X195792519Y-79257742D01*
X195780076Y-79191884D01*
X195666325Y-78981638D01*
X195865961Y-78782350D01*
X195976874Y-78515244D01*
X195977126Y-78226025D01*
X195866680Y-77958725D01*
X195662350Y-77754039D01*
X195395244Y-77643126D01*
X195106025Y-77642874D01*
X194838725Y-77753320D01*
X194634039Y-77957650D01*
X194523126Y-78224756D01*
X194523117Y-78235000D01*
X194327000Y-78235000D01*
X194073000Y-78235000D01*
X193798000Y-78235000D01*
X193287218Y-78387125D01*
X192873533Y-78723138D01*
X192619924Y-79191884D01*
X192607481Y-79257742D01*
X182152000Y-79257742D01*
X182152000Y-73287224D01*
X182887225Y-72552000D01*
X186184390Y-72552000D01*
X186268145Y-72754703D01*
X186444369Y-72931235D01*
X186674735Y-73026891D01*
X186924171Y-73027109D01*
X187154703Y-72931855D01*
X187331235Y-72755631D01*
X187426891Y-72525265D01*
X187426928Y-72482258D01*
X192607481Y-72482258D01*
X192619924Y-72548116D01*
X192873533Y-73016862D01*
X193287218Y-73352875D01*
X193798000Y-73505000D01*
X194073000Y-73505000D01*
X194073000Y-72272000D01*
X194327000Y-72272000D01*
X194327000Y-73505000D01*
X194522882Y-73505000D01*
X194522874Y-73513975D01*
X194633320Y-73781275D01*
X194837650Y-73985961D01*
X195104756Y-74096874D01*
X195393975Y-74097126D01*
X195661275Y-73986680D01*
X195865961Y-73782350D01*
X195976874Y-73515244D01*
X195977126Y-73226025D01*
X195866680Y-72958725D01*
X195666445Y-72758141D01*
X195780076Y-72548116D01*
X195792519Y-72482258D01*
X195690975Y-72308677D01*
X196531365Y-72308677D01*
X196533505Y-72340714D01*
X196754598Y-72760796D01*
X197119620Y-73064293D01*
X197573000Y-73205000D01*
X197898000Y-73205000D01*
X197898000Y-72122000D01*
X196656450Y-72122000D01*
X196531365Y-72308677D01*
X195690975Y-72308677D01*
X195669518Y-72272000D01*
X194327000Y-72272000D01*
X194073000Y-72272000D01*
X192730482Y-72272000D01*
X192607481Y-72482258D01*
X187426928Y-72482258D01*
X187427109Y-72275829D01*
X187331855Y-72045297D01*
X187155631Y-71868765D01*
X187008671Y-71807742D01*
X192607481Y-71807742D01*
X192730482Y-72018000D01*
X194073000Y-72018000D01*
X194073000Y-70785000D01*
X194327000Y-70785000D01*
X194327000Y-72018000D01*
X195669518Y-72018000D01*
X195792519Y-71807742D01*
X195780076Y-71741884D01*
X195747311Y-71681323D01*
X196531365Y-71681323D01*
X196656450Y-71868000D01*
X197898000Y-71868000D01*
X197898000Y-70785000D01*
X197573000Y-70785000D01*
X197119620Y-70925707D01*
X196754598Y-71229204D01*
X196533505Y-71649286D01*
X196531365Y-71681323D01*
X195747311Y-71681323D01*
X195526467Y-71273138D01*
X195112782Y-70937125D01*
X194602000Y-70785000D01*
X194327000Y-70785000D01*
X194073000Y-70785000D01*
X193798000Y-70785000D01*
X193287218Y-70937125D01*
X192873533Y-71273138D01*
X192619924Y-71741884D01*
X192607481Y-71807742D01*
X187008671Y-71807742D01*
X186925265Y-71773109D01*
X186808566Y-71773007D01*
X186672973Y-71682406D01*
X186500000Y-71648000D01*
X182700000Y-71648000D01*
X182527027Y-71682406D01*
X182380388Y-71780387D01*
X181380388Y-72780388D01*
X181282406Y-72927027D01*
X181248000Y-73100000D01*
X181248000Y-81000000D01*
X181282406Y-81172973D01*
X181380388Y-81319612D01*
X182933776Y-82873000D01*
X182052606Y-82873000D01*
X180127000Y-80947394D01*
X180127000Y-72052606D01*
X182052606Y-70127000D01*
X198873000Y-70127000D01*
X198873000Y-70907899D01*
G36*
X184181702Y-99079925D02*
X184350213Y-99074787D01*
X184345075Y-99243298D01*
X184351777Y-99250000D01*
X184345075Y-99256702D01*
X184350213Y-99425213D01*
X184181702Y-99420075D01*
X184175000Y-99426777D01*
X184168298Y-99420075D01*
X183999787Y-99425213D01*
X184004925Y-99256702D01*
X183998223Y-99250000D01*
X184004925Y-99243298D01*
X183999787Y-99074787D01*
X184168298Y-99079925D01*
X184175000Y-99073223D01*
X184181702Y-99079925D01*
X184181702Y-99079925D01*
G37*
X184181702Y-99079925D02*
X184350213Y-99074787D01*
X184345075Y-99243298D01*
X184351777Y-99250000D01*
X184345075Y-99256702D01*
X184350213Y-99425213D01*
X184181702Y-99420075D01*
X184175000Y-99426777D01*
X184168298Y-99420075D01*
X183999787Y-99425213D01*
X184004925Y-99256702D01*
X183998223Y-99250000D01*
X184004925Y-99243298D01*
X183999787Y-99074787D01*
X184168298Y-99079925D01*
X184175000Y-99073223D01*
X184181702Y-99079925D01*
M02*
